<svg viewBox="0 0 90 90" xmlns="http://www.w3.org/2000/svg"><g fill="none" fill-rule="evenodd"><path fill="#454545" d="M0 0h90v90H0z"/><g fill="#FFF" fill-rule="nonzero"><path d="M66.497 32.593h-.037l-14.356-8.407-14.171 8.295L23.392 24 8 33.002v16.367l29.711 17.408 14.208-8.258L66.497 67 82 57.998V41.631l-15.503-9.038Zm-.074 16.776L54.25 42.264l12.284-7.216 12.173 7.179-12.284 7.142ZM37.6 34.936l12.284 7.142-12.136 7.105-12.247-7.18L37.6 34.936Zm26.714-1.116-12.025 7.03-12.247-7.142 12.062-7.067 12.21 7.18Zm-28.675-.223-2.479 1.45-10.027 5.692-11.951-7.142 12.247-7.142 12.21 7.142Zm-25.493 1.785 12.025 7.291v12.87l-12.025-7.365V35.382Zm14.43 8.556 12.025 7.179V63.95l-12.025-7.18V43.939Zm28.601.149 12.247 7.253v12.721l-12.247-7.327V44.087Z"/><path d="m24.576 56.808 12.025 7.105V51.117l-12.025-7.18v12.871Zm-14.43-8.667 12.025 7.365V42.673l-12.025-7.29V48.14Zm43.031 8.63 12.247 7.328V51.34l-12.247-7.253V56.77Z" opacity=".5"/><path d="M66.497 32.593h-.037l-14.356-8.407-14.171 8.295L23.392 24 8 33.002v16.367l29.711 17.408 14.208-8.258L66.497 67 82 57.998V41.631l-15.503-9.038Zm-.074 16.776L54.25 42.264l12.284-7.216 12.173 7.179-12.284 7.142ZM37.6 34.936l12.284 7.142-12.136 7.105-12.247-7.18L37.6 34.936Zm26.714-1.116-12.025 7.03-12.247-7.142 12.062-7.067 12.21 7.18Zm-28.675-.223-2.479 1.45-10.027 5.692-11.951-7.142 12.247-7.142 12.21 7.142Zm-25.493 1.785 12.025 7.291v12.87l-12.025-7.365V35.382Zm14.43 8.556 12.025 7.179V63.95l-12.025-7.18V43.939Zm28.601.149 12.247 7.253v12.721l-12.247-7.327V44.087Z"/><path d="m24.576 56.808 12.025 7.105V51.117l-12.025-7.18v12.871Zm-14.43-8.667 12.025 7.365V42.673l-12.025-7.29V48.14Zm43.031 8.63 12.247 7.328V51.34l-12.247-7.253V56.77Z" opacity=".5"/></g></g></svg>