<svg xmlns="http://www.w3.org/2000/svg" width="90" height="90" viewBox="0 0 90 90"><g fill="none" fill-rule="evenodd"><rect width="90" height="90" fill="#FFF" opacity="0"/><path fill="#FC0" d="M49.4372167,69.327 C57.9009858,69.327 63.3183421,65.907 69.2207671,60.4395 L77,68.256 C70.9887746,74.466 64.487947,78.75 54.9860402,79.992 L54.9860402,90 L43.0723897,90 L43.0723897,79.8885 C26.0723178,77.1525 14,62.8335 14,45.1935 L14,45 C14,27.63 25.7051162,13.0815 43.0723897,10.17 L43.0723897,0 L54.9860402,0 L54.9860402,9.936 C64.5332806,11.0205 70.9162409,14.976 76.5058646,20.2815 L68.731165,29.169 C63.2186083,24.0885 57.31165,20.673 49.4372167,20.673 C36.2451608,20.673 26.6979204,31.419 26.6979204,44.8065 L26.6979204,45 C26.6979204,58.3875 36.2451608,69.327 49.4372167,69.327 Z"/></g></svg>