<svg viewBox="0 0 90 90" xmlns="http://www.w3.org/2000/svg" xmlns:xlink="http://www.w3.org/1999/xlink"><defs><path d="M7.935 61.778V37.723H1.68a1.68 1.68 0 0 1-1.198-2.858L34.143.628a2.1 2.1 0 0 1 2.97-.026l.021.022 17.569 17.783v-3.293a1.4 1.4 0 0 1 1.4-1.4h5.833a1.4 1.4 0 0 1 1.4 1.4v12.084l7.483 7.672a1.68 1.68 0 0 1-1.203 2.853h-6.28v24.055a1.4 1.4 0 0 1-1.4 1.4h-52.6a1.4 1.4 0 0 1-1.4-1.4Zm37.151-29.387c.174-.364.264-.763.263-1.167a2.703 2.703 0 0 0-2.698-2.708 2.703 2.703 0 0 0-2.698 2.708 2.703 2.703 0 0 0 2.698 2.708c.417 0 .811-.095 1.163-.264l3.874 3.887v3.765l-4.857 4.874v-3.57a2.708 2.708 0 0 0 1.799-2.555 2.703 2.703 0 0 0-2.698-2.707 2.703 2.703 0 0 0-2.699 2.707c0 1.18.751 2.182 1.8 2.554V48l-4.498 4.513v-26.51l3.694-3.707c.363.174.76.265 1.163.264a2.703 2.703 0 0 0 2.698-2.708 2.703 2.703 0 0 0-2.698-2.708 2.703 2.703 0 0 0-2.698 2.708c0 .418.094.814.263 1.168l-3.321 3.332-3.32-3.332c.173-.365.263-.764.262-1.168a2.703 2.703 0 0 0-2.698-2.708 2.703 2.703 0 0 0-2.698 2.708 2.703 2.703 0 0 0 2.698 2.708c.417 0 .811-.095 1.163-.264l3.694 3.707V44.93l-6.476-6.5v-5.195a2.708 2.708 0 0 0 1.799-2.554 2.703 2.703 0 0 0-2.698-2.707 2.703 2.703 0 0 0-2.698 2.707c0 1.18.75 2.182 1.798 2.554v3.39l-5.036-5.054v-5.015a2.708 2.708 0 0 0 1.799-2.554 2.703 2.703 0 0 0-2.698-2.708 2.703 2.703 0 0 0-2.699 2.708c0 1.18.751 2.182 1.8 2.554v5.763l5.563 5.583h-3.199a2.7 2.7 0 0 0-2.545-1.805 2.703 2.703 0 0 0-2.698 2.708 2.703 2.703 0 0 0 2.698 2.708 2.7 2.7 0 0 0 2.545-1.806h4.997l7.748 7.775v13.514L30.6 56.845v-5.196a2.708 2.708 0 0 0 1.798-2.554 2.703 2.703 0 0 0-2.698-2.707 2.703 2.703 0 0 0-2.698 2.707c0 1.18.75 2.182 1.799 2.554v3.39L22.78 49c.175-.364.264-.763.264-1.167a2.703 2.703 0 0 0-2.698-2.708 2.703 2.703 0 0 0-2.698 2.708 2.703 2.703 0 0 0 2.698 2.708c.416 0 .81-.095 1.163-.264l6.019 6.04H24.33a2.7 2.7 0 0 0-2.544-1.805 2.703 2.703 0 0 0-2.698 2.708 2.703 2.703 0 0 0 2.698 2.708 2.7 2.7 0 0 0 2.544-1.806h4.998l5.036 5.055h2.544l5.216-5.235h4.818a2.7 2.7 0 0 0 2.544 1.805 2.703 2.703 0 0 0 2.698-2.708 2.703 2.703 0 0 0-2.698-2.708 2.7 2.7 0 0 0-2.544 1.806h-5.563l-4.844 4.86v-5.93l5.77-5.79h9.314a2.7 2.7 0 0 0 2.544 1.805 2.703 2.703 0 0 0 2.698-2.707 2.703 2.703 0 0 0-2.698-2.708 2.7 2.7 0 0 0-2.544 1.805h-7.516l5.383-5.403v-4.513l3.873-3.887c.363.174.76.265 1.164.264a2.703 2.703 0 0 0 2.698-2.708 2.703 2.703 0 0 0-2.698-2.708 2.703 2.703 0 0 0-2.699 2.708c0 .418.095.814.263 1.168l-2.6 2.61v-8.265a2.708 2.708 0 0 0 1.798-2.553 2.703 2.703 0 0 0-2.698-2.708 2.703 2.703 0 0 0-2.699 2.708c0 1.179.751 2.182 1.8 2.553v8.265l-2.602-2.61Zm-23.3 25.91a1.082 1.082 0 0 1 0-2.165c.596 0 1.079.485 1.079 1.083s-.483 1.083-1.08 1.083Zm7.914-8.123c-.596 0-1.08-.484-1.08-1.083 0-.598.484-1.083 1.08-1.083.596 0 1.08.485 1.08 1.083 0 .599-.484 1.083-1.08 1.083Zm-9.353-1.263c-.596 0-1.08-.485-1.08-1.083s.484-1.083 1.08-1.083c.596 0 1.08.485 1.08 1.083s-.484 1.083-1.08 1.083Zm-.9-9.026c-.596 0-1.079-.485-1.079-1.083s.483-1.083 1.08-1.083c.596 0 1.079.485 1.079 1.083s-.483 1.083-1.08 1.083Zm22.485 1.264c-.596 0-1.08-.485-1.08-1.084 0-.598.484-1.083 1.08-1.083.596 0 1.079.485 1.079 1.083 0 .599-.483 1.084-1.08 1.084Zm12.23 8.303a1.08 1.08 0 0 1-1.078-1.083c0-.598.483-1.083 1.079-1.083s1.08.485 1.08 1.083c0 .599-.484 1.083-1.08 1.083Zm-4.676 8.665c-.596 0-1.079-.485-1.079-1.083s.483-1.083 1.08-1.083c.595 0 1.079.485 1.079 1.083s-.484 1.083-1.08 1.083Zm5.037-25.814c-.596 0-1.08-.485-1.08-1.083s.484-1.083 1.08-1.083c.596 0 1.079.485 1.079 1.083s-.483 1.083-1.08 1.083Zm-5.936-7.04c-.596 0-1.08-.485-1.08-1.083 0-.599.484-1.084 1.08-1.084.596 0 1.08.485 1.08 1.084 0 .598-.484 1.083-1.08 1.083Zm-7.195-4.333c-.596 0-1.08-.485-1.08-1.083s.484-1.083 1.08-1.083c.596 0 1.08.485 1.08 1.083s-.484 1.083-1.08 1.083Zm-11.512 0c-.596 0-1.08-.485-1.08-1.083s.484-1.083 1.08-1.083c.596 0 1.08.485 1.08 1.083s-.484 1.083-1.08 1.083Zm-9.353 4.152c-.596 0-1.08-.485-1.08-1.083s.484-1.083 1.08-1.083c.596 0 1.079.485 1.079 1.083s-.483 1.083-1.08 1.083Zm6.835 6.68c-.596 0-1.08-.485-1.08-1.084 0-.598.484-1.083 1.08-1.083.596 0 1.08.485 1.08 1.083 0 .599-.484 1.084-1.08 1.084Zm15.289.541c-.596 0-1.08-.485-1.08-1.083s.484-1.083 1.08-1.083c.596 0 1.08.485 1.08 1.083s-.484 1.083-1.08 1.083Z" id="a"/></defs><g fill="none" fill-rule="evenodd"><path fill="#41BDF5" fill-rule="nonzero" d="M0 0h90v90H0z"/><g transform="translate(9.352 12.602)"><mask id="b" fill="#fff"><use xlink:href="#a"/></mask><g mask="url(#b)" fill="#FFF" fill-rule="nonzero"><path d="M.008-.002h71.28v63.18H.008z"/></g></g></g></svg>