<svg viewBox="0 0 90 90" xmlns="http://www.w3.org/2000/svg"><g fill="none" fill-rule="evenodd"><path fill="#1E1E1E" d="M0 0h90v90H0z"/><circle stroke="#FFF" stroke-width="3.5" cx="49" cy="42" r="28.25"/><path d="M.606 30.24c11.578-1.033 19.32 2.29 23.227 9.97 4.41-4.374 10.863-7.07 19.363-8.088 1.076-5.803-1.656-9.41-8.196-10.82 9.588-1.372 17.25 1.94 22.983 9.933 11.648.59 22.32 5.993 32.017 16.21-12.121 9.617-23.778 14.456-34.97 14.517-2.753 8.77-7.005 14.449-12.757 17.038.969-9.313-.145-15.604-3.342-18.874-5.651-1.241-10.9-3.665-15.75-7.27C17.728 60.367 10 63.372 0 61.87c7.879-1.803 10.91-6.16 9.09-13.073 1.82-.901 2.728-1.803 2.728-2.704 0-.902-.757-1.653-2.273-2.254 1.516-7.262-1.464-11.796-8.939-13.6Z" fill="#FF8C00"/><path d="M55.632 37.664c.148.24.09.552-.135.721-2.363 1.786-3.545 3.428-3.545 4.927 0 1.461.404 3.017 1.211 4.67a.365.365 0 0 1-.245.515.739.739 0 0 1-.753-.27c-1.281-1.672-1.922-3.415-1.922-5.23 0-1.867 1.561-3.703 4.684-5.51a.522.522 0 0 1 .705.177Zm-4.043-1.16a.648.648 0 0 1-.086.872c-2.26 2.017-3.39 3.768-3.39 5.254 0 1.451.447 3.162 1.34 5.132a.498.498 0 0 1-.326.686.917.917 0 0 1-.967-.332c-1.279-1.69-1.864-3.624-1.755-5.803.113-2.25 1.544-4.242 4.295-5.973a.668.668 0 0 1 .889.163Z" fill="#8A4C00"/><path d="M58.398 44.71c2.636-.442 23.032-.442 25.271-.253 1.494.127 2.842.908 4.045 2.343C75.92 58.096 65.318 62.218 55.91 59.166c-1.408-2.583-.146-14.016 2.49-14.457Z" fill="#FFA217"/><path d="M61.224 45.643c3.01 5.961 6.818 9.426 11.423 10.395-1.452 2.114-5.143 2.976-11.072 2.585-.755-4.645-.872-8.972-.35-12.98Z" fill="#FFF"/><g transform="translate(64.545 36.177)"><ellipse fill="#FFF" cx="3.409" cy="3.381" rx="3.409" ry="3.381"/><path d="M4.407 6.198A2.263 2.263 0 0 0 6.68 3.944 2.263 2.263 0 0 0 4.407 1.69c-.572 0-.061 1.356-.46 1.702-.477.413-1.812-.125-1.812.552a2.263 2.263 0 0 0 2.272 2.254Z" fill="#000"/></g></g></svg>