<svg viewBox="0 0 90 90" xmlns="http://www.w3.org/2000/svg"><defs><linearGradient x1="11.356%" y1="90.132%" x2="50%" y2="24.766%" id="a"><stop stop-color="#7C2DD4" offset="0%"/><stop stop-color="#3A216F" offset="100%"/></linearGradient></defs><path d="M81.761 54H8.253a3.248 3.248 0 0 1-3.178-2.572l-.049-.303-5-41.065a4.062 4.062 0 0 1 6.457-3.721l.287.234 14.86 17.265a4.062 4.062 0 0 0 5.471-.188l.253-.27L42.227 1.426a4.06 4.06 0 0 1 5.922-.278l.253.27L63.557 23.6a4.062 4.062 0 0 0 4.152 1.162L82.6 6.716a4.061 4.061 0 0 1 2.81-1.056l.204.012a4.061 4.061 0 0 1 4.383 4.179l-.025.332-4.985 40.942a3.248 3.248 0 0 1-2.921 2.86L81.76 54H8.253 81.76Z" transform="translate(0 18)" fill="url(#a)"/></svg>