<svg viewBox="0 0 90 90" xmlns="http://www.w3.org/2000/svg"><g fill="none" fill-rule="evenodd"><path fill="#585049" d="M0 0h90v90H0z"/><g fill-rule="nonzero"><path fill="#F18B20" d="M44.872 20.345v15.953"/><path d="M44.987 39.9c-1.792 0-3.327-1.543-3.327-3.344V20.345c0-1.801 1.535-3.345 3.327-3.345 1.79 0 3.326 1.544 3.326 3.345v15.953c.256 2.059-1.28 3.603-3.326 3.603Z" fill="#FC6"/><path fill="#F18B20" d="m20.563 30.637 11.259 11.58"/><path d="M31.822 45.561c-.768 0-1.792-.257-2.303-1.029L18.003 32.953c-1.28-1.286-1.28-3.602 0-4.889 1.28-1.286 3.583-1.286 4.862 0l11.515 11.58c1.28 1.286 1.28 3.602 0 4.888-.767.772-1.535 1.03-2.558 1.03Z" fill="#FC6"/><path fill="#F18B20" d="M10.327 55.34h15.865"/><path d="M26.192 58.684H10.327C8.535 58.684 7 57.14 7 55.34c0-1.801 1.535-3.345 3.327-3.345h15.865c1.791 0 3.327 1.544 3.327 3.345 0 1.801-1.536 3.345-3.327 3.345Z" fill="#FC6"/><path fill="#F18B20" d="M63.808 55.34h15.865"/><path d="M79.673 58.684H63.808c-1.791 0-3.327-1.544-3.327-3.345 0-1.801 1.536-3.345 3.327-3.345h15.865c1.792 0 3.327 1.544 3.327 3.345 0 1.801-1.535 3.345-3.327 3.345Z" fill="#FC6"/><path fill="#F18B20" d="m58.435 41.702 11.003-11.064"/><path d="M58.434 45.304c-.767 0-1.79-.257-2.303-1.03-1.28-1.286-1.28-3.601 0-4.888l11.004-11.064c1.28-1.287 3.582-1.287 4.862 0 1.28 1.286 1.28 3.602 0 4.889L60.993 44.275c-1.023.514-1.791 1.03-2.559 1.03Z" fill="#FC6"/><path d="M51.908 54.31c0 2.058-.767 3.86-2.047 4.889C48.581 60.485 47.046 61 44.999 61c-1.791 0-3.582-.515-4.862-1.801-1.28-1.287-2.047-2.83-2.047-4.89 0-2.058.768-3.859 2.047-5.145 1.28-1.287 3.07-1.801 4.862-1.801 1.791 0 3.327.514 4.862 1.8 1.535 1.287 2.047 2.831 2.047 5.147Z" fill="#FFF"/></g></g></svg>