<svg viewBox="0 0 90 90" xmlns="http://www.w3.org/2000/svg"><g fill="none" fill-rule="evenodd"><path fill="#FF571D" d="M0 0h90v90H0z"/><path d="M75.027 62.4a.324.324 0 0 1-.324.32h-5.872a.311.311 0 0 1-.311-.311v-2.647a.311.311 0 0 0-.543-.207c-2.459 2.892-6.394 3.914-9.34 3.914H15.28a.32.32 0 0 1-.32-.324v-7.42a.3.3 0 0 1 .084-.214l18.387-20.16a.324.324 0 0 0-.24-.538H16.437a.32.32 0 0 1-.324-.324v-7.651a.32.32 0 0 1 .324-.32h29.584a.316.316 0 0 1 .32.32v1.49a.311.311 0 0 1-.118.248c-3.89 3.106-6.495 7.752-7.202 13.312a.328.328 0 0 1-.08.172L27.428 54.648a.32.32 0 0 0 .236.539h15.949c-.223-.379-.42-.766-.627-1.158-.11-.227-.21-.467-.316-.698a14.895 14.895 0 0 1-.311-.737 20.704 20.704 0 0 1-.261-.694c-.11-.312-.21-.64-.303-.964-.05-.172-.11-.34-.156-.513a19.366 19.366 0 0 1-.421-2.067c-.059-.378-.11-.766-.147-1.149 0-.172-.034-.345-.047-.517a20.472 20.472 0 0 1-.075-1.684c0-.56.033-1.262.088-1.856l.088-.77c.026-.227.05-.45.084-.673.064-.421.14-.796.224-1.195l.063-.274a17.612 17.612 0 0 1 6.028-9.97h.029a14.733 14.733 0 0 1 1.372-.98c.421-.262.842-.51 1.263-.741l.24-.118c.42-.202.812-.396 1.237-.568.135-.06.278-.106.421-.156a37.57 37.57 0 0 1 1.166-.42c.21-.068.421-.115.653-.17.345-.088.686-.18 1.04-.243.48-.097.993-.135 1.473-.228h-.013a20.6 20.6 0 0 1 2.185-.122h.03c7.248 0 15.03 3.767 15.995 12.445a.328.328 0 0 1-.324.366h-8.579a.316.316 0 0 1-.311-.27c-.484-2.87-3.305-4.595-6.967-4.595-5.96 0-8.246 5.214-8.246 10.521s2.286 10.522 8.246 10.522c4.382 0 7.35-1.966 8.065-4.97a.324.324 0 0 0-.32-.392h-5.733a.324.324 0 0 1-.32-.324v-6.2a.32.32 0 0 1 .32-.323h14.257c.18 0 .324.145.324.324V62.4Z" fill="#FFF" fill-rule="nonzero"/></g></svg>