<svg viewBox="0 0 90 90" xmlns="http://www.w3.org/2000/svg"><path d="M89.984 40.309c.278 18.566-3.008 32.088-9.856 40.566l-1.121.583-1.107.564-.549.274-1.09.535c-8.143 3.937-15.625 6.241-27.316 6.954l-1.11.063-1.077.052-.526.022-1.027.036-.501.014-.979.019c-.48.007-.95.01-1.406.009l-.896-.009-.864-.019-.83-.03-.798-.04-.766-.052a38.177 38.177 0 0 1-1.086-.098l-.683-.08a24.326 24.326 0 0 1-1.854-.302l-.552-.123c-1.071-.257-1.946-.58-2.624-.967l.412-.185.79-.364.746-.356.7-.348c2.036-1.03 3.466-1.954 4.291-2.768l.367.299.232.177.265.19.297.202.33.208c1.506.913 3.953 1.927 7.444 1.797l.388-.02.405-.03.423-.044.44-.055.456-.068.472-.081.488-.096.25-.053.51-.117.523-.133c.177-.047.356-.096.537-.149l.55-.165c.093-.028.186-.058.28-.088l.568-.19.58-.209.591-.226a31.23 31.23 0 0 0 1.522-.65l.625-.294c.21-.101.421-.206.634-.315l.642-.336c.215-.115.431-.234.649-.357l.656-.38c3.956-2.348 8.256-5.923 12.37-11.243 6.17-7.98 12.232-18.487 18.185-31.524ZM41.298 0l2.892.003 1.218.006 1.122.012 1.042.02.658.018.942.037.605.032.59.037.583.045.577.052.577.06.582.067.59.077.603.087.62.097.642.107.669.119 1.062.2 1.145.229 1.245.259 2.335.504 2.72.602c.317.07.648.15.99.238l.7.186.36.1.735.214.753.229.765.242.773.253 1.162.395.768.271 1.132.411.733.275 1.054.405.665.264.93.38.83.352.491.217.435.2.373.18.307.159c1.879 1.015 3.283 2.21 4.635 5.138l.248.557.424 1.005.476 1.178.39.998.713 1.88.467 1.257 1.02 2.809.552 1.55c-4.765 1.456-7.979 3.488-9.64 6.098L73.11 40.326l-1.999 4.547-1.522 3.43-1.252 2.793-.976 2.15-.94 2.047-.894 1.913-.426.897-.608 1.263-.383.78-.364.728-.342.672-.32.61-.297.548-.271.48-.227.389-.454.765-.227.375-.456.739-.455.72-.455.7-.228.344-.454.67-.453.65-.451.628c-.076.103-.15.205-.226.306l-.448.594c-3.432 4.467-6.652 6.864-8.913 5.73-.942-.47-1.159-2.19-.663-3.407.242-.595.633-1.27 1.124-2.025l.385-.581.418-.611 1.401-2.01.5-.73.51-.758.257-.39.518-.807.521-.83.52-.839.767-1.27.502-.846.733-1.263.473-.83.678-1.22.217-.397.42-.778.396-.752.19-.366.36-.707.333-.671.304-.632.272-.59c.042-.094.084-.186.123-.276l.221-.517.184-.463c.569-1.502-1.62-3.04-4.533-4.072l-.506-.171a21.906 21.906 0 0 0-.781-.238l-.532-.144-.538-.132a23.07 23.07 0 0 0-.814-.174l-.543-.1c-.09-.015-.181-.03-.271-.043l-.54-.078a20.19 20.19 0 0 0-.269-.033l-.532-.055a18.026 18.026 0 0 0-.262-.021l-.518-.03c-1.537-.066-2.913.097-3.85.564l-.209.109c-.629.346-1.557 1.029-2.193 2.548-.297.71-.578 1.543-.866 2.451l-.745 2.401c-.522 1.669-1.113 3.436-1.874 5.083l-.496 1.06-.508 1.067-.696 1.422-.535 1.062-.361.704-.55 1.047-.559 1.031-.376.677-.38.668-.382.657-.384.645-.387.632-.388.618-.39.602-.195.295-.392.576-.393.558a37.06 37.06 0 0 1-.196.272l-.394.528a19.01 19.01 0 0 1-.197.256l-.394.496c-2.23 2.743-4.45 4.368-6.436 3.904-3.6-.842-6.482-5.09-7.272-9.4-.416-2.27-.394-5.764-.065-8.325l.2-1.504.11-.707.111-.629.14-.707.112-.513.127-.543c.046-.186.094-.377.145-.573l.162-.6.088-.31.192-.64a36.41 36.41 0 0 1 .573-1.7l.18-.486.383-1.011.204-.524.43-1.084.227-.558.472-1.147.496-1.187.787-1.845.83-1.913 1.457-3.312 3.72-8.36 1.085-2.46 1.063-2.435a348.839 348.839 0 0 0 1.52-3.56l.644-1.547.618-1.51.785-1.95.741-1.875 2.96-7.63.512-1.294.476-1.17.335-.792.212-.485.303-.662.192-.395.183-.36.176-.32.169-.282c.102-.163.154-.542.154-1.137L41.298 0ZM13.433 6.881 2.466 60.871C-.052 53.552-.642 45.097.697 35.505l.082-.573.172-1.131.09-.558.187-1.1c.096-.545.196-1.082.3-1.611l.21-1.047.218-1.025.226-1.003.233-.98.238-.957.245-.933.249-.91.253-.886.128-.433.258-.849.261-.824.263-.798c.088-.261.176-.519.264-.772l.265-.746.265-.72.264-.691.263-.665.262-.638.258-.609.256-.58.126-.28.25-.538.245-.508.239-.478.233-.448.227-.417.22-.387.21-.355.203-.324.194-.291.093-.134.178-.243.168-.21a3.75 3.75 0 0 1 .23-.252 12.116 12.116 0 0 1 4.21-2.72Z" fill="#FF8217"/></svg>