<svg viewBox="0 0 90 90" xmlns="http://www.w3.org/2000/svg"><path d="M43.84 82.984a47.836 47.836 0 0 1-2.301-.117 46.335 46.335 0 0 1-2.27-.232 44.341 44.341 0 0 1-2.234-.347 42.269 42.269 0 0 1-3.28-.72 46.474 46.474 0 0 1-2.138-.612 47.219 47.219 0 0 1-2.09-.714 44.542 44.542 0 0 1-10.578-5.621 44.817 44.817 0 0 1-4.997-4.162 45.435 45.435 0 0 1-4.355-4.832 43.41 43.41 0 0 1-1.912-2.646 45.596 45.596 0 0 1-3.71-6.703 44.27 44.27 0 0 1-.854-2.037 42.604 42.604 0 0 1-.757-2.084 38.967 38.967 0 0 1-.341-1.06 47.697 47.697 0 0 1-.87-3.247 43.623 43.623 0 0 1-.24-1.104 54.838 54.838 0 0 1-.212-1.112 46.667 46.667 0 0 1-.687-9.21c0-.063.004-.128.006-.193l6.092.188a41.493 41.493 0 0 0 .034 3.2 39.373 39.373 0 0 0 .74 5.891 39.683 39.683 0 0 0 .957 3.762 38.964 38.964 0 0 0 2.088 5.348 39.584 39.584 0 0 0 2.806 4.93c.349.52.713 1.035 1.085 1.54a40.248 40.248 0 0 0 3.666 4.271 38.346 38.346 0 0 0 2.763 2.532 39.34 39.34 0 0 0 4.574 3.281 39.18 39.18 0 0 0 3.306 1.812 39.022 39.022 0 0 0 3.49 1.49 38.213 38.213 0 0 0 7.453 1.93 39.002 39.002 0 0 0 9.903.249 38.339 38.339 0 0 0 5.746-1.034 39.185 39.185 0 0 0 3.655-1.146 38.172 38.172 0 0 0 3.49-1.489 38.2 38.2 0 0 0 3.307-1.812 39.031 39.031 0 0 0 8.625-7.178 39.294 39.294 0 0 0 9.315-18.486 39.926 39.926 0 0 0 .59-3.897 40.008 40.008 0 0 0 .183-5.195l6.092-.188c0 .063.004.13.006.195a46.559 46.559 0 0 1-.688 9.209 45.717 45.717 0 0 1-1.32 5.463 45.212 45.212 0 0 1-3.408 8.14 45.549 45.549 0 0 1-4.163 6.391c-.22.287-.45.57-.678.847a44.647 44.647 0 0 1-2.904 3.224c-.253.255-.515.51-.773.761a46.78 46.78 0 0 1-3.265 2.855 41.69 41.69 0 0 1-1.732 1.307 39.319 39.319 0 0 1-1.794 1.224 43.295 43.295 0 0 1-2.805 1.673 48.389 48.389 0 0 1-1.94 1.002 41.83 41.83 0 0 1-3.01 1.328 43.954 43.954 0 0 1-5.257 1.72 45.485 45.485 0 0 1-3.28.72 57.38 57.38 0 0 1-1.113.188c-.372.06-.748.11-1.122.159-.374.048-.756.094-1.13.13-.375.036-.76.073-1.14.102a44.237 44.237 0 0 1-4.624.116Zm-.411-14.836a30.825 30.825 0 0 1-3.07-.313 30.912 30.912 0 0 1-2.972-.61 29.735 29.735 0 0 1-2.86-.894 30.407 30.407 0 0 1-2.731-1.159 30.55 30.55 0 0 1-10.293-8.118 30.843 30.843 0 0 1-2.545-3.596 31.114 31.114 0 0 1-1.405-2.599c-.213-.44-.421-.9-.608-1.355a39.246 39.246 0 0 1-.545-1.39 31.258 31.258 0 0 1-1.229-4.353 31.034 31.034 0 0 1-.462-3.036 27.429 27.429 0 0 1-.118-1.553 31.505 31.505 0 0 1 .118-4.701 31.175 31.175 0 0 1 .462-3.036 31.293 31.293 0 0 1 .75-2.933 31.083 31.083 0 0 1 1.024-2.81c.192-.457.396-.91.608-1.355a31.513 31.513 0 0 1 2.198-3.84c.272-.406.557-.808.848-1.2.291-.39.595-.787.905-1.163a31.777 31.777 0 0 1 1.965-2.173 30.356 30.356 0 0 1 3.312-2.882 30.735 30.735 0 0 1 3.704-2.386 30.06 30.06 0 0 1 6.904-2.728 30.716 30.716 0 0 1 4.497-.807 30.51 30.51 0 0 1 4.678-.118 30.574 30.574 0 0 1 4.57.582 30.033 30.033 0 0 1 5.715 1.782c.454.193.906.399 1.348.612a30.034 30.034 0 0 1 3.823 2.208 30.24 30.24 0 0 1 3.449 2.723 30.804 30.804 0 0 1 4.776 5.54 30.755 30.755 0 0 1 2.197 3.84c.213.44.421.9.608 1.354.187.455.374.924.545 1.39a31.258 31.258 0 0 1 1.229 4.353 31.034 31.034 0 0 1 .462 3.037c.053.51.093 1.035.117 1.552a31.505 31.505 0 0 1-.118 4.701 29.938 29.938 0 0 1-.801 4.517 29.613 29.613 0 0 1-.889 2.874 30.979 30.979 0 0 1-1.153 2.744 31.513 31.513 0 0 1-2.198 3.84 30.384 30.384 0 0 1-2.71 3.464 30.804 30.804 0 0 1-5.514 4.798 30.561 30.561 0 0 1-3.823 2.208c-.44.214-.896.421-1.348.612-.453.191-.92.376-1.383.548a30.837 30.837 0 0 1-4.333 1.235 30.252 30.252 0 0 1-6.136.621 31.03 31.03 0 0 1-1.567-.04l-.001.013Zm.195-57.344a27.112 27.112 0 0 0-2.692.274 25.238 25.238 0 0 0-2.606.535c-.426.112-.85.231-1.267.362a28.006 28.006 0 0 0-2.452.904 26.304 26.304 0 0 0-3.452 1.775 25.911 25.911 0 0 0-2.13 1.446 27.122 27.122 0 0 0-3.788 3.46 27.003 27.003 0 0 0-1.634 1.987 27.078 27.078 0 0 0-2.67 4.42 27.047 27.047 0 0 0-1.792 4.924 25.058 25.058 0 0 0-.532 2.619 27.248 27.248 0 0 0 .532 10.793 25.979 25.979 0 0 0 .78 2.52 27.165 27.165 0 0 0 1.013 2.405 27.946 27.946 0 0 0 1.232 2.28 26.948 26.948 0 0 0 7.907 8.33 26.4 26.4 0 0 0 3.352 1.935 26.841 26.841 0 0 0 3.635 1.441c.415.132.842.253 1.267.362a25.25 25.25 0 0 0 2.606.535 27.178 27.178 0 0 0 2.691.274 27.14 27.14 0 0 0 4.104-.104 26.963 26.963 0 0 0 2.65-.406c.434-.088.866-.188 1.292-.3a24.833 24.833 0 0 0 2.507-.785 26.304 26.304 0 0 0 4.664-2.256 25.911 25.911 0 0 0 2.13-1.445 26.74 26.74 0 0 0 2.904-2.528 27.182 27.182 0 0 0 3.262-3.97 27.078 27.078 0 0 0 1.926-3.369 27.433 27.433 0 0 0 1.013-2.406 25.593 25.593 0 0 0 .78-2.52 25.058 25.058 0 0 0 .532-2.619 27.248 27.248 0 0 0-.532-10.793 25.979 25.979 0 0 0-.78-2.52 27.389 27.389 0 0 0-1.013-2.406 27.399 27.399 0 0 0-1.926-3.368 27.093 27.093 0 0 0-1.54-2.065c-.272-.33-.552-.658-.838-.974a28.081 28.081 0 0 0-1.811-1.82 26.687 26.687 0 0 0-3.024-2.387 26.4 26.4 0 0 0-3.352-1.936 26.596 26.596 0 0 0-6.194-2.103 27.761 27.761 0 0 0-2.65-.406 26.777 26.777 0 0 0-4.104-.104v.009ZM25.805 37.598c-.012-7.817 4.657-14.872 11.83-17.872a19.107 19.107 0 0 1 20.93 4.169c5.497 5.523 7.145 13.836 4.176 21.06-2.97 7.222-9.972 11.933-17.739 11.933a19.119 19.119 0 0 1-13.568-5.643 19.367 19.367 0 0 1-5.629-13.647Z" fill="#FF8700"/></svg>