<svg viewBox="0 0 90 90" xmlns="http://www.w3.org/2000/svg"><g fill="none" fill-rule="evenodd"><path fill="#1A1A1A" d="M0 0h90v90H0z"/><g fill-rule="nonzero"><path d="M13.038 13h18.736v18.79s0 .038-.039.038H13.038C13 31.79 13 31.79 13 31.751L13.038 13c-.038 0-.038 0 0 0Zm22.567 0H54.38v18.79H35.605zm22.605 0h18.774v18.79H58.21z" fill="gold"/><path fill="#FC0" d="M13 35.586h18.774v18.79H13zm22.605 0H54.38v18.751H35.605zm22.758 0h18.468c.076 0 .153.077.153.153v18.483a.165.165 0 0 1-.153.154H58.363a.165.165 0 0 1-.153-.154V35.74c0-.115.077-.153.153-.153Z"/><path fill="#FFBF00" d="M13 58.21h18.774V77H13zm22.643 0h18.66c.037 0 .037.039.037.039v18.674c0 .039-.038.039-.038.039H35.643c-.038 0-.038-.039-.038-.039V58.25c0-.039.038-.039.038-.039Zm22.605 0h18.66c.037 0 .037.039.037.039v18.674c0 .039-.038.039-.038.039H58.248c-.038 0-.038-.039-.038-.039V58.25c0-.039.038-.039.038-.039Z"/></g></g></svg>