<svg viewBox="0 0 90 90" xmlns="http://www.w3.org/2000/svg"><g fill="none" fill-rule="evenodd"><g fill="#CCC" fill-rule="nonzero"><path d="m66.848 20.141-.047-.094c-.023-.023-.047-.047-.094-.047l-.094.024c-.047.047-.07.07-.07.117L64.54 56.383l.306-.047 1.932-35.255 2.308 3.792h-.024c1.743 5.134 2.473 10.598 2.19 16.391l.142.212 2.285 4.05.14.142c3.51 3.085 7.443 5.158 11.8 6.217l1.06 1.72.142.047.023-.047-20.043-32.783.047-.683"/><path d="M66.142 32.93c2.473 5.063 3.367 12.717 2.708 22.961l9.633-1.177-12.341-21.785Zm21.95 22.255c.99-.118 1.625-.33 1.908-.636l-50.402 6.147h-.023c.023 2.096.965 3.744 2.802 4.922a6.011 6.011 0 0 0 1.484.777c.448-.518.942-.895 1.531-1.248h.024c5.275-3.203 13.118-3.698 23.481-1.508l.118.024a36.07 36.07 0 0 1 3.321.848.917.917 0 0 0 .777-.236c.377-.282.848-.494 1.484-.636v-.023c1.672-2.968 3.933-5.158 6.76-6.594 1.954-.966 4.215-1.602 6.735-1.837m-24.212.918 2.31-35.373c-3.345 12.906-8.715 24.964-16.086 36.15l13.778-.777M50.903 27.607l-.094-.047-.094.023-.047.118-1.908 30.616.283-.024 1.908-30.592-.048-.094m-2.684 30.05 2.025-29.862-10.67 30.781 8.645-.919"/></g><g stroke-linecap="round" stroke-linejoin="round" stroke="#CCC"><path d="M48.642 67.611c-2.661 1.272-4.592 1.484-5.817.707-1.225-.824-3.11-.636-5.653.565M54.884 67.8a6.9 6.9 0 0 0-1.602-.33c-1.154-.094-2.544.353-4.169 1.319-1.625.989-3.58 1.366-5.911 1.154m26.214-4.545c-11.212-2.308-19.29-1.767-24.236 1.648m31.301-.541a5.104 5.104 0 0 0-1.602-.33c-1.153-.094-2.543.353-4.168 1.319-1.625.965-3.58 1.342-5.912 1.154" stroke-width=".5"/><path d="M61.431 27.89c-1.154-.707-2.355-.518-3.603.588-1.084-1.106-2.214-1.295-3.392-.588m4.381-3.957c-1.178-.706-2.332-.424-3.51.848-1.154-1.272-2.33-1.554-3.509-.848" stroke-width=".671"/></g><path d="M1.303 60.807h3.122c.938 0 1.626.267 2.066.8.44.535.582 1.279.428 2.233-.064.392-.176.75-.339 1.078a3.47 3.47 0 0 1-.644.897 2.798 2.798 0 0 1-1.067.7c-.393.14-.896.21-1.509.21H1.97l-.346 2.141H0l1.303-8.06Zm1.417 1.275-.546 3.38h.987c.655 0 1.14-.133 1.456-.401.315-.268.523-.713.624-1.336.097-.6.04-1.025-.169-1.272-.21-.248-.623-.371-1.24-.371H2.72m6.021-3.416h1.612l-.346 2.14h1.433c.902 0 1.528.172 1.876.513.349.342.462.893.34 1.653l-.608 3.754h-1.635l.577-3.573c.066-.406.034-.682-.095-.828-.13-.147-.4-.22-.812-.22H9.797l-.747 4.62H7.44l1.302-8.059m6.668 2.141h3.122c.938 0 1.627.267 2.066.8.44.535.582 1.279.428 2.233a3.76 3.76 0 0 1-.338 1.078 3.478 3.478 0 0 1-.645.897 2.799 2.799 0 0 1-1.066.7c-.393.14-.897.21-1.51.21h-1.39l-.346 2.141h-1.623l1.302-8.06Zm1.418 1.275-.547 3.38h.988c.654 0 1.14-.133 1.455-.401.316-.268.524-.713.625-1.336.097-.6.04-1.025-.17-1.272-.21-.248-.622-.371-1.239-.371h-1.112" fill="#6C78AF" fill-rule="nonzero"/><path d="M23.77 56.953h3.123l1.372 7.494 3.794-7.494h3.111l-1.578 9.766h-2.085l1.401-7.607-3.825 7.607h-2.26l-1.436-7.686-1.03 7.686h-2.165l1.579-9.766m15.147 8.186h1.576l.904-5.592h1.96l-1.129 6.98c-.153.948-.496 1.651-1.028 2.108-.533.456-1.271.685-2.216.685h-3.843l.235-1.453h3.506c.376 0 .68-.088.91-.264.23-.176.372-.43.426-.764l.02-.12h-1.735c-1.11 0-1.866-.212-2.27-.635-.404-.423-.526-1.128-.366-2.116l.715-4.42h1.937l-.69 4.274c-.088.541-.062.896.079 1.064.14.168.476.253 1.009.253m9.717-8.186h2.257l2.735 9.766H51.26l-.553-2.325h-4.395l-1.277 2.325h-2.257l5.857-9.766Zm.733 1.94L47.28 62.65h3.013l-.926-3.759m11.648 7.828H57.25c-1.137 0-1.973-.324-2.506-.97-.533-.647-.706-1.55-.52-2.706.078-.474.214-.91.412-1.306.197-.396.457-.759.78-1.087a3.389 3.389 0 0 1 1.297-.847c.48-.17 1.089-.256 1.827-.256h1.682l.419-2.594h1.953l-1.579 9.766Zm-1.704-1.538.661-4.089h-1.185c-.795 0-1.385.16-1.77.482-.385.321-.638.857-.759 1.606-.118.727-.048 1.242.208 1.546.257.303.757.455 1.501.455h1.344m4.567-5.634h7.526c1.09 0 1.844.206 2.259.618.414.412.547 1.08.397 2.006l-.735 4.548h-1.974l.695-4.302c.085-.528.06-.875-.078-1.044-.138-.168-.464-.253-.976-.253h-1.1l-.905 5.599h-2.004l.905-5.599h-2.29l-.905 5.599h-1.974l1.159-7.172m14.546-.815h-2.055l.287-1.779h2.055l-.287 1.78Zm-1.291 7.987h-2.055l1.159-7.172h2.055l-1.159 7.172m2.854-7.172h3.688c1.114 0 1.877.203 2.288.608.412.405.542 1.077.39 2.016l-.735 4.548h-1.96l.698-4.315c.086-.537.056-.885-.09-1.044-.146-.16-.479-.24-.997-.24h-1.576l-.905 5.599h-1.96l1.16-7.172" fill="#F89C0E" fill-rule="nonzero"/></g></svg>