<svg viewBox="0 0 90 90" xmlns="http://www.w3.org/2000/svg"><g fill="none" fill-rule="evenodd"><path fill="#512DA8" d="M0 0h90v90H0z"/><path d="M54.5 59.25a7.75 7.75 0 0 1-7.75-7.75 7.75 7.75 0 0 1 7.75-7.75 7.75 7.75 0 0 1 7.75 7.75 7.75 7.75 0 0 1-7.75 7.75M66.125 36a3.874 3.874 0 0 0-3.53 2.281A15.429 15.429 0 0 0 54.5 36C45.94 36 39 42.94 39 51.5 39 60.06 45.94 67 54.5 67c2.967 0 5.74-.836 8.095-2.281A3.874 3.874 0 0 0 70 63.125v-23.25A3.875 3.875 0 0 0 66.125 36m-48.25.28c8.56 0 15.5 6.877 15.5 15.36v11.52c0 2.121-1.735 3.84-3.875 3.84-2.14 0-3.875-1.719-3.875-3.84V51.64c0-4.242-3.47-7.68-7.75-7.68-2.14 0-3.875-1.72-3.875-3.84 0-2.121 1.735-3.84 3.875-3.84ZM41.125 19C43.265 19 45 20.719 45 22.84c0 2.121-1.735 3.84-3.875 3.84-4.28 0-7.75 3.438-7.75 7.68v9.38a17.478 17.478 0 0 0-7.75-7.574V34.36c0-8.482 6.94-15.36 15.5-15.36Z" fill="#FFF" fill-rule="nonzero"/></g></svg>