<svg viewBox="0 0 90 90" xmlns="http://www.w3.org/2000/svg"><g fill="none" fill-rule="evenodd"><path fill="#FFF" d="M0 0h90v90H0z"/><path d="M30.077 44.61c1.68-.522 7.239 1.527 14.358 4.903 3.8 1.808 10.399 6.028 15.678 9.484-4.36 3.175-9.279 6.51-12.438 7.957-4.4 2.01-6.6 3.295-13.679.16-3.56-1.567-7.36-3.857-11.039-6.39 2.04-5.585 5.92-15.752 7.12-16.114ZM29.04 23.522c.997-.76 2.023-1.794 7.115-1.456a198.761 198.761 0 0 0-5.956 10.63l-.456.886a123.253 123.253 0 0 0-1.747 3.554c-2.36 4.983-7.12 15.592-9.32 20.495-.28-.201-.52-.402-.76-.603-5.439-4.3-8.958-7.113-10.958-9.484-2.48-2.934-3.36-5.867 1.96-10.489 5.6-4.902 17.118-11.854 19.918-13.381l.068-.05Zm44.39 7.224c2.44.724 4.36 1.286 5.12 1.527 1.44.483 3.16 1.005 5.04 2.01 1.24.643 1.76 1.446 1.16 2.45-2.44 4.14-13.719 13.584-18.158 17.24-.4.362-.84.684-1.32 1.086-13.066-7.643-26.894-12.424-29.278-13.223l-.198-.066-.161-.053.006-.003.048-.023c.585-.283 5.808-2.8 11.279-4.95l.67-.261.672-.257c2.35-.888 4.68-1.67 6.643-2.141 6.96-1.688 14.158-2.773 18.478-3.336ZM40.996 22.63c5.96.924 13.079 2.612 18.038 3.978 1.56.442 3.64 1.005 5.84 1.648-3.96.482-9.48 1.446-15.039 3.456-9.619 3.47-15.892 7.01-16.74 7.498l-.062.036a7.86 7.86 0 0 0-.036.02s2.047-3.485 4.08-7.324l.283-.537.282-.54c.187-.362.373-.723.555-1.082 1.76-3.376 2.44-5.707 2.8-7.153Z" fill="#127ABF" fill-rule="nonzero"/></g></svg>