<svg viewBox="0 0 90 90" xmlns="http://www.w3.org/2000/svg"><g fill="none" fill-rule="evenodd"><path fill="#00F6B7" d="M0 0h90v90H0z"/><path d="M9.42 36.5H6.218l8.03 17.31.544 1.09h2.018l.538-1.076 2.052-4.516 2.046 4.499.546 1.093h2.018l.538-1.076L32.375 36.5H29.18l-6.376 13.703-3.05-6.71L16.52 36.5h-3.2l4.329 9.401-1.951 4.294zm27.171 0h-3.346L39.9 48.329V54.9h2.9l-.001-6.566L49.562 36.5h-3.353L41.4 44.985zM84.5 52.1v2.8H68.6v-2.8h15.9Zm0-8v2.8H68.6v-2.8h15.9Zm0-7.6v2.8H68.6v-2.8h15.9Zm-16.901 0H51.4v2.9h10.4L50.201 54.9H66.4V52H55.998z" fill="#3E003E" fill-rule="nonzero"/></g></svg>