<svg xmlns="http://www.w3.org/2000/svg" width="90" height="90" viewBox="0 0 90 90"><defs><linearGradient id="a" x1="0%" x2="100%" y1="-.018%" y2="100.018%"><stop offset="0%" stop-color="#FF4244"/><stop offset="100%" stop-color="#FF8E3C"/></linearGradient></defs><g fill="none" fill-rule="evenodd"><rect width="90" height="90" fill="#FFF" opacity="0"/><path fill="url(#a)" fill-rule="nonzero" d="M86.6292597,23.5842757 C89.8107449,26.6816235 90.8500336,31.3725572 89.2745821,35.5242038 L83.400815,51.4841581 C81.8591701,55.674397 78.3454211,58.9159498 74.0032882,59.7620076 C69.5775456,60.6479755 65.0239521,59.0213936 62.1606524,55.5317186 L26.9380711,13.3239475 C26.7598576,13.1125611 26.4826439,13.0119951 26.2103791,13.0599596 C25.9381143,13.1079241 25.7119379,13.2971717 25.6166612,13.5567385 L14.156934,44.5579985 C13.9191803,45.1987997 14.5498532,45.8195758 15.1755208,45.5642566 L29.2380251,39.8195742 C30.8407418,39.1697174 32.6418203,39.2178576 34.2075476,39.9524021 C35.7732749,40.6869466 36.961767,42.0413321 37.4868263,43.6894125 C38.5254344,46.8758965 36.7785706,50.3176997 33.7027888,51.5742707 L15.333189,59.0761501 C11.9320601,60.465387 8.02539186,60.2200803 4.96212345,58.1750234 C0.664812094,55.3026371 -1.09945598,49.8555988 0.69757331,45.0085618 L14.2370195,8.39278218 C15.8412311,4.05235547 19.4951297,0.988524857 24.0124495,0.197535907 C28.4917319,-0.605332089 33.0552272,1.07470234 35.9451814,4.59052834 L56.1617518,28.8208228 L74.7565919,21.2238245 C78.8885005,19.5367151 83.4383551,20.4403449 86.6292597,23.5842757 Z M75.9053176,35.7544917 C76.1405686,35.1136905 75.5098957,34.4929144 74.8842281,34.7507368 L64.6107666,38.9459819 L70.7723408,46.3327174 C70.9501965,46.5467033 71.2289969,46.6490535 71.5030292,46.6009598 C71.7770614,46.5528661 72.0043661,46.3616924 72.0987561,46.0999263 L75.9028149,35.7544917 L75.9053176,35.7544917 Z" transform="translate(0 15)"/></g></svg>