<svg viewBox="0 0 90 90" xmlns="http://www.w3.org/2000/svg"><g fill="none" fill-rule="evenodd"><path fill="#F32100" d="M0 0h90v90H0z"/><path d="M18.194 45.82c-.033.174-.033.321-.033.495 0 3.981 2.436 6.346 5.557 6.346.487 0 .87-.067 1.185-.214a24.653 24.653 0 0 1 2.917-1.903l.172.567c-.204.775-1.528 2.218-1.976 2.539-1.161.49-2.398.775-3.654.841-4.307 0-7.362-3.032-7.362-7.895 0-5.037 3.576-8.49 7.54-8.49 3.16 0 5.866 2.15 5.866 6.098 0 .42-.098.949-.342 1.122-.349.14-1.672.495-3.266.495h-6.604Zm6.946-1.335c.106-.248.178-.668.178-1.063 0-2.11-1.04-4.088-3.062-4.088-2.884 0-4.03 3.634-4.03 5.144h6.914v.007Zm10.424-4.162.066.033c2.193-1.55 3.687-2.258 4.734-2.258 2.884 0 6.704 2.472 6.704 7.509 0 6.24-5.176 8.884-8.41 8.884-.658 0-2.086-.56-2.883-1.095l-.066.04c.002 2.22.046 4.441.132 6.66l3.233 1.096-.31.801c-1.567 0-2.956-.026-4.55-.026L30.566 62l.31-.882 1.778-.915c.033-1.202.131-4.542.131-9.693v-9.766l-1.936-1.056.31-.701a19.296 19.296 0 0 1 4.557-.955l-.145 2.29h-.007Zm.138 11.737a5.22 5.22 0 0 0 2.608.735c2.917 0 5.597-2.539 5.597-6.62 0-3.207-1.91-5.992-4.972-5.992-.869 0-1.975.387-3.226 1.302V52.06h-.007Zm14.283-12.933c.553-.18 2.64-.815 4.622-1.022v7.121l.066 6.974 2.47 1.062-.244.802c-1.219 0-2.536-.027-3.892-.027l-3.615.034.244-.815L51.61 52.2c.053-2.349.077-4.698.072-7.047V40.71l-1.87-.915.178-.668h-.006Zm3.266-8.323c.487.18 1.422 1.235 1.738 1.977l-.066.28a6.423 6.423 0 0 1-1.844 2.005l-.276.073c-.593-.347-1.39-1.336-1.706-2.004l.066-.287a6.607 6.607 0 0 1 1.877-2.004l.21-.04Zm13.064 22.452-.211.815c-1.284 0-2.6-.034-3.957-.034l-3.648.034.204-.775 1.982-1.062c.066-.702.105-2.886.105-8.07l-.105-12.438-1.943-.922.31-.702A44.138 44.138 0 0 1 63.78 29l-.106 12.198.106 10.996 2.535 1.062Zm8.474 1.342c-1.876-.107-3.47-.534-4.721-1.723-1.6-1.516-4.03-4.55-5.729-6.947l-.04-.174c1.496-1.697 3.51-4.095 4.795-5.819l.658-1.83c1.534 0 3.892.24 4.695.454l-.487.815c-.527.28-2.713 1.022-3.615 1.37a53.43 53.43 0 0 0-3.332 3.6v.1c2.015 2.786 6.255 7.863 7.987 9.98l-.21.174Z" fill="#FFF" fill-rule="nonzero"/></g></svg>