<svg viewBox="0 0 90 90" xmlns="http://www.w3.org/2000/svg"><g fill="none"><path d="M40.998 67.082C30.39 67.082 21.8 58.38 21.8 47.715c0-10.664 8.656-19.3 19.263-19.3a19.14 19.14 0 0 1 17.7 11.907h12.82a40.556 40.556 0 0 0-.845-3.01l7.418-6.739-3.644-6.477-9.892 2.748a28.464 28.464 0 0 0-2.798-2.814l2.994-9.421-6.378-3.86-7.549 6.87a28.654 28.654 0 0 0-3.904-1.047l-2.343-9.618-7.419-.131-2.538 9.814c-1.366.262-2.733.654-4.1 1.112l-6.962-7.262-6.508 3.599 2.733 10.075c-.91.85-1.822 1.701-2.668 2.683l-9.891-2.748-3.905 6.346 7.484 7.328c-.39 1.243-.781 2.487-.976 3.795L.195 44.313 0 51.772l9.957 2.682c.26 1.374.65 2.683 1.106 3.991l-7.614 6.609 3.514 6.542 10.282-2.813a23.522 23.522 0 0 0 2.538 2.552l-2.408 10.337 6.313 3.599 7.483-7.328c1.107.392 2.278.654 3.45.916L37.027 89h7.419l2.473-10.141c1.366-.262 2.668-.655 3.97-1.047l6.832 7.393 6.573-3.664-2.733-9.814c1.041-.916 2.017-1.832 2.928-2.879l9.566 2.88 3.775-6.413-5.987-5.888H56.55a19.26 19.26 0 0 1-15.553 7.655Z" fill="#7ABF42"/><path d="M63.059 14.674c-6.898 0-12.495 5.627-12.43 12.628 0 6.935 5.597 12.562 12.56 12.497 6.898 0 12.43-5.627 12.43-12.563 0-6.935-5.662-12.562-12.56-12.562Zm20.108 16.75c-.195.85-.39 1.766-.716 2.551l4.62 4.58-2.472 4.188-6.183-1.898a25.887 25.887 0 0 1-1.887 1.898l1.692 6.346-4.165 2.421-4.425-4.776c-.846.262-1.692.523-2.603.72l-1.627 6.608h-4.815l-1.497-6.608a14.577 14.577 0 0 1-2.278-.59l-4.815 4.777-4.1-2.29 1.562-6.674a20.811 20.811 0 0 1-1.692-1.7l-6.638 1.831-2.148-4.122 4.946-4.318c-.325-.85-.52-1.701-.716-2.617l-6.442-1.701.13-4.842 6.247-1.7c.13-.851.39-1.637.651-2.487l-4.88-4.711 2.537-4.122 6.378 1.701a20.811 20.811 0 0 1 1.692-1.7L47.83 5.644l4.23-2.29 4.555 4.711c.846-.327 1.757-.523 2.668-.72L60.976 1l4.816.13 1.497 6.282c.845.196 1.691.392 2.537.654l4.881-4.514 4.165 2.486-1.952 6.15c.65.589 1.236 1.178 1.822 1.832l6.377-1.832 2.343 4.253-4.816 4.384c.326.98.586 1.962.781 2.944l6.573 1.7v4.843l-6.573 1.439-.26-.327Z" fill="#D8DADB"/></g></svg>