<svg viewBox="0 0 90 90" xmlns="http://www.w3.org/2000/svg"><path d="M.04 46.52c.244.292.515.56.81.8a16.305 16.305 0 0 0 4.26 2.996 34.03 34.03 0 0 0 1.922 8.881 32.217 32.217 0 0 0 16.734 17.968l.102.101h.101a33.974 33.974 0 0 0 12.177 2.892v.1l.002-.002.406.4a18.286 18.286 0 0 0 5.678 3.992 37.025 37.025 0 0 1-20.689-3.093l-.304-.101a36.583 36.583 0 0 1-18.967-20.56A36.548 36.548 0 0 1 .039 46.521Zm74.543 4.195a37.295 37.295 0 0 1-3.447 13.077l-.101.298a9.934 9.934 0 0 1-.71 1.496l-1.927-8.683a30.173 30.173 0 0 0 1.013-5.09 31.973 31.973 0 0 0 5.172-1.098ZM58.36 17.977a35.662 35.662 0 0 1 9.127 8.682h-6.491A34.217 34.217 0 0 0 54.3 21.27a32.071 32.071 0 0 0 4.06-3.293Zm-6.944 64.028a17.454 17.454 0 0 1-2.28-.155 13.602 13.602 0 0 1-4.363-1.296c-1.76-.78-3.346-1.9-4.666-3.294a13.204 13.204 0 0 1-2.433-3.395 27.115 27.115 0 0 1-4.969-.398 28.532 28.532 0 0 1-6.287-1.997 26.12 26.12 0 0 1-11.865-10.879 26.796 26.796 0 0 1-3.26-13.37c-.9-.093-1.784-.293-2.635-.598a12.428 12.428 0 0 1-4.464-2.794 12.669 12.669 0 0 1-3.748-6.786A11.978 11.978 0 0 1 1.46 29.36l.507-.9 1.015-1.895 2.03.9 29.21 13.372a25.12 25.12 0 0 1 7.709 5.19 14.7 14.7 0 0 1 3.853 7.187l3.043 13.875c1.312.323 2.574.826 3.746 1.496a10.502 10.502 0 0 1 3.145 2.696l-3.549 2.688a4.601 4.601 0 0 0-1.823-1.496 12.313 12.313 0 0 0-3.857-1.297l-1.42-.3-.303-1.397-2.838-13.072a15.82 15.82 0 0 1-1.927.797 9.643 9.643 0 0 1-2.407.31 9.316 9.316 0 0 1-3.58-.7l-.506-.202a9.04 9.04 0 0 1-4.77-5.09 8.52 8.52 0 0 1 .205-6.688l.1-.298c.127-.313.293-.608.495-.879l.012-.02L5.111 32.449a7.244 7.244 0 0 0-.204 3.893 8.293 8.293 0 0 0 2.437 4.492 8.521 8.521 0 0 0 2.84 1.797 8.33 8.33 0 0 0 1.52.398h.1c.05-.297.178-.747.302-1.183.123-.436.257-.908.312-1.212l2.432 1.1 1.522.697-.203.698a20.017 20.017 0 0 0-.505 7.387A22.792 22.792 0 0 0 18.2 58.6a21.459 21.459 0 0 0 9.835 9.083 20.498 20.498 0 0 0 5.172 1.597c1.342.22 2.7.333 4.06.336.443 0 .885-.013 1.314-.04l1.624-.099.608 1.5a9.398 9.398 0 0 0 2.231 3.391 10.159 10.159 0 0 0 3.343 2.395c.982.495 2.05.8 3.146.9.91.083 1.824.116 2.738.1l9.634-6.587-3.65-16.868-.101-.399c.467-1.726.706-3.505.71-5.293.111-8.379-4.79-16.024-12.477-19.46-.575-.285-1.066-.479-1.541-.668l-.08-.031a8.678 8.678 0 0 0-1.717-.5 10.922 10.922 0 0 0-1.717-.399h-.222a13.035 13.035 0 0 1-5.776 5.19 12.653 12.653 0 0 1-5.24 1.134 13.292 13.292 0 0 1-2.468-.235 37.3 37.3 0 0 1-6.491-2.295 36.33 36.33 0 0 1-5.579-2.794 12.34 12.34 0 0 1-4.565-6.985 13.012 13.012 0 0 1 .81-8.284 13.37 13.37 0 0 1 4.363-5.09A12.908 12.908 0 0 1 22.556 6h.205l34.587.1h3.854l-2.03 3.293a25.875 25.875 0 0 1-9.534 9.383 25.697 25.697 0 0 1-12.881 3.393H23.064l.093-4.494H36.85a21.485 21.485 0 0 0 10.647-2.793 23.753 23.753 0 0 0 5.58-4.49H22.861a7.835 7.835 0 0 0-3.955 1.396 8.29 8.29 0 0 0-2.841 3.295 8.435 8.435 0 0 0-.607 5.39 8.65 8.65 0 0 0 2.94 4.59 49.963 49.963 0 0 0 4.564 2.202c1.795.832 3.662 1.5 5.578 1.996a9.2 9.2 0 0 0 1.572.135 8.417 8.417 0 0 0 3.498-.733 7.73 7.73 0 0 0 3.651-3.295l.607-1.198.71-1.397 1.624.2c.34.048.655.095.968.143.34.051.69.104 1.06.155.69.108 1.37.276 2.03.501.365.103.71.207 1.043.31.332.105.642.195.985.293.27.114.526.214.78.31.4.155.781.301 1.153.487a26.49 26.49 0 0 1 8.52 6.189H90l-2.03 3.294a26.157 26.157 0 0 1-8.316 8.581 24.602 24.602 0 0 1-11.26 3.993h-.2l-.204-4.29h.203a21.26 21.26 0 0 0 9.23-3.294 23.444 23.444 0 0 0 4.46-3.893H60.08c.05.095.125.217.196.334.072.116.156.259.213.363a25.546 25.546 0 0 1 2.635 16.161l-.203 1.198 3.855 17.666.302 1.396-1.217.8-11.256 7.786-.406.298-.51.099c-.753.1-1.513.15-2.274.152Zm-17.9-36.476c-.06.087-.12.165-.176.24a1.98 1.98 0 0 0-.334.56 4.46 4.46 0 0 0-.201 3.593 4.857 4.857 0 0 0 2.432 2.694 5.06 5.06 0 0 0 2.067.466c.4 0 .797-.057 1.18-.17a5.205 5.205 0 0 0 1.826-.896 7.275 7.275 0 0 0-1.825-2.895 17.958 17.958 0 0 0-4.974-3.597l.004.005Z" fill="#102D6F"/></svg>