<svg viewBox="0 0 90 90" xmlns="http://www.w3.org/2000/svg"><g fill="none" fill-rule="evenodd"><path fill="#1F62FF" d="M0 0h90v90H0z"/><path d="M65.687 52.886a7.62 7.62 0 0 0 2.61.453 7.93 7.93 0 0 0 1.096-.077h.099v.088a8.964 8.964 0 0 1-3.297 4.12A8.853 8.853 0 0 1 61.169 59l-3.246-.022v-3.649h3.29a5.3 5.3 0 0 0 2.543-.651 5.368 5.368 0 0 0 1.93-1.792Zm-18.554.033a5.256 5.256 0 0 0 1.935 1.762 5.207 5.207 0 0 0 2.539.604h3.29v3.648l-3.257.045a8.85 8.85 0 0 1-3.439-.686 8.91 8.91 0 0 1-2.91-1.968 9.31 9.31 0 0 1-.345-.382A9.083 9.083 0 0 1 38.35 59l-3.268-.022v-3.649h3.29a5.206 5.206 0 0 0 2.525-.587 5.255 5.255 0 0 0 1.938-1.734c.16.04.32.077.481.108v-.02h.1c.977.193 1.98.195 2.955.009.057-.013.113-.027.17-.042l.029.001c.189-.041.377-.09.563-.145Zm-22.841-.066a5.367 5.367 0 0 0 1.93 1.792c.781.426 1.656.65 2.544.651h3.29v3.649l-3.257.033a8.852 8.852 0 0 1-5.026-1.53 8.965 8.965 0 0 1-3.297-4.12v-.088h.099c.363.05.73.077 1.096.077a7.814 7.814 0 0 0 2.62-.464Zm-2.643-12.03c2.568 0 4.65 2.1 4.65 4.688 0 2.59-2.082 4.688-4.65 4.688C19.082 50.2 17 48.1 17 45.511c0-2.589 2.082-4.687 4.65-4.687Zm23.235 0c2.568 0 4.65 2.1 4.65 4.688 0 2.59-2.082 4.688-4.65 4.688-2.567 0-4.649-2.099-4.649-4.688 0-2.589 2.082-4.687 4.65-4.687Zm23.467 0c2.567 0 4.649 2.1 4.649 4.688 0 2.59-2.082 4.688-4.65 4.688-2.567 0-4.649-2.099-4.649-4.688 0-2.589 2.082-4.687 4.65-4.687ZM32.089 32v3.649H28.8c-.888 0-1.762.225-2.543.651a5.368 5.368 0 0 0-1.93 1.792l-.066.056a7.714 7.714 0 0 0-3.728-.376h-.099v-.089a8.964 8.964 0 0 1 3.308-4.151A8.852 8.852 0 0 1 28.8 32h3.29Zm29.113 0a8.852 8.852 0 0 1 5.026 1.53 8.965 8.965 0 0 1 3.297 4.12v.088h-.099a7.703 7.703 0 0 0-3.728.376l-.022.011a5.369 5.369 0 0 0-1.93-1.792 5.316 5.316 0 0 0-2.544-.651h-3.29V32h3.29Zm-22.84 0a8.852 8.852 0 0 1 5.025 1.53c.602.41 1.149.888 1.63 1.426.088-.102.18-.203.273-.302a8.91 8.91 0 0 1 2.917-1.965 8.851 8.851 0 0 1 3.443-.677h3.29v3.648h-3.29a5.207 5.207 0 0 0-2.538.604 5.257 5.257 0 0 0-1.936 1.762l-.065.055a7.879 7.879 0 0 0-2.193-.331c-.501 0-1 .048-1.492.143h-.098v-.028a9.244 9.244 0 0 0-.438.106h-.066a5.256 5.256 0 0 0-1.943-1.717 5.208 5.208 0 0 0-2.229-.572h-3.58V32h3.29Z" fill="#FFF" fill-rule="nonzero"/></g></svg>