<svg viewBox="0 0 90 90" xmlns="http://www.w3.org/2000/svg"><g fill="none" fill-rule="evenodd"><path fill="#962CFF" d="M0 0h90v90H0z"/><path d="m41.262 13.16 16.864 24.09c4.29 6.125 2.83 14.587-3.26 18.902l-.75.532a4.457 4.457 0 0 1-6.236-1.087l-.44-.635a3.747 3.747 0 0 1 .125-4.464 6.11 6.11 0 0 0 3.2-4.245 6.274 6.274 0 0 0-.925-5.205L38.017 24.16c-4.168 1.53-12.924 7.027-14.603 16.767-1.811 10.498 4.045 20.552 13.502 24.353l5.202 7.311c1.43 2.1-.088 4.827-2.576 4.357a32.313 32.313 0 0 1-.897-.183c-16.475-3.689-27.647-20.19-24.662-37.483C17.19 25.288 27.798 14.814 41.262 13.16Zm6.621 4.25c-1.431-2.1.088-4.827 2.573-4.357.301.056.599.118.9.183C67.828 16.928 79 33.426 76.018 50.719 72.81 64.713 62.2 75.187 48.736 76.841L31.872 52.749c-4.288-6.125-2.827-14.587 3.26-18.902l.75-.532a4.456 4.456 0 0 1 6.236 1.087l.444.635a3.748 3.748 0 0 1-.003 4.297 6.124 6.124 0 0 0-3.77 4.658 6.15 6.15 0 0 0 1.594 5.279l11.6 16.57c4.169-1.53 12.922-7.027 14.604-16.767 1.81-10.498-4.045-20.552-13.505-24.353Z" fill="#F8F8F8"/></g></svg>