<svg viewBox="0 0 90 90" xmlns="http://www.w3.org/2000/svg"><g fill="none" fill-rule="evenodd"><path fill="#2877FE" d="M0 0h16v90H0z"/><path fill="#5D39F9" d="M16 0h17v90H16z"/><path fill="#B117FB" d="M33 0h17v90H33z"/><path fill="#C823B2" d="M50 0h17v90H50z"/><path fill="#FF7539" d="M67 0h17v90H67z"/><path fill="#FFAE00" d="M84 0h6v90h-6z"/><path d="M78.333 22 84 27.778V74H55.667L50 68.222v-23.11l5.667-5.779h17v-5.777H50V22h28.333ZM72.5 51.5h-11v11h11v-11ZM0 62h6v12H0zm10-40 11 .056v41L33 63V22h11v52H15.667L10 68.222z" fill="#FFF"/></g></svg>