<svg viewBox="0 0 90 90" xmlns="http://www.w3.org/2000/svg"><g fill="none" fill-rule="evenodd"><path fill="#E78242" d="M66.072 77.783h7.929V49.848h-7.929z"/><path d="M44.4 51.693C40.436 21.65 83.515 39.043 89.858 9c1.85 31.097-14.536 49.545-39.115 73C73.736 34.036 51.8 34.827 44.4 51.693" fill="#018BB9"/><path d="M77.172 18.224c0 4.216-3.436 7.906-7.929 7.906-4.228 0-7.928-3.426-7.928-7.906 0-4.217 3.436-7.906 7.928-7.906 4.493 0 7.93 3.426 7.93 7.906M62.9 27.448C26.958 19.805 21.144 43.523 0 41.415 19.029 50.64 28.807 22.44 62.9 27.448m-6.342 25.299c-18.765 3.163-16.915 21.61-29.865 28.199 13.479-3.953 11.629-21.874 29.865-28.199" fill="#E78242"/></g></svg>