<svg viewBox="0 0 90 90" xmlns="http://www.w3.org/2000/svg"><g fill="none" fill-rule="evenodd"><path fill="#FFF" d="M0 0h90v90H0z"/><path d="M45.301 84.999a40 40 0 1 1 39.699-40c.056 21.997-17.702 39.89-39.699 40Zm0-74.063A34.065 34.065 0 1 0 79.12 44.999c.044-18.735-15.083-33.972-33.819-34.063Zm1.427 28.576 7.664-9.376a2.304 2.304 0 0 0-1.737-3.76 2.284 2.284 0 0 0-1.738.816l-7.13 8.704-7.129-8.704a2.2 2.2 0 0 0-1.737-.816h-5.882a2.292 2.292 0 0 0-1.737 3.76l10.604 12.96L24.361 59.67a2.278 2.278 0 1 0 3.477 2.944l13.009-15.888 5.881-7.215Zm17.776-13.136a2.294 2.294 0 0 0-1.737.816l-12.96 15.903-5.882 7.2-7.664 9.376a2.277 2.277 0 0 0 3.476 2.944l7.129-8.688 7.128 8.688a2.207 2.207 0 0 0 1.739.816h5.87a2.288 2.288 0 0 0 1.738-3.76L52.738 46.727l13.545-16.591a2.318 2.318 0 0 0-1.784-3.76" fill="#FFBE40"/></g></svg>