<svg viewBox="0 0 90 90" xmlns="http://www.w3.org/2000/svg"><g fill="none"><path d="M77.586 16C84.442 16 90 21.558 90 28.414v34.172C90 69.442 84.442 75 77.586 75H12.414C5.558 75 0 69.442 0 62.586V28.414C0 21.558 5.558 16 12.414 16h65.172Zm0 4.655H12.414a7.759 7.759 0 0 0-7.755 7.513l-.004.246v34.172a7.759 7.759 0 0 0 7.513 7.755l.246.004h65.172a7.759 7.759 0 0 0 7.755-7.513l.004-.246V28.414a7.759 7.759 0 0 0-7.513-7.755l-.246-.004Z" fill="#FF9000"/><path d="M60.424 46.959a2.328 2.328 0 0 1 3.291 0l15.518 15.527.118.128a2.328 2.328 0 0 1-3.411 3.163L60.423 50.25l-.119-.128a2.328 2.328 0 0 1 .12-3.164Zm-30.848 0c.868.867.908 2.25.12 3.164l-.119.128L14.06 65.777a2.328 2.328 0 0 1-3.41-3.163l.117-.128L26.285 46.96a2.328 2.328 0 0 1 3.291-.001Zm49.777-21.606a2.328 2.328 0 0 1-.124 3.164l-.128.118-28.545 24.482a8.535 8.535 0 0 1-10.892.183l-.22-.183-28.545-24.482a2.328 2.328 0 0 1 2.894-3.642l.136.109 28.546 24.481a3.88 3.88 0 0 0 4.88.139l.17-.139 28.546-24.481a2.328 2.328 0 0 1 3.282.251Z" fill="#F1A800"/></g></svg>