<svg viewBox="0 0 90 90" xmlns="http://www.w3.org/2000/svg"><path d="M74.79 53.935 48.357 81c-.525-5.016-1.679-9.823-3.462-14.316l29.895-12.75Zm-41.328-5.12C62.308 39.617 90 41.707 90 41.707 79.196 43.276 58.112 54.04 43.007 62.295a58.193 58.193 0 0 0-9.545-13.48ZM88.112 9c0 .94-.63 2.299-.944 3.135-2.203 6.27-6.084 11.39-10.91 15.361-4.824 3.867-10.174 6.584-15.629 8.883-5.664 2.299-11.223 4.493-16.993 6.165-.21.105-.42.105-.734.21-4.09 1.149-8.287 2.09-12.378 3.343A54.479 54.479 0 0 0 0 32.512c9.126-6.479 29.056-18.496 57.587-18.6l-7.132 6.478S80.559 19.345 88.112 9Z" fill="#F99D1C"/></svg>