<svg viewBox="0 0 90 90" xmlns="http://www.w3.org/2000/svg"><g fill="none"><path d="M69.972 26.117c-6.734 0-8.995 5.692-17.48 3.094-.771-.238-1.425.634-.704 1.241 5.14 4.324 13.106 10.496 22.299 9.865 7.386-.503 6.78-14.2-4.115-14.2" fill="#EA9CCB"/><path d="M78.594 45.585c-.424 2.293-1.176 5.173-1.834 6.886-.162.417-.618.532-1.018.337-16.916-8.183-36.22 10.948-56.491 4.796C2.798 52.606 1.863 20.19 22.914 19.726c17.016-.373 30.49 28.43 54.88 24.856.487-.072.95.21.8 1.003m-51.374 28.6c8.864 1.09 21.245 8.31 28.695 8.69.634.037.871.858.38 1.27C51.931 87.795 47.483 90 43.475 90c-6.365 0-13.982-5.676-20.782-14.252-1.141-1.44 2.641-1.793 4.527-1.563" fill="#FF006D"/><path d="M19.944 70.48c4.979-3.146 15.308.38 25.697 4.601 9.822 4.003 15 4.177 18.9.258 4.476-4.494 13.475-17.62 6.975-19.278-15.003-3.82-35.559 14.125-56.424 4.919-.626-.278-1.208.242-.958.948.364 1.007 2.566 5.748 4.59 8.278.337.42.634.643 1.22.274M35.394 0c5.554 0 6.361 7.62 12.227 14.415.483.654-.087 1.182-.455 1.17C28.496 14.871 27.576-.004 35.395 0m17.272 12.94a11.213 11.213 0 0 1-2.986-2.976.667.667 0 0 1-.032-.734c1.703-2.744 3.185-6.27 5.399-7.723 3.41-2.582 9.886.536 7.248 5.8-1.018 2.023-3.323 4.212-5.763 5.672a3.556 3.556 0 0 1-3.866-.04" fill="#FF006D"/></g></svg>