<svg viewBox="0 0 90 90" xmlns="http://www.w3.org/2000/svg"><g fill="none"><path d="M40.772 18.918c-.256.775-1.281 1.291-2.05 1.033l-12.3-4.39c-.768-.258-1.28-1.29-1.024-2.066L29.754 1.1c.256-.775 1.281-1.29 2.05-1.033l12.3 4.39c.768.258 1.28 1.291 1.024 2.066l-4.356 12.395" fill="#B2D0E1"/><path d="M63.577 40.61c-.256.775-1.28 1.291-2.05 1.033l-12.3-4.39c-.768-.258-1.28-1.291-1.024-2.066l4.356-12.395c.256-.775 1.281-1.291 2.05-1.033l12.3 4.39c.768.258 1.28 1.291 1.024 2.066L63.577 40.61M38.978 52.23c-.256.775-1.28 1.292-2.05 1.034l-12.299-4.39c-.769-.259-1.281-1.292-1.025-2.066l4.356-12.396c.256-.774 1.281-1.29 2.05-1.033l12.3 4.39c.768.259 1.28 1.292 1.024 2.066l-4.356 12.396" fill="#72AAC9"/><path d="M61.784 70.823c-.257.775-1.282 1.292-2.05 1.033l-12.3-4.39c-.768-.258-1.28-1.29-1.025-2.065l4.356-12.396c.257-.774 1.282-1.29 2.05-1.033l12.3 4.39c.768.259 1.28 1.291 1.025 2.066l-4.356 12.395" fill="#3383B1"/><path d="M55.634 88.9c-.256.775-1.281 1.291-2.05 1.033l-12.3-4.39c-.768-.258-1.28-1.291-1.024-2.066l4.356-12.395c.256-.775 1.28-1.291 2.05-1.033l12.299 4.39c.769.258 1.281 1.29 1.025 2.066L55.634 88.9" fill="#00649E"/><path d="M37.441 82.444c-.256.775-1.281 1.291-2.05 1.033l-12.3-4.39c-.768-.258-1.28-1.291-1.024-2.066l4.356-12.395c.256-.775 1.28-1.291 2.05-1.033l12.3 4.39c.768.258 1.28 1.291 1.024 2.066l-4.356 12.395" fill="#3383B1"/></g></svg>