<svg viewBox="0 0 90 90" xmlns="http://www.w3.org/2000/svg"><g fill="none" fill-rule="evenodd"><path fill="#FFF" d="M0 0h90v90H0z"/><g fill-rule="nonzero"><path d="M15.588 37.947c.287 2.912.41 5.16.41 10.194v11.027H10V30h7.52l5.875 11.484c1.438 2.787 3 6.033 4.067 8.945h.164c-.328-4.078-.328-8.114-.328-11.193V30h5.957v29.168h-7.354l-6.328-12.316c-1.438-2.83-2.63-5.7-3.82-8.905h-.165Zm35.23 13.856c0-4.619-13.27-3.995-13.27-13.19 0-4.827 4.19-8.613 10.148-8.613 4.808 0 7.807 2.247 8.752 3.495l-3.904 4.703c-.698-.875-2.342-2.706-5.382-2.706-2.054 0-3.205 1.165-3.205 2.621 0 4.703 13.23 3.994 13.23 13.274 0 4.37-3.575 8.613-10.888 8.613-5.547 0-8.998-2.497-9.984-3.62l3.574-5.244c1.233 1.25 3.739 3.496 7.232 3.496 2.506 0 3.698-1.29 3.698-2.83M61.86 38.97l-2.43-4.932 5.495-3.852h6.073v29.036h-6.03V44.2l.205-7.465" fill="#221F1F"/><path d="M76.554 52.467c1.964 0 3.446 1.5 3.446 3.524 0 1.85-1.482 3.35-3.446 3.35a3.337 3.337 0 0 1-3.343-3.35c0-2.024 1.482-3.524 3.343-3.524" fill="#F4006F"/></g></g></svg>