<svg viewBox="0 0 90 90" xmlns="http://www.w3.org/2000/svg"><g fill="none" fill-rule="evenodd"><path fill="#FFF" d="M0 0h90v90H0z"/><path d="M63.187 18.303 45.5 0 27.775 18.303c5.026-3.593 11.111-5.71 17.687-5.71 6.614.037 12.699 2.155 17.725 5.71ZM89 45 71.275 26.66a32.939 32.939 0 0 1 4.989 12.554l-20.976 1.664c-1.55-4.008-5.366-6.844-9.788-6.844-5.82 0-10.582 4.878-10.582 10.928 0 6.013 4.724 10.929 10.582 10.929 4.46 0 8.239-2.836 9.788-6.845l20.976 1.664a32.698 32.698 0 0 1-4.989 12.555L89 45ZM2 45l17.687 18.303A33.133 33.133 0 0 1 14.207 45a33.257 33.257 0 0 1 5.48-18.34L2 45Zm25.775 26.697L45.462 90 63.15 71.697a30.257 30.257 0 0 1-17.687 5.673c-6.538 0-12.623-2.08-17.687-5.673Z" fill="#222" fill-rule="nonzero"/></g></svg>