<svg viewBox="0 0 90 90" xmlns="http://www.w3.org/2000/svg"><g fill="none" fill-rule="evenodd"><path fill="#FFF" d="M0 0h90v90H0z"/><g fill="#FF9C00" fill-rule="nonzero"><path d="M42.066.19c0 .094-.398.189-.89.189-.853.019-3.885.398-4.984.644-1.42.303-3.201.74-3.694.89-2.406.74-4.074 1.346-5.684 2.047-5.23 2.33-9.587 5.324-13.547 9.303-4.11 4.093-7.067 8.47-9.624 14.21-1.535 3.43-3.26 10.308-3.26 12.942 0 .379-.075.7-.189.7-.246 0-.265 7.068-.018 7.542.094.17.303 1.307.473 2.5.53 3.828 1.118 6.197 2.444 9.664 2.766 7.333 7.484 13.832 13.642 18.834 3.486 2.823 8.98 5.987 12.637 7.313.36.114.833.304 1.042.38.455.208 3.278 1.023 4.452 1.288 2.046.492 2.672.606 4.604.815 1.118.132 2.027.303 2.027.397 0 .076 1.63.152 3.6.152 1.99 0 3.6-.076 3.6-.152 0-.075.966-.265 2.141-.397 2.14-.247 2.558-.323 4.945-.872 3.145-.758 7.957-2.596 10.724-4.13 8.014-4.453 14.607-11.293 18.586-19.27 1.913-3.884 2.728-6.272 3.96-11.653.094-.417.284-1.724.417-2.899.113-1.155.303-2.122.378-2.122.076 0 .152-1.497.152-3.316 0-1.818-.076-3.315-.152-3.315-.075 0-.246-.986-.378-2.198-.133-1.213-.323-2.596-.436-3.089-.455-2.046-.607-2.652-1.061-4.187-1.44-5.002-3.903-9.89-7.219-14.305-.871-1.156-3.6-4.244-4.3-4.889-.209-.19-.72-.663-1.137-1.06-2.103-1.933-5.59-4.51-7.674-5.647-4.641-2.539-7.862-3.884-11.765-4.888C53.453.985 49.91.398 48.47.379c-.512 0-.91-.095-.91-.19C47.56.076 46.518 0 44.813 0c-1.705 0-2.747.076-2.747.19Zm7.92 10.515c3.808.569 6.725 1.44 9.984 3.013C68.875 17.98 75.64 25.9 78.405 35.337c1.004 3.391 1.25 5.286 1.27 9.568 0 4.169-.114 5.324-.891 8.527-.606 2.482-1.137 3.96-2.406 6.688-2.596 5.533-6.992 10.592-12.164 14.002-5.002 3.297-10.686 5.21-16.559 5.609-6.65.454-12.618-.758-18.567-3.79-1.99-1.004-5.154-3.088-6.442-4.244-4.206-3.79-6.67-6.992-8.886-11.634-3.486-7.276-4.3-15.594-2.292-23.495.776-3.088 1.08-3.922 2.766-7.294 4.263-8.546 11.784-14.703 21.674-17.716.626-.19 3.032-.663 4.642-.929 1.743-.284 7.39-.227 9.435.076Z"/><path d="M41.024 16.977c-9.322 1.497-17.109 7.18-21.296 15.537-2.406 4.831-3.486 10.705-2.842 15.593 1.402 10.61 7.54 18.91 17.241 23.287 1.327.606 1.781.758 4.528 1.497 2.445.644 8.602.833 11.274.36C61.58 71.128 70.58 62.413 73.062 50.893c.663-3.032.663-8.394 0-11.54-.966-4.622-3.22-9.17-6.385-12.827-1.06-1.25-1.554-1.724-3.088-3.107-1.838-1.648-4.775-3.392-7.825-4.661-4.377-1.838-10.155-2.54-14.74-1.781Zm7.484 27.644v15.632l-.417.094c-.247.057-1.63.076-3.088.057l-2.653-.057-.057-15.442c-.019-8.488 0-15.556.057-15.688.057-.17.872-.228 3.126-.228h3.032v15.632Z"/></g></g></svg>