<svg viewBox="0 0 90 90" xmlns="http://www.w3.org/2000/svg" xmlns:xlink="http://www.w3.org/1999/xlink"><defs><path id="a" d="M0 0h34.204v90H0z"/><path id="c" d="M0 0h34.179v90H0z"/></defs><g fill="none" fill-rule="evenodd"><g transform="translate(11)"><mask id="b" fill="#fff"><use xlink:href="#a"/></mask><path d="M.057 12.042S15.857 0 33.694 0c17.838 0 34.338 12.358 34.338 12.358s-.446 29.789 0 42.148C68.542 67.753 41.275 90.188 33.694 90 27.45 89.809 2.54 71.935.184 54.506-.134 49.5.058 12.042.058 12.042" fill="#04A56C" mask="url(#b)"/></g><g transform="translate(44.821)"><mask id="d" fill="#fff"><use xlink:href="#c"/></mask><path d="M34.147 12.042S18.347 0 .51 0c-17.84 0-34.338 12.358-34.338 12.358s.446 29.789 0 42.148C-34.338 67.753-7.072 90.188.51 90c6.243-.19 31.152-18.064 33.51-35.493.254-5.007.127-42.464.127-42.464" fill="#0E8859" mask="url(#d)"/></g><path d="M56.103 37v14.464c0 3.16-2.536 5.725-5.676 5.725H38.77c-3.118 0-5.675-2.544-5.675-5.662V37h6v14.19h11.009V37h6Zm-5.676-20.163c3.12 0 5.676 2.545 5.676 5.662V33h-6V22.837h-11.01V33h-6V22.5c0-3.045 2.44-5.543 5.46-5.658l.216-.004Z" fill="#FFFFFE" fill-rule="nonzero"/><path d="m38.132 46.457-2.676 2.535 7.582 7.352 11.085-11.408-3.058-2.853-8.218 8.874-4.715-4.5Zm24.082 17.24H28.066c-.573 0-1.02-.445-1.02-1.015V37.584c0-.57.447-1.014 1.02-1.014h34.148c.573 0 1.019.443 1.019 1.014v25.098c0 .57-.446 1.014-1.02 1.014Z" fill="#FFFFFE"/><path fill="#FFFFFE" d="M32.78 59.767h24.591V40.372h-24.59z"/><path d="M48.58 44.809c.51 0 1.02-.253 1.338-.76l.955-1.395c.255-.38 0-.824-.382-.824h-6.625c-1.402 0-2.485.38-3.313 1.142-.829.76-1.274 1.773-1.401 3.168l-.383 3.676c-.127 1.395.191 2.408.891 3.169.702.76 1.721 1.14 3.123 1.14h1.529c.318 0 .446-.252.51-.57l.127-1.774c0-.317-.191-.57-.51-.57h-.828c-.573 0-.956-.127-1.147-.38-.19-.254-.318-.635-.255-1.204l.255-3.233c.064-.57.191-.95.446-1.204.254-.254.637-.381 1.211-.381h4.459" fill="#00A66E"/><path d="M44.821 46.774c-.318 0-.446.253-.51.57l-.127 1.775c0 .317.191.57.51.57h.829c.572 0 .955.127 1.146.38.19.254.318.635.255 1.204l-.255 3.233c-.064.57-.191.951-.446 1.204-.255.254-.637.381-1.21.381h-4.587c-.51 0-1.02.253-1.338.76l-.956 1.268c-.254.38 0 .824.382.824h6.69c1.401 0 2.484-.38 3.313-1.14.828-.761 1.274-1.775 1.4-3.17l.32-3.613c.127-1.393-.192-2.408-.892-3.169-.701-.76-1.721-1.14-3.122-1.14l-1.402.063" fill="#00A66E"/></g></svg>