<svg viewBox="0 0 90 90" xmlns="http://www.w3.org/2000/svg"><g fill="none" fill-rule="evenodd"><path fill="#000" d="M0 0h90v90H0z"/><path d="M23.25 36.044c1.855.797 4.082-.106 4.824-1.966.795-1.912-.106-4.144-2.068-4.887-1.908-.744-4.03.159-4.825 2.072-.742 1.859.16 3.984 2.068 4.78Zm-8.484 4.94c1.909.797 4.136-.106 4.878-1.965.795-1.913-.106-4.144-2.068-4.835-1.909-.796-4.03.107-4.825 2.02-.742 1.858.16 3.983 2.015 4.78Zm-2.439 9.404c1.856.796 4.083-.107 4.825-2.02.795-1.912-.106-4.09-2.068-4.834-1.856-.797-4.03.16-4.825 2.02-.742 1.858.16 4.037 2.068 4.834Zm20.307-11.37c1.856.798 4.082-.105 4.825-2.018.795-1.913-.106-4.09-2.068-4.834-1.909-.797-4.03.159-4.825 2.018-.69 1.913.212 4.091 2.068 4.835Zm34.145-2.974c-1.909.797-4.136-.106-4.825-1.966-.795-1.912.106-4.144 2.015-4.887a3.79 3.79 0 0 1 4.878 2.072c.69 1.859-.212 3.984-2.068 4.78Zm8.43 4.94c-1.908.797-4.082-.106-4.825-1.965-.795-1.913.106-4.144 1.962-4.835a3.72 3.72 0 0 1 4.878 2.02c.795 1.858-.159 3.983-2.015 4.78Zm2.492 9.404c-1.908.796-4.135-.107-4.878-2.02-.795-1.912.106-4.09 2.068-4.834 1.909-.797 4.083.16 4.878 2.02.69 1.858-.212 4.037-2.068 4.834Zm-20.36-11.37c-1.908.798-4.135-.105-4.877-2.018-.743-1.913.106-4.09 2.067-4.834 1.91-.797 4.083.159 4.878 2.018.742 1.913-.159 4.091-2.068 4.835ZM46.95 29.404l4.72 2.497v-6.96l-4.72 1.488a2.027 2.027 0 0 0-.477-.478L48.381 20h-6.787l1.856 5.95c-.159.16-.318.266-.477.478l-4.666-1.487V31.9l4.666-2.497c.159.16.318.372.477.478l-2.65 8.181v.054c-.106.425-.212.85-.212 1.275 0 2.178 1.644 3.984 3.711 4.303h.106c.16 0 .372.053.53.053.213 0 .372 0 .53-.053h.107c2.12-.319 3.764-2.178 3.764-4.303 0-.425-.053-.904-.212-1.275v-.053L46.42 29.88c.212-.106.371-.319.53-.478ZM44.988 69.3c8.96 0 17.39.584 24.972 1.7 2.121-8.978 4.72-14.184 7.423-17.797l-5.09-1.806c.53 2.603.583 3.825 0 5.419-.795-.744-1.59-2.285-2.227-4.622l-2.492 8.181c1.485-1.063 2.651-1.7 3.977-1.753-2.333 4.994-5.302 6.322-7.21 5.95-2.28-.425-3.341-2.444-2.97-4.197.53-2.497 3.022-3.134 4.242-.266 2.28-4.622-1.591-6.056-4.03-4.675 3.764-3.825 4.189-7.171 1.113-11.209-4.241 3.24-4.294 6.534-2.385 11.05-2.492-2.869-6.416-1.328-5.037 3.294 1.802-2.763 4.188-1.063 3.817 1.647-.318 2.284-3.393 4.143-7.158 3.825-5.46-.478-5.779-4.25-5.938-7.332 1.326-.265 3.764.957 5.832 3.878l.69-8.712c-2.174 2.337-4.242 2.816-6.522 2.869.742-2.338 4.242-6.163 4.242-6.163H39.42s3.393 3.825 4.188 6.163c-2.227-.053-4.242-.532-6.521-2.869l.742 8.712c2.068-2.921 4.507-4.09 5.78-3.878-.16 3.082-.478 6.8-5.886 7.332-3.818.318-6.84-1.541-7.158-3.825-.371-2.657 2.015-4.41 3.765-1.647 1.431-4.622-2.44-6.163-4.984-3.294 1.961-4.516 1.908-7.81-2.44-11.05-3.074 4.038-2.65 7.384 1.167 11.21-2.492-1.382-6.31.052-4.082 4.674 1.219-2.922 3.764-2.23 4.294.266.371 1.753-.689 3.772-3.022 4.197-1.856.372-4.772-.956-7.158-5.95 1.326.053 2.492.69 3.977 1.753l-2.492-8.181c-.636 2.337-1.432 3.825-2.28 4.622-.583-1.594-.477-2.816 0-5.42l-5.037 1.807c2.651 3.666 5.25 8.872 7.423 17.797 7.847-1.116 16.33-1.7 25.29-1.7Z" fill="#FFF"/></g></svg>