<svg viewBox="0 0 90 90" xmlns="http://www.w3.org/2000/svg"><path d="M53.514 72.448c9.902-3.485 17.027-12.833 17.027-23.83 0-13.965-11.457-25.324-25.541-25.324s-25.54 11.36-25.54 25.324c0 11.882 8.309 21.845 19.459 24.559v2.484c-12.52-2.755-21.892-13.8-21.892-27.043C17.027 33.3 29.552 20.882 45 20.882c15.449 0 27.973 12.418 27.973 27.736 0 12.37-8.178 22.83-19.46 26.401v-2.57ZM45 35.353c-7.378 0-13.378 5.95-13.378 13.265 0 5.137 2.98 9.567 7.297 11.767v2.682c-5.709-2.362-9.73-7.933-9.73-14.45 0-8.658 7.079-15.676 15.811-15.676s15.811 7.018 15.811 15.677c0 5.542-2.919 10.39-7.297 13.175v-3c2.958-2.434 4.864-6.075 4.864-10.175 0-7.315-6-13.265-13.378-13.265ZM0 48.618C0 64.284 8.158 78.038 20.479 86a46.267 46.267 0 0 1 2.279-1.375 45.819 45.819 0 0 1 5.84-2.759 47.52 47.52 0 0 1 1.754-.637 45.252 45.252 0 0 1 4.44-1.268 48.31 48.31 0 0 1 4.128-.77c.806-.081 1.612-.178 2.431-.243V52.235H38.92v-4.823h12.16v31.777c6.733.933 12.992 3.29 18.435 6.809C81.842 78.038 90 64.284 90 48.618 90 23.977 69.852 4 45 4S0 23.977 0 48.618Z" fill="#E54B4D" fill-rule="evenodd"/></svg>