<svg viewBox="0 0 90 90" xmlns="http://www.w3.org/2000/svg"><path d="M50.547 89.775c10.41-1.479 19.218-5.793 26.334-12.89 7.098-7.115 11.414-15.92 12.893-26.328.3-2.078.3-9.017 0-11.095-1.48-10.408-5.812-19.23-12.893-26.328C69.94 6.214 61.327 1.9 51.34.367 49.12.032 42.937-.127 40.683.12c-10.55 1.092-20.168 5.635-27.566 13.014C6.037 20.231 1.703 29.054.224 39.462c-.14.97-.215 2.998-.224 5.097v.9c.01 2.1.084 4.128.224 5.098 1.48 10.408 5.812 19.23 12.893 26.328 7.099 7.079 15.923 11.411 26.334 12.89.97.14 2.998.215 5.097.224h.902c2.099-.01 4.128-.084 5.097-.224ZM38.07 85.51c-8.759-1.61-15.996-5.376-22.136-11.495-6.229-6.243-9.962-13.511-11.59-22.566-.46-2.547-.46-10.364 0-12.91 1.628-9.09 5.361-16.323 11.59-22.566C21.366 10.56 27.7 6.953 35.062 5.114c1.557-.389 4.388-.884 5.839-1.025 1.433-.142 7.113-.106 8.582.053a41.255 41.255 0 0 1 29.78 18.197 41.114 41.114 0 0 1 6.6 18.428c.283 2.759.106 8.683-.354 11.124-1.027 5.57-2.955 10.593-5.769 15.014-6.794 10.7-17.977 17.65-30.54 18.959-2.76.283-8.688.106-11.13-.354Zm26.217-9.119C70.54 72.588 75.63 66.9 78.766 60.19c3.293-7.01 4.245-15.656 2.606-23.387-.986-4.737-3.24-9.88-5.936-13.666l-.598-.828-8.772 9.422c-4.827 5.16-8.843 9.404-8.913 9.404-.088 0-2.079-3.364-4.439-7.484-2.343-4.104-4.333-7.485-4.404-7.485-.07 0-2.959 3.434-6.411 7.608-3.47 4.191-6.517 7.89-6.8 8.206l-.492.582-3.47-5.301-.645-.972-.31-.465c-1.475-2.208-2.598-3.823-2.656-3.794-.053.01-3.977 5.653-8.094 11.608l-.495.716c-3.962 5.732-7.967 11.554-8.761 12.754-.23.334-.194.493.229 1.497 5.055 12.08 15.5 20.463 28.253 22.682 8.754 1.515 18.02-.246 25.629-4.896Z" fill="#0097B6"/></svg>