<svg viewBox="0 0 90 90" xmlns="http://www.w3.org/2000/svg"><g fill="none" fill-rule="evenodd"><path fill="#FFF" d="M0 0h90v90H0z"/><path d="M73.598 26.358 80 20H59.338l-6.4 6.358-7.934 7.882-7.785-7.731h-6.667L41.67 37.548l3.334 3.31 3.333-3.31L59.45 26.509h7.329l-14.78 14.678-3.333 3.31 3.333 3.311 14.785 14.68h6.667l-6.52-6.472-11.599-11.518 11.599-11.519 6.667-6.62ZM48.33 51.45l-3.334-3.31-3.333 3.31-11.118 11.04h-7.329l1.466-1.456L37.999 47.81l3.333-3.31-3.333-3.31-13.317-13.223-1.466-1.456H16.55l6.52 6.473 1.613 1.602 9.983 9.916-9.983 9.917-1.613 1.602-6.517 6.472-.147.146L10 69h20.66l6.402-6.358 7.934-7.88 7.785 7.729h6.664L48.33 51.45Z" fill="#182A54" fill-rule="nonzero"/></g></svg>