<svg viewBox="0 0 90 90" xmlns="http://www.w3.org/2000/svg"><g fill="none" fill-rule="evenodd"><path fill="#FFF" d="M0 0h90v90H0z"/><g fill-rule="nonzero"><path fill="#3D4543" d="M13.952 51.885H2v-1.778l7.342-8.435 1.195-1.147v-.058H2.171V38.23h11.724v1.778L6.61 48.443l-1.195 1.205v.057h8.537zm27.035 0h-3.073l-2.903-3.787-.797-1.32h-.056l-.797 1.32-2.903 3.787h-3.017l5.237-6.828-5.123-6.827h3.074l2.96 3.901.682 1.148h.057l.683-1.148 2.96-3.901h3.016l-5.179 6.827zm12.237-11.418H48.5v11.418h-2.447V40.467h-4.667V38.23h11.838z"/><path d="m67.738 38.23-5.123 11.073-1.024-2.008c-.341-.688-.968-1.262-1.423-1.434v-.058c1.252-.573 2.39-1.836 2.39-3.385 0-2.869-2.333-4.188-4.951-4.188h-3.7v2.237h3.7c1.537 0 2.504.574 2.504 1.951 0 1.09-.854 1.95-2.675 1.95h-3.529v2.239h2.39c1.651 0 2.505.516 3.074 1.72l1.822 3.616h2.845l1.48-3.27h6.546l1.48 3.27h2.674L70.015 38.23h-2.277Zm3.586 8.204h-4.838l.17-.23 2.22-4.934h.057l2.22 4.935.17.23Zm12.578-2.294c-.341-.058-1.878-.517-2.163-.574-2.333-.632-2.96-1.09-2.96-1.722 0-.688.797-1.606 3.245-1.606 1.65 0 2.903.63 3.927 1.836l1.764-1.779C86.235 38.745 84.3 38 82.024 38c-3.814 0-5.749 1.779-5.749 3.902 0 2.237 1.992 3.098 4.44 3.787.284.057 2.22.573 2.504.63 1.764.46 2.334 1.148 2.334 1.78 0 .86-.911 1.72-3.415 1.72-1.594 0-2.846-.458-4.497-1.95l-1.764 1.721c1.764 1.721 4.04 2.41 6.318 2.41C86.349 52 88 50.05 88 47.926c-.057-1.664-1.31-3.098-4.098-3.787Z" fill="#F32735"/><path d="M15.375 43.968h10.188v2.238H15.375zm0 5.737H26.36v2.238H15.375zm0-11.475H26.36v2.238H15.375z" fill="#3D4543"/></g></g></svg>