<svg viewBox="0 0 90 90" xmlns="http://www.w3.org/2000/svg"><g fill="none" fill-rule="evenodd"><path fill="#FFF" d="M0 0h90v90H0z"/><g fill-rule="nonzero"><path d="M44.821 37.4 33.393 23H13.75c-2.5.36-3.75 2.16-3.75 4.14 0 .36.179.9.357 1.44L31.25 54.86 44.821 37.4Z" fill="#3251DF"/><path d="m44.821 37.4-13.75 17.28 9.465 11.88c1.25.9 2.678 1.44 4.285 1.44 1.608 0 3.215-.72 4.465-1.62l9.285-11.7-13.75-17.28Z" fill="#3A1F54"/><path d="M50.536 23H33.393L44.82 37.4l10.36-12.96c-1.25-.9-2.858-1.44-4.643-1.44Z" fill="#B15EE6"/><path d="m66.786 38.48-9.107-11.52c-.893-1.08-1.608-1.98-2.5-2.52L44.82 37.4l13.75 17.46 9.108-11.52c.892-2.34-.715-4.68-.893-4.86Z" fill="#AB0354"/><path d="M80 26.78c0-2.34-2.143-3.42-3.929-3.78H59.464c.893.18 1.607 1.08 2.143 1.8L70 35.42a8.614 8.614 0 0 1 1.429 2.88l8.392-10.62c.179-.18.179-.54.179-.9Z" fill="#FF505D"/></g></g></svg>