<svg viewBox="0 0 90 90" xmlns="http://www.w3.org/2000/svg"><g fill="none" fill-rule="evenodd"><path d="M43.42 21.853c2.071-4.12 7.35-6.773 12.606-9.548 3.505-1.85 8.948-4.004 16.33-6.462 2.43-.188 3.644.249 3.644 1.31 0 1.592-11.05 6.628-12.961 7.68-7.013 3.858-11.941 9.165-9.554 15.941 1.594 4.528 9.494 9.87 15.44 14.825 2.952 2.46 5.7 3.857 6.408 6.927 2.132 9.254-.832 14.801-11.154 21.907-4.776 3.289-19.376 8.174-27.634 10.58-4.097 1.193-20.322 7.021-21.499 4.246-1.177-2.775 20.356-10.413 28.374-13.706 9.538-3.918 22.351-11.353 22.351-15.667 0-4.83-10.28-12.93-19.912-23.071-.455-.479-.714-1.088-1.055-1.706-2.333-4.22-3.454-9.137-1.384-13.256Z" fill="#2178C9"/><path fill="#FF9700" d="M22.101 13.432h5.61v68.277h-5.61z"/><path fill="#2178C9" d="M22.101 0h5.61v11.193h-5.61z"/></g></svg>