<svg viewBox="0 0 90 90" xmlns="http://www.w3.org/2000/svg"><defs><linearGradient x1="14.534%" y1="14.533%" x2="85.715%" y2="85.714%" id="a"><stop stop-color="#C38AE9" offset="0%"/><stop stop-color="#7363FF" offset="100%"/></linearGradient><linearGradient x1="-8.686%" y1="-5.878%" x2="136.43%" y2="106.966%" id="b"><stop stop-color="#C38AE9" offset="0%"/><stop stop-color="#7363FF" offset="100%"/></linearGradient><linearGradient x1="-33.521%" y1="-4.764%" x2="111.5%" y2="108.014%" id="c"><stop stop-color="#C38AE9" offset="0%"/><stop stop-color="#7363FF" offset="100%"/></linearGradient></defs><g fill="none"><path d="M45 0C20.214 0 0 20.214 0 45s20.214 45 45 45 45-20.214 45-45S69.786 0 45 0Zm0 83.563C23.756 83.563 6.437 66.247 6.437 45 6.437 23.753 23.757 6.437 45 6.437c21.244 0 38.563 17.316 38.563 38.563 0 21.247-17.32 38.563-38.563 38.563Z" fill="url(#a)"/><path d="M57.168 22.662a1812.91 1812.91 0 0 0-26.59 0c-4.377.065-7.92 3.733-8.434 7.981-.9 4.763 1.288 9.4 4.312 12.877 1.869-1.994 3.734-3.992 5.732-5.922-1.03-1.609-2.704-3.542-1.61-5.536 1.095-1.995 3.604-2.574 5.732-2.64 5.151-.064 10.3 0 15.45 0 2.125 0 4.764.321 6.117 2.254 1.095 1.74 0 3.798-1.159 5.152-2.254 2.704-4.698 5.213-7.081 7.79-1.48 1.48-2.898 3.284-4.957 4.058-2.06.58-3.543-1.415-4.958-2.51-1.803 1.869-3.733 3.604-5.407 5.602 2.448 2.189 5.022 4.763 8.435 5.087 3.928.58 7.466-1.804 10.17-4.378 4.378-4.183 8.885-8.5 11.909-13.842 3.348-5.994-.26-15.523-7.661-15.973Z" fill="url(#b)"/><path d="M55.814 52.405c1.095 1.61 2.769 3.798 1.415 5.793-1.353 1.93-3.992 2.448-6.181 2.448-5.342-.065-10.688.064-16.03-.065-2.19-.065-5.023-1.03-5.343-3.604.065-2.898 2.509-4.763 4.248-6.76 2.768-2.834 5.213-5.987 8.37-8.37 2.124-1.675 4.442.385 5.922 1.929 1.994-1.739 3.863-3.542 5.472-5.666-2.51-2.124-5.022-4.698-8.5-5.022-3.863-.58-7.275 1.803-9.979 4.248-4.183 3.992-8.435 8.046-11.524 13.003-3.088 4.637-2.059 11.523 2.254 15.066 1.804 1.48 4.183 1.994 6.437 1.93 8.175-.065 16.286.064 24.462 0 3.668.129 7.21-2.319 8.435-5.793 2.059-5.278-.065-11.203-3.798-15.127-1.797 2.063-3.726 4.057-5.66 5.99Z" fill="url(#c)"/></g></svg>