<svg viewBox="0 0 90 90" xmlns="http://www.w3.org/2000/svg"><path d="M81.253 21.938 45.247.225c-.448-.3-.971-.3-1.494 0L7.747 21.938c-.448.3-.747.75-.747 1.348v43.428c0 .524.299 1.048.747 1.348l36.006 21.713c.224.15.448.225.747.225.224 0 .523-.075.747-.225l36.006-21.713c.448-.3.747-.75.747-1.348V23.21c0-.524-.299-1.048-.747-1.273Zm-8.59 7.787 6.349-3.818v18.719l-4.78 2.77-1.495-1.572V29.725h-.075ZM44.5 3.295 77.593 23.21l-6.35 3.819-5.154-3.145c.149-.3.149-.599.149-.898 0-.899-.598-1.797-1.569-2.396a6.304 6.304 0 0 0-2.988-.75c-1.12 0-2.166.3-2.988.75-.97.599-1.494 1.422-1.494 2.396 0 .898.598 1.797 1.569 2.396a6.307 6.307 0 0 0 2.988.748 7.34 7.34 0 0 0 1.793-.224l4.78 2.92L44.5 43.203l-6.573-3.968 4.856-3.07a6.35 6.35 0 0 0 1.718.224c1.12 0 2.166-.3 2.988-.748.971-.6 1.569-1.423 1.569-2.396 0-.899-.598-1.797-1.569-2.397-.822-.524-1.868-.748-2.988-.748-1.12 0-2.166.3-2.988.748-.971.6-1.569 1.423-1.569 2.397 0 .374.075.673.224.973l-5.154 3.22-5.603-3.37 15.837-9.509c.448-.3.747-.749.747-1.348V15.8c.598-.15 1.12-.3 1.569-.6.97-.598 1.568-1.422 1.568-2.32 0-.899-.522-1.797-1.568-2.396a6.306 6.306 0 0 0-2.988-.75c-1.12 0-2.167.225-2.988.75-.972.599-1.569 1.422-1.569 2.32 0 .9.523 1.798 1.569 2.397.448.3.97.449 1.568.599v6.589l-16.658 9.958-7.47-4.492-7.62-4.643 6.649-3.968 4.855 2.845c-.074.3-.15.524-.15.824 0 .898.524 1.797 1.495 2.396.822.524 1.868.749 2.988.749 1.12 0 2.166-.3 2.988-.75.971-.598 1.569-1.422 1.569-2.395 0-.899-.523-1.797-1.494-2.396-.822-.524-1.868-.749-2.988-.749-.673 0-1.27.075-1.868.3l-4.407-2.621L44.5 3.295ZM9.913 25.832l7.62 4.567 7.47 4.493v6.364l-7.993 8.461a1.48 1.48 0 0 0-.448 1.048v6.14c-1.046.15-2.017 1.048-2.017 2.845 0 2.022 1.27 4.418 2.988 5.391.523.3 1.046.524 1.569.524 1.195 0 2.39-.898 2.39-2.92 0-1.647-.822-3.444-2.017-4.642v-6.739l7.993-8.386c.299-.3.448-.674.448-1.048v-5.24l5.603 3.37v6.289c-1.046.15-2.017 1.048-2.017 2.845 0 2.022 1.27 4.418 2.988 5.391.523.3 1.046.524 1.569.524 1.195 0 2.39-.898 2.39-2.92 0-1.647-.821-3.444-2.017-4.642V41.78l6.574 3.969v39.908l-9.039-5.466v-11.98c0-.224-.074-.449-.15-.674l-4.183-8.535c.225-.45.3-.974.3-1.573 0-2.021-1.27-4.417-2.989-5.39-.523-.3-1.046-.525-1.569-.525-1.195 0-2.39.899-2.39 2.92 0 2.022 1.27 4.418 2.988 5.391.299.225.672.3.971.375l4.109 8.31v9.81L9.914 65.59V25.833ZM54.136 80.79V66.34l2.466-5.092 3.062-1.797a2.11 2.11 0 0 0 1.793.973c.523 0 1.046-.15 1.569-.524 1.643-1.048 2.988-3.37 2.988-5.466 0-2.021-1.195-2.92-2.39-2.92-.523 0-1.046.15-1.57.524-1.27.824-2.39 2.471-2.763 4.118l-4.482 2.621c-.224.15-.448.374-.598.599l-2.839 5.84c-.074.225-.149.45-.149.674v16.548l-5.229 3.144V45.824L69.75 31.448v14.975c0 .374.15.823.448 1.048l2.764 2.845c.299.3.672.45 1.046.45.224 0 .523-.075.747-.225l4.407-2.621v17.67l-25.025 15.2Z" fill="#00AEFF"/></svg>