<svg viewBox="0 0 90 90" xmlns="http://www.w3.org/2000/svg"><path d="M25.469 31.293c-.187-1.548 1.622-4.915 2.682-5.047 1.06-.132-.51 3.11-1.915 6.684 0 0-.634-.53-.767-1.637Zm25.178 9.515c-.214-1.77 3.48-3.158 3.48-3.158-.53 4.267-3.312 4.549-3.48 3.158Zm10.16 29.884c-.212-1.77 3.481-3.158 3.481-3.158-.53 4.268-3.31 4.549-3.48 3.158ZM39.273 51.52c-.243.607-1.02 1.506-2.86 1.734-.425.052-.918.04-1.434-.078.157-.143.3-.268.428-.375 2.48-2.007 4.306-3.132 5.678-3.303.685-.084 1.558.32 1.719 1.135.003.287-.029.549.002.801.13 1.075.707 2.19.707 2.19s1.5 2.99 2.467 2.87c1.684-.21-.585-1.436.139-3.836.628-2.13 1.834-4.46 1.802-6.83-.036-1.086-.203-1.675-.203-1.675-.646-2.016-2.341-3.451-3.325-3.616.095-.143.146-.224.146-.224.109-.141.215-.315.293-.453.272.16.705.33 1.172.271 2.47-.305 4.664-5.618 5.34-7.168l.003-.005c.7-1.274 1.354-2.67 1.851-3.79.035.284.086.438.086.438.943 3.09.738 6.901.738 6.901s-4.75 1.55-4.425 4.238c.247 2.053 2.67 2.458 3.388 2.37 1.651-.204 4.523-1.588 4.02-6.273a9.047 9.047 0 0 1-.026-.22c1.865-.604 3.192-1.47 4.139-2.35-.666 1.94-1.058 3.457-.965 4.233.183 1.517.817 3.62 3.155 3.33 1.714-.214 4.493-3.958 6.566-7.173a9.281 9.281 0 0 0-.027 2.32c.404 3.35 2.57 3.722 3.817 3.568l.311-.039c.029-.035.09-.043.153-.05.03-.005.063-.009.09-.044 1.684-.466 3.356-2.085 4.661-3.85.244-.35.376-.56.376-.56a3.8 3.8 0 0 0 .293-.453c.273.159.705.33 1.172.271 2.65-.328 4.984-6.424 5.462-7.445.564-1.096-.445-1.324-.796-.575-2.06 4.169-3.209 6.717-4.706 6.903-.155.019-.514-.065-.62-.148.838-1.451 1.278-2.532 1.21-3.1-.321-2.655-3.27-1.135-2.962 1.425.138 1.138.513 1.893.513 1.893s-2.948 4.15-4.787 4.378c-2.712.337 1.229-11.571 6.406-12.213 1.402-.174 1.599-.647 1.447-.853-.94-1.23-2.328-2.245-4.074-2.028-2.297.285-5.438 3.5-7.023 7.301-2.396 4.154-5.93 8.61-6.744 8.712-2.276.282 3.75-11.916 6.735-19.44.62-.108 1.275-.19 1.93-.27 3.461-.43 5.65 1.19 5.76 2.107 0 0 1.108-.009.663-1.076-.675-1.648-2.708-3.545-6.605-3.062l-.905.112c.522-1.444.801-2.537.738-3.075-.387-3.19-3.545-3.922-3.434-3.005.126 1.042-.671 3.61-1.872 6.775a41.982 41.982 0 0 1-4.584.825c-2.151.267-3.797-.267-4.794-.913-.587-.408-1.06-.125-.553.934.622 1.207 2.068 2.439 5.529 2.01 1.247-.155 2.401-.298 3.484-.497-1.185 3.017-2.553 6.284-3.683 9.175-1.269 2.465-3.053 3.959-5.607 4.872-.626-6.498.714-6.664.509-8.371-.217-1.801-2.448-2.968-3.233-3.448-.615-.372-.86 1.262-.956 2.043-.305 1.93-1.832 5.007-2.702 6.718a.985.985 0 0 0-.078.193c-1.887 3.83-2.997 6.154-4.424 6.332-.157.019-.514-.065-.62-.148.838-1.452 1.278-2.532 1.208-3.1-.32-2.656-3.27-1.134-2.96 1.425.138 1.137.514 1.893.514 1.893s-2.95 4.15-4.789 4.379c-2.712.336 1.23-11.571 6.405-12.213 1.403-.175 1.6-.648 1.448-.854-.94-1.231-2.328-2.245-4.074-2.029-3.398.422-8.648 7.264-7.966 12.92.405 3.35 2.57 3.722 3.817 3.568l.313-.039c.027-.035.09-.043.152-.05.03-.004.062-.008.09-.043 1.33-.368 2.65-1.454 3.791-2.764.101.438.352 1.106.959 1.79-.093 1.07-.244 2.179-.449 3.102-.792-1.056-2.146-1.787-4.173-1.535-2.307.286-4.898 1.634-7.604 4.119a15.53 15.53 0 0 0-.528.476c-.323-.785-.571-1.737-.711-2.889-.66-5.466 2.816-11.799 4.052-13.62 1.208-1.786-1.476-3.314-2.028-3.695-.584-.376-.901.144-1.306.451-.61.461-4.493 3.156-4.493 3.156s1.6-2.85 2.582-5.513c1.028-1.62 1.709-3.62 1.26-5.869-1.236-6.038-8.1-6.79-13.088-6.171-7.858.975-18.993 6.782-17.655 13.93.932 4.567 3.698 6.244 5.973 5.963 1.123-.14-.808-.927-.808-.927s-1.16-.433-1.564-2.468c-1.18-5.852 6.376-14.294 14.733-15.33 2.9-.36 7.109.432 7.864 4.06.145.697.151 1.472.015 2.286-1.372 1.053-2.73 3.103-3.149 5.648-1.558 1.53-3.693 2.874-6.438 3.742 0 0 3.073-5.738 2.704-7.746-.439-2.062-3.394-2.946-3.22-2.037.473 2.346-9.484 16.86-8.904 21.664.331 2.75 1.493 3.985 2.21 3.896.718-.09.493-.639.379-1.587-.233-1.928 5.014-10.886 5.014-10.886s4.883-.512 8.527-2.664c.64 1.984 1.835 2.181 2.55 2.092 1.777-.22 3.303-.955 4.157-1.478-1.218 2.493-3.378 7.669-2.84 12.124.297 2.459 1.241 4.331 2.477 5.667a39.805 39.805 0 0 0-1.56 1.949c-1.192 1.656-2.295 3.268-3.113 4.877-.418.726-.798 1.51-1.061 2.216-.325.714-.87 1.969-1.153 2.773-.773 2.246-1.191 4.286-1.227 6.088-.104 7.261 4.105 9.882 8.719 9.31 5.707-.707 9.575-3.447 12.133-6.339.567 1.758 2.223 2.697 3.212 2.576 1.154-.144 4.518-5.308 4.518-5.308s-.39 1.235-.298 1.994c.095.79 1.579 2.595 2.858 2.436 2.655-.33 7.538-9.273 8.616-11.323a.817.817 0 0 0 .072-.116c.7-1.272 1.355-2.669 1.853-3.79.034.285.084.438.084.438.943 3.092.739 6.902.739 6.902s-4.75 1.55-4.425 4.237c.247 2.055 2.67 2.46 3.387 2.371 1.653-.205 4.524-1.588 4.022-6.273l-.027-.22c1.396-.453 2.49-1.052 3.35-1.692-.896 2.185-1.463 3.912-1.367 4.716.253 2.087 3.059 3.054 2.91 1.821-.358-2.97 8.825-13.668 8.825-13.668s-3.692 7.162-3.472 8.994c.222 1.834 1.416 4.38 3.443 4.129 2.837-.352 8.47-10.578 9.002-11.67.56-1.128-.413-1.328-.797-.574-2.267 4.546-6.533 10.368-7.468 10.485-2.931.362 3.441-9.762 3.254-11.31-.183-1.518-.838-3.264-2.116-3.106-1.277.159-7.797 8.28-7.797 8.28s6.608-12.11 6.287-14.764c-.316-2.622-2.906-3.616-2.829-2.984.278 2.305-3.888 10.586-6.722 16.966-1.168 1.56-2.675 2.602-4.633 3.302-.626-6.498.714-6.664.508-8.37-.218-1.802-2.447-2.969-3.232-3.449-.615-.372-.862 1.261-.957 2.043-.281 1.783-1.606 4.546-2.492 6.305a.95.95 0 0 0-.062.107c-2.237 4.543-6.285 10.337-7.251 10.457-.998.125 1.533-3.558 1.254-5.864-.278-2.307-2.893-2.464-2.48-1.939.38.53-5.201 8.568-5.95 8.662-2.244.278 4.752-11.496 8.4-11.95.686-.083-.935-3.283-2.774-3.055-3.187.396-8.93 8.216-9.573 12.366-2.445 3.029-6.308 6.091-12.17 6.819-2.618.325-4.688-1.087-4.642-5.166l-.022-.703c.085-2.705 1.45-6.338 2.697-9.124.243-.607.787-1.605.959-2.011.263-.449.521-.93.783-1.38a23.878 23.878 0 0 1 2.499-3.421 38.303 38.303 0 0 1 1.478-1.616 6.34 6.34 0 0 0 2.108.113c3.274-.407 3.844-2.755 3.844-2.755s-.387-.594-.662.018Z" fill="#005A98" fill-rule="evenodd"/></svg>