<svg viewBox="0 0 90 90" xmlns="http://www.w3.org/2000/svg"><path d="m15.393 35.96 4.132-9.235c0-.393 0-.393.393-.393v.393l3.344 4.716c0 .393 0 .393-.393.393l-7.082 4.52h-.394v-.393Zm16.328 33.8-2.95-9.432v-.197h.393l2.95.59v9.235c-.393 0-.393 0-.393-.196Zm0-10.022-2.557-.393c0-.197-.197-.197-.197-.393l2.951-6.485c0-.393 0-.393.393-.393v7.467h-.59v.197ZM15.393 88.231l8.066-4.126h.393l7.476 5.109v.393c0 .196-.197.196-.197.393l-15.54-1.179a.423.423 0 0 1-.394-.393l.196-.197ZM15 85.873V75.066h.393l7.082 2.161c.394 0 .394 0 .394.393l-7.476 8.646C15 86.07 15 86.07 15 85.873Zm0-11.79V73.1l3.541-8.056c0-.197 0-.197.393-.197v.393l3.935 10.808v.393s0 .197-.394 0l-7.082-1.769-.393-.589Zm0-3.734v-8.056h.393l2.755 1.768v.393l-2.361 6.092H15v-.197Zm0-9.432v-1.572l7.082-5.502h.393v.393l-3.737 8.843c0 .196-.197.196-.197.393L15 61.31v-.393Zm0-2.948v-.59l3.934-9.628h.394l3.934 3.93v.197l-7.869 6.288H15v-.197Zm0-3.733V41.463c0-.197.197-.197.393-.197l.394.197 2.557 5.699v.393l-2.754 6.877-.393.393c0-.393-.197-.59-.197-.59Zm.393-15.524 9.443 2.75.394.394-.394.393-5.311 4.52h-.394v-.197l-3.934-7.074c-.197-.786 0-.786.196-.786ZM15 33.602v-8.056h.393l3.541.393v.393l-3.344 7.467h-.197c-.196 0-.393 0-.393-.196Zm0-9.235v-1.18l4.131-5.108h.394v.196l-.394 6.288v.393l-3.934-.393c-.197 0-.197 0-.197-.196Zm0-3.144v-5.306h.393l3.541.59c0 .196.197.196.197.393 0 .196-.197.196-.197.196l-3.54 4.52c-.394 0-.394 0-.394-.393Zm0-6.485v-1.769l2.36-2.75.394-.197c0 .196 0 .196.197.196l1.574 5.306c0 .197-.197.197-.197.197l-3.935-.983c-.393.393-.393.393-.393 0Zm0-3.537V5.109l.393-.196c0 .196.197.196.197.196l1.77 3.537v.393l-2.163 2.162v.393c0-.197-.197-.197-.197-.393Zm0-8.45V0h12.59c.197 0 .197.197.394.197V.59l-9.64 7.663h-.196L15 2.751ZM29.36.786l1.574 7.467v.393h-11.41v-.393L28.77.786h.59ZM30.149 0h8.065v.393l-6.295 7.27c0 .197-.197.197-.197.197l-.196-.196L29.95.393c0-.393 0-.393.197-.393Zm-.394 9.629-9.443 5.895c0 .393 0 .393-.393 0l-1.377-5.895v-.197h11.016v.197h.197Zm21.05-8.057-8.853 5.11h-.394L40.18.392V0h.394l10.23 1.179h.393l-.394.393Zm9.245 4.716L49.623 8.057c0 .393 0 0-.393 0V7.86l3.147-5.895c0-.196.197-.196.197-.393h.393L60.05 5.7v.59Zm5.902 8.646-6.295 6.289h-.197c-.197 0-.197-.197-.197-.393L61.82 7.86h.393l3.935 6.878-.197.196Zm1.18 9.63-2.164 6.877c0 .197-.197.197-.393.393h-.394l-5.311-8.253c-.394-.393-.394-.393 0-.59l6.885-6.484v-.393c.197 0 .197.196.197.196l1.18 8.253Zm-8.656 14.344-2.164-6.288v-.393h.394l6.885.59c.197 0 .197.196.394.196v.393l-5.115 5.306c0 .196 0 .59-.394.196Zm-1.377-.393-8.852-7.074v-.393h.197l7.082 1.18 2.164 5.894c0 .197-.197.197-.197.393h-.394Zm-.59-7.467 2.164-6.878h.394l5.114 7.664v.393h-.196l-6.886-.59a.423.423 0 0 0-.393-.392v-.197h-.197Zm-.983-1.179-3.541-9.629v-.196h.393l5.705 2.947v.59l-1.77 6.485-.197.393c-.197 0-.197-.197-.394-.197l-.196-.393Zm2.36-7.664-6.295-3.34v-.393L60.246 8.45h.197c.196 0 .196.196.393.196L58.082 22.01l-.197.196Zm-9.64.59-.983-3.34.394-.197h2.164c.196 0 .196 0 .196.196v.393l-1.573 2.948v.196s-.197 0-.197-.196ZM51 20.437l4.131 10.808-.393.196-8.066-1.179-.197-.393v-.393l2.164-4.716 2.164-4.52.197.197Zm0-2.751-1.967-8.254c0-.393 0-.393.197-.393l10.82-1.965c.196 0 .196.197.196.197v.393l-9.05 10.218-.196-.196Zm-.787.982h-2.557v-.393l.787-6.288h.59l1.574 6.288v.393h-.394Zm-6.492-4.127-1.573-6.288c0-.393 0-.393.196-.393l5.115 1.18v.392l-3.541 4.913c0 .393 0 .393-.393.393l.196-.197Zm4.131-3.34-.983 6.485a.423.423 0 0 1-.394.393l-2.164-2.162c-.393 0-.393-.393 0-.393l2.951-4.52c.394 0 .394-.393.394 0l.196.197Zm.394-2.751-4.918-1.18v-.196L51 2.358h.197v.393L48.443 8.45h-.197ZM39.59.983l1.574 6.091c-.197 0-.197.197-.394.197l-7.475.982h-.393V7.86L38.803.786h.394l.393.197Zm-7.475 13.165-9.64 1.573h-.393c0-.393 0-.393.393-.393l8.46-5.7h.196c0 .197.197.394.394.394l.59 3.93v.196Zm.59-3.93 4.721 3.537h.394a.423.423 0 0 1-.394.393h-4.13c-.198 0-.198 0-.198-.393l-.983-3.34c0-.197.196-.197.196-.393 0 .196.394.196.394.196Zm-.394 7.271v13.756h-.59l-2.95-7.271h.393l2.754-6.485s.197-.393.197 0h.196Zm7.87-3.34 1.18-4.52h.393l1.574 5.305h-.394v.394l-2.754-.983c0 .196-.196-.197 0-.197Zm-7.28-5.11 7.673-1.179.393.393-1.77 5.306v.196h-.394L32.902 9.63c0-.197-.197-.197-.197-.197l.197-.393Zm13.574 21.813 9.05 7.074v.393c0 .196 0 .196-.394.196l-12.59-4.323V33.8l3.344-2.947h.59Zm-5.114 3.93 1.967 6.288c0 .196-.197.196-.197.393h-.59l-8.262-6.288v-.393c0-.197.196-.197.196-.393h6.689s.197.196.197.393Zm1.18 0 13.377 4.716.393.196c0 .197 0 .197-.196.197L44.31 42.052c-.196 0-.196-.196-.393-.196l-1.77-6.878c0-.196 0-.196.393-.196-.197-.197-.197-.197 0 0Zm15.738 5.895 1.573 6.485c0 .196-.196.196-.196.393l-13.377-4.52-.197-.393c0-.197.197-.197.197-.393l12-2.162v.59Zm6.885 3.144-4.131 3.537h-.394c-.196 0-.196 0-.196-.393l-1.18-5.699v-.393h.393l5.705 2.162.196.393c0 .196-.196.196-.393.393Zm5.705 6.092-9.443-1.769v-.59l4.525-3.537h.197l4.524 5.7c.394 0 .394 0 .394.196h-.197Zm3.934 10.218-4.524 1.572h-.394v-.393l2.164-8.253.394-.393.393.393L75 59.934v.197h-.197ZM73.23 72.118l-5.115-.59c0-.196-.197-.196-.197-.196l.393-.393 5.902-8.45h.394c.393 0 .393 0 .393.393l-1.18 9.236h-.59Zm-5.312 7.664-.393-7.468v-.393h.393l5.115.983v.196l-4.525 6.485c-.197 0-.197.197-.197.197h-.393Zm-10.426 6.484-.59-8.253v-.393h.393l9.246 3.537v.59l-8.852 4.52h-.197Zm-9.05 2.162-7.672-5.11c-.393 0-.393 0-.393-.196h.393l14.164 3.93v.393l-6.098 1.18-.393-.197Zm-14.95.786 3.54-6.485v-.393h.394l9.246 5.895c.197 0 .394.197.394.393a.423.423 0 0 1-.394.393l-12.787.786c-.393 0-.393 0-.393-.393v-.196Zm8.065-47.162-14.36-.982h-.394v-.197l5.312-6.091h.59l9.05 6.877v.197l-.198.196Zm-15.54-1.965-1.771-7.27v-.393s.393-.197.393 0l6.886 1.572c.196 0 .196.196.393.196v.393l-5.311 5.306c-.197.393-.197.393-.59.196Zm5.704 9.04-6.885 2.358c-.393 0-.393 0-.393-.197l1.573-8.45v-.393h.394l5.311 6.289v.393Zm-4.524-7.271 14.754.982c.197 0 .197 0 .197.197h-.197l-9.05 5.699h-.196L27 42.249v-.197l.197-.196Zm16.524 1.572 1.968 5.11v.196a.423.423 0 0 0-.394.393h-10.23c-.196 0-.196-.197-.393-.197v-.196l8.656-5.11c0-.393 0-.393.393-.393v.197Zm1.18 0 12.197 4.127c.394 0 .394 0 .394.196h-.394l-10.82.983-1.77-4.913v-.393h.394Zm13.771 5.699-5.705 4.52h-.393l-5.115-3.538v-.393h.393l10.427-.982h.393v.393Zm-4.524 5.895 11.803 6.092v.196h-.197l-9.443-1.179c-.196 0-.196-.197-.393-.197l-2.164-4.52v-.196l.394-.196Zm2.36 6.681 8.656 8.646v.393h-.394l-9.836-2.358c-.196 0-.196-.196-.393-.196l1.574-6.288v-.393c.196 0 .393 0 .393.196Zm-2.36 7.664 1.573 6.485c.394 0 0 0 0 .393h-.196l-5.902-3.538v-.393l4.525-2.947Zm-5.705 3.537 4.524 2.751c.197 0 .197.197.197.197-.197 0-.197.196-.197 0l-9.442-1.573v-.393l4.524-1.179.394.197Zm-8.656 2.162-2.754 5.305h-.394l-3.344-5.699v-.393c0-.393 0-.393.394-.393l5.704.59h.394v.59Zm20.656-25.94 7.475 11.791v.197h-.197l-13.77-6.878-.197-.197h.197l6.295-5.109.197.197Zm1.18-.392 10.23 2.161v.393l-2.361 9.826h-.394l-7.672-11.987v-.393h.197Zm7.082 14.148-1.77 7.467c0 .393 0 .393-.394.393l-9.246-9.235v-.393h.394l10.82 1.572c.196-.197.196 0 .196.196 0-.196 0-.196 0 0Zm5.115-1.179-5.312 7.467h-.393v-.393l1.574-5.895v-.393l4.13-1.179c.394.393.394.393 0 .393ZM55.328 69.17l10.23 2.358.393.393c0 .197-.197.197-.197.393l-8.262 4.52h-.394l-.393-.196-1.574-6.878.197-.59Zm11.41 3.537.59 8.057v.393h-.394l-9.049-3.93h-.196c0-.393 0-.393.393-.393l8.262-4.52h.197v.393h.197Zm-13.18 4.717L38.41 80.96h-.394v-.197l2.754-5.698c0-.197.197-.197.197-.394l12.59 2.162v.59ZM15.59 37.533l7.476-4.716h.393l1.77 7.467v.393h-.393l-9.246-3.144-.197.196c0-.196 0-.196.197-.196Zm7.869 13.559-3.934-3.734v-.393l5.311-4.52h.394v.393l-1.574 8.057-.197.197Zm8.262-.786-3.344 8.056-.393.393-.394-.393-3.344-5.895c0-.393 0-.393.393-.393l6.492-2.161h.394v.393h.196Zm-7.475 2.947 3.344 5.895v.393l-8.065 4.127h-.394v-.393l4.525-10.218c.196 0 .196-.197.393-.197l.197.393Zm0 22.795 3.934-14.345h.394l3.54 11.79c0 .393 0 .393-.393.393l-7.082 2.752h-.393v-.59Zm6.492-.59-6.295 6.878h-.394c-.197 0-.197 0-.197-.196v-4.52l.197-.393 6.295-1.965c.394-.393.394 0 .394 0s.393 0 0 .197Zm5.705 6.485-2.951 5.699s-.394.393-.394 0h-.393v-11.79c0-.197.197-.393.393-.393v.393l3.345 5.698v.393Zm-4.525 6.878-7.082-5.11c-.197 0-.197-.196-.393-.196l7.475-8.056h.393v.393l.197 12.772c0 .393 0 .393-.197.393l-.393-.196Zm-8.459-10.218v4.52c0 .392 0 .392-.393.392l-7.28 3.537c0 .393 0 0-.393 0v-.196l7.082-8.057c0-.196.197-.196.197-.393l.787.197Zm32.852 8.056-17.114-4.716v-.393l16.721-3.93h.393l.394 8.646v.59l-.394-.197Zm-36.59-22.008 7.476-3.93h.196v.196L23.46 75.066v.196c-.197 0-.197-.196-.393-.196l-3.541-10.219c0-.196.196-.196.196-.196Zm12-49.323-3.344 7.663h-.393l-6.886-5.895v-.786l10.23-1.376h.393v.394Zm-9.836 7.86-1.574 1.179c-.196 0-.196-.197-.393-.197l.393-4.126v-.393c.197 0 .197 0 .197.393l1.18 2.947v.197h.197Zm-.393-4.716 5.115 4.716v.393h-.394l-3.344-.786-1.574-4.127c-.393 0 0-.393 0-.393l.197.197Zm6.098 6.288-3.344 5.699h-.59l-.984-6.289v-.196h.197l4.524.59v.196h.197Zm3.935 8.843-6.886-1.769c-.196-.393-.196-.393 0-.393l3.541-6.288h.59l2.951 8.057c0 .393 0 .393-.196.393Zm-9.05-4.52-2.36-3.34c0-.394 0-.394.393-.394l1.574-1.572c.197 0 .197.197.393.197l.59 4.716v.393c-.59.196-.59.196-.59 0Z" fill="#46BAB6"/></svg>