<svg viewBox="0 0 90 90" xmlns="http://www.w3.org/2000/svg"><g fill="none" fill-rule="evenodd"><path fill="#FFF" d="M0 0h90v90H0z"/><path d="M69 45.029a27.11 27.11 0 0 1-.876 6.873C65.536 62.653 56.036 70.296 45.01 70.5 31.68 70.5 21 59.044 21 45.029S31.758 19.5 45.01 19.5a23.492 23.492 0 0 1 18.468 9.184 13.754 13.754 0 0 1-7.92 4.22 14.868 14.868 0 0 0-10.51-4.41c-8.55 0-15.46 7.465-15.46 16.611-.29 8.86 6.626 16.282 15.46 16.593a15.424 15.424 0 0 0 14.108-9.738H45.2a15.938 15.938 0 0 1 2.532-8.497h21.21c.02.496.058 1.05.058 1.566Z" fill="#FF5024" fill-rule="nonzero"/></g></svg>