<svg viewBox="0 0 90 90" xmlns="http://www.w3.org/2000/svg"><g fill="none" fill-rule="evenodd"><path fill="#F42534" d="M0 0h90v90H0z"/><path d="M39.15 37.08h2.88v15.84h-2.88zm17.73.99c-.99.63-1.71 1.62-2.07 2.7l-2.97 8.1-2.97-8.1c-.36-1.08-1.08-1.98-2.07-2.7-.9-.63-1.98-.99-3.15-.99v2.79c1.17.09 2.16.72 2.61 1.8l3.69 9.9c.27.81 1.08 1.35 1.98 1.35.9 0 1.62-.54 1.89-1.35l3.69-9.9c.36-1.08 1.44-1.8 2.61-1.89v-2.79c-1.26.09-2.34.45-3.24 1.08m-41.4 14.85h2.7V40.86l5.76 7.83c.99 1.44 3.15 1.44 4.14 0l5.67-7.83v12.15h2.79V37.08h-1.26c-1.35 0-2.7.63-3.51 1.8l-5.76 7.92-5.76-7.92c-.81-1.17-2.16-1.8-3.51-1.8h-1.26v15.84Zm56.25-4.86c0 1.17-.9 2.07-2.07 2.07h-5.13c-1.17 0-2.07-.9-2.07-2.07v-.18c0-1.17.9-2.07 2.07-2.07h5.4c.81 0 1.35-.18 1.8-.36v2.61Zm2.79-6.75c-.09-2.34-2.07-4.23-4.41-4.23h-8.55v2.7h8.55c.9 0 1.62.72 1.62 1.71v.36c0 .63-.63 1.17-1.26 1.17h-5.94a4.84 4.84 0 0 0-4.86 4.86v.18c0 2.7 2.16 4.86 4.86 4.86h5.13c2.7 0 4.86-2.16 4.86-4.86v-6.75Z" fill="#FFF" fill-rule="nonzero"/></g></svg>