<svg viewBox="0 0 90 90" xmlns="http://www.w3.org/2000/svg"><defs><linearGradient x1="95.92%" y1="50.299%" x2="0%" y2="51.328%" id="a"><stop stop-color="#FFF" stop-opacity="0" offset="0%"/><stop stop-color="#FFF" stop-opacity=".876" offset="31.078%"/><stop stop-color="#FFF" offset="100%"/></linearGradient></defs><g fill="none" fill-rule="evenodd"><path d="M33 0h57v57c0 18.225-14.775 33-33 33H0V33C0 14.775 14.775 0 33 0Z" fill="#2E6DE3"/><path d="M3.475 49.081 41.5 44.5 46 53H0a3.947 3.947 0 0 1 3.475-3.919Z" fill="url(#a)" transform="translate(17 16)"/><path d="M55.847 16c6.232 0 11.284 5.052 11.284 11.284 0 .575-.044 1.148-.131 1.716a15.324 15.324 0 0 1-7.697 11.066l10.049 18.787a4 4 0 0 1-.231 4.153L65 69 51.827 43.093A2 2 0 0 0 50.044 42h-4.038a2 2 0 0 0-1.969 1.647l-1.446 8.06A4 4 0 0 1 38.654 55H33l7.188-37.378A2 2 0 0 1 42.152 16h13.695Zm0 8h-8.283l-1.795 10h6.078a7.331 7.331 0 0 0 7.246-6.216 3.284 3.284 0 0 0-3.06-3.779L55.847 24Z" fill="#FFF" fill-rule="nonzero"/></g></svg>