<svg viewBox="0 0 90 90" xmlns="http://www.w3.org/2000/svg"><defs><linearGradient x1="55.213%" y1="6.198%" x2="36.955%" y2="161.033%" id="a"><stop stop-color="#3AD1BF" offset="0%"/><stop stop-color="#119BD2" offset="100%"/></linearGradient><linearGradient x1="55.637%" y1="-9.634%" x2="27.761%" y2="198.848%" id="b"><stop stop-color="#3AD1BF" offset="0%"/><stop stop-color="#119BD2" offset="100%"/></linearGradient></defs><g fill="none"><path d="M45 90c-6.07 0-11.97-1.197-17.513-3.534a44.866 44.866 0 0 1-14.306-9.649 44.875 44.875 0 0 1-9.647-14.309A44.816 44.816 0 0 1 0 45.008a44.885 44.885 0 0 1 3.534-17.516 44.875 44.875 0 0 1 9.647-14.31 44.867 44.867 0 0 1 14.306-9.648A44.865 44.865 0 0 1 45 0c6.07 0 11.97 1.197 17.513 3.534a44.868 44.868 0 0 1 14.306 9.649 44.875 44.875 0 0 1 9.647 14.309C88.817 33.036 90 38.936 90 45.007a44.887 44.887 0 0 1-3.534 17.516A44.875 44.875 0 0 1 76.82 76.83a44.87 44.87 0 0 1-14.306 9.649A44.905 44.905 0 0 1 45 90Z" fill="url(#a)"/><path d="M45 85.095c22.138 0 40.084-17.949 40.084-40.09 0-22.141-17.946-40.09-40.084-40.09S4.916 22.864 4.916 45.005c0 22.141 17.946 40.09 40.084 40.09Z" fill="#FFF"/><path d="M68.554 28.278c-.683-.029-1.496.214-2.408.855a6.482 6.482 0 0 0-1.282 1.097c-.342.342-.698.741-1.069 1.183L45.527 51.351l7.011-10.39a6.917 6.917 0 0 0 .641-6.526l-5.429-12.87a3.931 3.931 0 0 0-2.48-2.237 3.27 3.27 0 0 0-.726-.143h-.014c-.043 0-.1-.014-.143-.014h-.484c-.043 0-.1 0-.143.014h-.014a4.36 4.36 0 0 0-.727.143 3.893 3.893 0 0 0-2.479 2.237L35.11 34.45a6.882 6.882 0 0 0 .642 6.527l7.01 10.375-18.424-20.137a16.003 16.003 0 0 0-.74-.855c-.015-.015-.015-.029-.03-.043a4.863 4.863 0 0 0-2.023-1.668c-.74-.427-1.396-.598-1.966-.57a5.311 5.311 0 0 0-3.263 1.283 5.007 5.007 0 0 0-1.325 1.81v.014c-.015.043-.043.1-.057.143v.014c-.114.285-.2.584-.257.898a4.57 4.57 0 0 0-.085.898v.028c0 .171.014.314.042.428.015.1.029.2.057.285l6.94 33.72a3.95 3.95 0 0 0 2.38 3.263 3.92 3.92 0 0 0 5.115-2.11l2.864-6.783a6.882 6.882 0 0 0-.641-6.527l-6.768-10.034s16.002 17.83 16.315 18.086c1.625 1.368 4.004 1.61 5.857.413.285-.185.541-.384.77-.613.37-.299 16.4-17.886 16.4-17.886l-6.882 10.205a6.917 6.917 0 0 0-.641 6.527l2.664 6.314c.827 1.98 3.135 2.935 5.116 2.095a3.887 3.887 0 0 0 2.337-2.95c0-.029.014-.057.014-.086l6.883-33.107c0-.028.014-.057.014-.071l.014-.043c.057-.242.086-.485.086-.727 0-.071.014-.142.014-.228 0-2.779-2.237-4.96-4.988-5.06Z" fill="url(#b)"/></g></svg>