<svg viewBox="0 0 90 90" xmlns="http://www.w3.org/2000/svg"><g fill="none"><path d="M86.237 43.132 77.516 28.41A3.506 3.506 0 0 0 74.4 26.5H8.013a3.493 3.493 0 0 0-2.483 1.027 3.542 3.542 0 0 0-1.033 2.495v29.47c.012 1.945 1.584 3.515 3.516 3.51h66.384a3.503 3.503 0 0 0 3.115-1.912l8.725-14.714a3.569 3.569 0 0 0 0-3.244Z" fill="#FFF"/><path d="m89.573 43.226-9.557-16.132A3.842 3.842 0 0 0 76.602 25H3.852a3.828 3.828 0 0 0-2.72 1.126A3.881 3.881 0 0 0 0 28.86v32.295C.012 63.286 1.736 65.006 3.853 65h72.745a3.839 3.839 0 0 0 3.414-2.094l9.56-16.125a3.91 3.91 0 0 0 0-3.555ZM21.91 41.34l-7.376 15.2a.375.375 0 0 1-.693 0L6.435 41.343a.228.228 0 0 1 .016-.235.224.224 0 0 1 .216-.093h2.841c.098 0 .191 0 .233.102l4.448 9.683 4.419-9.683a.224.224 0 0 1 .232-.113h2.837a.22.22 0 0 1 .205.094.224.224 0 0 1 .016.227l.012.015Zm15.504 7.056-.022.664a.244.244 0 0 1-.259.223h-11.58a5.4 5.4 0 0 0 1.285 3.736 4.55 4.55 0 0 0 3.56 1.558c1.84 0 3.632-1.203 4.558-2.785a.254.254 0 0 1 .348-.09l1.916 1.132c.122.072.164.23.093.355-1.714 2.691-4.132 4.039-7.256 4.041a6.887 6.887 0 0 1-5.535-2.498c-1.372-1.62-2.058-3.794-2.058-6.52a8.381 8.381 0 0 1 .623-3.042 6.965 6.965 0 0 1 3.834-4.076 7.913 7.913 0 0 1 3.129-.622c3.28 0 5.49 1.39 6.63 4.173a8.997 8.997 0 0 1 .734 3.751Zm16.18 8.03c0 .144-.218.325-.375.325h-2.5c-.142 0-.225-.181-.225-.325V47.17c0-1.351-.25-2.332-.72-2.944-.531-.709-1.498-1.064-2.791-1.064-2.583 0-3.924 1.638-3.924 4.906v8.37c0 .14-.023.32-.165.32h-2.478c-.142 0-.176-.18-.176-.32v-15.28c0-.143.034-.154.176-.154h2.493c.138 0 .165 0 .165.154v1.993c1.281-1.785 2.942-2.683 5.022-2.683 3.646.004 5.498 2.268 5.498 6.75v9.208Zm18.461 0c0 .144-.116.325-.258.325h-2.492a.395.395 0 0 1-.33-.325v-2.301c-1.282 2.071-3.107 3.105-5.318 3.105-2.459 0-4.363-.928-5.742-2.777a8.957 8.957 0 0 1-1.821-5.502 9.975 9.975 0 0 1 .918-4.306 7.069 7.069 0 0 1 2.927-3.203 7.24 7.24 0 0 1 3.613-.97 6.264 6.264 0 0 1 3.148.875 5.642 5.642 0 0 1 2.249 2.302V32.962c0-.143.19-.219.33-.219h2.492c.142 0 .258.076.258.22l.026 23.463Zm9.614-9.483a1.926 1.926 0 0 1-1.793-1.183 1.95 1.95 0 0 1 .404-2.12 1.917 1.917 0 0 1 2.1-.431A1.94 1.94 0 0 1 83.576 45a1.933 1.933 0 0 1-1.919 1.943h.012Z" fill="#37AF4A"/><path d="M66.336 44.038a4.91 4.91 0 0 0-2.604-.698c-2 0-3.408.99-4.228 2.97a6.917 6.917 0 0 0-.517 2.64 5.602 5.602 0 0 0 1.937 4.48 4.056 4.056 0 0 0 2.744.92c2.164 0 3.663-.946 4.497-2.84a6.453 6.453 0 0 0 .536-2.642c-.012-2.264-.8-3.874-2.365-4.83ZM30.26 43.09a4.477 4.477 0 0 0-3.05 1.02 5.139 5.139 0 0 0-1.534 2.837h8.766a5.006 5.006 0 0 0-1.323-2.766 3.864 3.864 0 0 0-2.86-1.09Z" fill="#37AF4A"/></g></svg>