<svg viewBox="0 0 90 90" xmlns="http://www.w3.org/2000/svg"><g fill="none" fill-rule="evenodd"><path fill="#28293E" d="M0 0h90v90H0z"/><path d="M3 50.267c1.393 1.505 3.556 2.57 6.51 2.57 4.575 0 6.25-2.396 6.25-4.75 0-6.038-10.046-3.95-10.046-7.584 0-1.525 1.445-2.569 3.484-2.569 1.85 0 3.64.604 4.908 1.935l1.268-1.484c-1.424-1.433-3.431-2.252-6.02-2.252-3.328 0-5.824 1.822-5.824 4.483 0 5.772 10.045 3.47 10.045 7.635 0 1.238-.967 2.784-3.993 2.784a7.293 7.293 0 0 1-5.334-2.303L3 50.267m62.319 2.457v-1.658h-7.882V36.113H55.19v16.62h10.128v-.01ZM81.925 53V38.047h5.626v-1.934H74.605v1.934h5.345V53h1.975Zm-52.43-2.21h9.869l-4.929-10.215-4.94 10.214Zm13.01 1.934h-16.15L34.435 36l8.07 16.724Z" fill="#FFF" fill-rule="nonzero"/></g></svg>