<svg viewBox="0 0 90 90" xmlns="http://www.w3.org/2000/svg"><g fill="none" fill-rule="evenodd"><path fill="#FFF" d="M0 0h90v90H0z"/><g fill="#025BAB" fill-rule="nonzero"><path d="M28 52.55a10.54 10.54 0 0 1-5.37 1.18c-5.47 0-7.66-3.45-7.66-8.37 0-4.92 2.65-8.36 8.03-8.36a9.49 9.49 0 0 1 5 1.17v3.58l-1.53-.09-.47-2.13a.36.36 0 0 0-.29-.4 8.83 8.83 0 0 0-2.84-.49c-3.52 0-5.8 2.33-5.8 6.72s2.15 6.69 5.64 6.69a9 9 0 0 0 3.14-.47c.18-.06.27-.13.31-.4l.36-2H28v3.37Zm11.08-11.14-.34-1.9c-.06-.31-.13-.4-.24-.47a4.46 4.46 0 0 0-2.13-.38c-2.31 0-3.43 1-3.43 2.6 0 1.86 1.61 2.39 3.41 3 2.24.7 4.77 1.44 4.77 4.8s-2.74 4.72-5.94 4.72a12.78 12.78 0 0 1-4.7-.85v-3.72H32l.42 2a.54.54 0 0 0 .45.49c.81.26 1.658.39 2.51.38 2.28 0 3.65-.87 3.65-2.82 0-1.95-1.54-2.55-3.29-3.07-2.26-.67-4.88-1.25-4.88-4.63 0-3.21 2.5-4.57 5.62-4.57a11.85 11.85 0 0 1 4.16.78v3.81l-1.56-.17Zm17.33 11.14A10.48 10.48 0 0 1 51 53.73c-5.47 0-7.66-3.45-7.66-8.37 0-4.92 2.66-8.36 8.08-8.36a9.42 9.42 0 0 1 4.95 1.21v3.58l-1.52-.09-.38-2.13a.37.37 0 0 0-.3-.4 8.83 8.83 0 0 0-2.84-.49c-3.52 0-5.8 2.33-5.8 6.72s2.15 6.69 5.64 6.69a9 9 0 0 0 3.14-.47c.18-.06.27-.13.31-.4l.36-2h1.43v3.33Zm14.02-13.49c0-.33 0-.42-.35-.45l-1.42-.15v-1.21h5.56v1.21l-1.5.18c-.34 0-.36.09-.36.42v9c0 3.88-2.15 5.69-6 5.69-4.17 0-5.8-2-5.8-5.73v-9c0-.33 0-.42-.36-.45l-1.41-.15v-1.17h5.71v1.21l-1.5.18c-.34 0-.36.09-.36.42v8.69c0 3 1.28 4.24 3.87 4.24s3.92-1.06 3.92-4.17v-8.76Z"/><path d="M84.18 28.57V27H5v36.69h79.18V28.57Zm-1.57 33.55h-76V28.57h76v33.55Z"/></g></g></svg>