<svg viewBox="0 0 90 90" xmlns="http://www.w3.org/2000/svg"><g fill="none" fill-rule="evenodd"><path fill="#00A0DE" d="M0 0h90v90H0z"/><g fill="#FFF" fill-rule="nonzero"><path d="M29.104 52.818c.022 0 .049 0 .098.055.206.224.651 1.168.327 5.078-.076.805.118 1.487.577 2.028.33.391.754.644 1.148.808a13.125 13.125 0 0 0-3.23 3.032c-1.007 1.314-1.527 2.59-1.856 3.75-.41-1.964-.89-5.191-.616-7.705.569-5.208 3.146-6.953 3.529-7.044a.232.232 0 0 1 .023-.002ZM51.6 48.716l.035.046c.522.68 1.341 1.126 1.534 1.224l.041.021c.853.405 1.774.54 2.317.586-.02 2.78-1.287 5.663-3.519 7.975-2.455 2.542-5.717 4.08-9.187 4.327-.414.03-.827.045-1.225.045-4.597 0-6.932-1.953-8.004-3.04 5.193-2.243 6.247-5.45 6.706-6.852.045-.136.085-.259.121-.355.116-.058.378-.18.963-.415l.271-.108c.389-.154.891-.347 1.54-.589a286.257 286.257 0 0 1 4.965-1.709c1.343-.454 2.505-.846 3.138-1.08l.052-.015c.124-.036.203-.054.252-.061Zm-19.728 5.097.302.196.612.394c1.229.783 2.465 1.527 3.33 1.913-.704.624-2.169 1.747-3.711 2.394a1.143 1.143 0 0 1-.426.099c-.16 0-.234-.057-.28-.107-.082-.088-.268-.389-.21-1.252.044-.43.103-.857.16-1.27.105-.765.213-1.55.223-2.367Zm30.664-4.867c-1.838 4.596-4.502 6.62-5.313 7.152a58.506 58.506 0 0 1-.825-.751 12.47 12.47 0 0 0 .657-2.287c.15-.825.243-1.909.287-2.483a22.402 22.402 0 0 0 2.706-.576c1.072-.307 1.9-.657 2.488-1.055Zm-3.812-17.627c-.266.87-.478 2.356.385 4.454.446 1.085 1.303 3.527 2.014 5.919 1.222 4.12 1.051 4.844 1.028 4.912-.088.26-.148.358-.176.394a1.066 1.066 0 0 1-.273-.098c-.606-.281-1.304-.794-2.11-1.386-1.5-1.1-3.365-2.47-6.093-3.536-2.004-.783-3.996-1.18-5.92-1.18-.826 0-1.624.074-2.369.22-4.298.848-6.563 2.747-7.779 3.766l-.01.008a.49.49 0 0 0 .31.875c.112 0 .22-.03.578-.133.705-.202 2.172-.622 3.934-.823.514-.058.986-.086 1.44-.086 2.08 0 3.994.64 6.02 2.015.463.388.747.646.918.815l-.175.046c-.375.104-.787.22-1.23.346-3.041.861-7.64 2.163-9.817 2.163-.191 0-.36-.01-.5-.03-.563-.083-1.253-.673-1.893-1.617-1.36-2.01-2.384-5.527-1.709-8.363l.004-.013c.323-1.54 1.395-2.445 1.841-2.762.034-.025.055-.042.062-.048.66-.574 2.008-1.182 3.796-1.712a7.63 7.63 0 0 1 .4-.097c.33-.068.69-.15 1.038-.231.724-.167 1.474-.34 2.009-.394.168-.017.337-.049.501-.08.226-.043.46-.086.667-.086.208 0 .365.042.502.134.663.789 2.284 2.347 3.353 2.438l.033.003.034-.002c1.213-.064 3.113-1.25 5.649-3.522.43-.386.831-.716 1.224-1.007l.049-.037c.786-.578 1.534-.996 2.265-1.265Zm-11.251 11.12c3.444 0 6.759 1.22 9.85 3.627 1.26.982 2.189 1.677 2.99 2.236a79.078 79.078 0 0 1-1.84.516c-.957.157-1.757.234-2.443.234-1.923 0-2.6-.62-3.228-1.37-3.122-3.727-6.575-4.337-7.915-4.427-.428-.028-.85-.042-1.252-.042-.339 0-.668.01-.993.03a15.087 15.087 0 0 1 4.83-.804Zm13.632-11.474c.625 0 1.396.592 2.009 1.545.74 1.15 1.178 2.663 1.235 4.261.126 3.487-.195 6.4-.763 8.818-.272-2.267-1.19-5.068-1.546-6.157l-.093-.287c-.027-.085-.11-.316-.279-.787-.442-1.232-1.362-3.794-1.522-4.553-.235-1.114.295-2.647.63-2.78a.894.894 0 0 1 .329-.06Zm-9.482-4.158c.025.115.054.263.083.408l.074.375c.242 1.192.515 2.534 2.99 3.277-.23.513-.706 1.37-.87 1.533l-.055.049-.039.061c-.483.776-3.093 2.47-4.262 2.47a.789.789 0 0 1-.15-.013c-.704-.135-2.32-1.573-2.79-2.636-.918-2.083-.73-2.836-.412-3.101.615-.511 1.743-1.198 5.43-2.423Zm4.308-2.628c.221.327.568.982.702 1.531a3.9 3.9 0 0 1-.089 2.15c-.364.867-.854 1.307-1.455 1.307l-.079-.002a1.61 1.61 0 0 1-.597-.22c-.774-.452-1.191-1.652-.888-2.534a.953.953 0 0 0 .036-.08c.05-.133.191-.372.582-.75a22.652 22.652 0 0 1 1.788-1.402Zm-.81-5.292c-.462 1.624-1.576 4.358-3.405 6.013-.406.368-1.229.693-2.18 1.07-1.025.404-2.258.893-3.455 1.624.094-.936.384-2.57.9-3.655l.007-.013.004-.013c.166-.407 1.304-1.067 2.058-1.503l.282-.164c.221-.13.59-.286 1.018-.469 1.243-.53 3.179-1.354 4.772-2.89Zm2.281-3.457c.233 1.04.154 1.599.071 2.183-.2 1.41-.796 2.666-1.816 3.823.936-2.04 1.437-3.972 1.745-6.006Z"/><path d="M68.671 30.972c-1.111-2.326-2.662-3.5-3.732-4.182-.9-.572-1.936-.988-3.085-1.24a12.57 12.57 0 0 0-.648-2.426c1.938-2.892 2.404-6.142 1.345-9.435-.814-2.532-1.445-4.165-1.989-5.14C59.39 6.443 57.762 6 56.605 6a4.232 4.232 0 0 0-3.137 1.394c-.82.907-1.202 2.094-1.077 3.342.106 1.064-.173 2.997-.358 3.688-.003.009-.332.932-2.78 2.12-.06.02-.185.064-.378.128-1.408.473-4.025 1.35-5.768 3.658-1.332 1.616-1.66 3.216-2.037 5.069-.226 1.104-.462 2.547-.404 4.253-4.376.973-7.528 2.955-9.377 5.9-1.914 3.049-2.246 6.828-.986 11.238l.011.033c.023.08.048.16.073.24a10.99 10.99 0 0 0-.655-.093 5.241 5.241 0 0 0-.596-.033c-2.185 0-4.51 1.375-6.22 3.678-1.298 1.749-2.858 4.838-2.913 9.624-.041 3.554.338 6.83 1.13 9.739.59 2.167 1.247 3.498 1.5 3.964L27.993 84l2.455-11.138c.838-3.794 1.666-5.405 2.733-6.469 2.485 1.499 5.42 2.287 8.534 2.287 3.473 0 7.093-1.002 10.194-2.822 2.014-1.184 3.731-2.638 5.11-4.326h.055l.147-.003c.852-.029 2.018-.451 3.197-1.158.982-.588 2.462-1.67 3.948-3.487 1.498-1.833 2.72-4.063 3.631-6.627 1.068-3.003 1.717-6.5 1.93-10.39.257-3.619-.164-6.611-1.256-8.895Zm-2.46 8.66c-.191 3.547-.77 6.701-1.721 9.375-.768 2.16-1.78 4.016-3.005 5.516-2.11 2.58-4.173 3.273-4.392 3.281h-.017c-.2 0-.317-.081-.877-.473-.157-.11-.393-.275-.588-.402-1.171 2.28-3.095 4.25-5.587 5.713-2.537 1.49-5.489 2.311-8.309 2.311-3.348 0-6.288-1.106-8.526-3.205-3.053 1.944-4.888 3.565-6.376 10.311l-.282 1.279-.616-1.155c-.155-.284-.688-1.337-1.19-3.184-.7-2.575-1.036-5.509-1-8.717.076-6.404 3.51-9.618 5.41-9.618.063 0 .126.003.185.01 1.802.202 2.98.982 5.119 2.398l.699.462c.766.503 1.849 1.118 2.121 1.17.52-.03 1.027-1.193 1.175-2.272l.026-.183a6.18 6.18 0 0 0 .021-.332 3.84 3.84 0 0 1-.28-.111l-.021-.008c-1.345-.463-3.31-2.74-4.3-6.045-.955-3.34-.766-6.104.562-8.218 2.152-3.43 6.823-4.235 8.368-4.5.483-.096.988-.186 1.502-.267.24-.06.404-.111.51-.157.046-.032.066-.066.035-.19l.042-.012-.04.01a11.95 11.95 0 0 0-.075-.298 15.883 15.883 0 0 1-.135-.549c-.478-2.148-.234-3.948.068-5.426.34-1.664.528-2.585 1.313-3.504 1.04-1.433 2.91-2.06 4.028-2.436.313-.104.582-.195.738-.27 3.427-1.645 4.518-3.375 4.83-4.536.247-.922.64-3.344.469-5.036a.586.586 0 0 1 .134-.47.506.506 0 0 1 .375-.167c.321 0 .761 0 2.402 5.104.866 2.69.22 5.213-1.917 7.498-.027.03-.055.059-.082.086-.058.06-.146.152-.158.185 0 0-.004.082.139.319.903 1.493 1.394 3.35 1.251 4.73-.033.321-.095.63-.148.903a8.04 8.04 0 0 0-.09.494h.028a10.29 10.29 0 0 1 1.078-.056c1.071 0 2.606.165 3.834.946.742.471 1.68 1.198 2.37 2.644.814 1.7 1.115 4.072.9 7.053Z"/></g></g></svg>