<svg viewBox="0 0 90 90" xmlns="http://www.w3.org/2000/svg"><defs><linearGradient x1="50%" y1="0%" x2="50%" y2="100%" id="a"><stop stop-color="#001632" offset="0%"/><stop stop-color="#000E1F" offset="100%"/></linearGradient></defs><g fill="none" fill-rule="evenodd"><path fill="url(#a)" d="M0 0h90v90H0z"/><path d="M32.362 75.392c-6.132-2.527-11.598-5.043-12.147-5.59C18.81 68.405 10 47.078 10 45.078c0-2.513 9.219-24.17 10.7-25.135C22.688 18.645 43.634 10 44.789 10c1.765 0 23.702 9.23 24.94 10.493 1.788 1.824 10.713 23.997 10.254 25.474-.53 1.705-7.73 19.2-9.012 21.902-1.2 2.528-1.25 2.554-16.116 8.572-4.85 1.963-9.386 3.565-10.08 3.559-.695-.006-6.28-2.08-12.413-4.608Zm24.085-2.727c5.473-2.25 10.467-4.63 11.097-5.292 1.168-1.224 9.48-20.806 9.48-22.334 0-1.426-8.635-21.631-9.66-22.603-1.291-1.224-20.908-9.18-22.635-9.18-1.537 0-21.499 8.286-22.53 9.351-1.177 1.216-9.102 20.71-9.106 22.398-.005 1.969 8.06 21.552 9.358 22.721 1.495 1.347 20.36 8.967 22.28 8.999 1.01.017 6.02-1.72 11.716-4.06Zm-21.922-3.026c-4.942-2.073-9.281-4.067-9.643-4.432-.971-.982-8.346-18.839-8.325-20.157.01-.621 1.806-5.404 3.99-10.628l3.97-9.497 8.408-3.605c13.125-5.628 10.719-5.518 21.765-.996 5.24 2.146 9.841 4.195 10.225 4.556.947.893 8.426 18.764 8.428 20.14.003 1.54-7.177 18.758-8.34 20-1.13 1.206-18.744 8.499-20.37 8.434-.617-.025-5.165-1.742-10.108-3.815Zm1.045-9.959c.847-.436 3.204-2.645 5.237-4.908 2.033-2.263 3.98-4.043 4.326-3.955.346.087 2.167 1.868 4.047 3.957 4.186 4.653 5.966 5.699 9.698 5.699 2.26 0 2.967-.217 3.414-1.05.605-1.125.816-26.97.233-28.484-.245-.636-1.092-.858-3.27-.858h-2.938v10.822c0 6.008-.223 10.96-.501 11.131-.277.17-2.655-2.013-5.286-4.852-2.632-2.839-5.164-5.149-5.629-5.133-.465.016-2.806 2.206-5.204 4.866-2.397 2.66-4.66 4.846-5.029 4.856-.502.014-.706-2.653-.817-10.7l-.148-10.719H27.71l-.145 14.373c-.08 7.906-.027 14.683.12 15.06.37.964 5.956.889 7.886-.105Z" fill="#FFF" fill-rule="nonzero"/></g></svg>