<svg viewBox="0 0 90 90" xmlns="http://www.w3.org/2000/svg"><path d="M47.209 29.66h22.413v6.575H62.1V60.27h-7.385V36.235H47.21V29.66ZM45 84.462C23.225 84.461 5.539 66.775 5.539 45S23.225 5.539 45 5.539 84.461 23.225 84.461 45 66.775 84.461 45 84.461M45 90c24.847 0 45-20.153 45-45S69.847 0 45 0C20.17 0 0 20.153 0 45s20.17 45 45 45m-7.61-39.099c0-1.932-1.207-3.244-3.278-3.244H29.16v6.384h4.952c2.07 0 3.279-1.294 3.279-3.14m-.898-12.285c0-1.622-1.035-2.744-2.795-2.744H29.16v5.574h4.538c1.76 0 2.795-1.122 2.795-2.83m8.369 12.647c0 5.798-4.09 9.007-9.939 9.007H21.88V29.66h12.18c5.9 0 9.904 3.02 9.904 8.542 0 2.519-1.122 4.762-2.934 6.125 2.071 1.225 3.831 3.555 3.831 6.936" fill="#4F00BE"/></svg>