<svg viewBox="0 0 90 90" xmlns="http://www.w3.org/2000/svg"><g fill="none"><path d="M54.19 23.367c-7.932 0-15.749 3.472-21.716 10.3V0h-11.81v56.684C20.664 75.084 35.29 90 53.332 90S86 75.084 86 56.684c0-18.4-13.769-33.317-31.81-33.317m-.858 53.8c-11.093 0-20.086-9.17-20.086-20.484 0-11.313 8.993-20.484 20.086-20.484 11.093 0 20.086 9.171 20.086 20.484 0 11.314-8.993 20.485-20.086 20.485" fill="#262626"/><path d="M12.078 73.523C7.617 73.523 4 77.21 4 81.76 4 86.311 7.617 90 12.078 90c4.462 0 8.079-3.689 8.079-8.239 0-4.55-3.617-8.238-8.079-8.238" fill="#00F"/></g></svg>