<svg viewBox="0 0 90 90" xmlns="http://www.w3.org/2000/svg"><g transform="translate(0 4)" fill="none"><path d="M27.72 83c-5.301 0-10.035-1.287-14.2-3.862-4.166-2.574-7.46-6.096-9.884-10.563C1.212 64.107 0 59.034 0 53.355c0-5.68 1.212-10.715 3.636-15.107 2.423-4.468 5.718-7.951 9.884-10.45 4.165-2.574 8.899-3.862 14.2-3.862 4.242 0 7.954.795 11.135 2.386 2.555 1.277 4.719 2.97 6.492 5.077.4.475 1.233.205 1.233-.416V3.376c0-.299.21-.557.503-.618L60.363.013a.631.631 0 0 1 .76.618v80.375a.632.632 0 0 1-.632.631H48.69a.631.631 0 0 1-.619-.509l-1.21-6.138c-.107-.54-.816-.701-1.168-.278-1.695 2.032-3.823 3.849-6.383 5.448C36.355 82.053 32.492 83 27.72 83Zm3.068-12.721c4.696 0 8.52-1.553 11.475-4.657 3.03-3.18 4.544-7.232 4.544-12.154s-1.515-8.935-4.544-12.04c-2.954-3.18-6.779-4.77-11.475-4.77-4.62 0-8.445 1.552-11.474 4.657-3.03 3.104-4.545 7.117-4.545 12.04 0 4.921 1.515 8.973 4.545 12.153 3.03 3.18 6.854 4.77 11.474 4.77Z" fill="#1C4396"/><ellipse fill="#2C71F0" cx="80.21" cy="71.62" rx="9.79" ry="9.788"/></g></svg>