<svg viewBox="0 0 90 90" xmlns="http://www.w3.org/2000/svg"><g fill="none"><path d="M4.991 59.563C-5.93 29.556.431 15.913 30.438 4.99 60.444-5.929 74.088.432 85.009 30.438s4.56 43.65-25.447 54.571c-30.006 10.921-43.65 4.56-54.57-25.446" fill="#333740"/><path d="M31.032 27.67h-1.89c-1.62.003-3.324.32-4.712 1.283a5.23 5.23 0 0 0-1.7 1.96 6.463 6.463 0 0 0-.634 2.924v27.117c0 .517.42.936.936.936h3.694c.517 0 .936-.42.936-.936V41.849h3.369c.517 0 .936-.42.936-.936v-3.165a.936.936 0 0 0-.936-.936h-3.368v-2.404a3.297 3.297 0 0 1 .163-1.183.74.74 0 0 1 .183-.292.83.83 0 0 1 .448-.18c.323-.04.648-.055.972-.046h1.604a.936.936 0 0 0 .936-.936v-3.164a.936.936 0 0 0-.936-.936m22.318 17.373a8.072 8.072 0 0 0-2.711-6.252c-1.741-1.519-4.186-2.334-7.06-2.333-2.924 0-5.45.837-7.295 2.304a8.02 8.02 0 0 0-3.09 5.973.936.936 0 0 0 .937.98h3.91a.936.936 0 0 0 .934-.856 3.08 3.08 0 0 1 1.266-2.206 5.462 5.462 0 0 1 3.338-.981c1.459 0 2.507.396 3.176.977a3.034 3.034 0 0 1 1.028 2.393v.132c.002.11-.01.218-.036.324l-.036.081a.552.552 0 0 1-.243.147 7.38 7.38 0 0 1-1.617.332l-3.103.385h.002c-2.353.317-4.756.701-6.704 1.8a6.465 6.465 0 0 0-2.42 2.316 7.153 7.153 0 0 0-.917 3.713 8.223 8.223 0 0 0 .699 3.436 7.116 7.116 0 0 0 3.312 3.398 11.009 11.009 0 0 0 5.014 1.09c2.25.002 3.956-.521 5.213-1.322a6.9 6.9 0 0 0 .837-.623v.7c0 .517.419.937.936.937h1.797l2.832-10.536v-6.31Zm-5.567 7.12a4.68 4.68 0 0 1-1.247 3.357c-.841.849-2.171 1.456-4.276 1.462-1.355.002-2.358-.295-2.957-.725a2.077 2.077 0 0 1-.66-.742 2.265 2.265 0 0 1-.236-1.032v-.024a2.132 2.132 0 0 1 .302-1.155 3.15 3.15 0 0 1 1.526-1.152 10.708 10.708 0 0 1 2.595-.643c1.334-.188 2.707-.387 3.845-.612.372-.073.742-.158 1.109-.255l-.001 1.52Z" fill="#FFF"/><path d="M69.026 25.004a.939.939 0 0 1-.367 0h-4.703a.936.936 0 0 1 .694 0l-9.323 34.694-.46 1.714-.633 2.354h4.704l10.415-38.763a.941.941 0 0 1-.814 0" fill="#A299FF"/></g></svg>