<svg viewBox="0 0 90 90" xmlns="http://www.w3.org/2000/svg"><g fill="none" fill-rule="evenodd"><path fill="#FFF" d="M0 0h90v90H0z"/><path d="M0 20.408v13.373c8.364-1.27 15.948-1.63 22.845-1.278a115.96 115.96 0 0 1-2.197-10.58C10.451 20.299 2.52 20.338 0 20.409Z"/><path d="M23.603 32.077C16.67 31.725 8.41 32.137 0 33.4V90h90c-.225-.023-60.122-33.715-66.397-57.923Zm-2.163-9.831C20.125 14.02 19.677 6.606 20.097 0H0v20.408c2.52-.07 11.244.212 21.44 1.838ZM85.752.449H32.648L32.64.51 85.751.45Z" fill="#979936" fill-rule="nonzero"/><path d="M31.76 23.658C56.217 29.91 86.3 46.471 90 89.966V0H32.823c-1.375 8.676-1.432 16.548-1.063 23.658Z" fill="#993233" fill-rule="nonzero"/><path d="M32.725 32.845c-.45-.07-.687-.09-.71-.06-7.015 9.593 5.344 29.771 22.19 42.06C64.456 82.321 76.386 87.373 90 90c0 0-.009-.118-.03-.333-.703-4.122-9.469-49.168-57.245-56.822Z" fill="#FDB913" fill-rule="nonzero"/><path d="M21.158 21.305c.53 3.33 1.246 6.882 2.196 10.58 6.24 24.314 22.744 54.17 65.988 58.037.227.02.431.056.658.078 0 0-12.146-1.778-25.354-9.675-3.413-3.174-4.66-7.57-3.087-10.907 1.848-3.92 6.692-5.583 10.624-3.743a6.273 6.273 0 0 1 3.022 8.351 5.05 5.05 0 0 1-6.697 2.416 4.016 4.016 0 0 1-1.934-5.345c.651 3.375 3.356 3.82 4.771 3.113a3.572 3.572 0 0 0 1.6-4.796 4.485 4.485 0 0 0-6.005-1.997 5.577 5.577 0 0 0-2.503 7.493 7.002 7.002 0 0 0 9.389 3.12c4.322-2.154 6.071-7.398 3.905-11.707-2.702-5.384-10.166-7.06-14.669-4.87-5.06 2.462-7.68 6.915-7.749 12.25-10.206-8.578-19.454-21.527-22.57-40.843a86.827 86.827 0 0 1-.963-9.368C31.41 16.384 31.778 8.677 33.153 0c.002-.021.004.02.006 0H19.662c-.004.08-.48 8.967 1.496 21.305Z" fill="#000" fill-rule="nonzero"/></g></svg>