<svg viewBox="0 0 90 90" xmlns="http://www.w3.org/2000/svg"><g transform="translate(0 1)" fill="none" fill-rule="evenodd"><ellipse fill="#424B93" cx="31.974" cy="58.147" rx="30.789" ry="30.853"/><g fill-rule="nonzero"><path d="M85.337.01a5.8 5.8 0 0 0-1.6.33l-.348.133a8.222 8.222 0 0 0-1.688.95l-.232.178-.551.38c-.39.272-.777.544-1.162.818l-1.148.825c-.57.414-1.137.832-1.7 1.254l-1.119.85c-.557.426-1.11.857-1.66 1.293l-1.095.877-1.087.89c-.902.746-1.797 1.507-2.686 2.283l-1.064.94c-.708.63-1.412 1.272-2.115 1.925l-1.052.989-1.05 1.006c-.7.677-1.399 1.367-2.097 2.07l-1.048 1.064a164 164 0 0 0-.524.54L59.26 20.7l-.525.556-1.053 1.129-1.056 1.151-1.06 1.175-.532.597-1.068 1.211-1.073 1.237-.54.629-1.084 1.276-1.092 1.304-1.1 1.33-1.11 1.36-1.122 1.39-1.132 1.42-1.143 1.45-1.157 1.48-1.17 1.514-1.184 1.546-1.2 1.58-1.215 1.614-1.232 1.649-1.25 1.685-1.268 1.72-1.976 2.704-11.867-10.053c-1.45-1.308-3.016-2.336-4.557-2.987-1.736-.733-3.467-1.004-5.071-.65-1.075.24-2.058.756-2.833 1.566a5.36 5.36 0 0 0-1.446 3.12c-.192 1.671.318 3.346 1.346 5.022l.229.361.088.125 17.22 23.62.573.772.497.648c.807 1.033 1.513 1.83 2.202 2.47 1.504 1.395 3.09 2.19 5.004 2.075 1.937-.117 3.41-1.116 4.689-2.691.334-.412.66-.87 1.003-1.403l.349-.56c.06-.098.12-.198.18-.3l.373-.648c.064-.113.129-.229.194-.348l.41-.75c12.426-21.58 28.007-42.96 46.76-64.737.583-.6 1.074-1.276 1.39-2.053a4.434 4.434 0 0 0 .302-2.352A4.223 4.223 0 0 0 88.142.758 4.34 4.34 0 0 0 85.595 0l-.258.01Z" fill="#424B93"/><path d="M29.204 71.129 12.03 47.569c-.699-1.073-1.007-2.003-.925-2.711a1.39 1.39 0 0 1 .368-.826c.2-.21.476-.354.814-.43.692-.152 1.62-.007 2.656.43 1.112.47 2.305 1.254 3.484 2.316l15.198 12.875 2.547-3.515 1.265-1.734 1.246-1.697 1.836-2.48 1.202-1.61 1.772-2.35 1.162-1.526 1.148-1.494 1.134-1.462 1.121-1.43 1.109-1.401 1.097-1.37 1.086-1.343 1.077-1.314 1.067-1.286 1.058-1.26.527-.619 1.047-1.22 1.04-1.195.518-.588 1.032-1.159.514-.57 1.025-1.124.51-.553 1.02-1.09 1.017-1.068 1.016-1.048 1.014-1.028 1.014-1.008c.338-.333.676-.663 1.014-.99l1.016-.97c.338-.322.677-.64 1.017-.955l1.02-.937c.34-.31.682-.617 1.024-.921l1.027-.906c.344-.3.688-.597 1.033-.891l1.039-.878c.347-.29.695-.578 1.044-.863l1.052-.852 1.06-.839c.355-.278.711-.554 1.069-.828l1.078-.817c.36-.271.723-.54 1.088-.808l1.099-.798.554-.396 1.117-.786.563-.39.112-.083a4.21 4.21 0 0 1 1.187-.679c.187-.065.36-.103.504-.112.146-.008.261.014.338.066.06.041.097.1.108.175a.562.562 0 0 1-.05.287c-.094.228-.307.522-.644.872C66.333 27.42 50.607 48.999 38.017 70.864l-.348.639-.322.575-.3.515-.28.46-.134.212-.257.387-.124.177-.24.323-.116.148c-.643.792-1.226 1.187-1.832 1.224-.613.036-1.267-.291-2.05-1.018a12.7 12.7 0 0 1-.955-1.003l-.357-.424-.38-.473a37.22 37.22 0 0 1-.2-.256l-.421-.553-.497-.668Z" fill="#FFF"/></g></g></svg>