<svg viewBox="0 0 90 90" xmlns="http://www.w3.org/2000/svg"><path d="M34.564 15.276a2.72 2.72 0 0 1 .337 2.045 2.704 2.704 0 0 1-1.201 1.684c-13.235 8.305-17.29 25.822-9.066 39.157a28.071 28.071 0 0 0 17.58 12.671 27.921 27.921 0 0 0 21.335-3.548 2.685 2.685 0 0 1 3.704.87 2.72 2.72 0 0 1-.862 3.728A33.268 33.268 0 0 1 48.689 77a33.713 33.713 0 0 1-7.697-.896A33.426 33.426 0 0 1 20.065 61.02c-9.79-15.875-4.96-36.727 10.794-46.613a2.685 2.685 0 0 1 3.705.87Zm37.618 47.336A2.827 2.827 0 0 1 75 65.448a2.827 2.827 0 0 1-2.818 2.835 2.827 2.827 0 0 1-2.818-2.835 2.827 2.827 0 0 1 2.818-2.836Z" fill="#F04444"/></svg>