<svg viewBox="0 0 90 90" xmlns="http://www.w3.org/2000/svg"><defs><linearGradient x1="69.277%" y1="73.093%" x2="26.012%" y2="23.116%" id="a"><stop stop-color="#F9BA00" offset="0%"/><stop stop-color="#FABE00" offset="28%"/><stop stop-color="#FBCB00" offset="57%"/><stop stop-color="#FDDF00" offset="86%"/><stop stop-color="#FFEC00" offset="100%"/></linearGradient><linearGradient x1="63.616%" y1="7.572%" x2="47.064%" y2="61.455%" id="b"><stop stop-color="#5EC4EC" offset="0%"/><stop stop-color="#009CD1" offset="100%"/></linearGradient><linearGradient x1="12596.983%" y1="8144.053%" x2="6810.458%" y2="8555.485%" id="c"><stop stop-color="#5EC4EC" offset="0%"/><stop stop-color="#009CD1" offset="100%"/></linearGradient><linearGradient x1="-24.4%" y1="49.805%" x2="451.345%" y2="49.805%" id="d"><stop stop-color="#1FA12E" offset="0%"/><stop stop-color="#008736" offset="100%"/></linearGradient><linearGradient x1="6339.614%" y1="9981.062%" x2="13493.164%" y2="9981.062%" id="e"><stop stop-color="#1FA12E" offset="0%"/><stop stop-color="#008736" offset="100%"/></linearGradient><linearGradient x1="6339.889%" y1="9982.049%" x2="13493.818%" y2="9982.049%" id="f"><stop stop-color="#1FA12E" offset="0%"/><stop stop-color="#008736" offset="100%"/></linearGradient><linearGradient x1="6339.481%" y1="9991.834%" x2="13492.918%" y2="9991.834%" id="g"><stop stop-color="#1FA12E" offset="0%"/><stop stop-color="#008736" offset="100%"/></linearGradient><linearGradient x1="6340.628%" y1="11527.338%" x2="13495.339%" y2="11527.338%" id="h"><stop stop-color="#1FA12E" offset="0%"/><stop stop-color="#008736" offset="100%"/></linearGradient><linearGradient x1="6340.927%" y1="11507.057%" x2="13496.95%" y2="11507.057%" id="i"><stop stop-color="#1FA12E" offset="0%"/><stop stop-color="#008736" offset="100%"/></linearGradient><linearGradient x1="6340.208%" y1="11527.338%" x2="13494.453%" y2="11527.338%" id="j"><stop stop-color="#1FA12E" offset="0%"/><stop stop-color="#008736" offset="100%"/></linearGradient><linearGradient x1="6337.355%" y1="11527.338%" x2="13488.39%" y2="11527.338%" id="k"><stop stop-color="#1FA12E" offset="0%"/><stop stop-color="#008736" offset="100%"/></linearGradient><linearGradient x1="6338.455%" y1="11527.338%" x2="13490.686%" y2="11527.338%" id="l"><stop stop-color="#1FA12E" offset="0%"/><stop stop-color="#008736" offset="100%"/></linearGradient><linearGradient x1="6338.2%" y1="11527.762%" x2="13490.167%" y2="11527.762%" id="m"><stop stop-color="#1FA12E" offset="0%"/><stop stop-color="#008736" offset="100%"/></linearGradient><linearGradient x1="6340.56%" y1="11526.892%" x2="13495.209%" y2="11526.892%" id="n"><stop stop-color="#1FA12E" offset="0%"/><stop stop-color="#008736" offset="100%"/></linearGradient><linearGradient x1="6341.931%" y1="11534.21%" x2="13496.023%" y2="11534.21%" id="o"><stop stop-color="#1FA12E" offset="0%"/><stop stop-color="#008736" offset="100%"/></linearGradient><linearGradient x1="6340.575%" y1="11530.396%" x2="13493.101%" y2="11530.396%" id="p"><stop stop-color="#1FA12E" offset="0%"/><stop stop-color="#008736" offset="100%"/></linearGradient><linearGradient x1="6339.514%" y1="11532.797%" x2="13495.056%" y2="11532.797%" id="q"><stop stop-color="#1FA12E" offset="0%"/><stop stop-color="#008736" offset="100%"/></linearGradient></defs><g fill="none"><path d="M87 54.333a34.002 34.002 0 0 0-4.742-17.369c1.378-9.885-1.207-18.93-7.92-24.184a20.186 20.186 0 0 0-8.972-3.962C59.988 3.17 53.283-.099 46.06.004a24.214 24.214 0 0 0-13.845 4.831 28.579 28.579 0 0 0-16.678 5.12C-.29 21.188-1.267 47.199 13.394 68.008c14.662 20.81 38.473 27.21 55.698 17.6a22.816 22.816 0 0 0 7.468-6.69A34.3 34.3 0 0 0 87 54.332v.001Z" fill="#FFF"/><path d="M67.835 27.404C82.51 48.267 83.349 76.01 66.13 85.62s-41.066 3.263-55.736-17.614C-4.275 47.129-3.29 21.183 12.536 9.94 28.361-1.306 53.135 6.542 67.835 27.404Z" fill="url(#a)" transform="translate(3)" style="mix-blend-mode:multiply"/><path d="M74.896 41.705c.415 23.343-13.158 42.52-30.316 42.831-17.16.312-31.414-18.365-31.858-41.708C12.277 19.483 25.902.308 43.06.004c17.159-.305 31.444 18.356 31.836 41.7Z" fill="url(#b)" transform="translate(3)" style="mix-blend-mode:multiply"/><path d="M69.263 59.654C56.298 76.286 36.234 82.269 24.433 73.03c-11.802-9.238-10.875-30.234 2.075-46.866C39.458 9.53 59.536 3.542 71.338 12.787c11.802 9.246 10.876 30.233-2.074 46.867h-.001Z" fill="url(#c)" transform="translate(3)" style="mix-blend-mode:multiply"/><path d="M87 54.332c0 18.832-15.217 34.099-33.99 34.1-18.772.002-33.991-15.263-33.994-34.094-.002-18.832 15.213-34.1 33.986-34.104a33.863 33.863 0 0 1 24.061 9.962A34.079 34.079 0 0 1 87 54.332Z" fill="#FFF"/><path d="M27.138 43.368c.34-.052.875-.112 1.585-.192a22.484 22.484 0 0 1 2.698-.127c.812 0 1.622.075 2.422.224a6.233 6.233 0 0 1 2.223.853 4.548 4.548 0 0 1 1.6 1.754c.443.926.653 1.947.607 2.973a6.378 6.378 0 0 1-.488 2.669 4.457 4.457 0 0 1-1.282 1.702 5.112 5.112 0 0 1-1.83.907 8.39 8.39 0 0 1-2.112.267h-.874a4.133 4.133 0 0 1-.614-.082v5.277c-.397.075-.75.125-1.068.155-.31 0-.607.045-.874.045a11.21 11.21 0 0 1-1.963-.2l-.03-16.225Zm3.905 7.648c.12.046.249.069.378.067.19.011.38.011.57 0a2.042 2.042 0 0 0 1.631-.627 2.056 2.056 0 0 0 .554-1.663 3.062 3.062 0 0 0-.186-1.144 2.02 2.02 0 0 0-.532-.743 1.989 1.989 0 0 0-.793-.393 3.946 3.946 0 0 0-.948-.06h-.311a2.95 2.95 0 0 0-.363 0v4.563Z" fill="url(#d)" transform="translate(3)"/><path d="M39.007 53.804c-.01-.857.118-1.71.378-2.527a5.325 5.325 0 0 1 1.103-1.954 4.855 4.855 0 0 1 1.816-1.256 6.545 6.545 0 0 1 2.504-.448 6.646 6.646 0 0 1 2.534.448 4.866 4.866 0 0 1 1.815 1.254c.502.567.88 1.233 1.104 1.956.257.817.383 1.67.371 2.527a7.76 7.76 0 0 1-.371 2.482 5.208 5.208 0 0 1-1.104 1.926 4.897 4.897 0 0 1-1.815 1.233c-.81.304-1.67.45-2.534.431a6.7 6.7 0 0 1-2.504-.43 4.896 4.896 0 0 1-1.816-1.234 5.208 5.208 0 0 1-1.103-1.926 7.752 7.752 0 0 1-.378-2.482Zm7.771 0a4.143 4.143 0 0 0-.489-2.23 1.636 1.636 0 0 0-1.481-.743 1.622 1.622 0 0 0-1.482.743 5.374 5.374 0 0 0 0 4.415c.32.502.89.788 1.482.743a1.628 1.628 0 0 0 1.481-.743 4.119 4.119 0 0 0 .49-2.185Z" fill="url(#e)" transform="translate(3)"/><path d="M58.204 52.266a7.25 7.25 0 0 1 1.23.438c.352.166.673.392.948.669.274.285.486.625.622.996.165.457.243.94.23 1.427a3.744 3.744 0 0 1-.356 1.613 3.454 3.454 0 0 1-1.037 1.286 5.183 5.183 0 0 1-1.69.862 7.612 7.612 0 0 1-2.319.32 12.103 12.103 0 0 1-2.006-.157 11.427 11.427 0 0 1-1.964-.55c.09-1.082.374-2.14.837-3.121a7.39 7.39 0 0 0 3.089.675h.563a2.14 2.14 0 0 0 .526-.096 1.19 1.19 0 0 0 .37-.215.492.492 0 0 0 .142-.364.475.475 0 0 0-.29-.446 4.123 4.123 0 0 0-.674-.261l-1.533-.43a4.345 4.345 0 0 1-1.994-1.153 3.06 3.06 0 0 1-.785-2.229 3.6 3.6 0 0 1 .356-1.606c.247-.485.6-.907 1.03-1.241a4.75 4.75 0 0 1 1.548-.743 6.875 6.875 0 0 1 1.98-.275 10.34 10.34 0 0 1 1.873.187 12.7 12.7 0 0 1 2.007.52 7.038 7.038 0 0 1-.288 1.552 9.635 9.635 0 0 1-.57 1.487c-.482-.188-.978-.34-1.482-.453a6.953 6.953 0 0 0-1.578-.202c-.742 0-1.06.194-1.06.588a.422.422 0 0 0 .244.386c.18.095.368.17.563.224l1.468.31v.002Z" fill="url(#f)" transform="translate(3)"/><path d="M65.612 51.084h-3.341a5.365 5.365 0 0 1-.149-.847V48.75a5.58 5.58 0 0 1 .149-.832h10.49c.07.273.12.551.149.832 0 .26.037.513.037.744 0 .23 0 .497-.037.743a5.465 5.465 0 0 1-.149.847h-3.333v8.495c-.393.059-.741.103-1.067.14a7.32 7.32 0 0 1-.86.045c-.26 0-.533 0-.851-.044-.32-.045-.66-.082-1.038-.14v-8.496Z" fill="url(#g)" transform="translate(3)"/><path fill="url(#h)" d="M27.153 63.264h.74v3.344h1.705v.655h-2.445z" transform="translate(3)"/><path d="M30.6 63.267h.74v2.51a.779.779 0 0 0 .867.825.79.79 0 0 0 .86-.825v-2.534h.74v2.534a1.595 1.595 0 0 1-1.59 1.498 1.595 1.595 0 0 1-1.589-1.498l-.028-2.51Z" fill="url(#i)" transform="translate(3)"/><path d="m36.096 65.22-1.18-1.956h.823l.534.974c.126.23.252.483.252.483.07-.165.149-.326.237-.484l.549-.973h.822L36.94 65.22l1.26 2.044h-.815l-.608-1.07c-.134-.224-.244-.47-.244-.47s-.112.247-.245.47l-.615 1.07h-.8l1.223-2.044Z" fill="url(#j)" transform="translate(3)"/><path fill="url(#k)" d="M39.34 63.264h2.364v.625H40.06v1.032h1.325v.618H40.06v1.07h1.734v.654h-2.452v-3.999z" transform="translate(3)"/><path d="M43.29 63.264h.74l.74 1.963c.09.23.194.579.194.579s.104-.348.192-.579l.742-1.963h.74l.452 4h-.742l-.17-2.23v-.61s-.118.38-.207.61l-.63 1.486h-.624l-.636-1.487a8.455 8.455 0 0 1-.216-.616v.616l-.17 2.23h-.74l.333-3.999h.002Z" fill="url(#l)" transform="translate(3)"/><path d="M48.512 63.264h1.415c.741 0 1.215.373 1.215 1.026a.93.93 0 0 1-.474.84c.399.128.661.51.638.93 0 .794-.638 1.15-1.364 1.15h-1.43v-3.946Zm1.415 1.62a.466.466 0 0 0 .49-.504.462.462 0 0 0-.504-.491h-.681v.995h.695Zm.075 1.724a.571.571 0 0 0 0-1.144h-.74v1.144h.74Z" fill="url(#m)" transform="translate(3)"/><path d="M54.402 63.198a2.004 2.004 0 0 1 2.037 2.023c0 .73-.388 1.405-1.019 1.77a2.032 2.032 0 0 1-2.037 0 2.045 2.045 0 0 1-1.018-1.77 2.003 2.003 0 0 1 .59-1.445 1.99 1.99 0 0 1 1.447-.578Zm0 3.434c.36-.01.701-.165.946-.43.244-.267.37-.62.35-.981a1.31 1.31 0 0 0-.615-1.229 1.3 1.3 0 0 0-1.37 0 1.31 1.31 0 0 0-.615 1.229 1.33 1.33 0 0 0 1.304 1.411Z" fill="url(#n)" transform="translate(3)"/><path d="M57.663 63.267h.74v2.51a.781.781 0 0 0 .867.825.791.791 0 0 0 .86-.825v-2.534h.74v2.534a1.595 1.595 0 0 1-1.589 1.489c-.837 0-1.532-.65-1.589-1.489l-.03-2.512v.002Z" fill="url(#o)" transform="translate(3)"/><path d="M62.338 63.267h1.275a1.85 1.85 0 0 1 .793.11 1.22 1.22 0 0 1 0 2.162.793.793 0 0 1 .132.194l.815 1.487h-.8l-.785-1.487h-.689v1.487h-.741v-3.955.002Zm1.363 1.857a.57.57 0 0 0 .622-.625c0-.379-.162-.609-.74-.609h-.542v1.234h.66Z" fill="url(#p)" transform="translate(3)"/><path d="M68.286 63.198a2.118 2.118 0 0 1 1.482.506l-.355.534a1.693 1.693 0 0 0-1.046-.379 1.278 1.278 0 0 0-.982.375 1.28 1.28 0 0 0-.372.985 1.31 1.31 0 0 0 1.318 1.411c.37-.005.724-.152.992-.408v-.445h-.606v-.617h1.25v2.103h-.65v-.356c-.314.28-.722.431-1.142.422a1.939 1.939 0 0 1-1.405-.609 1.952 1.952 0 0 1-.529-1.44 1.995 1.995 0 0 1 .57-1.49 1.983 1.983 0 0 1 1.475-.592Z" fill="url(#q)" transform="translate(3)"/></g></svg>