<svg viewBox="0 0 90 90" xmlns="http://www.w3.org/2000/svg"><path d="M81.494 55.052A2.502 2.502 0 0 1 84 57.55v8.61c0 .892-.478 1.716-1.253 2.162L45.65 89.665a2.511 2.511 0 0 1-2.506 0l-20.57-11.834a2.492 2.492 0 0 1-.916-3.41L32.157 56.3a2.505 2.505 0 0 1 2.17-1.249ZM26.822 9.094a2.509 2.509 0 0 1 3.423.913l10.498 18.12a2.487 2.487 0 0 1 0 2.497L17.16 71.328a2.51 2.51 0 0 1-3.422.913l-7.484-4.306A2.493 2.493 0 0 1 5 65.773V23.09c0-.892.477-1.716 1.253-2.162ZM42.616.335a2.511 2.511 0 0 1 2.506 0l37.096 21.341a2.493 2.493 0 0 1 1.253 2.163v23.667a2.502 2.502 0 0 1-2.506 2.497H59.97a2.509 2.509 0 0 1-2.17-1.248L34.216 8.05a2.49 2.49 0 0 1 .917-3.41Z" fill="#06F"/></svg>