<svg viewBox="0 0 90 90" xmlns="http://www.w3.org/2000/svg"><path d="M44.952 69.28h-.011a25.42 25.42 0 0 1-6.051-.754c-10.853-2.657-18.904-12.223-18.904-23.634 0-.544.046-1.068.08-1.6.808-12.801 11.619-22.942 24.875-22.942 13.781 0 24.95 10.952 24.95 24.461 0 .85-.042 1.689-.13 2.515C68.514 59.641 57.885 69.28 44.953 69.28M45.012 1C20.146 1 0 20.707 0 45.002 0 69.301 20.147 89 45.011 89a45.293 45.293 0 0 0 27.285-9.08C76.957 87.542 90 89 90 89V45.002C90 20.707 69.846 1 45.011 1" fill="#FF8400" fill-rule="evenodd"/></svg>