<svg viewBox="0 0 90 90" xmlns="http://www.w3.org/2000/svg"><g fill="none" fill-rule="evenodd"><path fill="#0061AA" d="M26.368 0 0 26.352v37.296L26.368 90h37.26L90 63.648V26.352L63.629 0H26.368z"/><path d="M46.163 59.569h-9.878v-29.14h9.878c8.36 0 14.632 6.187 14.632 14.55s-6.272 14.59-14.632 14.59Zm0-22.788h-3.525v16.396h3.525c4.835 0 8.279-3.32 8.279-8.198 0-4.877-3.444-8.198-8.28-8.198Z" fill="#FFF" fill-rule="nonzero"/><path fill="#FFF" fill-rule="nonzero" d="M61.599 60.136V37.31h-8.59v-7.367h24.743v7.367h-8.665v22.827z"/><path d="M77.18 30.51v6.232h-8.66v22.827h-6.354V36.742h-8.59v-6.233h23.608m1.135-1.135H52.441v8.49h8.59v22.827h8.613V37.864h8.665v-8.49h.01Z" fill="#0061AA" fill-rule="nonzero"/><path d="m35.27 60.136-1.508-2.98H21.578l-1.55 2.98h-8.14l15.784-30.888 15.74 30.888H35.27Zm-5.189-10.15-2.413-4.741-2.451 4.74h4.864Z" fill="#FFF" fill-rule="nonzero"/><path d="M27.668 30.496 42.482 59.57h-6.869l-1.507-2.98H21.234l-1.55 2.98h-6.868l14.852-29.073m-3.375 20.057h6.712L27.668 44l-3.375 6.553M27.672 28l-1.012 1.982-14.853 29.072-.859 1.65h9.404l.325-.612 1.232-2.368h11.483l1.193 2.358.325.623h9.404l-.84-1.65L28.68 29.98l-1.008-1.982Zm-1.515 21.403 1.508-2.918 1.492 2.918h-3Z" fill="#0061AA" fill-rule="nonzero"/></g></svg>