<svg viewBox="0 0 90 90" xmlns="http://www.w3.org/2000/svg"><g fill="none" fill-rule="evenodd"><path d="M36.369 0 8.336 28.033H0L28.033 0h8.336ZM90 61.967 61.967 90h-8.336l28.033-28.033H90Z" fill="#7C999D" fill-rule="nonzero"/><path fill="#7C999D" fill-rule="nonzero" d="M90 32.459v29.508H28.033V0H57.54v5.902H33.934v50.164h50.164V32.459z"/><path d="M0 90V61.967h5.902L5.9 79.737l16.478-16.293 4.173 4.173-16.293 16.481h17.774V90H0Z" fill="#000" fill-rule="nonzero"/><path fill="#F7B500" d="M36.885 14.754h38.36v38.36l-19.18 19.181h-38.36v-38.36z"/><path fill="#7C999D" fill-rule="nonzero" d="M0 28.033h61.967V90H32.46v-5.902h23.607V33.934H5.902v23.607H0z"/><path d="M90 0v28.033h-5.902V10.138l-16.23 16.42h-4.425V22.13L79.855 5.9H61.967V0H90Z" fill="#000" fill-rule="nonzero"/></g></svg>