<svg xmlns="http://www.w3.org/2000/svg" width="90" height="90" viewBox="0 0 90 90"><g fill="none" fill-rule="evenodd"><rect width="90" height="90" fill="#457DF5"/><circle cx="45" cy="45" r="35" fill="#FFF"/><rect width="50" height="50" x="20" y="20" fill="#457DF5"/><path fill="#FFF" d="M46.4754086,55.490244 C49.4262,55.490244 52.0819714,54.4326985 54,52.4687416 L50.3114143,48.6916994 C49.4262,49.7492449 48.0983657,50.3535191 46.6229443,50.3535191 C43.6721271,50.3535191 41.3114786,48.0874252 41.3114786,45.0657914 C41.3114786,42.0441576 43.6721271,39.6269294 46.6229443,39.6269294 C48.0983657,39.6269294 49.4262,40.2312036 50.1639429,41.1377463 L53.8524,37.5118384 C51.9343714,35.6988844 49.2787286,34.490244 46.4754086,34.490244 C40.72131,34.490244 36,39.1736581 36,45.0657914 C36,50.8067905 40.5737743,55.490244 46.4754086,55.490244 Z"/></g></svg>