<svg viewBox="0 0 90 90" xmlns="http://www.w3.org/2000/svg"><defs><linearGradient x1="33.592%" y1="0%" x2="59.326%" y2="88.382%" id="a"><stop stop-color="#FFF" stop-opacity="0" offset="0%"/><stop stop-color="#71C2FF" offset="49.517%"/><stop stop-color="#39AAFF" offset="100%"/></linearGradient></defs><g fill="none"><path d="M45.845 20.923a.455.455 0 0 0-.299.107.244.244 0 0 0-.082.24L62.8 86a44.953 44.953 0 0 0 20.327-17.36l-36.94-47.573a.435.435 0 0 0-.342-.144Z" fill="url(#a)" opacity=".5" transform="translate(.217 2)"/><path d="M45.048 2C20.26 2.093.217 22.136.217 46.828a44.704 44.704 0 0 0 6.87 23.81l37.52-48.32c.125-.162.357-.262.608-.262.252 0 .484.1.61.262l37.52 48.321a44.704 44.704 0 0 0 6.872-23.811C90.217 22.07 70.07 2 45.217 2h-.17Z" fill="#2185D0"/></g></svg>