<svg viewBox="0 0 90 90" xmlns="http://www.w3.org/2000/svg" xmlns:xlink="http://www.w3.org/1999/xlink"><defs><circle id="a" cx="45" cy="45" r="45"/></defs><g fill="none" fill-rule="evenodd"><mask id="b" fill="#fff"><use xlink:href="#a"/></mask><path d="M45 0c12.114 0 23.11 4.787 31.2 12.573-3.485 7.972-11.371 13.576-20.585 13.744l-.426.004.095.264.09.019-.58-.116a24.942 24.942 0 0 0-2.173-.31l.011.002-.245-.024c-13.36-1.186-25.249 8.564-26.656 21.953-1.422 13.524 8.39 25.64 21.914 27.062 13.524 1.421 25.64-8.39 27.061-21.914.107-1.012.15-2.017.134-3.01l-.012-.412.008.208.003-.046c.047-1.261.095-2.092.91-2.541 2.051-1.134 4.394 4.864 5.505 4.864 1.11 0 4.288-13.263 7.215-13.263.924 0 1.328 1.907 1.503 4.357.019.526.028 1.055.028 1.586 0 24.853-20.147 45-45 45S0 69.853 0 45C0 24.55 13.64 7.287 32.318 1.812v.001l.712-.203A45.004 45.004 0 0 1 45 0Z" fill="#8C1B18" mask="url(#b)"/><path d="M49.643 25.64c.552.138 1.1.285 1.642.442-12.907-.57-24.186 9.008-25.554 22.027-1.422 13.524 8.39 25.64 21.914 27.062 13.524 1.421 25.64-8.39 27.061-21.914a24.786 24.786 0 0 0 .13-3.214l.003-.046c.047-1.261.095-2.092.91-2.541 1.359-.752 2.845 1.627 4.017 3.318A44.804 44.804 0 0 1 82.42 80.19c-6.013 24.114-30.436 38.789-54.55 32.776-24.115-6.012-38.79-30.435-32.777-54.55 6.012-24.114 30.435-38.789 54.55-32.776Z" fill="#A72421" mask="url(#b)"/><path d="M75.748 47.456c2.052-1.134 4.395 4.864 5.506 4.864.441 0 1.209-2.094 2.157-4.618 11.2 8.185 18.476 21.42 18.476 36.355 0 24.852-20.147 45-45 45s-45-20.148-45-45c0-12.702 5.262-24.175 13.726-32.357.482 12.016 9.718 22.176 22.032 23.47 13.524 1.422 25.64-8.39 27.061-21.913a24.85 24.85 0 0 0 .128-3.288l.002.074.003-.046c.047-1.261.095-2.092.91-2.541Z" fill="#C3312E" mask="url(#b)"/><path d="M125.66 75.566c0 24.853-20.147 45-45 45-24.852 0-45-20.147-45-45 0-1.633.087-3.246.257-4.834a24.516 24.516 0 0 0 11.728 4.439c13.524 1.421 25.64-8.39 27.061-21.914.118-1.123.159-2.236.126-3.334l.004.12.003-.046c.047-1.261.095-2.092.91-2.541 2.051-1.134 4.394 4.864 5.505 4.864 1.11 0 4.288-13.263 7.215-13.263 1.142 0 1.49 2.908 1.592 6.156l.014.502c.006.252.01.505.015.758l.006.506.004.505.002.5v1.22l-.001.7v1.067c.008 2.57.1 4.022.746 2.142 1.163-3.377 2.295-10.354 3.398-20.932l-.048.457c18.238 5.745 31.463 22.792 31.463 42.928Z" fill="#DA3B38" mask="url(#b)"/><path d="M94.245 8.49c24.853 0 45 20.148 45 45 0 24.853-20.147 45-45 45-17.099 0-31.97-9.537-39.586-23.582 10.473-1.915 18.878-10.527 20.047-21.651a24.812 24.812 0 0 0 .13-3.214l.003-.046c.047-1.261.095-2.092.91-2.541 2.051-1.134 4.394 4.864 5.505 4.864 1.11 0 4.288-13.263 7.215-13.263 1.142 0 1.49 2.908 1.592 6.156l.014.502c.006.252.01.505.015.758l.006.506.004.505.002.5v1.22l-.001.7v1.067c.008 2.57.1 4.022.746 2.142 1.163-3.377 2.295-10.354 3.398-20.932-4.213-11.062-7.538-18.589-9.974-22.58a45.113 45.113 0 0 1 9.974-1.11Z" fill="#F2433F" mask="url(#b)"/><path d="M101.038-13.585c24.853 0 45 20.147 45 45s-20.147 45-45 45c-11.749 0-22.446-4.502-30.46-11.875a24.517 24.517 0 0 0 4.128-11.283c.12-1.13.16-2.25.126-3.354l.004.14.003-.046c.047-1.261.095-2.092.91-2.541 2.051-1.134 4.394 4.864 5.505 4.864 1.11 0 4.288-13.263 7.215-13.263 1.142 0 1.49 2.908 1.592 6.156l.014.502c.006.252.01.505.015.758l.006.506.004.505.002.5v1.573l-.001.347v1.067c.008 2.57.1 4.022.746 2.142 1.163-3.377 2.295-10.354 3.398-20.932C87.897 15.516 83.567 6.874 81.254 6.255c-.674-.18-2.06.715-3.654 1.986l-.013.062c.345-1.58.526-3.222.526-4.907 0-3.363-.724-6.557-2.025-9.435a44.774 44.774 0 0 1 24.95-7.546Z" fill="#FE716F" mask="url(#b)"/></g></svg>