<svg viewBox="0 0 90 90" xmlns="http://www.w3.org/2000/svg"><g fill="none" fill-rule="evenodd"><path fill="#0F1927" d="M0 0h90v90H0z"/><path d="M70 31.86c0-.555-.185-1.11-.554-1.48l-.184-.185s-.185 0-.185-.185L46.015 16.87h-.185c-.184-.37-.553-.37-.922-.37-.185 0-.37 0-.554.185-.184 0-.184.185-.369.185L21.107 30.01c-.369.185-.553.37-.553.37-.37.37-.554.925-.554 1.48v26.465c0 .74.369 1.48 1.107 1.85l22.878 13.14h.185c.184 0 .184.185.369.185h.738c.184 0 .184 0 .369-.185h.184l22.878-13.14c.738-.37 1.107-1.11 1.107-1.85L70 31.86Zm-40.96-.925 15.499-8.883c.369-.185.738-.185.922 0L60.96 31.12c.738.185.738 1.296 0 1.666l-15.498 9.068c-.369.185-.738.185-.922 0l-15.5-9.068c-.738-.37-.738-1.48 0-1.85Zm13.285 34.237c0 .74-.738 1.296-1.476.925L25.35 57.03c-.37-.185-.554-.555-.554-.74V38.338c0-.74.738-1.296 1.476-.926l15.498 9.069c.37.185.554.555.554.925v17.766Zm22.878-8.883c0 .37-.185.74-.554.925l-15.498 9.068c-.738.37-1.476-.185-1.476-.925V47.406c0-.37.185-.74.554-.925l15.498-9.069c.738-.37 1.476.185 1.476.926v17.951Z" fill="#9FEF00" fill-rule="nonzero"/></g></svg>