<svg viewBox="0 0 90 90" xmlns="http://www.w3.org/2000/svg"><g fill="none" fill-rule="evenodd"><path fill="#FFF" d="M0 0h90v90H0z"/><g fill-rule="nonzero"><path d="M43.377 6.11c-.67.168-3.625 1.768-7.082 3.831-.922.548-5.029 2.926-9.114 5.305a2476.328 2476.328 0 0 0-8.297 4.8c-.482.274-2.012 1.158-3.436 1.98-3.06 1.747-4.002 2.589-4.778 4.23-.544 1.222-.565 1.327-.565 5.222v3.978l1.257.064c4.484.21 8.444 1.705 12.676 4.778 1.006.737 4.316 3.453 4.945 4.043.125.105.67.589 1.236 1.052.565.463 1.299 1.095 1.655 1.39 1.173.968 3.646 2.505 5.238 3.242 4.023 1.873 9.24 2.189 12.383.715 3.561-1.642 5.72-4.042 11.397-12.568 5.657-8.547 8.549-11.389 13.745-13.536.23-.085.964-.274 1.613-.421.67-.148 1.153-.337 1.09-.442-.105-.148-2.242-1.453-4.84-2.927-1.676-.947-11.691-6.779-12.32-7.158a8.952 8.952 0 0 0-.943-.547c-.146-.084-.9-.505-1.676-.947a82.585 82.585 0 0 1-1.676-1.01c-1.592-.927-7.794-4.443-8.318-4.716-.775-.4-3.248-.61-4.19-.358Z" fill="#4F52A7"/><path d="M78.723 29.204c-.629.168-1.907.674-2.829 1.137-4.002 1.979-7.291 5.347-11.733 12-3.625 5.431-4.651 6.736-7.166 9.2-2.807 2.757-5.992 4.462-9.407 5.03-1.55.253-5.406.148-7.166-.23-5.28-1.074-8.8-3.053-15.169-8.548-5.05-4.337-7.354-5.81-10.476-6.631-1.613-.421-2.032-.485-3.562-.59L10 40.51v11.073c0 12.21.021 12.484 1.278 14.232.608.842 1.886 1.831 3.855 2.99.713.42 7.878 4.568 8.884 5.136.524.295 2.43 1.39 4.211 2.442 8.842 5.137 13.18 7.62 13.996 8.042 1.132.568 3.5.758 4.63.379.755-.274 3.143-1.537 5.364-2.884.587-.337 1.383-.8 1.781-1.032.42-.21 3.709-2.126 7.333-4.231 3.625-2.106 8.675-5.032 11.21-6.505 2.66-1.537 4.965-3.032 5.468-3.537.775-.758 1.362-1.727 1.844-3.095.126-.358.21-34.441.084-34.547-.042-.042-.587.085-1.215.232Z" fill="#32357C"/></g></g></svg>