<svg viewBox="0 0 90 90" xmlns="http://www.w3.org/2000/svg"><g fill="none" fill-rule="evenodd"><path fill="#FFF" d="M0 0h90v90H0z"/><g fill-rule="nonzero"><path d="M45 39.128c-6.016 0-10.886 4.869-10.886 10.882 0 6.014 4.87 10.882 10.886 10.882 6.016 0 10.886-4.868 10.886-10.882-.072-6.013-4.942-10.882-10.886-10.882Z" fill="#2EAA8F"/><path d="M45 23.02c-3.867 0-7.52.788-10.886 2.291v9.236c3.08-2.148 6.804-3.437 10.886-3.437 10.456 0 18.907 8.52 18.907 18.9 0 10.453-8.45 18.9-18.907 18.9-10.456 0-18.907-8.447-18.907-18.9V14H18v36.01C18 64.901 30.103 77 45 77s27-12.099 27-26.99c-.072-14.89-12.103-26.99-27-26.99Z" fill="#003F6B"/></g></g></svg>