<svg viewBox="0 0 90 90" xmlns="http://www.w3.org/2000/svg"><g fill="none" fill-rule="evenodd"><path fill="#FFF" d="M0 0h90v90H0z"/><path d="M41.809 75c6.847 0 11.953-2.327 15.667-7.099l.232.117v5.935H75V17.047H56.78v5.935l-.232.117C52.602 18.444 46.915 16 40.88 16 26.257 16 15 28.102 15 45.558 15 63.13 26.257 75 41.809 75Zm3.83-16.06c-7.196 0-12.186-5.353-12.186-13.382 0-8.146 5.222-13.499 12.185-13.499 6.731 0 11.954 5.702 11.954 13.5 0 8.145-5.454 13.382-11.954 13.382Z" fill="#FF6726" fill-rule="nonzero"/></g></svg>