<svg viewBox="0 0 90 90" xmlns="http://www.w3.org/2000/svg"><g fill="none"><path d="M78.66 11.742a38.323 38.323 0 0 1 9.545 36.598c-.768 2.884-3.738 4.603-6.634 3.838-2.896-.764-4.622-3.722-3.854-6.607a27.55 27.55 0 0 0-6.863-26.322c-10.651-10.985-28.227-11.29-39.257-.683-11.03 10.608-11.337 28.113-.685 39.098 10.651 10.985 28.227 11.29 39.257.682a5.44 5.44 0 0 1 7.671.134 5.387 5.387 0 0 1-.134 7.64c-15.34 14.753-39.785 14.328-54.6-.95a38.588 38.588 0 0 1-5.387-7l-6.49 27.57c-.635 2.916-3.524 4.768-6.452 4.136a5.404 5.404 0 0 1-4.204-6.16l.051-.264 12.799-54.363a5.45 5.45 0 0 1 .137-.51c1.741-6.554 5.246-12.733 10.5-17.786 15.34-14.754 39.785-14.329 54.6.95Z" fill="#00C9FF"/><path d="M43.824 30.511a17.02 17.02 0 0 0-1.201 10.322c1.815 9.305 10.861 15.381 20.204 13.572a17.213 17.213 0 0 0 6.463-2.691 23.614 23.614 0 0 1-19.325 9.999c-13.042 0-23.615-10.53-23.615-23.519 0-6.251 3.302-12.934 7.665-15.497l.292-.164c7.27-3.563 11.333 2.235 10.842 4.852-.286 1.52-1.01 2.434-1.325 3.126Z" fill="#5BEBFF"/></g></svg>