<svg viewBox="0 0 90 90" xmlns="http://www.w3.org/2000/svg"><g fill="none" fill-rule="evenodd"><path fill="#003FDF" d="M0 0h90v90H0z"/><path d="m20 20 .96.069c4.083.264 7.823 2.81 9.703 6.58.47.94.734 1.684 1.018 2.84.206.852.206 1.077.235 8.46.01 4.172.05 7.932.078 8.353.235 2.89 1.626 5.827 3.78 7.981 2.213 2.223 5.415 3.623 8.587 3.78.284.01.548.059.588.098.036.037.073 2.407.077 5.373V70l-1.321-.069c-1.292-.058-1.704-.097-2.301-.205a9.498 9.498 0 0 1-.247-.035l-.3-.044-.138-.02a29.014 29.014 0 0 1-1.42-.303c-8.998-2.105-16.215-9.126-18.506-18.018-.108-.44-.225-.9-.245-1.028-.03-.127-.068-.343-.098-.48-.088-.391-.117-.597-.195-1.175-.04-.294-.098-.646-.128-.783s-.068-6.453-.088-14.043L20 20Zm24.463.046.554.003c2.193.01 3.8.176 5.493.568.173.04.294.067.4.093l.206.052c.14.037.3.08.569.149.215.058.46.117.539.137 1.302.343 4.132 1.606 5.63 2.507a25.259 25.259 0 0 1 10.995 13.807c.324.98.745 2.693.852 3.427.03.245.079.51.098.588.196.715.274 5.337.118 6.463-.186 1.341-.284 1.939-.363 2.252-.049.186-.107.47-.137.627-.098.548-.666 2.37-1.067 3.388-1.038 2.683-3.006 5.836-4.827 7.736l-.215.223c-.212.223-.407.43-.48.511a16.3 16.3 0 0 1-.764.735c-2.105 1.92-4.161 3.29-6.688 4.436-.851.391-2.692 1.096-3.133 1.194-.088.03-.587.147-1.096.284-.97.255-2.282.49-3.28.608-.324.029-.617.078-.657.107-.049.02-.078-.039-.088-.137-.006-.23-.01-.942-.011-1.91v-1.909c.004-3.469.025-8 .05-8.02.03-.03.431-.137.901-.235 2.291-.51 4.74-1.91 6.492-3.721.862-.891 2.056-2.673 2.428-3.633.088-.235.206-.48.245-.529.186-.245.695-2.272.832-3.33.059-.43.059-2.663 0-2.966a11.63 11.63 0 0 1-.107-.686c-.255-1.85-1.175-3.975-2.497-5.748-2.096-2.82-5.513-4.759-8.96-5.112-.851-.088-2.163-.088-2.937 0-3.446.373-6.893 2.34-8.93 5.083-.685.92-.597 1.341-.656-3.35-.02-1.909-.058-3.583-.088-3.72-.02-.137-.098-.53-.156-.872-.265-1.37-1.146-3.555-1.86-4.612-.167-.245-.304-.47-.304-.51 0-.127 1.224-.851 2.487-1.468 1.576-.774 4.014-1.655 5.297-1.9.108-.02.42-.078.685-.137 1.087-.225 1.283-.255 2.301-.353.353-.039.656-.078.676-.097.013-.013.394-.022.956-.024Z" fill="#FFF" fill-rule="nonzero"/></g></svg>