<svg viewBox="0 0 90 90" xmlns="http://www.w3.org/2000/svg"><g fill="none" fill-rule="evenodd"><path fill="#171F70" d="M0 0h90v90H0z"/><g fill-rule="nonzero"><path d="M18.737 42.66a2.08 2.08 0 0 1-1.604-3.69l5.762-4.501a2.08 2.08 0 0 1 2.911.358 2.08 2.08 0 0 1-.358 2.912l-5.761 4.5a1.87 1.87 0 0 1-.95.42Z" fill="#3AE7E1"/><path d="M13.147 47.05a2.104 2.104 0 0 1-1.962-.763 2.08 2.08 0 0 1 .358-2.911l.545-.42a2.08 2.08 0 0 1 2.912.357 2.08 2.08 0 0 1-.358 2.912l-.545.42c-.28.218-.607.359-.95.405Z" fill="#F5F7FA"/><path d="M12.4 58.869a2.08 2.08 0 0 1-1.604-3.69l12.644-9.873a2.078 2.078 0 0 1 2.911.358 2.08 2.08 0 0 1-.358 2.912L13.35 58.464a2.123 2.123 0 0 1-.95.405Z" fill="#3AE7E1"/><path d="M30.415 44.855a2.08 2.08 0 0 1-1.604-3.69l2.01-1.573a2.08 2.08 0 0 1 2.911.358 2.08 2.08 0 0 1-.358 2.912l-2.009 1.572a2.348 2.348 0 0 1-.95.42Z" fill="#F5F7FA"/><path d="M29.31 56.922a2.08 2.08 0 0 1-1.604-3.69l10.37-8.097a2.078 2.078 0 0 1 2.912.358 2.08 2.08 0 0 1-.358 2.912l-10.37 8.097a1.87 1.87 0 0 1-.95.42Z" fill="#3AE7E1"/><path d="M23.642 61.422a2.078 2.078 0 0 1-1.604-3.69l.732-.576a2.078 2.078 0 0 1 2.912.358c.7.903.545 2.211-.358 2.912l-.732.576a1.992 1.992 0 0 1-.95.42Z" fill="#F5F7FA"/><path d="M75.914 21H27.83c-1.791 0-3.457 1.106-3.987 2.818a3.856 3.856 0 0 0 0 2.336 4.007 4.007 0 0 0 1.355 1.946s18.42 14.31 22.936 17.424c1.62 1.044 3.192.685 4.126-.03l23.373-18.188v31.438a5.562 5.562 0 0 1-5.56 5.559H25.9a2.053 2.053 0 0 0-2.056 2.055c0 1.153.935 2.087 2.087 2.087h44.128c5.357 0 9.7-4.344 9.7-9.7v-33.9C79.776 22.728 78.048 21 75.915 21Zm-33.26 17.144.016-.11.062.094-.078.016Zm7.52 3.737-21.41-16.74h42.899l-21.488 16.74Z" fill="#3AE7E1"/></g></g></svg>