<svg viewBox="0 0 90 90" xmlns="http://www.w3.org/2000/svg"><defs><linearGradient x1="53.147%" y1="86.915%" x2="47.886%" y2="55.129%" id="a"><stop offset="0%"/><stop offset="4.6%"/><stop stop-color="#868686" offset="27.6%"/><stop stop-color="#868686" offset="100%"/></linearGradient><linearGradient x1="58.696%" y1="86.408%" x2="41.304%" y2="13.588%" id="b"><stop stop-color="#DF8200" offset="0%"/><stop stop-color="#F0A800" offset="39.2%"/><stop stop-color="#FFCB00" offset="71.3%"/><stop stop-color="#FFCB00" offset="100%"/></linearGradient><linearGradient x1=".012%" y1="50.033%" x2="100.002%" y2="50.033%" id="c"><stop stop-color="#FCC200" offset="0%"/><stop stop-color="#FFCB00" offset="100%"/></linearGradient></defs><g fill="none"><path d="M56.07 11.834H28.397V51.25a87.045 87.045 0 0 1 14.05-8.275v-17.03H56.07v.027c10.967 0 19.857 8.93 19.857 19.945 0 11.016-8.89 19.945-19.857 19.945v.013H42.448V53.559c0-.353-.319-.35-.48-.23a64.883 64.883 0 0 0-13.571 12.749V80H56.07C74.81 80 90 64.741 90 45.918S74.81 11.836 56.07 11.836v-.002Z" fill="#868686"/><path fill="url(#a)" d="m42.448 31.974-14.051 8.275V.834l14.05 14.11z" transform="translate(0 11)"/><path fill="url(#b)" d="M1.324 21.821h13.472v47.124H1.324z" transform="translate(0 11)"/><path d="M70.079 25.646a1.613 1.613 0 0 0-.406-1.03 1.892 1.892 0 0 0-1.666-.39C39.794 27.169 14.842 43.901 1.316 68.945h13.472c14.291-25.279 35.273-36.698 54.204-42.04.845-.282 1.105-.798 1.087-1.26Z" fill="url(#c)" transform="translate(0 11)"/><path d="M8.06 11a8.06 8.06 0 0 1 7.447 4.999 8.123 8.123 0 0 1-1.748 8.823 8.034 8.034 0 0 1-8.785 1.754A8.097 8.097 0 0 1 0 19.094c.003-4.47 3.61-8.092 8.06-8.094Z" fill="#FFCB00"/></g></svg>