<svg viewBox="0 0 90 90" xmlns="http://www.w3.org/2000/svg"><g fill="none"><path d="M57.772 43.437c-.256-2.12-1.11-8.735-6.49-13.484-1.536-1.357-5.293-4.664-9.22-3.816-4.356.933-6.234 6.36-7.6 10.261-1.964 5.597-5.636 15.943.512 22.643 3.842 4.155 10.93 6.36 16.309 3.816 8.282-4.07 6.745-17.3 6.489-19.42Zm32.19.678c-.427-6.02-3.842-13.907-10.673-16.79-6.66-2.8-13.235.678-16.309 5.342-6.147 9.498-.17 27.815 8.454 30.868 8.197 2.799 19.297-7.462 18.528-19.42Zm-60.111-7.547c-.085-.679-.683-5.767-3.245-8.056-4.781-4.24-18.443-1.188-23.907 8.056C-1.23 43.183-1.315 53.613 5.43 59.21c4.44 3.647 11.527 4.919 16.308 2.12 3.587-2.12 4.953-7.547 7.6-18.317.341-1.442.854-3.647.512-6.445Z" fill="#ED1C24"/><path d="M21.569 37.331c-.683 0-1.196.34-1.452 1.103l-5.38 11.618L9.36 38.349c-.257-.594-.854-1.018-1.452-1.018-.94 0-1.622.679-1.622 1.611 0 .255.085.51.17.848l6.319 13.484c.427.848 1.11 1.357 1.964 1.357.854 0 1.537-.509 1.878-1.357l6.319-13.484c.17-.339.17-.593.17-.932.086-.848-.597-1.527-1.536-1.527Zm25.53-.085H39.84c-1.025 0-1.708.679-1.708 1.696v13.654c0 1.102.598 1.696 1.623 1.696 1.024 0 1.622-.679 1.622-1.696v-4.41h5.72c3.758 0 5.807-1.95 5.807-5.512 0-3.477-2.05-5.428-5.806-5.428Zm2.561 5.512c0 1.697-.939 2.545-2.817 2.545h-5.465v-5.004h5.38c1.878-.085 2.902.848 2.902 2.46Zm25.36 1.527c-2.818 0-4.184-.34-4.184-1.696 0-1.442 1.537-2.46 3.842-2.46 1.793 0 3.16.51 4.44 1.442.256.17.598.34 1.196.34.768 0 1.366-.594 1.366-1.442 0-.509-.171-.933-.513-1.272-1.536-1.357-3.671-2.035-6.233-2.035-4.44 0-7.343 2.204-7.343 5.512 0 3.307 1.964 4.664 7.173 4.749 2.817.084 4.354.339 4.354 1.865 0 1.527-1.451 2.46-3.927 2.46-2.22 0-4.014-.594-5.294-1.866-.257-.254-.598-.34-1.025-.34-.94 0-1.537.594-1.537 1.527 0 .424.17.848.427 1.187 1.366 1.612 3.928 2.544 7.172 2.544 4.782 0 7.429-2.035 7.429-5.512 0-3.561-2.05-4.918-7.343-5.003Z" fill="#FFF"/></g></svg>