<svg viewBox="0 0 90 90" xmlns="http://www.w3.org/2000/svg"><g fill="none" fill-rule="evenodd"><path fill="#249182" d="M0 0h90v90H0z"/><g fill-rule="nonzero"><path d="M68.083 53.26H32.802c-2.71 0-4.913-2.16-4.913-4.826 0-2.664 2.202-4.825 4.913-4.825h35.281c2.715 0 4.917 2.16 4.917 4.825s-2.202 4.827-4.917 4.827" fill="#000"/><path d="M15 48.435a4.83 4.83 0 0 0 4.833 4.826 4.832 4.832 0 0 0 4.834-4.826 4.83 4.83 0 0 0-4.834-4.826A4.83 4.83 0 0 0 15 48.435" fill="#FFF"/><path d="M68.083 66.13H32.802c-2.71 0-4.913-2.161-4.913-4.827 0-2.662 2.202-4.825 4.913-4.825h35.281c2.715 0 4.917 2.163 4.917 4.825 0 2.666-2.202 4.827-4.917 4.827" fill="#000"/><path d="M15 61.304a4.83 4.83 0 0 0 4.833 4.826 4.832 4.832 0 0 0 4.834-4.826 4.832 4.832 0 0 0-4.834-4.826A4.83 4.83 0 0 0 15 61.304" fill="#FFF"/><path d="M68.083 79H32.802c-2.71 0-4.913-2.16-4.913-4.826 0-2.665 2.202-4.826 4.913-4.826h35.281c2.715 0 4.917 2.16 4.917 4.826C73 76.84 70.798 79 68.083 79" fill="#000"/><path d="M15 74.171A4.83 4.83 0 0 0 19.833 79a4.831 4.831 0 0 0 4.834-4.829 4.83 4.83 0 0 0-4.834-4.823A4.83 4.83 0 0 0 15 74.17" fill="#FFF"/><path d="M68.403 37.174c-2.542 0-4.603-1.97-4.603-4.405 0-10.453-8.882-18.96-19.8-18.96-10.922 0-19.8 8.507-19.8 18.96 0 2.435-2.058 4.405-4.6 4.405s-4.6-1.97-4.6-4.405C15 17.457 28.007 5 44 5c15.992 0 29 12.457 29 27.77 0 2.434-2.06 4.404-4.597 4.404" fill="#000"/></g></g></svg>