<svg viewBox="0 0 90 90" xmlns="http://www.w3.org/2000/svg"><path d="M83.966 35.97c0-11.715-2.606-20.613-8.228-26.762C70.115 3.058 58.802 0 48.31 0a59.358 59.358 0 0 0-29.998 8.006 1.89 1.89 0 0 0-.926 1.649l.788 12.917a2.293 2.293 0 0 0 3.771 1.34c12.857-7.936 28.285-9.413 36.136-5.428a13.748 13.748 0 0 1 6.856 12.402v1.89H43.511c-9.222 0-37.472 3.435-37.472 29.441v.275a25.24 25.24 0 0 0 9.154 20.888 36.15 36.15 0 0 0 22.901 6.562h43.369A2.54 2.54 0 0 0 84 87.399V35.867l-.034.103Zm-19.028 38.1h-25.61a15.818 15.818 0 0 1-9.085-3.195 10.107 10.107 0 0 1-4.285-8.452c0-4.637 3.12-13.913 18.719-13.913h20.261v25.56Z" fill="#FF5A00"/></svg>