<svg viewBox="0 0 90 90" xmlns="http://www.w3.org/2000/svg"><g fill="none" fill-rule="evenodd"><path fill="#FF1E44" d="M0 0h90v90H0z"/><path d="M22.084 17.346c-2.705 1.612-8.033 7.757-8.084 9.369v2.668c0 3.381 3.149 6.353 6.007 6.353 3.433 0 6.293-2.856 6.293-6.245 0 3.39 2.762 6.245 6.196 6.245 3.432 0 6.106-2.856 6.106-6.245 0 3.39 2.936 6.245 6.368 6.245h.062c3.432 0 6.37-2.856 6.37-6.245 0 3.39 2.673 6.245 6.105 6.245 3.432 0 6.194-2.856 6.194-6.245 0 3.39 2.86 6.245 6.293 6.245 2.857 0 6.006-2.971 6.006-6.353v-2.668c-.053-1.612-5.381-7.757-8.084-9.369C59.512 17.05 53.682 17 44.998 17c-8.681 0-20.523.137-22.915.346Zm16.475 16.798a7.107 7.107 0 0 1-1.208 1.56 7.183 7.183 0 0 1-10.071 0 6.827 6.827 0 0 1-1.153-1.53v.001c-.325.576-.782 1.07-1.25 1.532a7.182 7.182 0 0 1-5.04 2.06c-.235 0-.48-.066-.678-.133a105.26 105.26 0 0 0-.433 7.654v.01l-.015 3.027c.053 6.055-.598 19.62 2.658 22.952C26.413 72.46 35.696 72.997 45.01 73h.001c9.314-.003 18.597-.54 23.641-1.72 3.256-3.333 2.605-16.898 2.659-22.951l-.015-3.026v-.011c-.042-2.01-.159-4.767-.435-7.652a2.2 2.2 0 0 1-.681.133 7.187 7.187 0 0 1-5.04-2.06c-.47-.462-.926-.955-1.252-1.53l-.001-.002a6.77 6.77 0 0 1-1.154 1.53 7.184 7.184 0 0 1-10.07 0 7.154 7.154 0 0 1-1.209-1.561 7.086 7.086 0 0 1-1.196 1.56 7.185 7.185 0 0 1-5.042 2.061c-.068 0-.137-.003-.204-.005h-.003c-.068.002-.136.005-.204.005a7.186 7.186 0 0 1-5.042-2.06 7.08 7.08 0 0 1-1.197-1.56l-.007-.007Zm-5.177 6.72v.002h.005c2.05.004 3.872 0 6.127 2.472a52.07 52.07 0 0 1 5.49-.277h.003a52.37 52.37 0 0 1 5.49.279c2.258-2.472 4.077-2.466 6.127-2.472h.006v-.003c.97 0 4.843 0 7.543 7.612l2.902 10.443c2.149 7.77-.688 7.96-4.227 7.966-5.25-.194-8.154-4.022-8.154-7.848-2.905.479-6.296.718-9.684.718h-.002c-3.389 0-6.778-.24-9.682-.718 0 3.826-2.905 7.651-8.154 7.848-3.539-.006-6.377-.197-4.227-7.963l2.9-10.443c2.7-7.612 6.575-7.612 7.543-7.612l-.006-.004Zm11.62 5.981v.002c-.005.005-5.525 5.094-6.517 6.904l3.615-.145v3.164c0 .148 1.45.088 2.902.02h.002c1.451.068 2.902.128 2.902-.02v-3.164l3.615.145c-.993-1.81-6.517-6.904-6.517-6.904v-.001h-.002Z" fill="#FFF" fill-rule="nonzero"/></g></svg>