<svg viewBox="0 0 90 90" xmlns="http://www.w3.org/2000/svg"><g fill="none"><path fill="#C7CDD5" d="M49.583 37.433h-2.796V35h-4.31v2.433H39.68v3.98h2.796v2.433h4.31v-2.433h2.797z"/><path d="M0 52.215v-10.02h10.387a4.29 4.29 0 0 1 .572 0c.192.03.383.07.571.12.184.067.364.146.537.238.173.096.335.21.485.34.104.12.203.244.294.374.09.144.168.295.234.451.068.179.117.364.147.553.035.214.053.43.052.646v3.402c0 .206-.017.41-.052.613a2.165 2.165 0 0 1-.147.519c-.05.154-.123.3-.217.433a2.06 2.06 0 0 1-.294.358 1.58 1.58 0 0 1-.381.297 2.61 2.61 0 0 1-.442.222 2.57 2.57 0 0 1-.605.17c-.21.026-.421.04-.632.042H4.917V56H0v-3.785Zm4.882-7.748v4.303h2.909c.081 0 .16-.027.225-.076a.857.857 0 0 0 .19-.196.91.91 0 0 0 .113-.247.978.978 0 0 0 0-.255v-2.849a.737.737 0 0 0-.052-.28.594.594 0 0 0-.13-.205.483.483 0 0 0-.182-.144.526.526 0 0 0-.164-.051H4.882Zm21.087 1.326v7.655c.002.069.02.135.052.196a.851.851 0 0 0 .138.187c.065.049.135.091.208.128.064.032.135.05.208.05h2.138a.65.65 0 0 0 .207-.042.425.425 0 0 0 .182-.119.854.854 0 0 0 .139-.162.294.294 0 0 0 .06-.178v-7.655h4.77V56H24.038a2.976 2.976 0 0 1-1.177-.247 3.464 3.464 0 0 1-.467-.323 2.788 2.788 0 0 1-.39-.391 3.893 3.893 0 0 1-.329-.477 3.213 3.213 0 0 1-.242-.527 5.722 5.722 0 0 1-.13-.553 2.943 2.943 0 0 1-.043-.544v-7.145h4.709Zm20.818.068v1.863h-6.32a.599.599 0 0 0-.146 0l-.165.068a.502.502 0 0 0-.13.094.21.21 0 0 0-.052.136v.561a.177.177 0 0 0 .061.128l.139.085a.526.526 0 0 0 .164.05h4.822a2.95 2.95 0 0 1 .441 0c.143.026.285.06.424.103.28.095.536.252.745.46.09.094.17.196.242.305.075.125.14.256.19.392.055.142.093.29.113.442.028.177.043.356.043.536v2.373a2.45 2.45 0 0 1-.052.519c-.03.166-.08.329-.147.484a1.497 1.497 0 0 1-.216.4c-.096.12-.182.23-.277.332-.23.2-.487.368-.762.502a2.63 2.63 0 0 1-.563.17c-.183.026-.368.04-.554.042h-9.106v-1.735h6.735a.43.43 0 0 0 .164-.042.616.616 0 0 0 .147-.094.326.326 0 0 0 .121-.119.326.326 0 0 0 0-.153v-.561a.293.293 0 0 0 0-.145.353.353 0 0 0-.12-.102.47.47 0 0 0-.157-.085.343.343 0 0 0-.155 0h-4.64a4.157 4.157 0 0 1-.554-.043 2.63 2.63 0 0 1-.563-.17 2.306 2.306 0 0 1-.346-.187 1.39 1.39 0 0 1-.277-.272 1.836 1.836 0 0 1-.355-.638 1.942 1.942 0 0 1-.06-.323 2.65 2.65 0 0 1 0-.374v-2.73a2.178 2.178 0 0 1 .216-.927c.078-.128.164-.247.25-.366.096-.11.2-.213.312-.307a2.45 2.45 0 0 1 .805-.459c.187-.068.377-.122.572-.162.188-.033.38-.05.571-.05h8.44Zm14.3-2.526v2.084h-7.47l-.13 2.492h5.271c.315 0 .628.048.927.145a2.181 2.181 0 0 1 .9.561c.112.106.208.226.286.357.085.124.152.258.199.4a2.518 2.518 0 0 1 .181.978v3.317a3 3 0 0 1-.043.51 2.015 2.015 0 0 1-.138.443c-.054.17-.14.328-.251.468a2.756 2.756 0 0 1-.338.366l-.38.23a1.75 1.75 0 0 1-.416.152c-.144.05-.292.087-.442.11a3.03 3.03 0 0 1-.467 0H49.41v-2.015h6.925a.253.253 0 0 0 .19-.076.773.773 0 0 0 .139-.205 1.4 1.4 0 0 0 .069-.255v-2.73a.836.836 0 0 0 0-.28.543.543 0 0 0-.121-.196.389.389 0 0 0-.165-.128.59.59 0 0 0-.182-.017h-7.089l.087-6.694 11.824-.017Zm4.51-.017h7.323c.201 0 .401.024.597.068.174.037.344.086.511.145a2.1 2.1 0 0 1 .485.298c.141.11.27.235.38.374.142.167.259.353.347.553.184.39.304.806.355 1.233.013.207.013.414 0 .62v6.108c.013.215.013.43 0 .646-.025.2-.068.396-.13.587a2.961 2.961 0 0 1-.242.638 3.087 3.087 0 0 1-.33.527c-.117.143-.25.271-.398.383a2.04 2.04 0 0 1-.45.272c-.16.084-.332.144-.51.179a2.754 2.754 0 0 1-.528.051h-7.445a2.936 2.936 0 0 1-.606-.06 2.233 2.233 0 0 1-.58-.204 2.788 2.788 0 0 1-.502-.348 2.181 2.181 0 0 1-.433-.485 4.765 4.765 0 0 1-.268-.51 3.183 3.183 0 0 1-.199-.613c0-.179-.06-.366-.087-.561a4.764 4.764 0 0 1 0-.63V46.78a4.563 4.563 0 0 1 0-.68c.03-.23.076-.458.139-.68a2.777 2.777 0 0 1 .554-1.2 2.72 2.72 0 0 1 .415-.417 2.05 2.05 0 0 1 .537-.29c.338-.124.695-.19 1.056-.195h.009Zm4.821 2.127H68.03a.491.491 0 0 0-.26.068.578.578 0 0 0-.224.178.733.733 0 0 0-.174.23.537.537 0 0 0-.06.264v6.991c0 .096.027.19.078.272a.957.957 0 0 0 .19.221c.075.071.16.131.251.179.09.043.187.066.286.068h2.302a.57.57 0 0 0 .225-.051.92.92 0 0 0 .226-.145.512.512 0 0 0 .147-.178.387.387 0 0 0 .069-.204v-7.315a.413.413 0 0 0-.104-.23.743.743 0 0 0-.147-.178 1.216 1.216 0 0 0-.225-.136.572.572 0 0 0-.19-.034Zm9.574-2.127h7.315c.204 0 .407.022.606.068.173.037.344.086.51.145a2.1 2.1 0 0 1 .485.298c.142.11.27.235.381.374.144.165.261.352.346.553.184.39.304.806.355 1.233.013.207.013.414 0 .62v6.108c.013.215.013.43 0 .646-.025.2-.068.396-.13.587a2.961 2.961 0 0 1-.242.638 2.396 2.396 0 0 1-1.177 1.182 1.894 1.894 0 0 1-.511.179c-.165.032-.333.05-.502.051h-7.444a2.936 2.936 0 0 1-.606-.06 2.233 2.233 0 0 1-.58-.204 2.788 2.788 0 0 1-.502-.348 2.42 2.42 0 0 1-.433-.485c-.1-.165-.19-.335-.269-.51a3.93 3.93 0 0 1-.199-.613c0-.179-.06-.366-.086-.561a4.764 4.764 0 0 1 0-.63V46.78a6.11 6.11 0 0 1 .043-.68c.03-.23.076-.458.139-.68a2.42 2.42 0 0 1 .216-.639c.086-.2.2-.39.338-.561a2.72 2.72 0 0 1 .415-.417 2.05 2.05 0 0 1 .537-.29c.338-.124.695-.19 1.056-.195h-.06Zm4.839 2.127h-2.406a.491.491 0 0 0-.26.068.578.578 0 0 0-.225.178.733.733 0 0 0-.173.23.537.537 0 0 0-.06.264v6.991c0 .096.026.19.077.272a.79.79 0 0 0 .19.221c.075.071.16.131.251.179.09.043.187.066.286.068h2.32a.57.57 0 0 0 .225-.051 1.11 1.11 0 0 0 .225-.145.512.512 0 0 0 .147-.178.387.387 0 0 0 .07-.204v-7.315a.412.412 0 0 0-.07-.213.743.743 0 0 0-.147-.178 1.59 1.59 0 0 0-.225-.136.57.57 0 0 0-.225-.051ZM19.658 55.932h-2.527a1.52 1.52 0 0 1-.554-.238 2.726 2.726 0 0 1-.468-.426 3.27 3.27 0 0 1-.39-.518 4.227 4.227 0 0 1-.328-.621 5.674 5.674 0 0 1-.243-.68 10.557 10.557 0 0 1-.13-.724 5.292 5.292 0 0 1-.051-.731v-9.441h4.717l-.026 13.379Z" fill="#233A73"/></g></svg>