<svg viewBox="0 0 90 90" xmlns="http://www.w3.org/2000/svg"><defs><radialGradient cx="34.298%" cy="18.818%" fx="34.298%" fy="18.818%" r="89.045%" id="a"><stop stop-color="#FF6E35" offset="0%"/><stop stop-color="#F34532" offset="23.897%"/><stop stop-color="#842C63" offset="61.258%"/><stop stop-color="#920573" offset="82.255%"/><stop stop-color="#490A68" offset="100%"/></radialGradient><linearGradient x1="0%" y1="-.18%" x2="71.689%" y2="100.18%" id="b"><stop stop-color="#FD8F53" offset="0%"/><stop stop-color="#D04E43" offset="0%"/><stop stop-color="#D70A52" offset="100%"/></linearGradient></defs><g fill="none"><path d="M45.002 90C20.176 90 0 69.805 0 45.001 0 20.195 20.176 0 45.002 0 69.826 0 90 20.196 90 45c0 24.807-20.173 45-44.998 45Zm0-4C67.597 86 86 67.617 86 45 86 22.387 67.596 4 45.002 4 22.406 4 4 22.385 4 45c0 22.616 18.406 41 41.002 41Z" fill="url(#a)"/><path d="M58.84 5.252c.31 0 .512.319.399.616L57.7 9.36a.423.423 0 0 1-.403.252H53.44c-.157 0-.312.116-.379.275l-.707 1.597a.228.228 0 0 0 .015.215.22.22 0 0 0 .186.104h3.407c.31 0 .511.346.4.62l-1.54 3.515a.46.46 0 0 1-.402.252h-3.856a.419.419 0 0 0-.403.25L38.273 43.503a.343.343 0 0 1-.335.23h-5.377l-11.199-.02a.423.423 0 0 1-.401-.254L10.788 20.303a.431.431 0 0 1 .019-.416.422.422 0 0 1 .36-.203H27.34c.158 0 .313.092.381.252l1.917 4.363L40.19.248A.457.457 0 0 1 40.593 0h16.15a.42.42 0 0 1 .358.201.43.43 0 0 1 .022.414L55.228 4.93a.226.226 0 0 0 .012.217.22.22 0 0 0 .188.105h3.412ZM31.664 9.368a.423.423 0 0 1-.391.258H1.96a.427.427 0 0 1-.39-.258L.036 5.86a.44.44 0 0 1 .032-.413.432.432 0 0 1 .36-.202h3.41c.157 0 .257-.162.195-.309l-1.9-4.32a.44.44 0 0 1 .03-.414.432.432 0 0 1 .36-.202h16.151a.43.43 0 0 1 .391.256l2.078 4.731a.43.43 0 0 0 .39.258H32.82c.306 0 .514.326.387.617l-1.544 3.506Zm-2.862 6.556a.427.427 0 0 1-.392.26H4.836a.425.425 0 0 1-.387-.26l-1.531-3.49a.439.439 0 0 1 .028-.415.43.43 0 0 1 .36-.201H29.94c.31 0 .518.325.391.616l-1.531 3.49h.002Z" transform="translate(15.423 24.087)" fill="url(#b)"/></g></svg>