<svg viewBox="0 0 90 90" xmlns="http://www.w3.org/2000/svg"><defs><linearGradient x1="55.897%" y1="22.063%" x2="49.539%" y2="76.352%" id="a"><stop stop-color="#EA8632" offset="0%"/><stop stop-color="#D6721E" offset="100%"/></linearGradient><linearGradient x1="-182168.558%" y1="-.268%" x2="-182154.782%" y2="73.58%" id="b"><stop stop-color="#EA8632" offset="0%"/><stop stop-color="#D6721E" offset="100%"/></linearGradient><linearGradient x1="-112016.142%" y1="25.445%" x2="-111996.284%" y2="89.045%" id="c"><stop stop-color="#EA8632" offset="0%"/><stop stop-color="#D6721E" offset="100%"/></linearGradient><linearGradient x1="44.592%" y1="100.927%" x2="55.295%" y2="3.322%" id="d"><stop stop-color="#D69547" offset="0%"/><stop stop-color="#CC6806" offset="100%"/></linearGradient><linearGradient x1="60.33%" y1="23.886%" x2="47.786%" y2="67.217%" id="e"><stop stop-color="#F0CD59" offset="0%"/><stop stop-color="#F7931A" offset="100%"/></linearGradient><linearGradient x1="-92.994%" y1="337.232%" x2="-103.483%" y2="239.601%" id="f"><stop stop-color="#D69547" offset="0%"/><stop stop-color="#CC6806" offset="100%"/></linearGradient></defs><g fill="none"><path d="M17.61 47.969c-.05-.653.23-1.287.748-1.691-1.677-.18-2.969-.857-2.923-2.526.045-1.668 1.337-2.255 2.946-2.615a1.981 1.981 0 0 1-.907-1.737c.136-3.517 7.615-.473 7.615-.473v9.267s-7.23 3.27-7.479-.225Z" fill="url(#a)" transform="translate(3)"/><path d="M18.471 65.016a1.26 1.26 0 0 1 .522-1.15c-1.156-.135-2.04-.586-1.995-1.736.046-1.15.907-1.601 1.995-1.782a1.306 1.306 0 0 1-.612-1.172c0-2.39 5.19-.316 5.19-.316v6.336s-4.941 2.255-5.1-.18Z" fill="url(#b)" transform="translate(3)"/><path d="M16.205 25.307a2.262 2.262 0 0 1 1.677-1.488c-1.768-1.06-2.878-2.48-1.949-4.307.93-1.826 2.674-1.939 4.533-1.443a2.245 2.245 0 0 1-.114-2.255c1.927-3.833 8.703 3.292 8.703 3.292l-1.337 3.044-.159.384-1.564 3.54-.18.45-1.315 2.977s-9.813-.18-8.295-4.194Z" fill="url(#c)" transform="translate(3)"/><path d="M32.508 84.61S19.794 90 12.95 84.589l2.108-3.608H29.97c.159 0 3.694.7 3.694.7l-1.156 2.93Z" fill="#D6753E"/><path d="M53.531 58.048c1.904 1.083 6.618 2.841 4.691 7.419a9.034 9.034 0 0 1-2.606 2.931c-1.586 1.015-.181 1.511.748 1.398.93-.113 12.08-2.458 6.799-11.815-.952-1.692-5.235-5.48-9.065-4.803-3.83.676-1.564 4.33-.567 4.87Z" fill="url(#d)" transform="translate(3)"/><path d="M23.457 60.438v3.63s-.906 12.65-8.476 12.65c0 0-13.008 1.354-14.98-17.475 0 0-.612 37.973 28.918 24.398L30.052 90l7.57-9.786 12.714 1.353 4.714 7.08.747-36.845S78.868 55.05 82.993 55.5c0 0 8.181-48.051-22.096-50.148-40.069-4.555-37.055 28.14-37.055 28.14l-.271 19.618-.114 7.328Z" fill="url(#e)" transform="translate(3)"/><path d="M37.63 42.963c.204-6.877 1.519-9.155 3.128-9.155 1.609 0 3.263 5.93 3.127 13.191l-6.255-4.036Z" fill="#EDEDBB"/><path d="M54.106 32.5c0 1.534 2.493 2.774 5.553 2.774s5.552-1.24 5.552-2.774c0-1.533-2.493-2.75-5.552-2.75-3.06 0-5.553 1.24-5.553 2.75Zm17.405-.563c-.18.766.748 1.623 2.063 1.939 1.314.316 2.515 0 2.697-.812.18-.812-.816-1.691-2.063-1.917-1.246-.225-2.515.046-2.697.79Zm-22.844 2.706c-.113.54.544 1.15 1.496 1.375.952.225 1.835 0 1.949-.564.113-.563-.521-1.172-1.473-1.398-.952-.225-1.836.045-1.972.587Zm11.06 2.773c-.136.541.52 1.15 1.45 1.376.93.225 1.813 0 1.949-.564.136-.564-.544-1.15-1.473-1.376-.93-.225-1.813.023-1.926.564Z" fill="#D69547"/><path d="M44.633 58.026s-1.27 4.126-3.309 5.254c1.405 1.803 3.853 3.63 6.527-.361a12.12 12.12 0 0 1-2.855-4.668s4.238 9.02 8.77-.225c0 0-2.266 7.44-5.666 5.073-1.246 2.638-3.852 6.336-7.048.316-1.428.586-3.218-.36-5.19-5.164 0 0 4.238 9.065 8.771-.225Z" fill="#D6721E"/><path d="M61.857 14.506a8.672 8.672 0 0 0-4.019-7.062 8.764 8.764 0 0 0-8.128-.672 9.178 9.178 0 0 0-5.372 7.802 8.175 8.175 0 0 0 3.921 7.283 9.334 9.334 0 0 0 7.264.714 9.279 9.279 0 0 0 5.54-4.727 8.398 8.398 0 0 0 .794-3.338Z" fill="#D6753E"/><path d="M61.268 13.582a8.2 8.2 0 0 0-3.804-6.676 8.286 8.286 0 0 0-7.687-.63 8.614 8.614 0 0 0-5.076 7.374 7.612 7.612 0 0 0 3.694 6.9 8.833 8.833 0 0 0 6.954.72 8.78 8.78 0 0 0 5.284-4.554 8.06 8.06 0 0 0 .635-3.134Z" fill="#EDEDBB"/><path d="M49.483 15.228a3.233 3.233 0 0 0 3.219 3.224 3.233 3.233 0 0 0 3.262-3.18 3.232 3.232 0 0 0-3.172-3.269 3.25 3.25 0 0 0-2.336.92 3.216 3.216 0 0 0-.973 2.305Z" fill="#9E512B"/><path d="M50.639 14.777a2.08 2.08 0 0 0 2.063 2.073 2.08 2.08 0 0 0 2.106-2.03 2.08 2.08 0 0 0-2.016-2.118 2.09 2.09 0 0 0-1.519.584 2.07 2.07 0 0 0-.634 1.491Z" fill="#542713"/><path d="M49.687 12.387c0 .834.68 1.51 1.518 1.51.839 0 1.519-.676 1.519-1.51 0-.835-.68-1.511-1.519-1.511-.838 0-1.518.676-1.518 1.51Z" fill="#FFF"/><path d="M51.16 25.014a14.865 14.865 0 0 0 9.926-3.743 12.326 12.326 0 0 1-9.903 4.976 12.326 12.326 0 0 1-9.904-4.976 14.796 14.796 0 0 0 9.88 3.743Z" fill="#D69547"/><path d="M52.43 23.503a12.155 12.155 0 0 0 8.022-3.405 10.098 10.098 0 0 1-7.982 4.338 10.105 10.105 0 0 1-8.245-3.819 12.208 12.208 0 0 0 8.204 2.886Z" fill="#D69547"/><path d="M53.109 50.675a114.469 114.469 0 0 0 12.646 2.773 155.67 155.67 0 0 0 10.448 1.376c5.983.586 9.677.654 9.677.654s-3.672-.429-9.587-1.353a292.763 292.763 0 0 1-10.334-1.85 221.739 221.739 0 0 1-12.442-2.863 64.655 64.655 0 0 1-11.898-4.51 25.576 25.576 0 0 1-4.533-2.976 11.872 11.872 0 0 1-3.06-3.788 7.837 7.837 0 0 1-.838-3.744v-.428a2.468 2.468 0 0 1 0-.406 4.173 4.173 0 0 1 0-.766c0-.249.113-.474.181-.7.068-.225.136-.428.204-.608.204-.605.454-1.193.748-1.76l.318-.608-.363.586c-.353.54-.663 1.105-.93 1.691 0 .203-.158.406-.249.61-.09.202-.135.473-.226.698a4.49 4.49 0 0 0-.181.79v.878a8.126 8.126 0 0 0 .657 4.06 12.313 12.313 0 0 0 3.014 4.216 24.928 24.928 0 0 0 4.669 3.315 56.147 56.147 0 0 0 12.079 4.713Z" fill="#D6753E"/><g transform="translate(65.052 5.776)"><path d="M0 8.82a8.2 8.2 0 0 0 3.81 6.69 8.286 8.286 0 0 0 7.703.616 8.592 8.592 0 0 0 5.076-7.35 8.76 8.76 0 0 0-3.694-6.923 8.833 8.833 0 0 0-6.953-.721A8.78 8.78 0 0 0 .657 5.686 8.51 8.51 0 0 0 0 8.82Z" fill="#D6753E"/><path d="M.25 7.896a7.951 7.951 0 0 0 3.69 6.505 8.035 8.035 0 0 0 7.482.598 8.366 8.366 0 0 0 4.94-7.148 8.511 8.511 0 0 0-3.603-6.765A8.56 8.56 0 0 0 6 .4 8.508 8.508 0 0 0 .884 4.852a7.7 7.7 0 0 0-.635 3.044Z" fill="#EDEDBB"/><ellipse fill="#9E512B" cx="8.725" cy="9.452" rx="3.241" ry="3.224"/><path d="M6.64 9a2.08 2.08 0 0 0 2.085 2.075 2.08 2.08 0 0 0 2.085-2.074 2.08 2.08 0 0 0-2.085-2.075A2.08 2.08 0 0 0 6.64 9.001Z" fill="#542713"/><path d="M9.95 18.832a13.101 13.101 0 0 0 9.064-2.367 10.863 10.863 0 0 1-9.12 3.426A10.837 10.837 0 0 1 1.7 14.638a13.145 13.145 0 0 0 8.25 4.194Z" fill="#D69547"/><path d="M5.575 6.61a1.56 1.56 0 0 0 1.541 1.534 1.537 1.537 0 0 0 1.519-1.533c0-.835-.68-1.511-1.519-1.511-.842 0-1.529.673-1.54 1.51Z" fill="#FFF"/><path d="M10.697 17.321a10.848 10.848 0 0 0 6.799-3.72 9.094 9.094 0 0 1-14.3 2.03 11.036 11.036 0 0 0 7.501 1.69Z" fill="#D69547"/></g><path d="M81.46 3.548c-2.84 6.179-9.527 9.658-16.249 8.455.159.068 11.626-2.75 16.25-8.455ZM61.086 4.9c-2.787-1.352-13.983-6.764-18.515.722A7.512 7.512 0 0 1 48.576.368c4.71-1.202 9.68.598 12.51 4.533Z" fill="#D69547"/><path d="M27.129 58.048c-1.904 1.083-6.618 2.841-4.669 7.419a8.736 8.736 0 0 0 2.402 2.931c1.587 1.015.182 1.511-.748 1.398-.929-.113-11.988-2.345-6.776-11.815.952-1.692 5.235-5.48 9.065-4.803 3.83.676 1.632 4.33.726 4.87Z" fill="url(#f)" transform="translate(3)"/></g></svg>