<svg viewBox="0 0 90 90" xmlns="http://www.w3.org/2000/svg"><path d="M20 64a2 2 0 0 1 2 2v16a2 2 0 0 1-2 2H4a2 2 0 0 1-2-2V66a2 2 0 0 1 2-2h16Zm33 0a2 2 0 0 1 2 2v16a2 2 0 0 1-2 2H37a2 2 0 0 1-2-2V66a2 2 0 0 1 2-2h16Zm33 0a2 2 0 0 1 2 2v16a2 2 0 0 1-2 2H70a2 2 0 0 1-2-2V66a2 2 0 0 1 2-2h16ZM53 35a2 2 0 0 1 2 2v16a2 2 0 0 1-2 2H37a2 2 0 0 1-2-2V37a2 2 0 0 1 2-2h16Zm33 0a2 2 0 0 1 2 2v16a2 2 0 0 1-2 2H70a2 2 0 0 1-2-2V37a2 2 0 0 1 2-2h16Zm0-29a2 2 0 0 1 2 2v16a2 2 0 0 1-2 2H70a2 2 0 0 1-2-2V8a2 2 0 0 1 2-2h16Z" fill="#005CC0" fill-rule="evenodd"/></svg>