<svg viewBox="0 0 90 90" xmlns="http://www.w3.org/2000/svg"><path d="M70.49 15.667c-11.539 0-18.462 4.819-21.609 15.295L40.91 55.895c-2.937 8.172-7.762 11.524-16.364 11.524H4.615C2.098 67.419 0 69.514 0 72.029v12.78C0 87.115 1.888 89 4.406 89h80.979C87.902 89 90 86.905 90 84.39V20.067c0-2.515-1.888-4.4-4.406-4.4H70.49ZM4.825 1C2.308 1 0 3.305 0 5.819v33.943c0 2.724 2.098 4.819 4.825 4.819h17.203c7.762 0 18.671-1.676 21.608-15.505 0 0 2.937-14.038 4.616-22.21C48.882 3.725 46.573 1 43.427 1H4.825Z" fill="#778EB1"/></svg>