<svg viewBox="0 0 90 90" xmlns="http://www.w3.org/2000/svg"><g fill="none" fill-rule="evenodd"><path fill="#FFF" d="M0 0h90v90H0z"/><g fill-rule="nonzero"><path d="M7.417 62H5V36.738a20.223 20.223 0 0 1 5.987-.95 10.923 10.923 0 0 1 3.885.667 8.796 8.796 0 0 1 2.998 1.839 8.017 8.017 0 0 1 1.91 2.82c.45 1.13.676 2.335.665 3.55 0 1.555-.268 2.89-.804 4.004a8.027 8.027 0 0 1-2.119 2.75 8.48 8.48 0 0 1-2.993 1.583 11.815 11.815 0 0 1-3.439.505c-.62 0-1.24-.046-1.855-.139a16.703 16.703 0 0 1-1.82-.38L7.417 62Zm10.262-17.378c0-2.018-.566-3.648-1.699-4.89-1.132-1.243-2.724-1.863-4.775-1.862-.646.002-1.291.045-1.932.13a9.363 9.363 0 0 0-1.855.434v12.322a16.21 16.21 0 0 0 1.733.47c.57.125 1.15.188 1.733.19 2.077 0 3.728-.586 4.953-1.758 1.225-1.173 1.84-2.851 1.842-5.036Zm7.662 8.738V29h2.45v24.36h-2.45Zm22.475-2.534a8.124 8.124 0 0 1-2.835 2.002c-1.074.452-2.369.678-3.886.678a8.831 8.831 0 0 1-3.677-.716 7.47 7.47 0 0 1-2.625-1.932 8.185 8.185 0 0 1-1.576-2.784 10.341 10.341 0 0 1-.525-3.307 11.39 11.39 0 0 1 .63-3.989 7.93 7.93 0 0 1 1.72-2.803 6.869 6.869 0 0 1 2.521-1.653 8.589 8.589 0 0 1 3.04-.534c2.567 0 4.504.784 5.81 2.35 1.307 1.566 1.938 3.846 1.892 6.838H35.177c.071 1.973.645 3.539 1.72 4.699 1.074 1.16 2.533 1.74 4.376 1.742a7.467 7.467 0 0 0 2.8-.506 6.168 6.168 0 0 0 2.276-1.618l1.467 1.533Zm-1.96-7.902a6.012 6.012 0 0 0-.333-2.019 4.58 4.58 0 0 0-.945-1.6 4.395 4.395 0 0 0-1.593-1.063 6.707 6.707 0 0 0-4.568 0 4.133 4.133 0 0 0-1.528 1.026 7.084 7.084 0 0 0-1.032 1.584 6.44 6.44 0 0 0-.603 2.072h10.602Zm18.49-2.86a6.138 6.138 0 0 0-1.981-1.689 5.548 5.548 0 0 0-2.531-.539c-1.248 0-2.12.222-2.621.66a2.132 2.132 0 0 0-.753 1.672 1.96 1.96 0 0 0 .35 1.184c.244.337.556.621.915.835a6.8 6.8 0 0 0 1.322.61c.5.172 1.02.34 1.558.505.66.207 1.32.435 1.98.678a7.624 7.624 0 0 1 1.816.95c.54.386.995.877 1.337 1.444a4.1 4.1 0 0 1 .514 2.14c.013.74-.164 1.47-.514 2.124a4.78 4.78 0 0 1-1.392 1.584 6.32 6.32 0 0 1-2.073.974c-2.069.541-4.257.42-6.252-.347a8.763 8.763 0 0 1-3.045-2.245l1.91-1.672c1.273 1.626 2.924 2.439 4.951 2.439 1.32 0 2.298-.244 2.935-.733.636-.489.955-1.08.955-1.774a2.437 2.437 0 0 0-.348-1.341 3.077 3.077 0 0 0-.955-.923 6.227 6.227 0 0 0-1.393-.642 33.846 33.846 0 0 0-1.667-.505 29.66 29.66 0 0 1-1.962-.627 7.212 7.212 0 0 1-1.742-.89 4.378 4.378 0 0 1-1.267-1.372 4.116 4.116 0 0 1-.495-2.124c0-1.532.562-2.716 1.687-3.552 1.125-.836 2.58-1.253 4.365-1.252a8.667 8.667 0 0 1 3.385.639c.99.418 1.937 1.149 2.84 2.193l-1.795 1.636-.034-.04Zm6.506 13.296V29.034h2.451V53.36h-2.45Zm2.451-8.98 8.406-8.426H85l-8.612 8.357 8.574 9.049h-3.397l-8.262-8.98Z" fill="#000"/><path fill="#53BCE6" d="M33.867 62H19.12v-2.293h14.746z"/></g></g></svg>