<svg viewBox="0 0 90 90" xmlns="http://www.w3.org/2000/svg"><g fill="none" fill-rule="evenodd"><path fill="#131D27" d="M0 0h90v90H0z"/><path d="m68.67 20.104-2.7 16.195-9.6-11.303 12.3-4.892Zm-2.642 23.161 2.403 8.877-18.374 5.062 15.97-13.939Zm-39.997-4.46 9.851-12.877h17.107l10.934 12.876H26.031Zm36.626 3.18L44.845 57.532 26.703 41.986h35.954Zm-30.074-16.98-8.802 11.506-2.703-16.345 11.505 4.84ZM39.57 57.2l-18.548-5.053 2.541-8.662L39.57 57.2Zm3.425 4.23-3.501 3.855a58.29 58.29 0 0 0-9.713-7.454l13.214 3.6Zm16.984-3.658a58.27 58.27 0 0 0-9.686 7.549l-3.575-3.895 13.261-3.654Zm12.756-42.708L53.42 22.746H35.418L17 15l4.184 25.296-4.018 13.692 10.482 6.27a55.003 55.003 0 0 1 13.213 11.038l4.08 4.674 4.284-4.915a54.993 54.993 0 0 1 12.722-10.76l10.279-6.307-3.702-13.674 4.21-25.251Z" fill="#FFFFFE" fill-rule="nonzero"/></g></svg>