<svg viewBox="0 0 90 90" xmlns="http://www.w3.org/2000/svg" xmlns:xlink="http://www.w3.org/1999/xlink"><defs><circle id="a" cx="45" cy="45" r="45"/></defs><g fill="none" fill-rule="evenodd"><mask id="b" fill="#fff"><use xlink:href="#a"/></mask><g mask="url(#b)" fill-rule="nonzero"><g transform="translate(-4.915 -3.068)"><circle fill="#FFF" cx="49.915" cy="48.068" r="47.102"/><path d="M69.92 50.072c-4.196-7.223-13.444-9.69-20.68-5.516l-3.334 1.924 4.836 8.33a9.482 9.482 0 0 1-12.957-3.476l-2.451-4.29-6.595-11.357-10.003 5.78a9.488 9.488 0 0 1 3.469-12.964l1.79-1.03-6.27-10.866C1.28 9.993-5.388 54.724 4.915 72.584c5.032 8.722 19.282 19.613 27.195 16.812l11.498-6.65 20.771-12c7.231-4.186 9.71-13.434 5.541-20.674Z" fill="#387FE1"/><path d="M73.12 93.962c21.494-12.411 32.974-50.577 20.563-72.072C81.27.395 46.059-6.175 24.559 6.236c-.779.448-.178 2.82.612 4.254l7.061 12.258 20.533-11.884A9.488 9.488 0 0 1 49.29 23.82l-12.338 7.122 4.204 7.257v.036l3.334-1.924a24.627 24.627 0 1 1 24.627 42.652L45.152 92.81c2.832 5.37 19.399 6.13 27.968 1.152Z" fill="#FFB300"/></g></g></g></svg>