<svg viewBox="0 0 90 90" xmlns="http://www.w3.org/2000/svg"><path d="M90 0v90H0V0h90ZM51.82 61.284h-6.288c0 7.765 5.9 13.716 13.397 13.716s13.398-5.95 13.398-13.716h-6.288c0 4.185-3.144 7.413-7.11 7.413s-7.11-3.228-7.11-7.413ZM30.005 32.843c-7.496 0-13.397 5.95-13.397 13.716 0 7.765 5.9 13.716 13.397 13.716s13.397-5.95 13.397-13.716c0-7.766-5.9-13.716-13.397-13.716Zm28.923 0c-7.497 0-13.397 5.95-13.397 13.716 0 7.765 5.9 13.716 13.397 13.716s13.398-5.95 13.398-13.716c0-2.623-.678-5.194-2.032-7.11l1.79-.656v-5.144h-8.706c-1.403-.504-2.902-.806-4.45-.806Zm22.055.806h-6.19v25.87h6.19v-25.87ZM14.191 22.706H8v36.812h6.191V22.706Zm15.815 16.389c4.015 0 7.159 3.228 7.159 7.464 0 4.236-3.144 7.463-7.159 7.463-3.965 0-7.11-3.278-7.11-7.514 0-4.185 3.145-7.413 7.11-7.413Zm28.923 0c4.015 0 7.159 3.228 7.159 7.464 0 4.236-3.144 7.463-7.159 7.463-3.966 0-7.11-3.278-7.11-7.514 0-4.185 3.144-7.413 7.11-7.413ZM77.84 22c-2.273 0-4.062 1.866-4.062 4.287 0 2.37 1.789 4.235 4.062 4.235 2.37 0 4.16-1.865 4.16-4.235C82 23.867 80.21 22 77.84 22Z" fill="#00C2FF" fill-rule="evenodd"/></svg>