<svg viewBox="0 0 90 90" xmlns="http://www.w3.org/2000/svg"><path d="M66.684 22c-8.205-.002-15.805 4.358-19.997 11.472l-.307.53-.196.354c-1.51 2.757-4.202 8.584-5.295 10.48a85.589 85.589 0 0 1-5.01 8.032 18.492 18.492 0 0 1-5.907 4.987c-6.804 3.68-15.28 1.1-18.93-5.761a14.183 14.183 0 0 1-1.658-6.616c.082-7.762 6.303-14.037 14.003-14.12a13.051 13.051 0 0 1 6.564 1.765 15.25 15.25 0 0 1 2.932 2.207 19.817 19.817 0 0 1 2.67 3.001l1.86 2.78 5.207-8.825-.897-1.148a20.759 20.759 0 0 0-7.242-6.155 22.813 22.813 0 0 0-11.159-2.933C10.522 22.18.165 32.595 0 45.503.06 58.491 10.51 68.99 23.39 69c3.88-.009 7.7-.985 11.114-2.845a27.695 27.695 0 0 0 4.682-3.333 41.825 41.825 0 0 0 6.19-7.92c.441.998.953 1.965 1.532 2.89a22.304 22.304 0 0 0 3.567 4.633v-.133c9.207 9.049 23.945 8.857 32.918-.428 8.973-9.285 8.783-24.148-.425-33.197a23.177 23.177 0 0 0-16.261-6.662L66.684 22Zm.02 37.507c-7.72 0-13.98-6.313-13.98-14.098 0-7.786 6.26-14.1 13.98-14.1 7.721 0 13.981 6.314 13.981 14.1 0 7.788-6.258 14.098-13.98 14.098Z" fill="#FF5003"/></svg>