<svg viewBox="0 0 90 90" xmlns="http://www.w3.org/2000/svg"><g fill="none" fill-rule="evenodd"><path fill="#231F20" d="M0 0h90v90H0z"/><g fill-rule="nonzero"><path d="M13.03 39.487v1.987H11v-1.987h2.03Zm0 3.483v9.954H11v-9.951l2.03-.003Zm8.782 4.747c1.085.567 1.627 1.33 1.627 2.29 0 .961-.542 1.725-1.627 2.291a6.27 6.27 0 0 1-2.938.702 6.276 6.276 0 0 1-2.944-.696c-1.091-.565-1.637-1.327-1.637-2.287h2.03c0 .352.357.622 1.07.809.487.127.989.19 1.493.187 1.353 0 2.03-.331 2.03-.993 0-.663-.68-.99-2.042-.985a6.266 6.266 0 0 1-2.944-.698c-1.091-.573-1.637-1.34-1.637-2.303 0-.962.543-1.724 1.628-2.287a6.302 6.302 0 0 1 2.953-.701 6.275 6.275 0 0 1 2.938.7c1.085.566 1.627 1.328 1.627 2.288h-2.03c0-.344-.357-.611-1.07-.8a5.739 5.739 0 0 0-1.465-.19c-1.36 0-2.04.328-2.04.985 0 .656.68.986 2.04.99a6.27 6.27 0 0 1 2.938.698ZM26.724 38v14.924h-2.03V38z" fill="#FFF"/><path d="M36.69 44.404a4.776 4.776 0 0 1 1.457 3.55 4.834 4.834 0 0 1-1.462 3.536 5.053 5.053 0 0 1-3.614 1.43 5.062 5.062 0 0 1-3.61-1.433 4.843 4.843 0 0 1-1.465-3.533 4.834 4.834 0 0 1 1.462-3.536 5.053 5.053 0 0 1 3.613-1.43 4.97 4.97 0 0 1 3.62 1.416Zm-5.81 1.414a2.866 2.866 0 0 0-.872 2.139c-.023.798.294 1.57.875 2.13a3.1 3.1 0 0 0 3.355.67 2.985 2.985 0 0 0 1.879-2.8 3.025 3.025 0 0 0-1.9-2.757 3.141 3.141 0 0 0-3.34.618h.003Zm17.237-1.414a4.776 4.776 0 0 1 1.457 3.55v4.967h-2.036v-4.967c0-1.65-1.368-2.989-3.055-2.989s-3.054 1.338-3.054 2.989v4.967h-2.03v-4.967c.014-2.013 1.256-3.822 3.155-4.596a5.21 5.21 0 0 1 5.557 1.046h.006ZM52.859 38v14.924h-2.037V38zm3.284 1.487v1.987h-2.036v-1.987h2.036Zm0 3.483v9.954h-2.036v-9.951l2.036-.003Zm9.97 1.434a4.776 4.776 0 0 1 1.457 3.55v4.967h-2.03v-4.967a2.978 2.978 0 0 0-1.528-2.588 3.113 3.113 0 0 0-3.054 0 2.978 2.978 0 0 0-1.527 2.588v4.967h-2.04v-4.967c.015-2.013 1.257-3.822 3.156-4.596a5.21 5.21 0 0 1 5.557 1.046h.009Zm7.82 6.548h-.015a3.02 3.02 0 0 1-2.186-.877 2.803 2.803 0 0 1-.716-1.119h7.891A5.42 5.42 0 0 0 79 47.939c0-2.75-2.278-4.978-5.088-4.978s-5.088 2.229-5.088 4.978a4.837 4.837 0 0 0 1.469 3.54 5.057 5.057 0 0 0 3.622 1.427h5.016v-1.952h-4.998v-.002Zm-.015-5.984a2.987 2.987 0 0 1 2.18.856c.346.335.601.75.74 1.207h-5.852a2.79 2.79 0 0 1 .737-1.21 3.021 3.021 0 0 1 2.195-.853Z" fill="#BAD632"/></g></g></svg>