<svg viewBox="0 0 90 90" xmlns="http://www.w3.org/2000/svg"><g fill="none"><path d="m17.143 27.391-2.609-2.608-1.77-.746c-3.634-1.49-7.826.187-9.317 3.82-1.49 3.634.187 7.826 3.82 9.317l1.77.745h18.54L17.144 27.391Zm35.031.466 13.23-13.23.745-1.677c1.49-3.633-.186-7.826-3.82-9.316-3.633-1.491-7.826.186-9.317 3.82-.093.093-.093.279-.186.372l-.652 1.584v18.447Zm10.062 24.41 13.23 13.23 1.77.745c3.634 1.49 7.826-.28 9.317-3.913 1.49-3.633-.187-7.826-3.82-9.317l-1.957-.838H70.714l-8.478.093ZM24.69 75.559l-.56 1.398c-.093.093-.093.279-.186.372-1.49 3.634.186 7.826 3.82 9.317 3.634 1.49 7.733-.186 9.317-3.82l.745-1.677V62.516L24.69 75.559ZM81.056 37.92l1.77-.746c3.634-1.49 5.31-5.683 3.82-9.317-1.49-3.633-5.683-5.404-9.317-3.913l-1.956.839-13.137 13.136h18.82ZM27.764 52.174H9.13l-1.77.745c-3.633 1.49-5.403 5.683-3.913 9.317 1.49 3.634 5.683 5.404 9.317 3.913l1.77-.745.56-.56 12.67-12.67Zm10.062-43.23-.652-1.584c-1.49-3.633-5.683-5.403-9.317-3.913-3.633 1.49-5.404 5.683-3.913 9.317.093.093.093.28.186.373l.653 1.583 13.043 13.044V8.944ZM52.174 62.33v18.54l.652 1.49c0 .093.093.28.186.373 1.491 3.633 5.684 5.404 9.317 3.913 3.634-1.49 5.31-5.59 3.913-9.224l-.745-1.77-5.404-5.404-7.92-7.919Z" fill="#542D65"/><path d="m65.404 14.627-7.174 17.33 17.05-7.081 1.49-1.49a7.085 7.085 0 0 0 0-10.063 7.085 7.085 0 0 0-10.062 0l-.28.28-1.024 1.024ZM14.534 24.69l17.33 7.173-6.988-16.956v-.093l-1.49-1.491a7.085 7.085 0 0 0-10.063 0 7.085 7.085 0 0 0 0 10.062l1.211 1.304Zm60.932 40.807-17.143-7.08 7.08 17.235 1.305 1.305a7.085 7.085 0 0 0 10.062 0 7.085 7.085 0 0 0 0-10.063l-1.304-1.397Zm-60.839-.093-1.118 1.118-.28.28a7.085 7.085 0 0 0 0 10.061 7.085 7.085 0 0 0 10.063 0l1.397-1.397 7.174-17.236-17.236 7.174Zm23.199-56.46 2.143 5.31L45 26.367l6.056-14.347 1.118-2.61V7.175C52.174 3.26 49.006 0 45 0c-3.913 0-7.174 3.168-7.174 7.174v1.77ZM9.13 52.174 26.273 45l-3.726-1.49-13.51-5.59H7.174C3.26 37.92 0 41.086 0 45.092c0 3.913 3.168 7.08 7.08 7.174l2.05-.093Zm28.696 28.882v1.863C37.826 86.832 40.994 90 45 90c3.913 0 7.08-3.168 7.174-7.08v-2.05l-7.08-17.05-7.268 17.236Zm45-28.882C86.832 52.174 90 49.006 90 45c0-3.913-3.168-7.174-7.174-7.174h-1.77l-4.938 2.05L63.727 45l1.77.745 15.373 6.336h-.094.094l1.956.093Zm-27.764-6.988 7.08-7.174h-10.06v-9.969L45 35.124l-7.174-7.174v10.062H27.764l7.08 7.174-7.08 7.081h10.062v10.155L45 55.248l7.08 7.081V52.267h10.063z" fill="#A7A2D0"/></g></svg>