<svg viewBox="0 0 90 90" xmlns="http://www.w3.org/2000/svg"><defs><linearGradient x1="0%" y1="0%" x2="100%" y2="100%" id="a"><stop stop-color="#005BF8" offset="0%"/><stop stop-color="#5500A8" offset="100%"/></linearGradient></defs><g fill="none" fill-rule="evenodd"><path fill="url(#a)" d="M0 0h90v90H0z"/><path d="M46.828 59.19c4.148 0 6.537-1.645 6.537-4.574v-.14c0-2.716-2.11-4.5-6.678-4.5H36.284v9.213h10.544ZM44.86 40.261c4.148 0 6.468-1.43 6.468-4.358v-.143c0-2.713-2.11-4.286-6.186-4.286h-8.855v8.787h8.573ZM23 20.333h25.234c6.184 0 10.542 1.571 13.425 4.5 1.966 2 3.162 4.643 3.162 8.072v.141c0 5.787-3.234 9.214-7.59 11.144 5.974 2 9.769 5.429 9.769 12.213v.143c0 8.572-6.888 13.787-18.627 13.787H23.002V20.335L23 20.333Z" fill="#FFF" fill-rule="nonzero"/></g></svg>