<svg viewBox="0 0 90 90" xmlns="http://www.w3.org/2000/svg"><g fill="#3EA448"><path d="M30.768 49.163c6.628-12.252 15.36-21.526 23.294-25.83L46.094 10.74c-.628-.987-1.628-.987-2.221 0L.268 79.724C-.359 80.71.166 81 1.302 81h20.802c-.322-8.916 2.34-20.215 8.664-31.837"/><path d="M56.774 31.177c-4.272-2.349-13.495 6.347-20.598 19.432-7.104 13.086-9.376 25.575-5.103 27.94 3.102 1.685 8.324-2.756 13.902-10.056v-16.71c0-1.735 1.085-2.688 1.898-1.174l4.646 8.814c.067-.102.101-.187.17-.289 7.103-13.085 9.374-25.592 5.085-27.957m32.958 48.547L72.134 51.868a83.154 83.154 0 0 1-6.764 16.285 91.466 91.466 0 0 1-4.968 8.082L63.725 81h24.973c1.136 0 1.661-.29 1.034-1.276"/></g></svg>