<svg viewBox="0 0 90 90" xmlns="http://www.w3.org/2000/svg"><g fill="none"><path d="M86.889 3A3.105 3.105 0 0 1 90 6.116c0 .406-.068.813-.27 1.22L58.345 82.458c-1.218 2.777-3.923 4.539-6.9 4.539h-21.44a2.992 2.992 0 0 1-3.111-2.981c0-.406.067-.88.203-1.22l2.434-5.893 5.344-31.296L50.431 26.64l7.983-19.1C59.63 4.76 61.795 3 64.839 3h22.05Z" fill="#4285F4"/><path d="M50.635 26.303c-11.701-11.584-30.572-11.38-42.07.338-11.498 11.72-11.43 30.551.27 42.135 5.48 5.419 12.852 8.467 20.562 8.602.068-.203 14.407-22.76 14.407-22.76l6.831-28.315Z" fill="#FBBC04"/><path d="M50.635 26.303 29.397 77.31h.744c16.369-.135 29.559-13.547 29.49-29.94a29.843 29.843 0 0 0-8.996-21.067Z" fill="#EA4335"/></g></svg>