<svg viewBox="0 0 90 90" xmlns="http://www.w3.org/2000/svg"><g fill="none" fill-rule="evenodd"><path fill="#FFF" d="M0 0h90v90H0z"/><g fill-rule="nonzero"><path d="M55.62 24.15A9.834 9.834 0 0 1 59.687 16C46.577 17.633 15.209 24.663 15 49.222c0 0 1.89-18.483 42.665-19.21-.029-.046-.053-.094-.08-.14a9.814 9.814 0 0 1-1.964-5.723" fill="#183256"/><path d="M52.626 45.323c.46 1.407.695 2.878.696 4.358 0 7.727-6.228 13.99-13.91 13.99s-13.91-6.264-13.91-13.99c0-7.272 5.519-13.398 12.574-14.074l.068-.009a.04.04 0 0 1 .015-.006c-8.532-.024-21.707 7.22-21.707 19.716 0 10.16 9.973 19.45 23.152 19.688 13.446.243 24.582-10.561 24.823-24.084a24.568 24.568 0 0 0-.542-5.59l-11.259.001Z" fill="#076EA1"/><path d="M52.609 45.32c.465 1.401.705 2.868.712 4.346l.109-.027c1.921-.482 3.774-.736 5.358-.736 2.628 0 4.328.592 5.198 1.811l.424.595c.005-.129.015-.257.017-.387a24.576 24.576 0 0 0-.554-5.603H52.61Z" fill="#0E1622"/><path d="M43.652 36.818a10.748 10.748 0 0 1 5.92 10.976c6.803-2.493 18.038-3.774 18.038 5.867 0 5.087-2.603 9.24-6.154 12.494a27.113 27.113 0 0 1-3.994 4.373C66.505 66.318 75 60.318 75 51.287 75 34.2 56.654 33.865 43.652 36.818" fill="#183256"/></g></g></svg>