<svg viewBox="0 0 90 90" xmlns="http://www.w3.org/2000/svg"><path d="M44.992 0c-4.007 9.821-6.424 16.245-10.884 25.775 2.735 2.898 6.092 6.274 11.544 10.086-5.862-2.411-9.86-4.832-12.848-7.345C27.095 40.426 18.151 57.393 0 90c14.266-8.234 25.325-13.311 35.631-15.248a26.108 26.108 0 0 1-.677-6.11l.017-.457c.226-9.138 4.98-16.165 10.613-15.688 5.632.477 10.01 8.276 9.784 17.415a25.81 25.81 0 0 1-.576 4.907C64.987 76.813 75.927 81.877 90 90c-2.775-5.108-5.252-9.712-7.617-14.097-3.726-2.888-7.612-6.645-15.539-10.713 5.449 1.415 9.35 3.049 12.39 4.874C55.187 25.298 53.239 19.349 44.993 0Z" fill="#1793D1" fill-rule="evenodd"/></svg>