<svg viewBox="0 0 90 90" xmlns="http://www.w3.org/2000/svg"><path d="M59.092.02c-.013.013-.583.077-1.256.116-.66.039-1.333.103-1.488.142-.142.025-.595.09-.984.128-.983.116-1.294.168-3.132.502-2.653.503-6.795 1.7-8.71 2.524-.143.064-.777.321-1.424.579-.634.257-1.915.85-2.847 1.313-5.177 2.575-9.034 5.445-12.322 9.153-2.705 3.05-4.517 6.642-5.035 10.002-.129.837-.129 3.914 0 4.828.712 5.084 3.793 9.178 9.63 12.795 2.11 1.3 5.656 3.167 8.244 4.326.738.334 1.696.76 3.754 1.699 7.985 3.63 11.596 5.96 13.395 8.676 1.295 1.97 1.605 4.107 1.01 7.132-.634 3.27-3.029 6.862-6.277 9.385-4.789 3.733-11.08 5.767-17.835 5.78-4.776 0-8.685-.773-11.778-2.317-2.951-1.48-4.724-3.952-4.724-6.591 0-3.476 4.866-7.158 9.202-6.965 1.85.077 2.964 1.043 2.964 2.575 0 .515-.065.643-.557 1.12-.31.309-.828.772-1.152 1.03-1.579 1.274-1.384 3.256.48 4.685.983.76 2.782 1.507 4.063 1.674.324.039.712.103.855.129.634.128 3.339.038 4.335-.142 1.566-.27 3.288-.875 4.44-1.545 2.252-1.313 3.999-3.527 4.62-5.857.272-1.004.285-1.068.324-2.317.116-2.806-.88-5.162-3.171-7.467-1.916-1.943-4.129-3.23-7.248-4.248-.854-.283-1.708-.54-1.916-.579-.207-.026-.815-.142-1.371-.245-2.485-.476-6.148-.527-9.009-.128-2.679.373-5.798 1.339-8.477 2.639-1.36.656-3.753 2.034-4.323 2.51-.116.09-.582.463-1.048.824-3.857 3.025-6.55 7.183-7.184 11.07-.284 1.777-.129 4.236.402 6.038 1.048 3.63 4.103 7.196 8.412 9.835 2.874 1.751 7.248 3.437 10.73 4.145.945.18 3.184.567 3.766.644.35.052.777.103.958.142 1.941.321 9.616.321 11.649 0 .18-.026.737-.103 1.23-.155.504-.051.93-.103.97-.116.039 0 .362-.051.712-.103.828-.128 2.575-.45 3.235-.605 4.323-.991 6.148-1.557 9.707-2.986 1.618-.644 4.284-1.931 5.825-2.807 1.164-.669 4.102-2.574 4.465-2.909.103-.09.725-.605 1.359-1.12 5.876-4.789 9.099-10.762 9.047-16.825-.04-3.463-.984-6.758-2.654-9.23-.427-.644-1.902-2.497-2.083-2.626-.065-.039-.505-.45-.984-.901-2.705-2.614-7.144-5.407-13.422-8.47-3.572-1.752-7.817-3.863-8.568-4.275-4.465-2.42-7.442-4.698-8.827-6.72-1.799-2.626-2.083-6.05-.724-8.702 1.23-2.42 3.65-4.788 6.808-6.63.698-.424 3.183-1.621 4.064-1.982 2.55-1.03 5.94-1.88 8.736-2.188 1.061-.116 5.384-.116 6.342 0 1.76.206 3.688.772 4.646 1.352.712.45 1.515 1.403 1.696 2.02.699 2.485-2.084 5.626-6.2 7.016-1.32.451-1.864.94-2.006 1.816-.116.798.052 1.184.945 2.06 1.061 1.055 3.261 2.213 4.737 2.51.142.038.53.128.88.205 2.381.567 6.834-.206 9.798-1.686 6.29-3.141 8.904-9.758 6.07-15.358C82.272 5.26 75.283 1.36 66.754.278c-.324-.052-.79-.103-1.035-.142-.505-.077-6.55-.18-6.627-.116Z" fill="#0777CF"/></svg>