<svg viewBox="0 0 90 90" xmlns="http://www.w3.org/2000/svg"><path d="M32.519 39.596s-20.955 4.147-20.06 13.802c.862 9.208 30.572 10.568 30.572 10.568s-1.015.03-2.725.033h-.673c-9.627-.014-36.442-.859-37.25-9.803-1.14-12.62 30.136-14.6 30.136-14.6Zm56.686 2.042c-.001-.004 8.838 16.834-32.392 17.099-25.597.164-34.888-7.189-28.555-14.596l.197-.225s-.05.059-.13.167l-.075.105c-1.235 1.774-6.471 11.623 29.572 11.484 35.79-.129 31.57-13.487 31.387-14.021l-.004-.013Zm-51.453-.892c-2.427 2.175-2.236 3.289-.568 4.197 1.768.956 6.841 1.132 6.841 1.132l2.312 4.434c-5.591.057-14.237-1.222-15.246-4.773-.923-3.254 6.66-4.99 6.66-4.99Zm43.57-5.86c.408 10.216-25.219 10.728-28.808 10.75l-.201.001h-.215s20.21-2.945 19.307-10.824c-.932-8.165-23.937-8.622-24.867-8.637h-.028s34.375-2.165 34.812 8.71Zm-42.904 1.16c5.81.018 13.985.352 14.49 3.757.445 3.034-6.47 4.922-6.47 4.922 1.348-2.424 1.604-3.632.396-4.396-1.41-.914-7.288-.526-7.288-.526l-1.7-3.758Zm16.776 5.128.013-.011.015-.015.047-.045c.898-.89 9.067-9.768-23.446-8.837C6.576 32.986.128 41.29.002 41.456 0 41.458 6.485 30.206 32.843 29.52c36.515-.95 23.178 11.449 22.351 11.653Z" fill="#006EBE"/></svg>