<svg viewBox="0 0 90 90" xmlns="http://www.w3.org/2000/svg"><g fill="none" fill-rule="evenodd"><path fill="#491DCC" d="M0 0h90v90H0z"/><path d="M46.745 16C60.692 16 72 27.408 72 41.48a25.509 25.509 0 0 1-5.192 15.477c-.755.909-2.13 2.32-4.303 2.32-3.069 0-4.058-2.225-4.988-4.578l-4.606-11.423-4.59 11.423c-.782 1.948-1.628 4.584-4.992 4.584s-4.214-2.634-4.997-4.584l-7.738-19.217h6.526L43.33 51.3l4.628-11.528c.733-1.825 1.605-4.58 4.947-4.58s4.223 2.757 4.958 4.58l5.034 12.482a19.56 19.56 0 0 0 3.207-10.771c0-10.787-8.666-19.53-19.358-19.53-6.103 0-11.84 2.397-16.153 6.752-4.316 4.354-6.69 10.141-6.69 16.298 0 6.157 2.38 11.945 6.694 16.299 4.314 4.352 10.057 6.75 16.155 6.752 2.97 0 5.806-.573 8.409-1.615l2.17 5.532A28.465 28.465 0 0 1 46.76 74c-3.88 0-7.66-.768-11.206-2.28a28.627 28.627 0 0 1-9.135-6.214 28.933 28.933 0 0 1-6.16-9.216A29.024 29.024 0 0 1 18 45.002a29.055 29.055 0 0 1 8.42-20.504 28.65 28.65 0 0 1 9.134-6.214A28.3 28.3 0 0 1 46.744 16Z" fill="#FFF" fill-rule="nonzero"/></g></svg>