<svg viewBox="0 0 90 90" xmlns="http://www.w3.org/2000/svg"><path d="M80.754 20.493c-3.611 0-6.84 1.817-8.809 4.57L58.65 43.844A2.668 2.668 0 0 1 56.462 45c-1.477 0-2.68-1.212-2.68-2.699 0-.55.163-1.101.437-1.487l11.216-16.907c1.149-1.707 1.805-3.8 1.805-6.058C67.24 11.846 62.426 7 56.462 7H0v10.85h48.365c0 2.973-2.408 5.451-5.417 5.451H0c0 3.856.82 7.545 2.243 10.85h35.289c0 2.974-2.407 5.452-5.416 5.452H5.362c4.924 6.609 12.747 10.85 21.61 10.85h13.295a2.693 2.693 0 0 1 2.681 2.698 2.693 2.693 0 0 1-2.68 2.698H26.972L8.918 83H41.58c14.936 0 27.629-9.803 32.06-23.35l6.073-18.56c1.97-6.003 5.58-11.29 10.286-15.31-1.86-3.14-5.307-5.287-9.246-5.287Zm0 7.49c-1.094 0-2.025-.937-2.025-2.038 0-1.102.93-2.038 2.025-2.038 1.094 0 2.024.936 2.024 2.038a2.026 2.026 0 0 1-2.024 2.038Z" fill="#2481D7"/></svg>