<svg viewBox="0 0 90 90" xmlns="http://www.w3.org/2000/svg"><g fill="none" fill-rule="evenodd"><circle fill="#000" cx="45" cy="45" r="45"/><path d="M36.818 80C31.37 80 23.683 78.434 16 71.628l6.027-6.597c10.771 9.546 21.996 5.775 25.46 2.589.24-.224.463-.457.7-.671-11.323-1.087-19.636-9.016-20.206-9.56-8.69-8.422-10.664-19.862-4.48-26.02 6.186-6.158 17.81-4.478 26.503 3.935.77.717 9.231 8.893 10.9 19.264 5.072-3.722 8.067-9.58 8.082-15.808.043-5.256-2.092-10.302-5.912-13.974-3.955-3.83-9.555-5.912-15.727-5.912V10c8.527 0 16.349 2.986 22.01 8.404 5.578 5.342 8.7 12.694 8.642 20.356-.026 11.626-7.181 22.085-18.115 26.477a23.457 23.457 0 0 1-6.24 8.865c-2.87 2.643-8.49 5.57-15.644 5.866-.38.021-.774.032-1.182.032Zm-3.793-43.523a4.212 4.212 0 0 0-3.116 1.091c-2.197 2.223-.797 8.468 4.4 13.517.075.069 8.212 7.838 17.842 7.044.041-8.381-8.318-16.325-8.406-16.402l-.056-.06c-3.06-2.99-7.446-5.19-10.664-5.19Z" fill="#FFF" fill-rule="nonzero"/></g></svg>