<svg viewBox="0 0 90 90" xmlns="http://www.w3.org/2000/svg"><g fill="none" fill-rule="evenodd"><circle fill="#354ECA" cx="45" cy="45" r="45"/><path d="M45 9C25.119 9 9 25.118 9 45c0 7.073 2.07 13.65 5.593 19.214 1.729.27 3.628.68 5.237 1.07 3.234-4.715 11.589-14.52 18.057-21.955-5.64-2.373-16.348-6.889-22.206-9.434-.736-.317 1.499-2.454 2.318-2.81 4.208-1.838 19.814 1.875 27.29 3.827.658-.74 1.034-1.16 1.034-1.16 1.453-1.521 11.324-11.433 15.15-7.643 3.83 3.792-4.917 14.819-6.372 16.342l-.854.814c2.052 7.223 6.463 23.92 4.714 28.394-.327.849-2.36 3.18-2.698 2.443-2.783-6.174-7.834-17.703-10.206-23.117-7.207 6.728-16.836 15.526-21.48 18.954.439 1.677.916 3.678 1.231 5.482C31.368 78.936 37.936 81 45 81c19.882 0 36-16.117 36-36S64.882 9 45 9Z" fill="#FFF" fill-rule="nonzero"/></g></svg>