<svg viewBox="0 0 90 90" xmlns="http://www.w3.org/2000/svg"><path d="M53.889 9c0 .825-.111 1.613-.315 2.363l16.167 9.356A8.766 8.766 0 0 1 76.11 18c4.91 0 8.89 4.031 8.89 9 0 4.2-2.833 7.725-6.667 8.719V54.28C82.167 55.275 85 58.8 85 63c0 4.969-3.981 9-8.889 9a8.84 8.84 0 0 1-6.37-2.719l-16.167 9.356c.204.75.315 1.557.315 2.363 0 4.969-3.982 9-8.889 9-4.907 0-8.889-4.031-8.889-9 0-.825.111-1.612.315-2.362L20.259 69.28A8.766 8.766 0 0 1 13.89 72C8.98 72 5 67.969 5 63c0-4.2 2.833-7.725 6.667-8.719V35.72C7.833 34.725 5 31.2 5 27c0-4.969 3.981-9 8.889-9 2.5 0 4.76 1.05 6.37 2.719l16.167-9.357A9.083 9.083 0 0 1 36.11 9c0-4.969 3.982-9 8.889-9 4.907 0 8.889 4.031 8.889 9Zm-11.111 8.719a8.742 8.742 0 0 1-4.148-2.438l-16.167 9.356c.204.75.315 1.557.315 2.363 0 4.2-2.834 7.725-6.667 8.719V54.28a8.742 8.742 0 0 1 4.148 2.438l16.167-9.357A9.083 9.083 0 0 1 36.11 45c0-4.2 2.833-7.725 6.667-8.719V17.72Zm4.444 0V36.28c3.834.994 6.667 4.519 6.667 8.719a8.96 8.96 0 0 1-.315 2.362l16.167 9.357a8.742 8.742 0 0 1 4.148-2.438V35.72c-3.833-.994-6.667-4.519-6.667-8.719 0-.825.111-1.613.315-2.363L51.37 15.281a8.742 8.742 0 0 1-4.148 2.438ZM45 54a8.84 8.84 0 0 1-6.37-2.719l-16.167 9.357c.204.75.315 1.556.315 2.362s-.111 1.612-.315 2.362L38.63 74.72A8.766 8.766 0 0 1 45 72c2.5 0 4.76 1.05 6.37 2.719l16.167-9.356A9.083 9.083 0 0 1 67.222 63c0-.806.111-1.612.315-2.362L51.37 51.28A8.84 8.84 0 0 1 45 54Z" fill="#247BFF"/></svg>