<svg viewBox="0 0 90 90" xmlns="http://www.w3.org/2000/svg"><g fill="none" fill-rule="evenodd"><path fill="#FFF" d="M0 0h90v90H0z"/><g fill-rule="nonzero"><path d="M7.632 19.036c-1.357.78-1.357 2.072 0 2.852l13.399 7.719c1.357.779 3.135.323 3.918-1.046L40.432 1.83C41.215.48 40.738.005 39.38.784L7.632 19.036Z" fill="#5E6185"/><path d="M82.387 21.888c1.358-.78 1.358-2.073 0-2.852L50.62.784c-1.358-.78-1.835-.323-1.052 1.046L65.07 28.542c.784 1.35 2.542 1.825 3.918 1.046l13.4-7.7Z" fill="#464C6B"/><path d="M46.434 1.012c-.784-1.35-2.084-1.35-2.868 0L27.338 28.98c-.783 1.35-.133 2.472 1.434 2.472h32.437c1.586 0 2.217-1.103 1.433-2.472L46.434 1.012ZM24.911 37.744c-.63-1.445-1.778-1.502-2.58-.152L6.007 65.71c-.784 1.35-.191 2.833 1.319 3.27l32.894 9.47c1.51.437 2.237-.38 1.606-1.826L24.91 37.744Zm57.763 31.218c1.51-.438 2.103-1.902 1.319-3.27l-16.343-28.1c-.783-1.35-1.95-1.293-2.58.152l-16.916 38.86c-.63 1.445.095 2.263 1.605 1.826l32.915-9.468Z" fill="#C1C4E3"/><path d="M43.872 75.502c.631 1.445 1.644 1.445 2.275 0l17.05-39.165c.63-1.445-.153-2.624-1.72-2.624H28.542c-1.587 0-2.351 1.179-1.72 2.624l17.05 39.165Z" fill="#666E9C"/><path d="M84.566 62.136c.784 1.35 1.434 1.179 1.434-.38V25.291c0-1.578-1.109-2.206-2.485-1.426l-13.38 7.719c-1.357.78-1.835 2.547-1.051 3.897l15.482 26.655Z" fill="#5E6185"/><path d="M6.485 23.865C5.128 23.085 4 23.713 4 25.29v36.465c0 1.578.65 1.75 1.434.38l15.501-26.674c.784-1.35.325-3.118-1.051-3.897l-13.4-7.7ZM48.9 81.053c-1.51.437-2.753 2.073-2.753 3.65v3.537c0 1.578 1.108 2.205 2.485 1.426L75.927 74c1.357-.78 1.242-1.065-.268-.628L48.9 81.053Z" fill="#464C6B"/><path d="M41.368 89.666c1.357.78 2.485.152 2.485-1.426v-3.536c0-1.578-1.242-3.214-2.752-3.65L14.36 73.371c-1.51-.437-1.644-.152-.268.628l27.276 15.666Z" fill="#5E6185"/></g></g></svg>