<svg viewBox="0 0 90 90" xmlns="http://www.w3.org/2000/svg"><g transform="translate(0 1)" fill="#00B0FF"><ellipse cx="44.992" cy="43.987" rx="11.086" ry="10.838"/><path d="M34.699 6.881C36.938 1.302 43.354-1.42 49.06.741c5.707 2.19 8.492 8.463 6.28 14.042-2.239 5.579-8.656 8.302-14.362 6.14-5.707-2.19-8.52-8.49-6.28-14.042ZM10.861 24.873c-2.457-5.472.11-11.852 5.707-14.255 5.598-2.402 12.123.107 14.58 5.58 2.458 5.472-.108 11.852-5.706 14.255-5.597 2.402-12.123-.107-14.58-5.58ZM7.039 54.077c-5.707-2.189-8.492-8.462-6.28-14.041 2.238-5.58 8.655-8.302 14.362-6.14 5.707 2.19 8.492 8.462 6.28 14.041-2.239 5.58-8.683 8.33-14.362 6.14Zm18.403 23.278c-5.597 2.402-12.123-.107-14.58-5.58-2.458-5.472.108-11.852 5.706-14.254 5.598-2.403 12.123.107 14.58 5.579 2.458 5.499-.108 11.879-5.706 14.255Zm29.844 3.764c-2.239 5.579-8.655 8.302-14.362 6.14-5.707-2.19-8.492-8.463-6.28-14.042 2.239-5.579 8.656-8.302 14.362-6.14 5.734 2.19 8.52 8.463 6.28 14.042Zm23.838-17.992c2.457 5.472-.11 11.852-5.734 14.255-5.598 2.402-12.124-.107-14.581-5.606-2.458-5.473.109-11.853 5.707-14.255 5.624-2.376 12.178.133 14.608 5.606Zm3.85-29.204c5.706 2.189 8.492 8.462 6.253 14.041-2.24 5.58-8.656 8.302-14.363 6.113-5.707-2.189-8.492-8.462-6.28-14.041 2.266-5.553 8.683-8.302 14.39-6.113ZM64.57 10.618c5.598-2.402 12.124.107 14.581 5.606 2.457 5.473-.11 11.853-5.734 14.255-5.598 2.403-12.123-.107-14.58-5.606-2.431-5.472.136-11.852 5.733-14.255Z"/></g></svg>