<svg viewBox="0 0 90 90" xmlns="http://www.w3.org/2000/svg"><g fill="none"><path d="M43.508.024c9.636-.319 19.37 2.551 27.243 8.147 9.506 6.622 16.25 17.057 18.393 28.463 1.74 8.255.748 16.95-2.259 24.787-3.939 10.256-11.774 18.924-21.55 23.885-6.32 3.176-13.398 5.06-20.503 4.634-5.922.343-11.83-.994-17.275-3.278C16.554 82.066 7.564 72.873 3.214 61.749c-3.41-8.54-4.178-18.146-1.96-27.085 2.521-10.89 9.332-20.682 18.575-26.92C26.78 2.984 35.102.319 43.508.024" fill="#F4F4F4"/><path d="M35.166 10.623C25.941 13.363 17.95 20.177 13.674 29c-3.326 6.664-4.373 14.421-3.261 21.8.183.89.1 1.903.663 2.668 3.503-8.02 7.703-16.078 14.444-21.743 6.463-5.23 14.266-9.226 22.645-9.38a366.772 366.772 0 0 0-5.145-6.159c6.01 1.736 12 3.541 17.952 5.483-4.085 4.198-8.16 8.41-12.414 12.424.137-2.584.33-5.173.393-7.762-2.932.525-5.662 1.97-7.93 3.92-4.95 4.283-7.863 10.511-9.674 16.773a61.12 61.12 0 0 0-2.319 19.913c4.638-.544 9.134-2.176 13.186-4.53 4.945-2.88 9.13-7.444 10.813-13.1-2.132.352-4.245.831-6.34 1.36 3.385-4.408 6.847-8.756 10.223-13.174 2.904 4.925 5.872 9.816 8.415 14.952-2.259-.896-4.386-2.11-6.69-2.875 2.364 9.671 1.842 20.12-1.922 29.345 10.117-3.606 18.355-12.278 21.589-22.75 2.881-9.16 2.067-19.549-2.447-28.014-3.82-7.386-10.273-13.273-17.833-16.377-7.209-2.983-15.396-3.326-22.856-1.15Z" fill="#F60023"/></g></svg>