<svg viewBox="0 0 90 90" xmlns="http://www.w3.org/2000/svg"><g fill="none" fill-rule="evenodd"><path d="M42.145 87.145V57.688a2.855 2.855 0 0 1 5.71 0v29.457a2.855 2.855 0 0 1-5.71 0Z" fill="#00C464"/><path d="M47.855 2.855v29.457a2.855 2.855 0 0 1-5.71 0V2.855a2.855 2.855 0 1 1 5.71 0ZM72.783 76.82l-20.83-20.83a2.855 2.855 0 0 1 4.037-4.037l20.83 20.83a2.855 2.855 0 0 1-4.037 4.037ZM17.217 13.18l20.83 20.83a2.855 2.855 0 0 1-4.037 4.037l-20.83-20.83a2.855 2.855 0 1 1 4.037-4.037Zm69.928 34.665H57.687a2.853 2.853 0 0 1-2.854-2.85 2.853 2.853 0 0 1 2.854-2.85h29.458A2.853 2.853 0 0 1 90 44.995a2.852 2.852 0 0 1-2.855 2.85Z" fill="#232F4C"/><path d="M32.312 42.145a2.852 2.852 0 0 1 2.855 2.85 2.852 2.852 0 0 1-2.855 2.85H2.855A2.852 2.852 0 0 1 0 44.995a2.852 2.852 0 0 1 2.855-2.85h29.457Z" fill="#00A987"/><path d="M76.82 17.218 55.99 38.047a2.855 2.855 0 0 1-4.037-4.037l20.83-20.83a2.855 2.855 0 0 1 4.037 4.038Z" fill="#232F4C"/><path d="m13.18 71.706 20.83-20.83a2.855 2.855 0 0 1 4.037 4.037l-20.83 20.83a2.854 2.854 0 1 1-4.037-4.037Zm35.462-26.492a3.776 3.776 0 1 1-7.551 0 3.776 3.776 0 0 1 7.55 0Z" fill="#00E864"/></g></svg>