<svg viewBox="0 0 90 90" xmlns="http://www.w3.org/2000/svg"><path d="M22.524 29.267h17.027l-2.637 10.385c-.403 1.448-1.156 2.61-2.26 3.488-1.104.878-2.386 1.318-3.842 1.318h-7.91c-1.81 0-3.405.542-4.785 1.627-1.381 1.086-2.349 2.557-2.901 4.417-.352 1.396-.39 2.713-.113 3.953.277 1.24.765 2.339 1.47 3.294a7.668 7.668 0 0 0 2.712 2.286c1.106.569 2.31.852 3.616.852h4.822c.904 0 1.644.376 2.222 1.124.578.748.74 1.589.49 2.519L27.421 76h-5.273c-3.617 0-6.945-.814-9.983-2.441-3.039-1.627-5.564-3.784-7.572-6.472C2.585 64.4 1.214 61.341.487 57.904c-.727-3.436-.64-6.962.264-10.58l.301-1.162a22.942 22.942 0 0 1 3.051-6.858C5.485 37.212 7.117 35.429 9 33.956a22.377 22.377 0 0 1 6.291-3.448 21.3 21.3 0 0 1 7.233-1.24ZM31.113 76l14.842-57.195c.4-1.446 1.154-2.608 2.26-3.488C49.321 14.438 50.6 14 52.057 14h15.747c3.616 0 6.943.814 9.982 2.441 3.04 1.628 5.563 3.786 7.572 6.472 2.01 2.685 3.39 5.748 4.144 9.183.753 3.436.652 6.963-.302 10.579l-.3 1.163a23.552 23.552 0 0 1-3.015 6.858 22.355 22.355 0 0 1-4.859 5.387 21.864 21.864 0 0 1-6.291 3.487 21.326 21.326 0 0 1-7.233 1.24H53.866l2.712-10.463c.401-1.395 1.155-2.53 2.26-3.41 1.106-.879 2.385-1.317 3.842-1.317h4.37c1.808 0 3.428-.568 4.86-1.705 1.43-1.137 2.373-2.608 2.825-4.417.35-1.291.388-2.558.113-3.798-.275-1.24-.766-2.337-1.47-3.294-.702-.956-1.607-1.73-2.711-2.325-1.104-.594-2.311-.891-3.617-.891h-8.438l-11 42.083c-.403 1.394-1.156 2.532-2.26 3.41A5.894 5.894 0 0 1 41.585 76H31.113Z" fill="#FF6C2C" fill-rule="evenodd"/></svg>