<svg viewBox="0 0 90 90" xmlns="http://www.w3.org/2000/svg"><defs><linearGradient x1="24.651%" y1="6.41%" x2="74.804%" y2="110.693%" id="a"><stop stop-color="#FF475F" offset="0%"/><stop stop-color="#FF713B" offset="100%"/></linearGradient></defs><path d="m.997 27.805 13.609-17.271a2.698 2.698 0 0 1 2.163-1.077 2.7 2.7 0 0 1 2.157 1.09l41.488 53.158a3.185 3.185 0 0 1-.003 3.876L46.034 85.916A2.702 2.702 0 0 1 43.868 87a2.702 2.702 0 0 1-2.164-1.09L.981 33.626a4.778 4.778 0 0 1 .016-5.822ZM28.285 3h38.172a4.23 4.23 0 0 1 3.285 1.583l19.265 23.762a4.499 4.499 0 0 1 .016 5.618L70.648 56.856a2.804 2.804 0 0 1-2.195 1.067 2.804 2.804 0 0 1-2.199-1.061L26.305 7.326a2.691 2.691 0 0 1 .338-3.715A2.525 2.525 0 0 1 28.283 3h.002Z" fill="url(#a)"/></svg>