<svg viewBox="0 0 90 90" xmlns="http://www.w3.org/2000/svg"><path d="M39.62.322c9.776-1.184 19.926.915 28.393 5.996 8.808 5.218 15.76 13.56 19.27 23.238 3.832 10.42 3.603 22.293-.641 32.55-3.915 9.578-11.235 17.666-20.298 22.524-9.202 5.002-20.151 6.56-30.384 4.461-10.6-2.124-20.346-8.276-26.874-16.964C3.138 64.315-.124 54.473.004 44.62.037 34.21 3.88 23.885 10.597 15.987 17.853 7.324 28.446 1.607 39.62.322M32.203 11.57c-8.077 3.07-14.966 9.203-18.963 16.92-3.727 7.097-4.92 15.49-3.375 23.366 1.542 8.07 6 15.507 12.303 20.701 6.255 5.222 14.317 8.175 22.439 8.228-.049-2.344-.023-4.685-.064-7.029-.049-1.947-1.897-3.33-3.67-3.63-.057 1.755.007 3.898-1.523 5.09-1.459 1.009-3.42.986-5.07.544-1.669-.473-2.595-2.22-2.644-3.876-.1-2.514-.015-5.032-.044-7.55-.668-.004-1.34-.004-2.01-.004a1807.31 1807.31 0 0 1 0-6.586c.67-.004 1.342-.008 2.013-.008 0-.749 0-1.493-.003-2.238-.863-.288-1.86-.632-2.209-1.573-.863-2.057.21-4.367-.626-6.44-.855-2.18-1.706-4.593-.911-6.934.49-1.648 2.092-2.7 3.75-2.832-.004-4.76 0-9.516-.004-14.276-.027-2.526 1-5.127 3.007-6.704 2.287-1.83 5.32-2.299 8.163-2.28 6.326.004 12.52 3.028 16.608 7.864-.008 1.138 0 2.277-.008 3.418-5.666.004-11.331-.003-16.997 0-.615-.113-1.2.466-1.092 1.09.02 3.644-.033 7.293-.018 10.938 1.046.003 2.096.019 3.142-.03.176-.73.371-1.452.581-2.17 4.609 1.141 9.213 2.28 13.818 3.429-.154.533-.304 1.07-.454 1.606l-1.215.466c-.16 12.59-.266 25.185-.408 37.775 10.833-3.724 19.656-12.942 22.727-24.092 2.422-8.492 1.552-17.888-2.43-25.764-3.91-7.849-10.792-14.13-18.914-17.298-8.223-3.263-17.646-3.304-25.9-.12m8.651 44.044c0 .707 0 1.414.004 2.12.623.005 1.245.005 1.868.005.003 2.197.003 4.394 0 6.59-.623 0-1.249 0-1.871.004v2.004c1.226.004 2.456.004 3.682-.004-.056-3.573-.023-7.146-.079-10.719a572.464 572.464 0 0 0-3.604 0Z" fill="#1389D2"/></svg>