<svg viewBox="0 0 90 90" xmlns="http://www.w3.org/2000/svg"><defs><linearGradient x1="100.085%" y1="93.389%" x2="3.472%" y2="3.291%" id="a"><stop stop-color="#F57724" offset="0%"/><stop stop-color="#ED1E24" offset="100%"/></linearGradient><linearGradient x1="76.939%" y1="69.168%" x2="7.219%" y2="19.56%" id="b"><stop stop-color="#F57724" offset="0%"/><stop stop-color="#ED1E24" offset="100%"/></linearGradient><linearGradient x1="69.34%" y1="66.928%" x2="35.867%" y2="37.615%" id="c"><stop stop-color="#F57724" offset="0%"/><stop stop-color="#ED1E24" offset="100%"/></linearGradient></defs><g fill="none" fill-rule="evenodd"><path fill="url(#a)" d="m78.273 66-7.163-6.044h9.102l-38.401-30.09V21.07l42.37 34.42v-7.474L90 52.985V66H78.273" transform="matrix(1 0 0 -1 0 78.475)"/><path fill="url(#b)" d="M78.134 28.153V5.807H5.82v48.111h44.159l7.367 5.807H0V0h83.953v32.74l-5.818-4.587" transform="matrix(1 0 0 -1 0 78.475)"/><path fill="url(#c)" d="m14.712 44.797 27.097-14.932v-8.793L14.712 38.825v5.973" transform="matrix(1 0 0 -1 0 78.475)"/></g></svg>