<svg viewBox="0 0 90 90" xmlns="http://www.w3.org/2000/svg" xmlns:xlink="http://www.w3.org/1999/xlink"><defs><linearGradient x1="100%" y1="0%" x2="0%" y2="100%" id="a"><stop stop-color="#FF9200" offset="0%"/><stop stop-color="#FFC73A" offset="100%"/></linearGradient><path id="b" d="M0 0h70v70H0z"/></defs><g fill="none" fill-rule="evenodd"><path fill="url(#a)" d="M0 0h90v90H0z"/><g transform="translate(10 10)"><mask id="c" fill="#fff"><use xlink:href="#b"/></mask><path d="M35 64.531C18.717 64.531 5.468 51.284 5.468 35S18.717 5.468 35 5.468c16.285 0 29.532 13.248 29.532 29.532S51.285 64.53 35 64.53M35 0C15.7 0 0 15.7 0 35s15.7 35 35 35c19.299 0 35-15.7 35-35S54.299 0 35 0" fill="#FFF" mask="url(#c)"/></g><path d="M61.33 55.675a2.734 2.734 0 0 0-3.777.829c-.04.063-3.935 6.152-12.552 6.152-8.44 0-12.353-5.835-12.535-6.12a2.734 2.734 0 0 0-4.655 2.871c.219.355 5.576 8.717 17.19 8.717 11.578 0 16.933-8.318 17.16-8.673a2.733 2.733 0 0 0-.831-3.776M27.847 42.744c0-1.55 1.04-2.513 2.716-2.513h5.214v5.053h-5.214c-1.675 0-2.716-.973-2.716-2.54Zm2.98-10.624h4.95v4.704h-4.95c-1.708 0-2.689-.857-2.689-2.352 0-1.494.981-2.352 2.69-2.352Zm-1.645 18.39c0 .732.598 1.329 1.329 1.329s1.329-.597 1.329-1.329v-1.82h2.09v1.82c0 .732.598 1.329 1.329 1.329.73 0 1.329-.597 1.329-1.329v-1.82h1.274c.862 0 1.56-.71 1.56-1.585V30.3c0-.876-.698-1.586-1.56-1.586h-1.274v-1.5c0-.731-.598-1.33-1.329-1.33-.73 0-1.329.599-1.329 1.33v1.5h-2.09v-1.5c0-.731-.598-1.33-1.33-1.33-.73 0-1.328.599-1.328 1.33v1.62c-2.89.497-4.69 2.555-4.69 5.531 0 1.893.96 3.307 2.08 4.056-1.5.903-2.37 2.517-2.37 4.458 0 3.215 1.88 5.33 4.98 5.736v1.895Zm30.247-5.226h-5.215v-5.053h5.215c1.674 0 2.715.964 2.715 2.513 0 1.567-1.041 2.54-2.715 2.54m2.423-10.811c0 1.494-.98 2.351-2.688 2.351h-4.95V32.12h4.95c1.707 0 2.688.858 2.688 2.353m1.567 3.948c1.119-.749 2.08-2.163 2.08-4.056 0-2.976-1.8-5.034-4.69-5.532v-1.618c0-.732-.598-1.33-1.328-1.33-.732 0-1.33.598-1.33 1.33v1.5h-2.09v-1.5c0-.732-.598-1.33-1.33-1.33-.73 0-1.328.598-1.328 1.33v1.5h-1.274c-.861 0-1.56.71-1.56 1.585v16.806c0 .875.699 1.584 1.56 1.584h1.274v1.82c0 .732.598 1.329 1.329 1.329s1.329-.597 1.329-1.329v-1.82h2.09v1.82c0 .732.598 1.329 1.33 1.329.73 0 1.329-.597 1.329-1.329v-1.895c3.099-.405 4.98-2.521 4.98-5.736 0-1.94-.872-3.555-2.371-4.458" fill="#FFF"/></g></svg>