<svg viewBox="0 0 90 90" xmlns="http://www.w3.org/2000/svg"><g fill="none" fill-rule="evenodd"><path fill="#722B90" d="M0 0h90v90H0z"/><path d="M50.033 51.825c.24.168.457.312.65.479 1.83 1.508 3.516 3.135 4.262 5.48.385 1.22.578 2.49.482 3.782a16.198 16.198 0 0 1-.988 4.499c-.915 2.393-2.624 3.973-4.984 4.906-2.264.91-4.575 1.268-6.984.861-3.226-.55-6.068-2.13-7.272-5.983-.578-1.866-.987-3.757-.866-5.72.048-.645.216-1.291.313-1.938.048 0 .096 0 .144.024l.361 2.154c.241 1.484.843 2.8 1.782 3.973.723.91 1.42 1.914 2.577 2.37 2.552 1.004 5.129 1.411 7.802.406 1.517-.574 2.24-1.795 2.625-3.255.53-2.058.192-3.949-1.373-5.432-1.204-1.15-2.577-2.178-3.973-3.112-2.48-1.65-5.057-3.182-7.562-4.786-2.504-1.627-4.454-3.757-5.562-6.533-.843-2.058-1.036-4.236-.843-6.462.24-2.465.987-4.715 2.24-6.82 1.396-2.322 4.286-4.978 6.622-5.936.578 1.628 1.95 2.585 3.25 3.59-.915.766-1.806 1.46-2.648 2.25-1.3 1.196-2.48 2.489-3.396 4.02-.794 1.412-1.06 2.944-.746 4.643.337 1.723.963 3.303 2.119 4.619 1.541 1.747 3.443 3.063 5.538 3.996 1.59.718 3.227.551 4.744-.55 1.902-1.388 3.564-2.944 4.575-5.097.843-1.82 1.349-3.686.891-5.672-.578-2.465-1.878-4.547-3.949-6.055-1.445-1.053-2.938-1.986-4.407-2.991-1.155-.79-1.589-1.987-1.71-3.28-.095-1.1-.12-2.225.025-3.326.072-.837.457-1.651.746-2.465.049-.095.169-.167.241-.239.169.742.265 1.508.53 2.202.554 1.555 1.83 2.489 3.178 3.35 1.758 1.149 3.589 2.178 5.298 3.423 2.36 1.746 4.238 3.924 5.057 6.82.602 2.106.819 4.26.361 6.438-.385 1.842-.987 3.59-1.998 5.193-.915 1.436-2.168 2.537-3.468 3.542-1.156.91-2.384 1.723-3.684 2.632Z" fill="#FFF" fill-rule="nonzero"/></g></svg>