<svg xmlns="http://www.w3.org/2000/svg" width="90" height="90" viewBox="0 0 90 90"><defs><linearGradient id="a" x1="50%" x2="50%" y1="0%" y2="100%"><stop offset="0%" stop-color="#23AFFA"/><stop offset="100%" stop-color="#0767DF"/></linearGradient><linearGradient id="b" x1="50%" x2="50%" y1="0%" y2="100%"><stop offset="0%" stop-color="#FFF"/><stop offset="99.262%" stop-color="#D9E1F3"/></linearGradient></defs><g fill="none"><polygon fill="url(#a)" points="90 90 0 90 0 0 90 0"/><path fill="url(#b)" d="M61.5,90 L61.5,54.9305556 L72.3214286,54.9305556 L75,42 L61.5,42 L61.5,34.7962963 C61.5,29.4722222 64.2910714,26.8101852 69.6428571,26.8101852 L75,26.8101852 L75,13.5 C72.3214286,13.5 69,13.5 64.2857143,13.5 C54.4419643,13.5 48,21.1693287 48,32.1342593 L48,42 L36,42 L36,54.9305556 L48,54.9305556 L48,90 L61.5,90 Z"/></g></svg>