<svg xmlns="http://www.w3.org/2000/svg" width="90" height="90" viewBox="0 0 90 90"><g fill="none"><rect width="90" height="90" fill="#003D8F"/><path fill="#FFF" d="M56.2895277,44.3359352 L63.0451745,44.3359352 C63.0451745,45.1951004 63.1889117,46.6270423 63.1889117,46.9134307 C63.1889117,52.211616 62.3264887,55.6482767 59.7392197,58.9417432 L65.201232,66.101453 L56.7207392,66.101453 L54.8521561,63.5239574 C52.1211499,65.9582588 48.3839836,67.2470065 44.6468172,66.9606181 C36.0225873,66.9606181 30.1293634,62.5215981 29.5544148,54.7891115 C29.2669405,50.2068972 32.2854209,45.3382946 38.3223819,41.9016339 C34.5852156,36.889837 33.7227926,35.1715066 33.7227926,32.1644285 C33.7227926,26.8662433 38.3223819,23 44.6468172,23 C50.5400411,23 54.7084189,26.8662433 54.7084189,32.3076227 C54.7084189,36.3170602 53.1273101,39.1809441 48.0965092,43.3335758 L55.4271047,53.3571695 C56.0020534,52.7843927 56.5770021,49.347732 56.4332649,46.6270423 C56.4332649,46.3406539 56.2895277,45.3382946 56.2895277,44.3359352 Z M44.0718686,38.321779 C46.9466119,36.173866 47.9527721,34.1691473 47.9527721,32.4508169 L47.9527721,32.0212343 C47.8090349,30.302904 46.2279261,29.1573504 44.5030801,29.3005446 L44.3593429,29.3005446 C42.4907598,29.1573504 41.0533881,30.5892924 41.0533881,32.4508169 C41.0533881,34.1691473 41.6283368,35.1715066 44.0718686,38.321779 Z M50.6837782,58.082578 L42.6344969,47.4862075 C38.7535934,49.9205088 37.3162218,52.3548102 37.3162218,54.6459173 C37.3162218,58.082578 40.3347023,60.3736851 44.6468172,60.3736851 C46.9466119,60.3736851 49.1026694,59.5145199 50.6837782,58.082578 Z M23.2361396,66.2446472 L14.7556468,66.2446472 L14.7556468,30.4460982 L8,30.4460982 L8,23.5727768 L23.2361396,23.5727768 L23.2361396,66.2446472 Z M80,66.2446472 L71.37577,66.2446472 L71.37577,30.4460982 L64.6201232,30.4460982 L64.6201232,23.5727768 L80,23.5727768 L80,66.2446472 Z"/></g></svg>