<svg viewBox="0 0 90 90" xmlns="http://www.w3.org/2000/svg"><g fill="none"><circle fill="#2C5976" cx="45" cy="45" r="45"/><path d="M14.597 35.806c1.472 0 2.923-.02 4.375.04 1.149 2.985 3.165 5.626 3.67 8.831.543-3.185 2.439-5.927 3.689-8.89 1.27 0 2.56 0 3.83-.02a833.277 833.277 0 0 1-5.383 10.342c-.242.504-.544 1.008-.524 1.613-.02 2.097.02 4.213 0 6.33h-3.589c-.06-2.237.101-4.475-.08-6.693-1.875-3.891-3.972-7.722-5.988-11.553Zm20.847 5.081c2.197-.443 4.778-.08 6.27 1.734s1.693 4.254 1.431 6.472c-.201 2.036-1.411 4.052-3.367 4.818-2.46.968-5.665.625-7.399-1.512-1.593-2.097-1.694-4.96-1.109-7.42.484-2.015 2.137-3.709 4.174-4.092Zm.786 2.843c-1.33.403-1.653 1.935-1.734 3.145-.08 1.371.02 2.984 1.008 4.012 1.089 1.17 3.266.706 3.81-.766a7.51 7.51 0 0 0-.02-5.141c-.423-1.19-1.915-1.734-3.064-1.25Z" fill="#FFF"/><path d="M45.645 35.948c2.54-.283 5.121-.504 7.702-.202 1.31.181 2.722.605 3.629 1.673 1.109 1.21 1.129 3.045.605 4.537-.444 1.23-1.633 1.854-2.641 2.5 1.028.403 2.197.806 2.822 1.814 1.492 2.319.605 5.827-1.915 7.016-3.145 1.573-6.815 1.008-10.182.706-.08-6.028-.02-12.036-.02-18.044Zm3.528 2.742a63.475 63.475 0 0 0-.04 4.798c1.472-.02 3.186.12 4.355-.988 1.15-.827 1.048-2.883-.303-3.448-1.25-.604-2.66-.342-4.012-.362Zm-.04 7.64a195.22 195.22 0 0 0 0 4.84c1.593.08 3.427.362 4.798-.666 1.17-.847 1.17-2.923-.12-3.629-1.452-.786-3.126-.504-4.678-.544Zm12.722-10.524c1.23-.604 3.185-.06 3.347 1.492.04 2.017-3.085 2.601-4.093 1.029-.585-.827-.161-2.117.746-2.52Zm6.492 2.823c1.149-.302 2.278-.625 3.427-.948 0 1.13.02 2.259.02 3.367 1.069 0 2.137.02 3.186.06-.02.928-.02 1.856-.04 2.783-1.049.02-2.097.02-3.146.02.081 2.238-.201 4.496.162 6.714.403 1.25 1.955.544 2.863.423l.604 2.601c-1.693.605-3.588 1.17-5.322.464-1.21-.444-1.653-1.794-1.714-2.964-.161-2.399-.02-4.798-.06-7.218-.605 0-1.17 0-1.754.02-.04-.967-.04-1.895-.04-2.862.604-.02 1.189-.02 1.794-.02-.02-.827-.02-1.634.02-2.44Zm-7.057 2.44c1.17-.02 2.319-.02 3.468 0v13.004H61.29V41.069Z" fill="#00A9D2"/></g></svg>