<svg viewBox="0 0 90 90" xmlns="http://www.w3.org/2000/svg"><defs><radialGradient cx="39.55%" cy="45.666%" fx="39.55%" fy="45.666%" r="134.609%" gradientTransform="scale(1 .74314) rotate(-56.67 .542 .536)" id="a"><stop stop-color="#2199FF" offset="42.7%"/><stop stop-color="#2B8AF3" offset="56.2%"/><stop stop-color="#4462D3" offset="82.2%"/><stop stop-color="#4E51C6" offset="91.8%"/></radialGradient><radialGradient cx="42.543%" cy="46.12%" fx="42.543%" fy="46.12%" r="81.542%" gradientTransform="matrix(.86213 .39488 -.50668 .6719 .292 -.017)" id="b"><stop stop-color="#2199FF" offset="0%"/><stop stop-color="#2396FD" offset="21.3%"/><stop stop-color="#298CF5" offset="37.2%"/><stop stop-color="#337CE8" offset="51.4%"/><stop stop-color="#4166D6" offset="64.5%"/><stop stop-color="#4E51C6" offset="73.7%"/></radialGradient><radialGradient cx="61.16%" cy="43.008%" fx="61.16%" fy="43.008%" r="176.648%" gradientTransform="matrix(.63114 -.62008 .77567 .50455 -.108 .592)" id="c"><stop stop-color="#2199FF" offset="33.4%"/><stop stop-color="#485BCE" offset="64.8%"/><stop stop-color="#4E51C6" offset="69.7%"/></radialGradient><radialGradient cx="51.181%" cy="65.486%" fx="51.181%" fy="65.486%" r="64.751%" gradientTransform="scale(1 .82727) rotate(18.961 .102 .723)" id="d"><stop stop-color="#2199FF" offset="0%"/><stop stop-color="#2297FD" offset="29.1%"/><stop stop-color="#278FF7" offset="42.4%"/><stop stop-color="#2F83ED" offset="52.5%"/><stop stop-color="#3A71DF" offset="61%"/><stop stop-color="#4959CD" offset="68.4%"/><stop stop-color="#4E51C6" offset="70.5%"/></radialGradient><radialGradient cx="48.754%" cy="35.211%" fx="48.754%" fy="35.211%" r="147.363%" gradientTransform="matrix(.45733 -.69507 .8893 .35744 -.049 .565)" id="e"><stop stop-color="#2199FF" offset="18.2%"/><stop stop-color="#2395FC" offset="36.6%"/><stop stop-color="#2A8AF3" offset="53.4%"/><stop stop-color="#3678E5" offset="69.7%"/><stop stop-color="#465ED0" offset="85.5%"/><stop stop-color="#4E51C6" offset="91.8%"/></radialGradient><radialGradient cx="138.705%" cy="128.711%" fx="138.705%" fy="128.711%" r="169.602%" gradientTransform="matrix(.70836 .5312 -.44413 .84724 .976 -.54)" id="f"><stop stop-color="#4E51C6" offset="0%"/><stop stop-color="#4263D5" offset="17.5%"/><stop stop-color="#3081EC" offset="50.7%"/><stop stop-color="#2593FA" offset="79.3%"/><stop stop-color="#2199FF" offset="100%"/></radialGradient><radialGradient cx="41.301%" cy="52.05%" fx="41.301%" fy="52.05%" r="266.084%" gradientTransform="matrix(.56771 -.5325 .82323 .36722 -.25 .55)" id="g"><stop stop-color="#2199FF" offset="0%"/><stop stop-color="#2494FB" offset="13.2%"/><stop stop-color="#2D87F0" offset="28.3%"/><stop stop-color="#3B70DE" offset="44.3%"/><stop stop-color="#4E51C6" offset="60.4%"/></radialGradient></defs><g fill="none"><path d="M89.646 25.578C83.943 8.186 67.88 14.049 67.042 14.233c-25.193 8.875-32.635 70.49-32.635 70.49s-.417 3.177 1.418 3.27c0 0 1.594.269 2.678-2.685.05-.137.089-.278.117-.422.746-3.708 11.495-55.034 35.214-56.212 4.009-.22 8.007.595 11.607 2.368.053.027.105.056.156.086.292.172 1.782.972 3.03-.167.202-.194.382-.41.535-.645.72-1.166 1.201-2.2.484-4.738Z" fill="url(#a)" transform="translate(0 1)"/><path d="M38.412 84.377C53.428-5.22 85.597 31.128 85.597 31.128a27.496 27.496 0 0 0-8.268-2.384c-6.386-.723-14.292 1.355-21.69 12.263 0 0-8.188 9.986-14.361 33.063l-2.866 10.307Z" fill="url(#b)" transform="translate(0 1)"/><path d="M76.414 47.891C64.007 45.544 47.542 83.7 47.542 83.7c-1.085 2.243-2.252 1.776-2.252 1.776-1.335-.28-.752-2.523-.752-2.523s10.69-45.138 27.863-46.808c0 0 11.262-1.355 11.512 11.398 0 0 0 4.018-3.42 2.336 0 0-2.16-1.613-4.078-1.987Z" fill="url(#c)" transform="translate(0 1)"/><path d="M80.493 49.878s-2.038-1.493-3.984-1.854c-12.236-2.188-29.06 35.86-29.06 35.86s8.525-28.083 21.289-38.266c0 0 7.888-5.833 11.755 4.26Z" fill="url(#d)" transform="translate(0 1)"/><path d="M62.26 3.054S57.416-1.961 49.151.862c0 0-8.592 2.523-11.595 14.576 0 0-2.002 7.847-3.254 15.321a92.237 92.237 0 0 1-4.014 15.646c-7.337 21.983-15.589 21.82-15.589 21.82-6.924 0-10.595-9.156-10.595-9.156-.383-.943-1.756-2.35-3.24-1.337a1.996 1.996 0 0 0-.616.89c-.188.625-.41 2.002-.074 4.37C2.676 78.5 12.28 81.025 12.28 81.025c15.099 4.578 20.77-22.143 20.77-22.143.084-.285 5.513-26.485 17.183-40.331a28.412 28.412 0 0 1 7.612-7.144 35.8 35.8 0 0 1 1.794-1.053c.45-.266.915-.508 1.391-.726a7.545 7.545 0 0 0 2.174-1.362c.813-.821.85-3.548-.945-5.212Z" fill="url(#e)" transform="translate(0 1)"/><path d="M30.334 46.474c-6.979 19.318-15.461 18.564-15.461 18.564s-6.097.29-10.768-5.97c0 0 3.677 9.333 10.6 9.334 0 0 9.312.73 15.63-21.928Z" fill="url(#f)" transform="translate(0 1)"/><path d="M36.04 47.538C43.482-4.706 61.942 9.16 61.942 9.16c-.3.164-.603.32-.91.467-6.373 2.924-10.801 8.777-10.798 8.775C44.412 24.54 36.04 47.538 36.04 47.538Z" fill="url(#g)" transform="translate(0 1)"/></g></svg>