<svg viewBox="0 0 90 90" xmlns="http://www.w3.org/2000/svg"><g fill="none" fill-rule="evenodd"><path fill="#FFF" d="M0 0h90v90H0z"/><path d="M32.011 40.822s-1.012-3.33-1.166-7.469l-.05-1.356s7.523-5.007 16.98-3.945c6.256.702 11.376 3.945 11.376 3.945s.327 9.619-4.839 16.459c-4.682 6.2-9.339 8.358-9.339 8.358s-10.24-5.685-12.961-15.992Z" fill="#FFDC0B"/><path d="m19.607 49.09 5.026-2.93.263.62c4.082 9.621 11.461 16.146 20.103 21.565 6.18-3.876 11.852-8.423 16.047-14.315.306.07.624.108.95.108 2.347 0 4.249-1.922 4.249-4.292 0-2.371-1.902-4.293-4.249-4.293-2.346 0-4.248 1.922-4.248 4.293 0 .786.21 1.522.575 2.156-3.417 4.793-7.909 8.558-13.013 11.73l-.31.194-.31-.194c-8.912-5.538-15.31-12.445-18.18-22.62l-5.544 3.234-.012-.014-2.602 1.518-.229-.697c-2.328-7.071-3.122-14.673-3.326-22.09l-.01-.37.32-.175c7.68-4.194 15.99-7.757 24.727-8.788v-3.45C29.672 11.384 19.925 15.634 11 20.485c.302 10.257 1.49 20.89 5.658 30.347l2.956-1.725-.006-.015Zm42.39-.8c.85 0 1.538.697 1.538 1.555 0 .859-.688 1.555-1.538 1.555-.85 0-1.539-.696-1.539-1.555 0-.858.69-1.555 1.539-1.555Z" fill="#1F3647" fill-rule="nonzero"/><path d="M45.593 10v9.233H45c-8.589-.005-16.542 3.034-24.014 7.079a85.7 85.7 0 0 0 .263 4.609 4.3 4.3 0 0 0-1.963 3.619c0 2.371 1.902 4.293 4.248 4.293s4.248-1.922 4.248-4.293a4.29 4.29 0 0 0-2.937-4.084 63.763 63.763 0 0 1-.062-1.566l-.01-.368.32-.176c7.532-4.112 15.341-6.48 23.905-5.453v-9.298l.654.069c8.942.939 17.401 4.573 25.24 8.856l.321.175-.01.368c-.135 4.902-.529 9.843-1.438 14.666l3.163 1.846c1.35-6.241 1.884-12.716 2.072-19.09-10.36-5.633-21.477-10.348-33.407-10.484V10Zm-20.52 24.54c0 .858-.69 1.555-1.54 1.555a1.547 1.547 0 0 1-1.537-1.555c0-.859.688-1.555 1.538-1.555.85 0 1.539.696 1.539 1.555Z" fill="#1F3647" fill-rule="nonzero"/><path d="M67.282 40.167c1.111-4.519 1.586-9.206 1.732-13.854-2.923-1.583-5.956-3.026-9.082-4.19-.214-2.168-2.025-3.861-4.227-3.861-2.346 0-4.248 1.922-4.248 4.292 0 2.371 1.902 4.293 4.248 4.293a4.219 4.219 0 0 0 3.12-1.38 55.414 55.414 0 0 1 6.08 2.88l.321.175-.01.368c-.124 4.506-.702 9.02-2.056 13.327l8.092 4.72-.183.48c-4.89 12.745-14.479 20.956-25.76 27.97l-.31.193-.31-.194c-8.8-5.47-17.087-12.02-22.448-21.093l-2.933 1.711C25.396 66.322 35.024 73.77 44.998 80c13.96-8.72 25.26-18.468 30.39-34.602l-8.215-4.794.108-.437ZM55.705 24.109c-.85 0-1.538-.696-1.538-1.555 0-.86.688-1.555 1.538-1.555.85 0 1.54.696 1.54 1.555a1.548 1.548 0 0 1-1.54 1.555Z" fill="#1F3647" fill-rule="nonzero"/><path d="M46.24 41.773v3.606c0 .688-.556 1.25-1.238 1.25a1.247 1.247 0 0 1-1.239-1.25v-3.606a3.574 3.574 0 0 1-2.297-3.348c0-1.973 1.583-3.573 3.536-3.573s3.536 1.6 3.536 3.573a3.572 3.572 0 0 1-2.298 3.348Z" fill="#1F3647"/></g></svg>