<svg viewBox="0 0 90 90" xmlns="http://www.w3.org/2000/svg"><g fill="none"><path d="M15.696 21C8.766 20.986-.492 25.35.02 36.305.81 53.413 18.464 55 25.527 55.145c.763 3.201 9.069 14.271 15.22 14.855h26.928c16.146-1.061 28.23-48.506 19.28-48.679-14.827.699-23.617 1.048-31.147 1.106h-2.374c-8.644 0-16.261-.393-30.708-1.106-1.817-.014-4.338-.321-7.032-.321h.002Zm.968 6.053h.835c.982 8.774 2.58 13.894 5.817 21.735-8.264-.975-15.279-3.347-16.57-12.235-.675-4.598 1.584-9.4 9.918-9.5Z" fill="#4B9C00"/><path d="M48.764 35.665c.557.014 1.142.117 1.671.363l2.813 1.207-2.008 3.637a2.79 2.79 0 0 0-.909.145c-1.305.422-1.991 1.687-1.524 2.852.1.232.25.45.424.64l-3.47 6.284a2.38 2.38 0 0 0-.836.146c-1.305.407-1.992 1.687-1.525 2.838.484 1.164 1.919 1.76 3.238 1.338 1.305-.408 1.977-1.688 1.508-2.852a2.33 2.33 0 0 0-.586-.816l3.384-6.112c.366.028.732 0 1.1-.117a2.27 2.27 0 0 0 .79-.422c1.306.553 2.375.989 3.151 1.369 1.142.567 1.553.947 1.685 1.369.118.407-.014 1.192-.675 2.575-.484 1.033-1.289 2.503-2.242 4.218-.324 0-.644.045-.937.145-1.319.422-1.991 1.687-1.524 2.852.47 1.148 1.918 1.746 3.223 1.338 1.32-.422 1.992-1.687 1.525-2.852a2.406 2.406 0 0 0-.512-.757c.937-1.701 1.744-3.17 2.27-4.262.703-1.498 1.069-2.62.748-3.696-.32-1.075-1.32-1.774-2.622-2.416-.863-.422-1.949-.874-3.223-1.41a2.06 2.06 0 0 0-.146-.89 2.35 2.35 0 0 0-.543-.784l1.977-3.578 10.973 4.698c1.978.858 2.799 2.953 1.831 4.698L60.25 61.117c-.953 1.746-3.325 2.472-5.302 1.615l-15.516-6.648c-1.977-.858-2.799-2.953-1.845-4.698l7.544-13.704c.658-1.207 1.992-1.922 3.398-1.978h.234l.002-.04Zm4.67-13.238h2.374v14.797l-2.36-1.02z" fill="#FFF"/></g></svg>