<svg viewBox="0 0 90 90" xmlns="http://www.w3.org/2000/svg"><g fill="none" fill-rule="evenodd"><circle fill="#FFF" cx="45" cy="45" r="40"/><g fill-rule="nonzero"><g fill="#000"><path d="M33.249 21.947c-.834.329-1.624 1.095-1.976 1.906-.373.832-.395 2.3-.35 21.924l.021 21.027h6.805l.022-8.717c.022-4.775.066-8.74.11-8.805.065-.044 2.963-.132 6.453-.176 6.65-.11 7.09-.131 9.219-.854 2.041-.679 3.6-1.642 5.202-3.263 4.851-4.885 4.983-13.58.285-18.77-1.8-1.972-3.687-3.024-7.463-4.162-.592-.176-17.911-.285-18.328-.11Zm18.109 6.724c2.92 1.336 4.302 3.658 4.17 7.053-.153 3.548-2.019 5.936-5.333 6.768-1.625.416-12.315.613-12.358.219-.022-.307-.022-13.93 0-14.412.022-.394.307-.416 6.124-.329l6.08.088 1.317.613Z"/><path d="M51.577 52.217c-.35.087-1.931.175-3.512.219-1.558.022-2.897.087-2.919.131-.044.044 2.107 3.264 4.785 7.162l4.895 7.075h4.236c2.35 0 4.259-.044 4.259-.132 0-.11-.966-1.533-3.095-4.577-3.776-5.366-5.861-8.345-6.41-9.156-.636-.963-.9-1.029-2.239-.722Z"/></g><path d="M68.673 6.723C81.474 14.657 90 28.833 90 45c0 2.209-.16 4.38-.466 6.503l-6.683-.964.042-.288c.237-1.728.357-3.48.357-5.251 0-13.404-6.944-25.605-18.133-32.54l-.06-.037 3.61-5.704.006.004Z" fill="#4CC7E8"/><path d="m10.641 15.938 5.12 4.401-.05.058A38.063 38.063 0 0 0 6.75 45c0 20.937 16.822 37.945 37.687 38.246v6.748h-.181C19.746 89.597 0 69.604 0 45a44.82 44.82 0 0 1 10.545-28.947l.096-.115Z" fill="#72C6B8"/><path d="m82.85 50.54 6.683.965c-.025.178-.052.356-.08.533C86.074 73.548 67.459 90 45 90l-.563-.005v-6.75c.187.004.375.005.563.005 18.896 0 34.884-13.795 37.785-32.26l.066-.45Z" fill="#FDB900"/><path d="M31.587 2.034 33.523 8.5l-.089.028A38.3 38.3 0 0 0 15.759 20.34l-5.117-4.401.303-.355a45.043 45.043 0 0 1 20.45-13.49l.192-.06Z" fill="#F25D0F"/><path d="M45 0a44.79 44.79 0 0 1 23.673 6.723l-.006-.004-3.61 5.704.06.037C59.124 8.746 52.217 6.75 45 6.75a38.226 38.226 0 0 0-11.567 1.778l.089-.028-1.935-6.466.525-.161A45.006 45.006 0 0 1 45 0Z" fill="#8AC734"/></g></g></svg>