<svg viewBox="0 0 90 90" xmlns="http://www.w3.org/2000/svg"><path d="m19.749 20.025.119.269 8.064 18.954 8.066-18.954c3.51-8.248 15.1-8.4 18.873-.374l.125.274 10.867 24.812c-4.983.18-8.968 4.272-8.968 9.293 0 5.136 4.168 9.3 9.31 9.3s9.31-4.164 9.31-9.3a9.297 9.297 0 0 0-5.064-8.278l2.41-2.097c4.23-3.68 10.606-3.312 14.388.775l.207.23a10.325 10.325 0 0 1-.775 14.371l-.232.207-16.034 13.95c-5.191 4.515-13.238 2.792-16.148-3.38l-.123-.27-8.488-19.38-8.203 19.28c-3.53 8.294-15.208 8.386-18.919.276l-.122-.277L.827 28.376c-2.235-5.251.216-11.318 5.474-13.55 5.167-2.194 11.123.133 13.448 5.199Z" fill="#FF8409"/></svg>