<svg viewBox="0 0 90 90" xmlns="http://www.w3.org/2000/svg"><path d="M60.596.055 74 0v88.499H60.541v-4.931C56.163 87.855 50.661 90 44.412 90 27.752 90 16 76.055 16 56.374c.003-19.584 11.487-33.098 28.045-33.098 6.568 0 11.374 1.88 16.554 6.273V.055h-.003Zm-1.498 68.494c.96-2.252 1.337-5.633 1.337-11.052 0-6.866-.267-10.186-1.066-12.602-1.443-4.934-7.21-8.688-13.192-8.688-9.883 0-16.023 7.934-16.023 20.65 0 12.229 6.089 20.11 15.592 20.11 6.04 0 11.484-3.487 13.355-8.421l-.003.003Z" fill="#199ED9" fill-rule="evenodd"/></svg>