<svg viewBox="0 0 90 90" xmlns="http://www.w3.org/2000/svg"><g fill="none"><path d="M45.004.002C20.147 0 0 20.152 0 45.003 0 69.853 20.147 90 45 90c24.85 0 45-20.147 45-44.997C90.002 20.151 69.85 0 45.002 0l.002.002Z" fill="#007A9D"/><path d="M33.784 34.583c-2.514-3.35-6.127-5.004-9.985-5.004-8.157 0-14.153 6.37-14.153 16.732 0 10.668 6.105 16.798 14.153 16.798 3.989 0 7.494-1.808 9.985-4.982v4.187h7.957V17.001h-7.957v17.582Zm0 17.636c-1.433 2.203-4.606 3.858-7.538 3.858-5.071 0-8.443-3.99-8.443-9.766 0-5.707 3.372-9.698 8.443-9.698 2.932 0 6.105 1.653 7.538 3.856v11.75Zm46.854-5.18c0-10.273-6.304-17.46-15.892-17.46-9.59 0-16.423 7.474-16.423 16.732 0 10.206 7.252 16.798 16.95 16.798 4.983 0 9.9-1.566 13.094-4.52l-3.572-5.224c-2.136 2.094-5.819 3.262-8.685 3.262-5.619 0-8.927-3.503-9.499-7.693h24.025v-1.896h.002Zm-24.091-3.637c.306-3.396 2.73-7.342 8.174-7.342 5.8 0 8.071 4.057 8.313 7.342h-16.49.003Z" fill="#FFF"/></g></svg>