<svg viewBox="0 0 90 90" xmlns="http://www.w3.org/2000/svg"><g fill="none"><path d="M44.81 0a7.898 7.898 0 0 0-6.965 4.17 7.848 7.848 0 0 0 .416 8.09l3.372-3.357a3.324 3.324 0 0 1 3.163-4.357 3.324 3.324 0 0 1 3.329 3.319 3.324 3.324 0 0 1-4.366 3.152l-3.367 3.357a7.91 7.91 0 0 0 9.205-.25 7.85 7.85 0 0 0 2.698-8.777A7.888 7.888 0 0 0 44.81 0Z" fill="#34A853"/><path d="M41.671 22.92a12.2 12.2 0 0 0-2.459-7.366l-4.375 4.357a6.238 6.238 0 0 1-1.198 7.547l2.378 5.793a12.283 12.283 0 0 0 5.654-10.33Z" fill="#FBBC04"/><path d="M29.444 29.174h-.114c-2.683 0-5.07-1.7-5.94-4.231a6.246 6.246 0 0 1 2.093-6.972 6.294 6.294 0 0 1 7.295-.284l4.332-4.318a12.368 12.368 0 0 0-14.66-.648 12.277 12.277 0 0 0-4.908 13.786c1.581 5.17 6.365 8.706 11.788 8.711.837 0 1.672-.082 2.492-.246l-2.378-5.798Z" fill="#EA4335"/><path d="M44.976 34.185a28.08 28.08 0 0 0-8.084 1.18l3.467 8.443a19.17 19.17 0 0 1 4.613-.56c9.009.003 16.761 6.349 18.517 15.157 1.755 8.808-2.975 17.626-11.299 21.062-8.324 3.435-17.923.531-22.927-6.936a18.78 18.78 0 0 1 2.35-23.77 19.076 19.076 0 0 1 4.504-3.317l-3.43-8.42c-12.78 6.24-18.832 21.045-14.065 34.412 4.767 13.367 18.836 21.042 32.7 17.84 13.864-3.204 23.112-16.265 21.495-30.36C71.199 44.822 59.232 34.18 45 34.18l-.024.005Z" fill="#4285F4"/></g></svg>