<svg xmlns="http://www.w3.org/2000/svg" width="90" height="90" viewBox="0 0 90 90"><defs><linearGradient id="a" x1="50%" x2="50%" y1="0%" y2="100%"><stop offset="0%" stop-color="#7D7D7D"/><stop offset="100%" stop-color="#5E5E5E"/></linearGradient></defs><g fill="none" fill-rule="evenodd"><rect width="90" height="90" fill="#F2F2F2"/><path fill="url(#a)" fill-rule="nonzero" d="M45.9614803,26.1385092 C48.7259216,26.1385092 53.9147622,22.3751662 59.3639696,22.9286408 C61.6446692,23.0225466 68.0528233,23.8477787 72.16605,29.8620134 C72.1291039,29.8862701 72.0030363,29.961999 71.8085694,30.0900295 L71.6256158,30.2125979 C69.870099,31.4087688 64.5328914,35.6167911 64.6082982,43.1966261 C64.7036237,53.783785 73.8961378,57.3052496 74,57.3536253 C73.9870556,57.391567 73.9419383,57.5411545 73.8620287,57.7854787 L73.795532,57.9862209 C73.2960009,59.4757296 71.8654272,63.3425283 69.1512013,67.3104776 C69.0243893,67.4959383 68.8973755,67.681356 68.7700253,67.8663909 L68.3868307,68.4200077 C65.6955173,72.282532 62.7964321,75.8264523 58.4420149,75.9056969 C53.7511437,75.9953342 52.2458535,73.1269412 46.8848578,73.1269412 C41.5238621,73.1269412 39.8506851,75.820328 35.4159124,75.9953342 C30.8146756,76.1703403 27.3075487,71.3896853 24.366684,67.1411627 C18.3512143,58.4491921 13.7570914,42.577702 19.9304885,31.8681811 C22.9894431,26.5468568 28.4685286,23.1776333 34.4128598,23.0894188 C38.931576,23.0097412 43.2027302,26.1385092 45.9614803,26.1385092 Z M59.4379536,6 C59.8875488,10.0977043 58.2342905,14.2139052 55.7942407,17.1762039 C53.3456543,20.1328113 49.3391353,22.4363472 45.4108685,22.131865 C44.8801755,18.108147 46.8606707,13.9264967 49.1257198,11.2999821 C51.6539813,8.34052901 55.9165989,6.1422814 59.4379536,6 Z"/></g></svg>