<svg viewBox="0 0 90 90" xmlns="http://www.w3.org/2000/svg"><g fill="none" fill-rule="evenodd"><path fill="#FFF" d="M0 0h90v90H0z"/><g fill-rule="nonzero"><path d="M27.545 38.433c0 .987.106 1.788.292 2.376.213.587.48 1.228.852 1.922.133.213.186.427.186.614 0 .267-.16.534-.505.8l-1.677 1.122c-.24.16-.479.24-.691.24-.267 0-.533-.133-.799-.374a8.256 8.256 0 0 1-.958-1.254 20.69 20.69 0 0 1-.824-1.575c-2.076 2.456-4.683 3.684-7.823 3.684-2.235 0-4.018-.64-5.321-1.922-1.304-1.282-1.97-2.99-1.97-5.126 0-2.27.799-4.111 2.422-5.5 1.623-1.388 3.778-2.082 6.519-2.082.904 0 1.836.08 2.82.214.985.133 1.996.347 3.06.587V30.21c0-2.029-.426-3.444-1.25-4.271-.852-.828-2.289-1.228-4.338-1.228-.93 0-1.889.107-2.873.347a21.15 21.15 0 0 0-2.874.908 7.618 7.618 0 0 1-.93.347c-.187.053-.32.08-.427.08-.372 0-.558-.267-.558-.828v-1.308c0-.427.053-.748.186-.934.133-.187.372-.374.745-.561.931-.48 2.049-.881 3.352-1.201 1.304-.347 2.688-.508 4.151-.508 3.166 0 5.481.721 6.971 2.163 1.464 1.441 2.209 3.63 2.209 6.567v8.65h.053ZM16.742 42.49c.878 0 1.783-.16 2.74-.481.959-.32 1.81-.908 2.528-1.709.426-.507.745-1.067.905-1.708.16-.64.266-1.415.266-2.323v-1.12a22.153 22.153 0 0 0-2.448-.455 19.983 19.983 0 0 0-2.5-.16c-1.783 0-3.087.347-3.965 1.068-.878.72-1.304 1.735-1.304 3.07 0 1.255.32 2.19.985 2.83.638.667 1.57.988 2.793.988Zm21.366 2.883c-.48 0-.798-.08-1.011-.267-.213-.16-.4-.534-.559-1.041l-6.253-20.637c-.16-.534-.24-.88-.24-1.067 0-.428.214-.668.64-.668h2.607c.505 0 .851.08 1.038.267.212.16.372.534.532 1.041l4.47 17.673 4.15-17.673c.134-.534.293-.88.506-1.04.213-.161.585-.268 1.064-.268h2.129c.505 0 .851.08 1.064.267.213.16.4.534.506 1.041l4.204 17.887 4.603-17.887c.16-.534.346-.88.532-1.04.213-.161.559-.268 1.037-.268h2.475c.426 0 .665.214.665.668 0 .133-.026.266-.053.427-.027.16-.08.373-.186.667l-6.413 20.636c-.16.534-.346.881-.558 1.041-.213.16-.56.267-1.011.267h-2.289c-.505 0-.851-.08-1.064-.267-.213-.186-.4-.533-.506-1.067l-4.124-17.22-4.097 17.193c-.133.534-.293.88-.506 1.068-.213.187-.585.267-1.064.267h-2.288Zm34.19.72a17.56 17.56 0 0 1-4.097-.48c-1.33-.32-2.369-.667-3.06-1.068-.426-.24-.719-.507-.825-.747a1.89 1.89 0 0 1-.16-.748v-1.36c0-.561.213-.828.612-.828.16 0 .32.027.48.08.159.054.398.16.664.267.905.4 1.89.72 2.927.934 1.064.214 2.102.32 3.166.32 1.677 0 2.98-.293 3.885-.88.905-.587 1.384-1.442 1.384-2.536 0-.748-.24-1.362-.719-1.869-.479-.507-1.383-.961-2.687-1.388l-3.858-1.202c-1.943-.614-3.38-1.521-4.257-2.723-.878-1.174-1.33-2.482-1.33-3.87 0-1.122.239-2.11.718-2.964a6.857 6.857 0 0 1 1.915-2.189c.799-.614 1.703-1.068 2.768-1.388 1.064-.32 2.181-.454 3.352-.454.585 0 1.197.027 1.783.107.612.08 1.17.187 1.73.293a20.62 20.62 0 0 1 1.516.428c.479.16.851.32 1.117.48.373.214.639.427.799.668.16.213.239.507.239.88v1.255c0 .56-.213.855-.612.855-.213 0-.559-.107-1.011-.32-1.517-.695-3.22-1.042-5.109-1.042-1.516 0-2.714.24-3.538.748-.825.507-1.25 1.28-1.25 2.375 0 .748.265 1.389.797 1.896.532.507 1.517 1.014 2.927 1.468l3.778 1.202c1.916.614 3.3 1.468 4.124 2.562.825 1.095 1.224 2.35 1.224 3.738 0 1.148-.24 2.189-.691 3.097a7.174 7.174 0 0 1-1.943 2.349c-.825.667-1.809 1.148-2.953 1.495-1.197.374-2.448.56-3.805.56Z" fill="#252F3E"/><path d="M77.327 59.069C68.573 65.556 55.855 69 44.919 69c-15.325 0-29.135-5.686-39.565-15.137-.824-.747-.08-1.762.905-1.174 11.281 6.567 25.197 10.545 39.592 10.545 9.711 0 20.38-2.03 30.199-6.194 1.463-.667 2.714.961 1.277 2.029Z" fill="#F90"/><path d="M80.972 54.904c-1.118-1.441-7.397-.694-10.244-.347-.851.107-.984-.64-.213-1.201 5.002-3.524 13.224-2.51 14.182-1.335.958 1.201-.266 9.45-4.949 13.402-.718.614-1.41.293-1.09-.508 1.063-2.642 3.431-8.596 2.314-10.01Z" fill="#F90"/></g></g></svg>