<svg viewBox="0 0 90 90" xmlns="http://www.w3.org/2000/svg"><defs><linearGradient x1="98.484%" y1="52.902%" x2="-1.451%" y2="52.902%" id="a"><stop stop-color="#22E6B8" offset="0%"/><stop stop-color="#00C1CE" offset="100%"/></linearGradient></defs><g fill="none" fill-rule="evenodd"><path fill="#FFF" d="M0 0h90v90H0z"/><path d="M40.216 22.95c-4.803-4.698-12.48-4.698-17.283 0a12.137 12.137 0 0 0 .047 17.218c4.791 4.759 12.516 4.783 17.337.055.086-.086.42-.452 1.013-1.107l-5.766-5.729c-.592.686-.904 1.045-.943 1.076a4.176 4.176 0 0 1-5.89 0 4.108 4.108 0 0 1-.055-5.807 4.176 4.176 0 0 1 5.844.047l15.413 15.3a23.172 23.172 0 0 1-18.92 9.899c-10.77.003-20.083-7.51-22.36-18.04-2.277-10.53 3.1-21.222 12.908-25.67 9.81-4.45 21.392-1.45 27.81 7.202-.675.79-2.412 2.756-5.212 5.9l5.711 5.62 9.413-10.562C52.98 4.248 37.255-3.06 22.413 1.216 7.573 5.493-1.855 20.049.309 35.346 2.473 50.643 15.568 62.01 31.013 62c7.792 0 14.237-2.424 20.54-7.794A33.148 33.148 0 0 0 60 42.639L40.216 22.951Z" transform="translate(15 14)" fill="url(#a)" fill-rule="nonzero"/></g></svg>