<svg viewBox="0 0 90 90" xmlns="http://www.w3.org/2000/svg"><g fill="none" fill-rule="evenodd"><path fill="#3A85ED" d="M0 0h90v90H0z"/><path d="M69 23.084a26.147 26.147 0 0 0-16.3-5.071c-12.395 0-22.31 7.536-22.31 17.684 0 5.87 3.68 9.061 9.54 11.16l5.483 1.956c3.756 1.304 5.559 2.9 5.559 5.437 0 5.001-4.282 8.334-10.892 8.334a25.716 25.716 0 0 1-13.521-3.914L21 66.425a31.762 31.762 0 0 0 17.202 4.565c15.624 0 25.314-8.26 25.314-19.204 0-5.726-3.605-9.494-10.29-11.886l-6.01-2.174c-3.455-1.231-4.808-2.827-4.808-4.856 0-3.478 3.982-6.378 8.714-6.378a18.664 18.664 0 0 1 11.568 3.552l6.31-6.96Z" fill="#FFF" fill-rule="nonzero"/></g></svg>