<svg xmlns="http://www.w3.org/2000/svg" width="90" height="90" viewBox="0 0 90 90"><g fill="none" fill-rule="evenodd"><rect width="90" height="90" fill="#FFF" opacity="0"/><path fill="#FF5900" fill-rule="nonzero" d="M76.1368508,69.4192511 L74.7147568,70.3423794 C56.6309051,82.7318561 32.7358335,82.7073622 14.6776587,70.2808375 L13.2555647,69.3577092 L8,78.342825 L9.23660346,79.1428696 C30.6619073,93.6190435 58.7923384,93.6190435 80.2176422,79.1428696 L81.4542457,78.342825 L76.1368508,69.4192511 Z M22.0354493,60.6803028 L57.8969497,0 L71.3140973,0 L35.514427,60.6803028 L22.0354493,60.6803028 Z M36.6273702,5.23106058 C33.7616313,2.32747425 29.8344391,0.706176761 25.7452597,0.738502671 C21.4789777,0.738502671 17.7691674,2.21550801 14.801319,5.1695187 C11.8665326,8.03063411 10.2546686,11.9746579 10.3495466,16.0624331 C10.3495466,20.3703653 11.8334707,24.0013368 14.801319,26.9553475 C17.645507,29.8478163 21.6026381,31.5094473 25.7452597,31.3863635 C29.9497115,31.3863635 33.5976917,29.8478163 36.6273702,26.8938056 C39.5952185,23.878253 41.1409728,20.2472816 41.1409728,16.0624331 C41.2024865,11.9867359 39.5690407,8.0669267 36.6273702,5.23106058 Z M30.0733718,20.3703653 C28.9790309,21.5535393 27.4220593,22.2048676 25.8070899,22.1550801 C24.1595894,22.1856793 22.5720106,21.540255 21.4171476,20.3703653 C20.2186969,19.26211 19.5641671,17.6895767 19.6240725,16.0624331 C19.6240725,14.3392602 20.2423743,12.9237967 21.4171476,11.7545008 C22.5919209,10.5852049 24.1376752,9.90824417 25.8070899,9.96978606 C27.4765045,9.96978606 28.9604287,10.5852049 30.135202,11.7545008 C31.2903,12.8971342 31.9346757,14.454464 31.9230437,16.0753636 C31.9114116,17.6962633 31.244751,19.2442722 30.0733718,20.3703653 L30.0733718,20.3703653 Z M78.4863974,35.571212 C75.6288626,32.6555506 71.6962572,31.0320184 67.6042869,31.0786541 C63.3380049,31.0786541 59.6281946,32.5556594 56.6603462,35.5096701 C53.7413958,38.3560323 52.1308789,42.2744958 52.2085738,46.3410426 C52.2085738,50.6489748 53.6924979,54.2799463 56.6603462,57.233957 C59.5045342,60.1264258 63.4616653,61.7880568 67.6042869,61.664973 C71.8087387,61.664973 75.4567189,60.1264258 78.4863974,57.1724151 C81.4542457,54.1568625 83,50.5258911 83,46.3410426 C83,42.2792779 81.3924155,38.340597 78.4863974,35.571212 L78.4863974,35.571212 Z M71.932399,50.7105167 C70.7924474,51.8648538 69.2304192,52.5089626 67.6042869,52.4952315 C65.9596324,52.5297859 64.3729124,51.890437 63.2155669,50.7268517 C62.0582214,49.5632665 61.4318565,47.9775989 61.4830998,46.3410426 C61.4830998,44.6178697 62.1014015,43.2024062 63.2761748,42.0331103 C64.4509481,40.8638145 65.9967024,40.1868537 67.6661171,40.2483956 C69.3355317,40.2483956 70.8194559,40.8638145 71.9942292,42.0331103 C74.4674361,44.433244 74.4674361,48.3719249 71.932399,50.7105167 L71.932399,50.7105167 Z"/></g></svg>