<svg viewBox="0 0 90 90" xmlns="http://www.w3.org/2000/svg"><g fill="none" fill-rule="evenodd"><path d="M77 18.916c-1.6-1-3.4-2.1-5.3-3.3l3.8-8.7-9.5 5.5c-4.3-2.4-8.7-4.8-12.3-7-5.8-3.5-11.3-2.9-16.3-.1-3.9 2.2-8.7 4.9-13.3 7.6l-10.8-6.3 4.4 10c-2 1.2-3.8 2.2-5.4 3.1-5 2.8-5.3 6.1-5.3 9.2v31c0 4.6 1.9 7.9 7.7 11.6 7.4 4.6 19 10.7 25.4 14.9 2.7 1.8 7.5 1.5 10.6 0 7.3-3.4 19.3-10.8 26.8-15.2 5.3-3.1 6.4-7.8 6.4-12.1v-30.5c.1-4.3-2.8-7-6.9-9.7Zm-2.8 36.7c0 3.2-.8 6.7-4.7 9-5.6 3.3-14.5 8.8-20 11.3-2.4 1.1-5.9 1.3-7.9 0-4.8-3.1-13.4-7.7-18.9-11.1-4.3-2.7-5.7-5.2-5.7-8.6v-23.1c0-2.3.2-4.7 4-6.8 4.9-2.8 13.1-7.6 18.7-10.8 3.7-2.1 7.8-2.5 12.1.1 5.1 3.1 12.6 7 17.3 10.1 3.1 2 5.2 4 5.2 7.3-.1 5.7-.1 16.1-.1 22.6Z" fill="#333" fill-rule="nonzero"/><path d="M46.3 73.916v-6.5l24.7-13v5.2l-24.7 14.3Zm0-24.7 24.7-2.6v4.9l-24.7 9.1v-11.4Zm0-18.1 24.7 7.9v4.9l-24.7-1.3v-11.5Zm0-14.5 24.7 14.3v5.2l-24.7-11.8v-7.7Z" fill="#FF7800"/><path d="m45.7 24.216-24.4 11.5v-4.8l24.4-14.1v7.4Zm0 18.3-24.4 1.3v-5.1l24.4-7.8v11.6Zm0 18.3-24.4-9v-5l24.4 2.5v11.5Zm0 12.8-24.4-14v-4.8l24.4 12.8v6Z" fill="#FFAB00"/></g></svg>