<svg viewBox="0 0 90 90" xmlns="http://www.w3.org/2000/svg"><path d="M5.884 4.025H0v.147c5.394 2.134 8.041 6.23 10.15 15.77L24.664 87h3.285L13.36 19.403C10.836 7.826 8.19 5.693 5.884 4.025Zm11.032 0H11.4v.147c2.476 2.967 3.187 6.647 5.149 14.667L31.283 87h3.285L19.81 18.618c-2.084-8.78-2.427-11.209-2.893-14.593ZM36.824 82.29l2.182-4.538-12.259-57.835C24.59 10.94 25.08 6.82 25.963 4.024h-4.756c-.074 3.654.098 6.695 1.863 14.372L36.824 82.29Zm4.388-9.173 2.207-4.611-9.856-47.583c-1.839-9.247-1.054-14.054 2.01-16.777V4h-5.246c-1.618 3.434-2.109 6.892-.245 16.016l11.13 53.102Zm4.413-9.198 2.207-4.636-7.478-38.09c-2.06-10.719.417-15.404 8.826-17.022v-.147h-7.796c-2.256 1.103-7.012 4.513-4.34 17.218l8.581 42.677Zm14.637-30.365.22.147c5.222-17.34 6.89-25.017 2.28-29.702h-6.521v.147c7.281 2.6 8.924 10.032 4.02 29.408Zm.44.295.221.147c8.213-19.45 10.346-24.773 13.73-29.85V4h-6.669v.196c.687 7.775-1.986 14.913-7.281 29.654ZM80.93 4.025C73.99 8.072 69.872 15.6 61.144 34.144l.22.147C71.368 15.528 77.08 8.047 90 4.171v-.146h-9.071Z" fill="#258DF3"/></svg>