<svg viewBox="0 0 90 90" xmlns="http://www.w3.org/2000/svg"><path d="M33.555 32.896v-5.409c.53-.033 1.06-.066 1.59-.066 14.708-.468 24.347 12.754 24.347 12.754S49.091 54.733 37.928 54.733c-1.49 0-2.948-.234-4.34-.701V37.604c5.731.702 6.89 3.24 10.302 9.015l7.652-6.477s-5.598-7.38-15.005-7.38c-.994-.032-1.988.034-2.982.134m0-17.896v8.08l1.59-.1c20.438-.701 33.788 16.895 33.788 16.895S53.629 58.639 37.696 58.639a24.09 24.09 0 0 1-4.107-.367v5.008c1.126.134 2.285.234 3.411.234 14.84 0 25.573-7.646 35.974-16.66 1.722 1.401 8.778 4.774 10.235 6.243-9.87 8.347-32.892 15.058-45.944 15.058a32.56 32.56 0 0 1-3.643-.2V75H90V15H33.555Zm0 39.032v4.274c-13.713-2.471-17.523-16.862-17.523-16.862s6.592-7.346 17.523-8.548v4.675h-.033c-5.73-.701-10.235 4.708-10.235 4.708s2.55 9.115 10.268 11.753M9.21 40.843s8.115-12.087 24.38-13.356V23.08C15.569 24.55 0 39.908 0 39.908s8.811 25.71 33.555 28.047V63.28C15.403 61.01 9.21 40.843 9.21 40.843Z" fill="#76B900"/></svg>