<svg viewBox="0 0 90 90" xmlns="http://www.w3.org/2000/svg"><defs><linearGradient x1="75.586%" y1="5.931%" x2="25.144%" y2="107.595%" id="a"><stop stop-color="#50FFD2" offset="0%"/><stop stop-color="#0064FF" offset="100%"/></linearGradient><linearGradient x1="61.202%" y1="-4.406%" x2="39.118%" y2="121.105%" id="b"><stop stop-color="#0D7DF8" stop-opacity="0" offset="0%"/><stop stop-color="#0B7AF8" offset="100%"/></linearGradient></defs><g fill="none" fill-rule="evenodd"><path fill="#FFF" d="M0 0h90v90H0z"/><path d="M19.318 39.157a1.313 1.313 0 0 1-.646-.177l-6.256-3.677a1.416 1.416 0 0 1-.645-1.661 1.324 1.324 0 0 1 1.698-.815c.075.025.147.06.213.105l6.262 3.678c.615.363.856 1.143.555 1.799a1.33 1.33 0 0 1-1.181.748Zm10.814-11.031a1.326 1.326 0 0 1-1.149-.657l-3.609-6.363a1.416 1.416 0 0 1 .252-1.766 1.278 1.278 0 0 1 1.866.157c.052.062.1.128.142.197l3.609 6.33c.37.615.22 1.415-.349 1.846a1.335 1.335 0 0 1-.762.256Zm13.449-5.464V15.44a1.41 1.41 0 0 1 1.29-1.438 1.31 1.31 0 0 1 .963.362c.26.247.411.59.42.952v7.426c0 .747-.596 1.353-1.33 1.353h-.059a1.41 1.41 0 0 1-1.284-1.432Zm16.102 5.464a1.277 1.277 0 0 1-.756-.243 1.414 1.414 0 0 1-.336-1.858l3.61-6.357a1.324 1.324 0 0 1 1.814-.499 1.8 1.8 0 0 1 .193.145c.488.452.594 1.192.252 1.766l-3.615 6.363a1.326 1.326 0 0 1-1.162.683Zm10.814 11.031c-.491 0-.943-.275-1.175-.715a1.41 1.41 0 0 1 .574-1.832l6.211-3.645a1.333 1.333 0 0 1 1.718.256 1.327 1.327 0 0 1-.142 1.898 1.073 1.073 0 0 1-.194.145l-6.327 3.716a1.313 1.313 0 0 1-.665.177ZM28.086 69.915c-6.28-6.348-8.575-15.717-5.955-24.319 2.62-8.602 9.722-15.011 18.43-16.635 8.709-1.624 17.584 1.806 23.034 8.903.407.525.794 1.077 1.15 1.628l-2.209 1.484a15.443 15.443 0 0 0-1.026-1.444c-4.83-6.347-12.733-9.43-20.496-7.994-7.763 1.435-14.095 7.148-16.42 14.817-2.325 7.669-.257 16.016 5.364 21.649l-1.872 1.91ZM61.865 77H25.258a15.24 15.24 0 0 1-10.84-4.663A15.774 15.774 0 0 1 10 61.24h2.648a13.046 13.046 0 0 0 3.643 9.193 12.609 12.609 0 0 0 8.972 3.868h36.588c6.136.033 11.713-3.62 14.221-9.316 2.509-5.696 1.477-12.36-2.632-16.996l1.937-1.799c4.775 5.437 5.963 13.22 3.035 19.873C75.485 72.717 68.987 77 61.82 77h.045Zm-15.54-18.603H43.67c.053-7.636 4.718-14.452 11.74-17.156 7.022-2.703 14.955-.737 19.967 4.95l-1.937 1.798c-4.26-4.913-11.066-6.633-17.092-4.32-6.027 2.313-10.018 8.177-10.024 14.728Z" fill="url(#a)" fill-rule="nonzero"/><path d="M12.649 61.273h-2.647c.026-5.64 3.015-10.657 7.568-13.38l1.285 2.33c-3.74 2.263-6.188 6.402-6.206 11.05Z" fill="url(#b)" fill-rule="nonzero"/></g></svg>