<svg viewBox="0 0 90 90" xmlns="http://www.w3.org/2000/svg"><g fill="none" fill-rule="evenodd"><path d="M76.917 0H13.083C7.91 0 6 1.899 6 7.046v62.107c0 .582.024 1.123.075 1.625.118 1.123.14 2.212 1.191 3.451.103.122 1.176.916 1.176.916.577.281.97.488 1.622.749l31.432 13.094c1.632.744 2.314 1.034 3.5 1.01h.009c1.185.024 1.867-.266 3.499-1.01l31.432-13.094c.651-.26 1.045-.468 1.622-.75 0 0 1.073-.793 1.176-.915 1.05-1.24 1.073-2.328 1.19-3.451.052-.502.076-1.043.076-1.625V7.046C84 1.899 82.09 0 76.917 0" fill="#2F2D2E"/><path d="m34.313 58.093-1.219 3.044h2.424l-1.205-3.044Zm2.84 7.212c-.281-.646-.502-1.319-.79-1.962h-4.116c-.28.646-.501 1.319-.789 1.962h-2.896c1.518-3.555 3.056-7.317 4.446-10.5h2.653c1.536 3.567 3.039 7.31 4.447 10.5h-2.955Zm12.325 0v-6.166l-2.726 4.176h-.057L44 59.168v6.137h-2.726V54.877h2.94l2.54 4.104 2.553-4.104h2.94v10.428h-2.768Zm4.886 0V54.877h8.29v2.364h-5.552v1.705h4.992v2.22h-4.992v1.776h5.624v2.363h-8.362Zm13.988.172c-1.86-.054-3.308-.53-4.647-1.704l1.564-1.862c.923.756 2.008 1.14 3.184 1.246.586.013 1.336-.066 1.406-.774.043-.9-2.159-1.112-3.242-1.475-1.543-.485-2.56-1.47-2.439-2.908-.039-2.255 2.177-3.448 4.132-3.294 1.479-.016 2.873.496 4.044 1.375l-1.391 1.977c-.832-.588-1.845-1.032-2.883-1.032-.503-.011-1.063.179-1.104.745.062.812 1.301.884 2.223 1.175 1.948.57 3.487 1.06 3.457 3.18.016 2.462-2.057 3.35-4.304 3.35ZM22.786 31.284h6.216v-4.782h-6.216v-9.76h6.464V11.96H17.507v34.507h11.841v-4.781h-6.562V31.284Zm44.526 1.035v7.79c0 1.38-.642 2.02-1.973 2.02h-.987c-1.381 0-2.023-.64-2.023-2.02v-21.79c0-1.38.642-2.02 2.023-2.02h.888c1.332 0 1.974.64 1.974 2.02v6.754h5.18v-7.05c0-4.288-2.073-6.359-6.364-6.359h-2.566c-4.292 0-6.414 2.12-6.414 6.409v22.282c0 4.289 2.122 6.408 6.414 6.408h2.615c4.293 0 6.414-2.12 6.414-6.408v-8.036h-5.18ZM48.98 46.467h5.28V11.96h-5.28v34.507Zm-7.66-19.176c0 1.38-.641 2.022-1.973 2.022h-2.171v-12.72h2.17c1.333 0 1.974.641 1.974 2.022v8.676ZM40.185 11.96h-8.288v34.507h5.279V33.946h3.01c4.292 0 6.413-2.12 6.413-6.408v-9.17c0-4.289-2.121-6.408-6.414-6.408" fill="#FFF" fill-rule="nonzero"/><path fill="#FFF" d="M29.96 77.669h30.222l-15.426 5.058z"/><path d="M27.505 63.892c-1.363 1.081-2.747 1.611-4.318 1.6-1.134-.008-1.71-.051-2.66-.466-.826-.36-1.575-.915-2.101-1.569-.724-.9-1.109-2.201-1.091-3.307.019-1.228.148-1.737.655-2.616.516-.896 1.19-1.64 2.133-2.151.823-.445 1.873-.734 3.064-.706 1.877.043 3.193.779 3.95 1.501l-1.64 1.988c-.785-.604-1.264-.894-2.555-1.013-.339-.03-.89.074-1.316.346-1.19.759-1.422 1.982-1.425 2.56-.002.49.1.941.351 1.535.33.78 1.28 1.503 2.51 1.51 1.137.008 1.54-.342 1.787-.48v-1.292l-2.081.001-.008-2.105 4.739.004.006 4.66Z" fill="#FFF" fill-rule="nonzero"/></g></svg>