<svg viewBox="0 0 90 90" xmlns="http://www.w3.org/2000/svg"><g fill="none" fill-rule="evenodd"><path fill="#1F1F1F" d="M0 0h90v90H0z"/><g fill="#FFF"><path d="M65.77 43.668v13.331L45 69 24.23 57v-5.333l20.769 12L49.615 61 35.77 53l4.616-2.667 13.846 8 4.617-2.666-13.848-8L49.615 45l11.539 6.667v-5.334l-6.923-4 4.615-2.667zM49.615 23.667 24.231 38.332V33L45 21zm-30 6.667v29.333L15 57V33z"/><path d="M75 33v24l-4.615 2.667V40.999L54.23 31.667l-13.846 8L35.769 37l18.462-10.666 16.154 9.333v-5.333z"/></g></g></svg>