<svg viewBox="0 0 90 90" xmlns="http://www.w3.org/2000/svg"><path d="m76.137 69.42-1.422.922c-18.084 12.39-41.98 12.365-60.037-.061l-1.422-.923L8 78.343l1.237.8c21.425 14.476 49.555 14.476 70.98 0l1.237-.8-5.317-8.924Zm-54.102-8.74L57.897 0h13.417l-35.8 60.68H22.035ZM36.627 5.231A15.122 15.122 0 0 0 25.745.74c-4.266 0-7.976 1.477-10.944 4.43a14.735 14.735 0 0 0-4.451 10.893c0 4.308 1.483 7.94 4.451 10.893 2.845 2.893 6.802 4.554 10.944 4.431 4.205 0 7.853-1.538 10.882-4.492 2.968-3.016 4.514-6.647 4.514-10.832a14.736 14.736 0 0 0-4.514-10.83Zm-6.554 15.14a5.577 5.577 0 0 1-4.266 1.784 6.012 6.012 0 0 1-4.39-1.785 5.587 5.587 0 0 1-1.793-4.308c0-1.723.618-3.138 1.793-4.307 1.175-1.17 2.72-1.847 4.39-1.785 1.67 0 3.153.615 4.328 1.785a6.017 6.017 0 0 1 1.788 4.32 6.018 6.018 0 0 1-1.85 4.295Zm48.413 15.2a14.998 14.998 0 0 0-10.882-4.492c-4.266 0-7.976 1.477-10.944 4.43a14.735 14.735 0 0 0-4.451 10.832c0 4.308 1.483 7.939 4.451 10.893 2.845 2.892 6.802 4.554 10.944 4.431 4.205 0 7.853-1.539 10.882-4.493C81.454 54.157 83 50.526 83 46.341c0-4.062-1.608-8-4.514-10.77Zm-6.554 15.14a6.012 6.012 0 0 1-4.328 1.784 6.012 6.012 0 0 1-4.388-1.768 5.955 5.955 0 0 1-1.733-4.386c0-1.723.618-3.139 1.793-4.308 1.175-1.17 2.72-1.846 4.39-1.785 1.67 0 3.153.616 4.328 1.785 2.473 2.4 2.473 6.339-.062 8.678Z" fill="#FF5900"/></svg>