<svg viewBox="0 0 90 90" xmlns="http://www.w3.org/2000/svg"><defs><linearGradient x1="42.882%" y1="-23.267%" x2="53.561%" y2="86.232%" id="a"><stop stop-color="#022BD1" offset="0%"/><stop stop-color="#023ED1" offset="12%"/><stop stop-color="#016FD0" offset="38%"/><stop stop-color="#01BECE" offset="73%"/><stop stop-color="#00FFCD" offset="100%"/></linearGradient><linearGradient x1="57.109%" y1="123.203%" x2="46.435%" y2="13.813%" id="b"><stop stop-color="#022BD1" offset="0%"/><stop stop-color="#023ED1" offset="12%"/><stop stop-color="#016FD0" offset="38%"/><stop stop-color="#01BECE" offset="73%"/><stop stop-color="#00FFCD" offset="100%"/></linearGradient></defs><g fill="none"><path d="M53.104 80.567c-20.327 0-36.805-16.406-36.805-36.644 0-.716.026-1.433.069-2.15v-.016c0-.169.02-.325.032-.504.03-.45.072-.9.125-1.342 1.688-14.068 13.48-24.777 27.705-25.16 14.225-.384 26.582 9.673 29.033 23.629-2.923-18.825-19.83-32.292-38.919-31C15.256 8.674.336 24.296 0 43.34c.005 2.372.198 4.74.58 7.082.019.11.035.224.058.325-.023-.114-.04-.228-.059-.325C4.12 72.085 22.913 87.998 44.957 88c22.731 0 41.608-16.706 44.624-38.51-2.66 17.674-18.055 31.077-36.477 31.077Z" fill="url(#a)" transform="translate(0 1)"/><path d="M36.9 7.433c20.325.002 36.8 16.407 36.8 36.644 0 .716-.022 1.433-.065 2.15v.025l-.03.505c-.032.45-.075.9-.127 1.342a35.757 35.757 0 0 1-.422 2.82c.18-.934.327-1.875.422-2.82C71.8 62.173 60.007 72.891 45.777 73.275c-14.23.384-26.589-9.682-29.03-23.645C19.68 68.446 36.583 81.9 55.664 80.606 74.744 79.31 89.659 63.698 90 44.66a44.705 44.705 0 0 0-.576-7.082c-.02-.11-.039-.224-.062-.325.023.114.043.228.062.325C85.881 15.915 67.088.002 45.043 0 22.312 0 3.399 16.794.383 38.598 3.043 20.928 18.474 7.433 36.9 7.433Z" fill="url(#b)" transform="translate(0 1)"/></g></svg>