<svg viewBox="0 0 90 90" xmlns="http://www.w3.org/2000/svg"><g fill="none" fill-rule="evenodd"><path fill="#FFF" d="M0 0h90v90H0z"/><g fill="#000" fill-rule="nonzero"><path d="m78.635 71.287-31.1-47.803H34.568l29.736 46.293h-45.09V38.234L10 24.019v50.87c0 1.314.487 2.628 1.365 3.602.877.974 2.047 1.509 3.266 1.509h60.787c1.852 0 3.51-1.217 4.24-3.115.683-1.948.293-4.138-1.023-5.598Z"/><path d="m11.365 18.713 31.051 47.803h13.016L25.696 20.223h45.09v31.592L80 66.029V15.111c0-1.314-.487-2.628-1.365-3.602C77.758 10.535 76.588 10 75.37 10H14.582c-1.852.049-3.51 1.266-4.24 3.164-.683 1.899-.293 4.09 1.023 5.55Z"/></g></g></svg>