<svg viewBox="0 0 90 90" xmlns="http://www.w3.org/2000/svg"><g fill="none" fill-rule="evenodd"><path fill="#0081FB" d="M0 0h90v90H0z"/><path d="M71.563 55.956c-.975 0-1.462-.244-1.706-.487-.244-.244-.487-.732-.487-1.706 0-.732.243-1.707.487-3.17l2.193-10.968.488-1.706c.244-.975.244-1.706.487-2.681 0-.732.244-1.463.244-2.438 0-2.681-.731-4.631-2.193-5.85C69.37 25.731 67.664 25 65.47 25s-4.143.488-5.85 1.219c-1.949.731-3.898 2.194-5.848 4.387-.244-1.95-.975-3.412-2.193-4.144C50.118 25.488 48.655 25 46.706 25c-4.143 0-8.042 1.706-11.698 5.363-.243-1.22-.974-2.438-1.95-3.17C31.354 25.732 29.16 25 26.236 25c-2.193 0-4.143.488-5.848 1.462-.975.244-1.706.732-2.437 1.22L16 36.455l.487-.487c.488-.732 1.219-1.219 1.95-1.95.731-.488 1.462-.975 2.193-1.219.731-.244 1.706-.487 2.437-.487.488 0 .975.243 1.462.73.488.488.732 1.22.732 2.194 0 .488 0 1.22-.244 2.194v.488l-5.362 25.106h9.505l5.117-24.375c1.219-1.95 2.681-3.169 3.9-4.144 1.218-.975 2.68-1.462 3.899-1.462.73 0 1.462.244 1.706.487.243.244.487.732.487 1.463 0 .975-.244 2.194-.487 3.656l-5.118 24.375h9.017l5.117-24.375c.975-1.706 2.437-3.169 3.656-4.144 1.462-.975 2.68-1.462 3.899-1.462.975 0 1.462.244 1.706.487.244.244.487.732.487 1.706 0 .732-.243 1.707-.487 3.17l-.975 5.362-1.706 7.556c-.244.975-.244 1.706-.487 2.681 0 .731-.244 1.463-.244 2.438 0 2.681.731 4.631 2.193 5.85C62.303 63.513 64.008 64 66.202 64c2.193 0 4.143-.487 5.848-1.219h.244L74 55.225c-.244.244-1.462.731-2.437.731Z" fill="#FFF" fill-rule="nonzero"/></g></svg>