<svg viewBox="0 0 90 90" xmlns="http://www.w3.org/2000/svg"><g fill="none" fill-rule="evenodd"><path fill="#5333ED" d="M0 0h90v90H0z"/><path d="M29.992 15.16H19.576a2.41 2.41 0 0 0-1.715.712 2.447 2.447 0 0 0-.711 1.726v55.079a2.442 2.442 0 0 0 2.426 2.45h10.397a2.417 2.417 0 0 0 1.714-.72c.454-.46.708-1.082.706-1.73v-55.08a2.43 2.43 0 0 0-2.413-2.437h.012Zm42.574 4.153a2.465 2.465 0 0 0 .365-2.61 2.432 2.432 0 0 0-2.196-1.433H59.058a2.39 2.39 0 0 0-1.831.857L33.763 43.61c-.81.92-.81 2.304 0 3.225L57.227 74.31c.456.54 1.126.852 1.83.851h11.665a2.432 2.432 0 0 0 2.202-1.435 2.465 2.465 0 0 0-.37-2.615l-20.84-24.283a2.458 2.458 0 0 1 0-3.225l20.852-24.289Z" fill="#FFF" fill-rule="nonzero"/></g></svg>