<svg viewBox="0 0 90 90" xmlns="http://www.w3.org/2000/svg"><g fill="none" fill-rule="evenodd"><path fill="#F56A28" d="M0 0h90v90H0z"/><path d="M53.976 24.84C51.631 27.96 51.064 29 48.8 29H15v40h13.262c2.992 0 5.902-1.44 7.762-3.84 2.426-3.2 2.749-4.16 5.094-4.16H75V21H61.657c-2.992 0-5.902 1.44-7.682 3.84h.001Zm10.511 25.84h-14.15c-3.074 0-5.903 1.28-7.763 3.76-2.426 3.2-2.912 4.16-5.176 4.16H25.431V39.4h14.151c3.072 0 5.903-1.44 7.762-3.84 2.427-3.12 3.074-4.08 5.256-4.08h11.887v19.2Z" fill="#FFF" fill-rule="nonzero"/></g></svg>