<svg xmlns="http://www.w3.org/2000/svg" width="90" height="90" viewBox="0 0 90 90"><g fill="none" fill-rule="evenodd"><rect width="90" height="90" fill="#000"/><path fill="#FFF" fill-rule="nonzero" d="M57.1431904,11.3979658 L59.8555519,14.1189993 C59.9539519,14.2178348 60.1845921,14.4495745 59.7177918,14.9317135 C59.5176317,15.1385337 59.3351116,15.2441107 59.1755115,15.2453145 C59.0352314,15.2453145 58.9425914,15.1713986 58.8701114,15.0988069 L56.1513899,12.3713448 L53.4371085,15.1110861 C53.2177483,15.3313893 52.9608282,15.2797444 52.629628,14.9479654 C52.2927878,14.608241 52.2377078,14.3473683 52.4562279,14.1269447 L55.1708694,11.3874322 L52.512148,8.72007797 L52.493188,8.70145453 C52.4285079,8.63852967 52.3308279,8.54359464 52.3295079,8.38878047 C52.3283079,8.2291389 52.4342679,8.04112275 52.644628,7.83002894 C52.8222281,7.65171576 52.9904682,7.56137941 53.1450283,7.56137941 C53.3192684,7.56152387 53.4305085,7.67343308 53.4933885,7.73645425 L56.1621899,10.4139207 L58.8912314,7.67579261 C58.9256714,7.64136271 59.0217914,7.56194521 59.1761115,7.56194521 L59.1816315,7.56194521 C59.3541916,7.56401582 59.5358717,7.66445242 59.7217518,7.86026946 C60.027992,8.18291134 60.079112,8.45170533 59.8735519,8.65912742 L57.1431904,11.3979658 Z M47.3444652,15.3068309 C45.3344641,15.1534613 43.7599433,13.3799603 43.7599433,11.2692148 L43.7599433,4.59507496 C43.7599433,4.20843682 44.0529835,4.1292962 44.4927837,4.1292962 C44.9325839,4.1292962 45.2256241,4.20843682 45.2256241,4.59507496 L45.2256241,11.2849129 C45.2256241,12.5999907 46.1792646,13.7291951 47.3965452,13.8555986 C48.0954256,13.9271068 48.767186,13.7076463 49.2896662,13.2348973 C49.8025465,12.7711771 50.0967867,12.1043807 50.0970267,11.4053935 C50.0970267,11.205351 49.9993466,10.5538674 49.5536664,9.9491291 C49.2165862,9.49217451 48.5780659,8.94786908 47.4458653,8.94786908 C47.4397453,8.94772462 47.4314653,8.94786908 47.4243853,8.94786908 C47.1338651,8.94786908 46.885825,8.93413324 46.8380649,8.24366928 C46.8060249,7.77905824 46.8086649,7.57129907 47.2087451,7.51542873 C47.9223855,7.41611171 48.6500659,7.55605842 49.3711463,7.93203053 C50.6024669,8.57467786 51.4273474,9.79238879 51.5243074,11.1102233 C51.6085475,12.2548128 51.1970673,13.371413 50.3952268,14.1738946 C49.5903864,14.9791449 48.4789458,15.3915814 47.3444652,15.3068309 Z M5.729763,10.8834675 C4.28953423,11.0908896 2.88511349,10.7065147 1.74122488,9.82319512 L1.74122488,13.7981753 L8.45560046,13.7981753 C8.68884458,13.7981753 8.85614867,13.8403098 8.85614867,14.5314358 C8.85614867,15.2058285 8.58529653,15.2325538 8.40656843,15.2325538 L0.971578064,15.2325538 C0.539859834,15.2325538 0.311437312,14.8822356 0.311437312,14.4938759 L0.311437312,7.97012011 C0.311437312,7.62806025 0.527577827,7.51214224 0.929860042,7.43224321 C1.28203263,7.36232402 1.48654874,7.40318244 1.64053282,7.57440499 L1.65674483,7.59946899 C2.36508121,8.62372241 3.90632603,9.61590546 5.37126281,9.43602728 C7.11984375,9.22140621 8.5277805,7.82203542 8.7203446,6.10877469 C8.84321266,5.01557721 8.51068049,3.96470683 7.7846321,3.14971738 C7.06785972,2.34506894 6.04176317,1.88351567 4.9698746,1.88351567 C3.38193775,1.88351567 1.99406501,2.9074922 1.4161447,4.39362393 C1.33059666,4.61365026 1.18607818,4.77655425 0.560531045,4.54838995 C-0.0142500616,4.33874075 -0.0475781594,4.09609422 0.0316874029,3.87634478 C0.784077964,1.79793449 2.76853342,0.401334464 4.9696466,0.401334464 C6.46040739,0.401334464 7.88710015,1.04252202 8.88389269,2.16064025 C9.89386123,3.29319135 10.3525855,4.75322378 10.1836494,6.27181111 C9.91889324,8.64893087 8.08472826,10.5453081 5.729763,10.8834675 Z M34.7593385,1.98067781 C31.5160968,1.98067781 28.8774154,4.62771114 28.8774154,7.88128856 C28.8774154,11.1349984 31.5160968,13.7820438 34.7593385,13.7820438 C38.0023402,13.7820438 40.6407816,11.1349984 40.6407816,7.88128856 C40.6407816,4.62771114 38.0023402,1.98067781 34.7593385,1.98067781 Z M34.7593385,15.3813488 C30.6367363,15.3813488 27.2828545,12.0168132 27.2828545,7.88128856 C27.2828545,3.74576396 30.6367363,0.38134875 34.7593385,0.38134875 C38.8817007,0.38134875 42.2353425,3.74576396 42.2353425,7.88128856 C42.2353425,12.0168132 38.8817007,15.3813488 34.7593385,15.3813488 Z M18.5796099,1.98067781 C15.3363681,1.98067781 12.6978067,4.62771114 12.6978067,7.88128856 C12.6978067,11.1349984 15.3363681,13.7820438 18.5796099,13.7820438 C21.8227316,13.7820438 24.461173,11.1349984 24.461173,7.88128856 C24.461173,4.62771114 21.8227316,1.98067781 18.5796099,1.98067781 Z M11.1031499,7.88128856 C11.1031499,3.74576396 14.4571277,0.38134875 18.5796099,0.38134875 C22.7019721,0.38134875 26.0557338,3.74576396 26.0557338,7.88128856 C26.0557338,12.0168132 22.7019721,15.3813488 18.5796099,15.3813488 C14.4571277,15.3813488 11.1031499,12.0168132 11.1031499,7.88128856 Z" transform="matrix(1 0 0 -1 15 52.881)"/></g></svg>