<svg viewBox="0 0 90 90" xmlns="http://www.w3.org/2000/svg"><g fill="none" fill-rule="evenodd"><path fill="#FFF" d="M0 0h90v90H0z"/><path d="m77.463 55.498-7.55-4.352a2.189 2.189 0 0 1-1.096-1.89v-8.704a5.074 5.074 0 0 0-2.542-4.392l-7.55-4.352a2.198 2.198 0 0 1-1.092-1.895V21.21a5.084 5.084 0 0 0-2.542-4.401L45 11l-10.091 5.809a5.088 5.088 0 0 0-2.533 4.4v8.704a2.198 2.198 0 0 1-1.092 1.895l-7.559 4.352a5.083 5.083 0 0 0-2.537 4.392v8.704c0 .78-.417 1.5-1.092 1.89l-7.554 4.352A5.097 5.097 0 0 0 10 59.894v11.617l10.091 5.809a5.082 5.082 0 0 0 5.08 0l7.55-4.352a2.2 2.2 0 0 1 2.188 0l7.55 4.352a5.095 5.095 0 0 0 5.083 0l7.55-4.352a2.2 2.2 0 0 1 2.188 0l7.55 4.352a5.082 5.082 0 0 0 5.079 0L80 71.51V59.894a5.092 5.092 0 0 0-2.537-4.396ZM54.75 21.21v8.703a5.088 5.088 0 0 0 2.542 4.393l7.55 4.351a2.193 2.193 0 0 1 1.096 1.895v8.704a5.083 5.083 0 0 0 2.538 4.392L76.027 58a2.189 2.189 0 0 1 1.095 1.894v8.298L46.445 50.516V15.169l7.201 4.15a2.184 2.184 0 0 1 1.105 1.89ZM13.987 58l7.55-4.352a5.088 5.088 0 0 0 2.542-4.392v-8.704c0-.78.415-1.503 1.092-1.895l7.55-4.351a5.088 5.088 0 0 0 2.541-4.393V21.21a2.193 2.193 0 0 1 1.092-1.89l7.21-4.151v35.347l-30.67 17.676v-8.298c0-.78.416-1.502 1.092-1.894Zm54.476 16.845a2.2 2.2 0 0 1-2.188 0l-7.55-4.352a5.082 5.082 0 0 0-5.079 0l-7.55 4.352a2.2 2.2 0 0 1-2.188 0l-7.55-4.352a5.09 5.09 0 0 0-5.083 0l-7.55 4.352a2.2 2.2 0 0 1-2.188 0l-7.196-4.151L45 53l30.66 17.676-7.197 4.169Z" fill="#2D3232" fill-rule="nonzero"/></g></svg>