<svg viewBox="0 0 90 90" xmlns="http://www.w3.org/2000/svg"><g fill="none" fill-rule="evenodd"><path fill="#FFF" d="M0 0h90v90H0z"/><path d="m26.088 26-9.615 30.01c-.121.384-.056.802.176 1.129.232.326.603.522 1 .528h8.445L36.25 26h13.185L37.127 39.262l6.716-1.864L35.315 64h-24.07a6.22 6.22 0 0 1-5.052-2.608 6.396 6.396 0 0 1-.888-5.674L14.832 26h11.256Zm52.675 0a6.226 6.226 0 0 1 5.045 2.613 6.402 6.402 0 0 1 .889 5.669l-2.664 8.3c-1.673 5.216-6.471 8.749-11.885 8.751H57.98L53.916 64H42.661l8.562-26.596 5.522 1.858L52.887 26Zm-6.404 6.333h-8.286L60.009 45h5.457c2.708 0 5.108-1.765 5.946-4.373l2.129-6.643a1.27 1.27 0 0 0-.174-1.132 1.236 1.236 0 0 0-1.008-.519Z" fill="#0062DF" fill-rule="nonzero"/></g></svg>