<svg viewBox="0 0 90 90" xmlns="http://www.w3.org/2000/svg"><g fill="none" fill-rule="evenodd"><path fill="#FFF" d="M0 0h90v90H0z"/><path d="M58.782 18.915v52.901H12.938V31.32c0-7.442 5.962-13.469 13.317-13.503l32.527 1.099Zm-6.68 19.733H19.619v2.073h32.483v-2.073Zm0 10.274H19.619v2.062h32.483v-2.062Zm-18.92 10.264H19.62v2.073h13.563v-2.073Zm18.92-30.801h-31.81a6.652 6.652 0 0 0-.617 2.062h32.427v-2.062Z" fill="#FFC734"/><path d="M76.938 31.319c0 3.727-1.504 7.103-3.918 9.538-2.426 2.447-5.772 3.965-9.466 3.965H30.59v-.737a13.255 13.255 0 0 0 5.13-3.228l.136-.136a13.96 13.96 0 0 0 1.639-2.073 13.472 13.472 0 0 0 2.144-7.33c0-.294-.01-.588-.033-.871a12.479 12.479 0 0 0-.28-2.062c-1.326-6.05-6.682-10.569-13.07-10.569h37.3c7.387 0 13.383 6.038 13.383 13.503Z" fill="#4E317B" fill-rule="nonzero"/></g></svg>