<svg viewBox="0 0 90 90" xmlns="http://www.w3.org/2000/svg"><g fill="none" fill-rule="evenodd"><path fill="#1655AA" d="M0 0h90v90H0z"/><path d="M57.255 59.086c0-5.95-2.586-12.253-9.986-12.336H32.741v24.673h14.536c7.41 0 9.986-6.388 9.986-12.337M32.74 18.577v19.598h12.484c6.064 0 8.206-5.25 8.206-9.801 0-4.461-2.224-9.799-8.384-9.799l-12.306.002ZM66 59.087c0 5.688-1.603 10.676-4.546 14.434C58.067 77.723 53.073 80 47.277 80H28.372C25.968 80 24 78.073 24 75.71V14.29c0-2.363 1.968-4.29 4.372-4.29h16.676c5.08 0 9.539 2.015 12.66 5.687 2.853 3.326 4.458 7.788 4.458 12.687 0 4.9-1.603 9.45-4.456 12.776 0 0 0 .088-.088.088 1.427.961 2.674 2.098 3.835 3.5C64.388 48.49 66 53.397 66 59.085" fill="#FFF" fill-rule="nonzero"/></g></svg>