<svg viewBox="0 0 90 90" xmlns="http://www.w3.org/2000/svg" xmlns:xlink="http://www.w3.org/1999/xlink"><defs><path d="M0 41c0 19.8 13.8 35 40 35 3.6 0 7-.6 10.4-1.4C48.2 80 43.6 85.8 34 90h4c18.8 0 38-15.8 38-35V21C52.4 40 23.6 40 0 21v20ZM72 0H4C1.8 0 0 1.8 0 4v12c11.6 6 23.6 9.2 35.8 9.6C33 24.4 32 21 32 17c0-5 2.6-9 6-9s6 4 6 9c0 4-.6 7.4-3.6 8.6 12-.4 24-3.6 35.6-9.6V4c0-2.2-1.8-4-4-4Z" id="a"/><path d="M0 41c0 19.8 13.8 35 40 35 3.6 0 7-.6 10.4-1.4C48.2 80 43.6 85.8 34 90h4c18.8 0 38-15.8 38-35V21C52.4 40 23.6 40 0 21v20ZM72 0H4C1.8 0 0 1.8 0 4v12c11.6 6 23.6 9.2 35.8 9.6C33 24.4 32 21 32 17c0-5 2.6-9 6-9s6 4 6 9c0 4-.6 7.4-3.6 8.6 12-.4 24-3.6 35.6-9.6V4c0-2.2-1.8-4-4-4Z" id="c"/></defs><g fill="none" fill-rule="evenodd"><path d="M7 41c0 19.8 13.8 35 40 35 3.6 0 7-.6 10.4-1.4C55.2 80 50.6 85.8 41 90h4c18.8 0 38-15.8 38-35V21C59.4 40 30.6 40 7 21v20ZM79 0H11C8.8 0 7 1.8 7 4v12c11.6 6 23.6 9.2 35.8 9.6C40 24.4 39 21 39 17c0-5 2.6-9 6-9s6 4 6 9c0 4-.6 7.4-3.6 8.6 12-.4 24-3.6 35.6-9.6V4c0-2.2-1.8-4-4-4Z" fill="#1297F7" fill-rule="nonzero"/><g transform="translate(7)"><mask id="b" fill="#fff"><use xlink:href="#a"/></mask><path d="M.064 46.64V21l3.128 2.36s-.264 26.328 17.608 37 23.3 2.132 28.548 5.512c5.248 3.38 1.068 8.8 1.068 8.8S22.936 83 5.624 60.872C1.472 55.58.064 46.64.064 46.64Z" fill="#1B82E3" fill-rule="nonzero" mask="url(#b)"/></g><g transform="translate(7)"><mask id="d" fill="#fff"><use xlink:href="#c"/></mask><path d="M72 0H4C1.8 0 0 1.8 0 4v12c11.6 6 23.6 9.2 35.8 9.6C33 24.4 32 21 32 17c0-5 2.6-9 6-9s6 4 6 9c0 4-.6 7.4-3.6 8.6 12-.4 24-3.6 35.6-9.6V4c0-2.2-1.8-4-4-4Z" fill="#00AEFF" fill-rule="nonzero" mask="url(#d)"/></g></g></svg>