<svg xmlns="http://www.w3.org/2000/svg" width="90" height="90" viewBox="0 0 90 90"><g fill="none" fill-rule="evenodd"><rect width="90" height="90" fill="#FFF" opacity="0"/><path fill="#FF6F00" fill-rule="nonzero" d="M39.1052632,40.7142857 L26.3157895,90 L5,90 L13.5263158,66.4285714 L39.1052632,40.7142857 Z M62.5526316,19.2857143 L86,90 L64.6842105,90 L47.6315789,32.1428571 L62.5526316,19.2857143 Z M43.3684211,25.7142857 L43.3684211,30 L17.2160789,55.7185714 L19.0257895,50.715 L43.3684211,25.7142857 Z M55.7699474,0.381428571 L57.7011579,5.83928571 L22.0526316,40.7142857 L26.6184737,28.7764286 L55.7699474,0.381428571 Z M59.1101316,10.0757143 L60.2952895,13.2385714 L46.3036053,27.0557143 L45.3550526,23.6892857 L59.1101316,10.0757143 Z M54.0263158,1.98951966e-13 L28.5731316,23.9228571 L36.9736842,1.98951966e-13 L54.0263158,1.98951966e-13 Z"/></g></svg>