<svg viewBox="0 0 90 90" xmlns="http://www.w3.org/2000/svg"><g fill="none" fill-rule="evenodd"><path fill="#CFCDC5" d="M0 0h90v90H0z"/><path d="M81.873 48.951c2.163 0 2.787.932 2.787 1.845v.194h-1.52v-.039c0-.33-.312-.699-1.17-.699-.857 0-1.364.525-1.364 1.301 0 .777.39 1.301 1.345 1.301.819 0 1.11-.407 1.11-.68v-.019h-1.285v-.757h2.962v2.505h-1.384c0-.194.02-.563.02-.854h-.02c-.175.543-.701.951-1.793.951-2.027-.02-2.826-1.184-2.826-2.466 0-1.417 1.014-2.583 3.138-2.583Zm-27.05 0c2.182 0 2.864 1.166 2.864 2.02v.155h-1.54v-.039c0-.407-.37-.835-1.188-.835-.838 0-1.286.525-1.286 1.224 0 .68.39 1.204 1.305 1.204.78 0 1.19-.35 1.19-.835v-.04h1.539v.137c0 .97-.721 2.039-2.865 2.039-2.358 0-3.099-1.243-3.099-2.505 0-1.437 1.014-2.525 3.08-2.525Zm35.099.098v1.3h-2.748v.719h2.027v.796h-2.027v.738H90v1.3h-4.638V49.05h4.56Zm-15.22 0 1.89 2.485-.02-2.485h1.598v4.854h-2.105l-2.3-3.049h-.019l.02 3.049h-1.598l.02-4.854H74.7Zm-29.78 0v1.3h-2.748v.719h2.027v.796h-2.027v.738H45v1.3h-4.658V49.05h4.58Zm24.42 0 2.377 4.854h-2.143l-.37-.874h-2.3l-.39.874h-1.832l2.377-4.854h2.28Zm-21.633 0 1.11 1.378 1.034-1.378h1.949l-1.93 2.388 2.008 2.466H49.6l-1.17-1.476-1.072 1.476h-2.027l2.027-2.524-1.949-2.33h2.3Zm12.356 0v1.689h2.378v-1.69h1.812v4.855h-1.812v-1.806h-2.378v1.806h-1.832v-4.854h1.832Zm8.01 1.417h-.02l-.74 1.69h1.5l-.74-1.69ZM7.95 36c5.555 0 6.822 1.748 6.822 3.515v.116h-4.658c-.04-.408-.273-1.184-2.71-1.184H7.25c-2.241 0-2.475.388-2.475.815v.02c0 .446.331.815 2.416.873l2.027.04c4.268.116 5.925 1.106 5.925 3.358v.214c0 1.864-1.052 3.786-6.938 3.786H6.84C.643 47.553 0 45.05 0 43.593v-.156h4.697c.039.602.37 1.573 2.806 1.573h.117c2.397 0 2.748-.505 2.748-1.049 0-.582-.273-.932-2.63-1.01l-2.086-.058c-4.327-.116-5.496-1.63-5.496-3.359v-.136C.156 37.592 1.384 36 6.606 36Zm25.414.175v4.99c0 1.379.604 3.01 3.43 3.01 2.807 0 3.43-1.65 3.43-3.01v-4.99h4.288v5.32c0 2.175-1.033 6.02-7.387 6.02h-.604c-6.528 0-7.444-3.865-7.444-6.02v-5.32h4.287Zm-4.502 0v3.456H24.03v7.709h-4.288v-7.71H14.91v-3.456h13.954Zm39.076 0c6.45 0 8.087 2.66 8.087 5.281v.447c0 2.544-1.403 5.437-8.068 5.437h-7.971V36.175Zm10.699 0 3.274 3.864 3.352-3.864h4.678l-6.003 6.99v4.175H79.65v-4.214l-6.139-6.951h5.126Zm-23.718-.02c3.274 0 4.716 1.049 4.716 2.874v.175c0 1.612-1.422 2.291-2.26 2.485 1.383.33 2.3 1.224 2.3 2.66V46c0 .777.116 1.068.214 1.262v.078h-4.366c-.117-.117-.136-.272-.136-.583v-1.3c0-1.282-.605-1.942-2.28-1.942h-4.093v3.805h-4.288V36.155ZM89.2 44.777v2.543h-3.703v-2.543H89.2Zm-21.75-5.67h-3.176l-.02 5.3h3.196c3.742 0 4.151-1.65 4.151-2.62v-.098c0-.97-.409-2.582-4.15-2.582Zm-13.525-.214h-4.911v1.923h4.91c.936 0 1.287-.408 1.287-.952v-.02c0-.524-.312-.95-1.286-.95Zm35.041-.272v.136h-.253v.68h-.156v-.68h-.254v-.136h.663Zm.37-.02.156.564.156-.563h.254v.835h-.156v-.66l-.176.66h-.156l-.156-.66v.66h-.175v-.835h.253Z" fill="#000" fill-rule="nonzero"/></g></svg>