<svg viewBox="0 0 90 90" xmlns="http://www.w3.org/2000/svg"><g fill="none" fill-rule="evenodd"><path fill="#003C4D" d="M0 0h90v90H0z"/><path d="M14.59 45.87v.425c-1.041 0-1.295.207-1.317 1.158l-.001.148v4.148c0 2.025 1.35 2.973 3.249 2.973 1.619 0 3.147-.673 3.244-2.789l.005-.216V47.6c0-1.124-.206-1.293-1.294-1.305l-.154-.001v-.425h3.667l-.032.425c-1.105 0-1.36.208-1.382 1.165l-.001.141v4.312c0 2.417-1.834 3.788-4.6 3.788-2.776 0-4.313-1.32-4.403-3.693l-.004-.226V47.47c0-.898-.231-1.15-1.13-1.174l-.157-.002v-.425h4.31Zm22.873 2.417v.327c-.933 0-1.094.261-1.094.49 0 .112.047.296.142.552l.051.134 1.705 4.278 1.673-4.082c.193-.49.257-.719.257-.882 0-.334-.25-.47-.878-.488l-.151-.002v-.327h8.106l.097 1.731h-.322l-.064-.228c-.213-.895-.368-.974-1.008-.98h-2.113v2.678h1.77c.603 0 .754-.086.823-.743l.013-.139h.322v2.32h-.322c-.06-.766-.205-.9-.727-.914l-.11-.001h-1.769v2.09c0 .64.084.797.566.815l.11.002h1.255c1.072 0 1.327-.149 1.6-1.122l.04-.152h.322l-.161 1.796h-6.144v-.327c.878 0 1.129-.115 1.155-.673l.003-.11v-4.965c0-.62-.258-.751-.772-.784-.63.03-.813.403-1.122 1.143l-.068.164-2.349 5.748h-.708l-2.444-6.173c-.322-.751-.45-.882-1.126-.882-.666 0-.905.145-.93.843l-.003.137v4.475c0 .833.143 1.083.837 1.08l.128-.003v.327h-3.185v-.327c.848.031.926-.285.932-.867l.001-.112v-4.67c0-.583-.141-.82-.795-.847l-.138-.003v-.327h6.595Zm20.524-.228c.354 0 .643.065.868.098.225.065.418.098.611.098.13 0 .196-.021.267-.08l.055-.051h.29l.257 1.796h-.354c-.354-.914-1.061-1.47-1.866-1.47-.74 0-1.126.425-1.126.948 0 1.535 3.571 2.025 3.603 4.213 0 1.176-.997 1.992-2.444 1.992-.414 0-.71-.048-.948-.102l-.114-.028v.065c-2.162.063-2.752-.296-3.707-1.25l-.121-.122-.611-.62c-.58-.588-.74-.751-1.223-1.11a5.284 5.284 0 0 1-.813.015l-.184-.016v1.535c0 .934.117 1.156 1.017 1.147l.141-.004v.327h-3.506v-.327c.911.031 1.048-.2 1.06-.859l.001-.12v-4.638c0-.71-.115-.924-.913-.946l-.148-.001v-.327c.257 0 .836-.033 1.608-.065.475-.026.912-.031 1.188-.033h.195c2.316 0 3.089 1.012 3.089 2.058 0 .882-.45 1.502-1.416 1.894.169.114.56.479.784.7l.085.084.74.751c.506.514.939.879 1.384 1.137l.192.104-.193-1.339h.354c.29 1.078.997 1.666 1.962 1.666.836 0 1.415-.49 1.415-1.176 0-1.6-3.57-2.254-3.57-4.246 0-1.012.868-1.698 2.09-1.698Zm-34.357.196 5.083 5.421v-4.115c0-.804-.116-.964-.976-.979h-.15v-.327h2.734v.326c-.726 0-.969.116-.995.865l-.002.148v5.911h-.611l-5.565-5.944v4.41c0 .868.087 1.177.978 1.15l.147-.008v.327h-2.702v-.327c.787.031.948-.198.964-.852l.001-.127V48.94a1.518 1.518 0 0 0-.795-.342l-.17-.018v-.326h2.059Zm42.013-.196c.064.098.096.13.193.163.08.027.205.032.412.032h4.928c.53 0 .656-.027.723-.157l.017-.038h.322l.032.261v-.065h3.41v.326c-.612 0-.805.13-.805.327 0 .145.077.316.297.65l.09.134 1.48 2.155 1.286-2.09c.257-.425.386-.653.386-.816 0-.238-.186-.34-.607-.357l-.133-.003v-.326h2.606v.326c-.79.093-1.006.244-1.651 1.25l-.118.187-1.545 2.515v1.6c0 .803.144.993.946 1.012l.148.001v.327h-3.442v-.327c.823 0 1.068-.088 1.092-.902l.002-.143v-1.47l-2.123-3.103c-.513-.796-.686-.903-1.263-.94l-.12-.007.16 1.47h-.321c-.153-1.148-.364-1.264-.964-1.273h-1.706v5.421c0 .747.116.9 1.156.914h.162v.327h-3.892v-.327c1.067 0 1.296-.146 1.317-.8l.002-.114v-5.422h-1.61c-.641 0-.877.06-1.036 1.101l-.025.173h-.322l.193-1.992h.322Zm-1.126.196v.326c-.696 0-.937.145-.963.843l-.002.137v4.475c0 .833.143 1.083.837 1.08l.128-.003v.327h-3.185v-.327c.848.031.926-.285.933-.867V49.43c0-.581-.141-.819-.795-.846l-.138-.003v-.326h3.185Zm-13.543.26c-.134 0-.358 0-.484.02l-.063.014v3.592c.064 0 .29.033.354.033 1.512-.065 2.026-.653 2.059-1.796 0-1.176-.612-1.862-1.866-1.862ZM24.788 33.702v.425c-.772.033-.997.13-.997.523 0 .264.234.846.445 1.293l.07.144 2.637 5.683 1.577-3.332-1.384-2.972c-.552-1.216-.695-1.3-1.574-1.306h-.13v-.46h7.109v.425c-1.009.031-1.204.15-1.69 1.142l-.08.164-.997 1.993 2.06 4.278 2.605-6.336c.193-.424.225-.62.225-.751 0-.303-.25-.438-.93-.455l-.164-.002v-.425h3.282v.425c-.8 0-1.07.06-1.684 1.437l-.086.196-3.184 7.773h-.966l-1.994-4.246-1.995 4.246h-.932l-3.7-8.1c-.49-1.12-.718-1.292-1.739-1.305l-.159-.001V33.7h4.375Zm26.379 2.352c1.737 0 2.96.294 3.7 1.078.707.718.964 1.6.964 2.45 0 1.65-1.125 3.672-4.232 3.783l-.271.005h-3.539v-.327c.912 0 1.077-.145 1.092-.822l.002-.125V37.49c0-.802-.201-.992-.955-1.01l-.139-.002v-.327c.322 0 1.287-.033 1.77-.065.61-.033 1.19-.033 1.608-.033Zm13.736.065 5.083 5.422v-4.115c0-.805-.116-.964-.976-.979l-.15-.001v-.327h2.734v.327c-.726 0-.969.116-.995.864l-.002.148v5.912h-.611l-5.566-5.944v4.409c0 .869.088 1.178.979 1.15l.147-.007v.327h-2.702v-.327c.787.03.948-.199.964-.852l.001-.128v-5.193a1.518 1.518 0 0 0-.795-.34l-.17-.02v-.326h2.059Zm-3.25.033.097 1.731h-.321l-.065-.229c-.212-.894-.368-.973-1.007-.979h-2.113v2.678h1.77c.602 0 .753-.086.823-.743l.013-.14h.321v2.32h-.321c-.06-.766-.206-.9-.727-.913l-.11-.002h-1.769v2.09c0 .64.084.797.566.815l.11.002h1.254c1.103 0 1.36-.148 1.632-1.093l.041-.148h.322l-.161 1.796h-6.144v-.326c.878 0 1.129-.116 1.155-.674l.003-.11v-4.965c0-.704-.34-.777-1.018-.783h-.14v-.327h5.79Zm-23.418-.196 2.22 6.01c.301.826.433 1.022 1.005 1.043l.12.002h-.096v.326h-3.25v-.326c.902 0 1.159-.098 1.159-.425a1.41 1.41 0 0 0-.112-.5l-.049-.12-.547-1.437H36.08l-.546 1.535c-.097.228-.13.359-.13.49 0 .306.199.468.966.46l.16-.003v.326h-2.766v-.326c.727-.03.884-.12 1.168-.892l.055-.153 2.059-5.716-.097-.294h1.287Zm6.98.163v.327c-1.166 0-1.337.06-1.35.803v4.978c0 .422.082.538.5.553l.11.002h1.297c.792-.006.949-.082 1.633-1.031l.127-.177h.29l-.87 1.73H41.58v-.326h-.032c.79 0 1.006-.087 1.028-.84l.002-.14v-4.572c0-.743-.058-.987-.94-.983l-.154.003v-.327h3.732Zm5.727.229c-.161 0-.434 0-.688.019l-.149.014v5.78c0 .72.097.817.837.817 1.383 0 2.09-.294 2.605-.816.676-.719.869-1.666.869-2.483 0-.849-.161-1.763-.869-2.482-.547-.588-1.286-.85-2.605-.85Zm-13.544.686-1.093 2.907h2.187l-1.094-2.907Zm-7.72-2.874h-.547c-.547 0-.676.065-.676.26 0 .144.05.287.17.56l.056.127.707 1.47.772-1.633c.13-.262.161-.425.161-.523 0-.196-.128-.261-.643-.261Z" fill="#FFF" fill-rule="nonzero"/></g></svg>