<svg viewBox="0 0 90 90" xmlns="http://www.w3.org/2000/svg"><g fill="none" fill-rule="evenodd"><path fill="#FFD900" d="M0 0h90v90H0z"/><g fill-rule="nonzero"><path d="M49.521 39.16c0-1.058.845-1.928 1.91-1.928 1.048 0 1.89.87 1.89 1.928 0 1.06-.844 1.921-1.89 1.921a1.911 1.911 0 0 1-1.91-1.92v-.001Zm-5.93-16.392h-.016v2.637h2.42v-2.558a2.556 2.556 0 0 0 1.403-2.283C47.39 19.144 46.258 18 44.86 18a2.549 2.549 0 0 0-2.544 2.562c0 .95.515 1.764 1.273 2.206h.001Zm-5.286 18.311a1.916 1.916 0 0 0 1.908-1.92c0-1.059-.856-1.929-1.908-1.929-1.055 0-1.91.87-1.91 1.928 0 1.062.853 1.921 1.91 1.921ZM44.86 71c2.865 0 5.3-1.855 6.234-4.412H38.63C39.552 69.145 41.992 71 44.86 71ZM25 63.185c0-1.023.59-1.902 1.443-2.308V49.972c0-2.157 1.658-3.913 3.752-4.06v-5.268s.512-9.608 8.44-12.605c2.351-.883 4.498-1.241 6.364-1.312 1.866.073 4.02.429 6.364 1.314 7.928 2.986 8.435 12.605 8.435 12.605v5.292c2.103.128 3.757 1.883 3.757 4.04v10.899A2.56 2.56 0 0 1 65 63.189a2.544 2.544 0 0 1-2.537 2.553 2.545 2.545 0 0 1-2.539-2.553c0-1.025.587-1.901 1.436-2.312v-7.274a4.293 4.293 0 0 1-1.557.426v2.528c.017.21.035.413.035.619 0 .225-.017.433-.035.667v.062h-.009c-.33 4.204-3.616 7.6-7.758 8.062l.004.05H37.95l.002-.05c-4.143-.466-7.412-3.84-7.756-8.062h-.006v-.062a7.627 7.627 0 0 1-.03-.667c0-.203.017-.404.03-.619V54.03a4.313 4.313 0 0 1-1.56-.426v7.274a2.558 2.558 0 0 1 1.448 2.312 2.547 2.547 0 0 1-2.544 2.553A2.545 2.545 0 0 1 25 63.185Zm24.228-13.411c0-.685-.55-1.242-1.22-1.242-.678 0-1.214.557-1.214 1.242a1.22 1.22 0 0 0 1.214 1.232 1.23 1.23 0 0 0 1.22-1.232Zm3.013 0c0-.685-.554-1.242-1.224-1.242-.669 0-1.216.557-1.216 1.242 0 .678.55 1.232 1.216 1.232a1.238 1.238 0 0 0 1.224-1.232Zm3.024 0c0-.685-.55-1.242-1.23-1.242a1.237 1.237 0 0 0 0 2.474 1.236 1.236 0 0 0 1.23-1.232ZM34.705 39.51c0 3.275 2.538 3.487 2.538 3.487.88.285 2.755.15 3.595 0 .78-.128 3.636-.375 4.086-.415l.07.002.064-.002c.461.038 3.31.287 4.086.415.853.15 2.722.285 3.602 0 0 0 2.537-.203 2.537-3.487 0 0 0-3.635-2.537-5.847-2.464-2.134-6.177-2.602-7.615-2.624h-.276c-1.442.022-5.155.493-7.619 2.624-2.532 2.212-2.532 5.847-2.532 5.847Z" fill="#000"/><path d="M49.521 39.16c0-1.058.845-1.928 1.91-1.928 1.048 0 1.89.87 1.89 1.928 0 1.06-.844 1.921-1.89 1.921a1.911 1.911 0 0 1-1.91-1.92v-.001Zm-5.93-16.392h-.016v2.637h2.42v-2.558a2.556 2.556 0 0 0 1.403-2.283C47.39 19.144 46.258 18 44.86 18a2.549 2.549 0 0 0-2.544 2.562c0 .95.515 1.764 1.273 2.206h.001Zm-5.286 18.311a1.916 1.916 0 0 0 1.908-1.92c0-1.059-.856-1.929-1.908-1.929-1.055 0-1.91.87-1.91 1.928 0 1.062.853 1.921 1.91 1.921ZM44.86 71c2.865 0 5.3-1.855 6.234-4.412H38.63C39.552 69.145 41.992 71 44.86 71ZM25 63.185c0-1.023.59-1.902 1.443-2.308V49.972c0-2.157 1.658-3.913 3.752-4.06v-5.268s.512-9.608 8.44-12.605c2.351-.883 4.498-1.241 6.364-1.312 1.866.073 4.02.429 6.364 1.314 7.928 2.986 8.435 12.605 8.435 12.605v5.292c2.103.128 3.757 1.883 3.757 4.04v10.899A2.56 2.56 0 0 1 65 63.189a2.544 2.544 0 0 1-2.537 2.553 2.545 2.545 0 0 1-2.539-2.553c0-1.025.587-1.901 1.436-2.312v-7.274a4.293 4.293 0 0 1-1.557.426v2.528c.017.21.035.413.035.619 0 .225-.017.433-.035.667v.062h-.009c-.33 4.204-3.616 7.6-7.758 8.062l.004.05H37.95l.002-.05c-4.143-.466-7.412-3.84-7.756-8.062h-.006v-.062a7.627 7.627 0 0 1-.03-.667c0-.203.017-.404.03-.619V54.03a4.313 4.313 0 0 1-1.56-.426v7.274a2.558 2.558 0 0 1 1.448 2.312 2.547 2.547 0 0 1-2.544 2.553A2.545 2.545 0 0 1 25 63.185Zm24.228-13.411c0-.685-.55-1.242-1.22-1.242-.678 0-1.214.557-1.214 1.242a1.22 1.22 0 0 0 1.214 1.232 1.23 1.23 0 0 0 1.22-1.232Zm3.013 0c0-.685-.554-1.242-1.224-1.242-.669 0-1.216.557-1.216 1.242 0 .678.55 1.232 1.216 1.232a1.238 1.238 0 0 0 1.224-1.232Zm3.024 0c0-.685-.55-1.242-1.23-1.242a1.237 1.237 0 0 0 0 2.474 1.236 1.236 0 0 0 1.23-1.232ZM34.705 39.51c0 3.275 2.538 3.487 2.538 3.487.88.285 2.755.15 3.595 0 .78-.128 3.636-.375 4.086-.415l.07.002.064-.002c.461.038 3.31.287 4.086.415.853.15 2.722.285 3.602 0 0 0 2.537-.203 2.537-3.487 0 0 0-3.635-2.537-5.847-2.464-2.134-6.177-2.602-7.615-2.624h-.276c-1.442.022-5.155.493-7.619 2.624-2.532 2.212-2.532 5.847-2.532 5.847Z" fill="#4A4FFF"/></g></g></svg>