<svg viewBox="0 0 90 90" xmlns="http://www.w3.org/2000/svg"><g fill="none" fill-rule="evenodd"><path fill="#182A54" d="M0 0h90v90H0z"/><g fill-rule="nonzero"><path d="M27.274 58.018a14.49 14.49 0 0 1 6.7-7.66l5.273 3.058c2.11 1.217 1.678 4.57-.21 5.67l-10.763 6.253a1.258 1.258 0 0 1-1.857-.984c-.175-2.15.118-4.312.857-6.337Z" fill="#FA4B29"/><path d="M44.065 43.72a5.547 5.547 0 0 0-2.468-4.597L12 22a28.725 28.725 0 0 0 14.013 23.772l13.209 7.67c2.1 1.217 1.678 4.613-.211 5.67l3.312-1.925a3.408 3.408 0 0 0 1.688-2.952v-3.907c-.003-.07.054-6.608.054-6.608Z" fill="#FA9F29"/><path d="m39.22 53.43-5.272-3.059a63.439 63.439 0 0 1 4.641 4.348c1.23 1.416.416 4.382.416 4.382 1.894-1.058 2.316-4.453.216-5.67Z" fill="#000" opacity=".2"/><path d="M62.725 31.982a14.493 14.493 0 0 1-6.7 7.66l-5.272-3.058c-2.11-1.217-1.678-4.57.21-5.67l10.763-6.253a1.263 1.263 0 0 1 1.857.984 14.942 14.942 0 0 1-.858 6.337Z" fill="#FA4B29"/><path d="M45.936 46.28a5.546 5.546 0 0 0 2.468 4.597L78 68a28.724 28.724 0 0 0-14.011-23.772l-13.21-7.67c-2.1-1.217-1.679-4.613.21-5.67l-3.312 1.926a3.407 3.407 0 0 0-1.688 2.951v3.907c.004.07-.053 6.608-.053 6.608Z" fill="#FA9F29"/><path d="m50.782 36.574 5.272 3.06a63.49 63.49 0 0 1-4.64-4.348c-1.232-1.416-.417-4.382-.417-4.382-1.894 1.054-2.316 4.45-.215 5.67Z" fill="#000" opacity=".2"/></g></g></svg>