<svg viewBox="0 0 90 90" xmlns="http://www.w3.org/2000/svg"><g fill="none" fill-rule="evenodd"><path fill="#397FC4" d="M0 0h90v90H0z"/><path d="M56.263 66.5c-4.054 0-6.57-.14-11.184-1.4-6.571-1.681-11.884-5.183-15.1-9.945-4.753-7.004-4.613-14.847.28-21.71 3.355-4.482 8.808-7.844 15.379-9.105 4.334-.84 6.85-.84 10.625-.84H58.5v10.225h-2.237c-3.495 0-5.173 0-8.528.7-4.055.84-7.41 2.661-9.227 5.182-2.377 3.222-2.377 6.443-.14 9.945 1.817 2.661 5.173 4.762 9.227 5.743 4.334 1.12 6.012 1.12 10.625.98l.14 10.225h-2.097" fill="#FFF" fill-rule="nonzero"/></g></svg>