<svg viewBox="0 0 90 90" xmlns="http://www.w3.org/2000/svg"><g fill="none"><path d="M31.959 35.497C29.115 37.523 22.265 43.826 0 41.313v-17.16c8.35 2.435 11.648 2.435 16.385 2.435 4.736 0 17.965-1.421 25.857-9.632-1.1 4.38-2.31 11.83-10.283 18.541Z" fill="#BC2845"/><path d="M42.878 3c0 .973 1.962 17.505-6.563 27.985C27.79 41.464 18.177 41.812 8.22 41.812c7.53-4.302 13.403-11.588 15.32-16.773 1.917-5.184 1.124-15.43.716-22.039h18.62Z" fill="#DD586B"/><path d="M58.014 55.503c2.844-2.026 9.694-8.329 31.959-5.816v17.16c-8.35-2.435-11.648-2.435-16.385-2.435-4.736 0-17.965 1.421-25.857 9.632 1.1-4.38 2.31-11.83 10.283-18.541Z" fill="#1BB2A3"/><path d="M47.095 88c0-.973-1.962-17.505 6.563-27.985 8.525-10.479 18.138-10.827 28.094-10.827-7.53 4.302-13.404 11.588-15.32 16.773-1.917 5.184-1.124 15.43-.716 22.039h-18.62Z" fill="#5BD8CF"/><path d="M41.324 88c.442-5.467-.047-19.253-4.543-25.836-4.496-6.583-8.607-12.972-24.604-13.942 7.53 4.303 8.944 12.145 10.86 17.329 1.918 5.184 1.437 15.84 1.028 22.449h17.259Z" fill="#FC8F00"/><path d="M31.959 55.503C28.9 53.043 21.705 45.736 0 47.937v18.264c8.827-1.313 10.955-1.76 17.324-1.76 6.368 0 15.533 3.259 23.889 13.52-.792-6.794-1.865-16.129-9.254-22.458Z" fill="#FFC776"/><path d="M48.566 3c0 .973-1.589 19.444 6.936 29.924 8.526 10.48 19.129 10.454 29.084 10.454-7.53-4.303-15.638-11.144-17.68-17.692-2.043-6.549-1.318-15.393-.84-22.686h-17.5Z" fill="#0063AD"/><path d="M59.417 36.98c4.206 3.1 11.971 8.9 30.583 6.032V24.907c-5.76 1.18-10.205 1.681-14.941 1.681-4.737 0-17.022 1.355-26.379-13.817.959 9.492 2.763 17.497 10.737 24.209Z" fill="#499BCE"/></g></svg>