<svg viewBox="0 0 90 90" xmlns="http://www.w3.org/2000/svg"><path d="M54.124 11.003c.83 3.204.782 5.919.585 8.417l-.085.989-.134 1.447c-.2 2.225-.318 4.338.24 6.562.679 2.705 2.442 4.55 3.91 5.882l1.202 1.07.327.305c.252.244.451.465.576.668.371.605.45 1.601.452 2.782l-.004.605-.028 1.609c-.047 4.379-.85 10.046-2.373 13.102l-.494.997-.232.457-.255.487-.137.254-.294.525c-1.13 1.97-2.838 4.39-5.614 6.634a11.42 11.42 0 0 1-.712.528l-.422.281c-.223.144-.462.293-.718.446l-.534.311-.578.324-.306.167-.645.341-.69.354-.734.366-.778.378-.823.39-.868.402-.912.414c1.536.108 2.824.15 3.866.125l.651-.023.507-.025 1.189-.076 1.422-.11 1.219-.102-6.986 3.786c1.784.237 3.233.323 4.346.258.148-.008.306-.02.472-.036l.527-.058a29.27 29.27 0 0 0 1.215-.18l.69-.122.365-.07.77-.154.825-.175-.302.128-.56.244-.26.116-.474.222-.416.206a8.458 8.458 0 0 0-.789.45l-.233.162c-.337.249-.42.395-.25.437l1.056.01c.171.002.34.002.506.002l.967-.006.905-.016.846-.027a41.15 41.15 0 0 0 1.509-.085 26.401 26.401 0 0 0 2.412-.315l.802-.146.852-.17.902-.196.953-.22c.635 2.917 1.38 5.028 2.235 6.333.341.522.87 1.137 1.584 1.847l.452.437c.236.224.49.457.76.698l.564.494.608.516.652.538.698.561.742.584c-1.027-1.666-1.736-3.113-2.126-4.343-.39-1.23-.704-2.966-.944-5.21l3.42.853c-1.034 4.956 1.654 9.93 3.511 11.507-3.925 2.71-18.839 4.206-21.674 1.185l-.096-1.356-.104-1.252-.074-.777-.076-.731-.08-.685-.083-.638-.086-.592-.045-.278-.09-.523-.095-.476a8.296 8.296 0 0 0-.049-.221l-.1-.407a8.143 8.143 0 0 0-.154-.524c-.343-1.019-1.328-2.801-2.64-4.232-1.163-1.268-2.642-2.234-3.304-2.518-1.474-.634-3.259-.983-4.96-1.253l-2.187-.333-1.209-.195-1.327-.228-1.081-.2-.657-.133-.448-.102-.138-.038-.342-.106-.642-.21-.299-.104-.557-.203c-.266-.1-.512-.2-.74-.296l-.432-.19a14.326 14.326 0 0 1-.199-.094l-.365-.181c-.115-.06-.223-.118-.324-.175l-.286-.169-.25-.16a6.5 6.5 0 0 1-.114-.078l-.202-.149-.175-.14-.149-.132-.126-.122-.152-.165-.18-.223c-.414-.536-.402-1.228-.267-2.06l.084-.47.197-1.018a11.3 11.3 0 0 0 .21-2.034c0-1.466-.984-3.006-1.893-4.184l-.316-.4-.808-.978-.189-.238a2.46 2.46 0 0 1-.13-.186l-.085-.153-.107-.223c-.206-.462-.438-1.189-.24-1.693.188-.474.578-.87.937-1.177l.26-.215.323-.26c.116-.098.189-.174.189-.226 0-.11-.11-.194-.267-.287l-.315-.185c-.337-.21-.695-.518-.695-1.123 0-.534.173-.864.406-1.185l.325-.424c.189-.25.384-.538.546-.936.248-.612.36-1.313.407-1.913l.022-.347.01-.313-.001-.49-.007-.248c0-.099-.132-.208-.35-.341l-.243-.141-.612-.34-.348-.203C24.33 43.065 23 41.98 23 40.11c0-1.494 1.224-2.974 2.673-4.354l.52-.483.527-.474 1.296-1.139.483-.435.448-.422c.498-.484.905-.94 1.152-1.362l.153-.268.18-.335.199-.396c.409-.853.871-2.054 1.053-3.46.132-1.03.12-2.132.079-3.259l-.057-1.362c-.038-.912-.065-1.83-.022-2.729.065-1.4.29-2.755.543-3.878l.14-.589c.022-.094.046-.186.07-.275l.138-.508.133-.445.12-.376c1.093-3.251 2.628-5.968 4.37-8.127C39.38 2.724 42.11.557 43.75.015c3.292-.297 8.494 3.727 10.374 10.988Zm24.226 66.5L81 78.814v4.545l-1.294.818c-.898-1.038-1.44-1.944-1.629-2.72-.189-.774-.098-2.092.273-3.954Z" fill="#00C1F6"/></svg>