<svg viewBox="0 0 90 90" xmlns="http://www.w3.org/2000/svg"><g fill="none" fill-rule="evenodd"><path fill="#FFF" d="M0 0h90v90H0z"/><g fill-rule="nonzero"><path d="M52.533 45H74L62.424 73.456C60.812 77.426 57.003 80 52.754 80H31.286l11.575-28.456C44.474 47.5 48.284 45 52.533 45" fill="#94C5FF"/><path d="M74 45 60.959 61.618c-1.978 2.647-4.982 4.338-8.499 4.338H36.855l5.934-14.485A10.473 10.473 0 0 1 52.46 45H74Z" fill="#1A32AF"/><path d="M45.353 27.5H66.82L55.244 55.956c-1.612 3.97-5.421 6.544-9.67 6.544H24.106l11.576-28.456c1.611-3.97 5.494-6.544 9.67-6.544" fill="#0092FF"/><path d="m66.893 27.5-13.04 16.618c-1.979 2.647-4.983 4.338-8.5 4.338H29.748l5.935-14.485a10.473 10.473 0 0 1 9.67-6.471h21.54Z" fill="#1A32AF"/><path d="M38.247 10h21.466L48.138 38.456C46.526 42.426 42.716 45 38.467 45H17l11.576-28.456c1.612-3.97 5.421-6.544 9.67-6.544" fill="#05F"/></g></g></svg>