<svg viewBox="0 0 90 90" xmlns="http://www.w3.org/2000/svg"><g fill="none"><path d="M78.85 15.115C71.785 6.985 62.02 1.633 51.423.104c-.208-.035-.415-.035-.623-.035v1.46-1.46c-2.182 0-4.052 1.634-4.363 3.788-.347 2.397 1.316 4.656 3.74 5.003 8.518 1.251 16.344 5.526 22.058 12.093a36.363 36.363 0 0 1 8.935 23.873c0 9.695-3.775 18.834-10.597 25.68-6.857 6.88-15.929 10.633-25.59 10.633-7.861 0-15.342-2.503-21.644-7.193-.762-.591-1.662-.869-2.632-.869-1.392.004-2.7.66-3.532 1.772-1.454 1.946-1.039 4.726.9 6.186C25.903 86.907 35.184 90 44.983 90 57 90 68.322 85.309 76.806 76.76 85.326 68.213 90 56.885 90 44.827c-.035-10.946-3.983-21.51-11.15-29.71Zm-3.117 60.569c-8.241 8.27-19.15 12.787-30.785 12.787-9.453 0-18.457-2.989-26.04-8.653a2.98 2.98 0 0 1-.59-4.135 2.965 2.965 0 0 1 2.355-1.181c.624 0 1.213.173 1.767.59 6.545 4.9 14.336 7.506 22.508 7.506 10.078 0 19.531-3.926 26.63-11.085 7.134-7.158 11.046-16.645 11.046-26.722 0-9.139-3.29-17.965-9.28-24.845-5.921-6.81-14.094-11.293-22.959-12.58-1.593-.243-2.701-1.737-2.493-3.336A2.947 2.947 0 0 1 50.8 1.494c.139 0 .277 0 .415.035 10.25 1.494 19.67 6.637 26.526 14.525a43.71 43.71 0 0 1 10.735 28.737c0 11.676-4.536 22.657-12.744 30.892Z" fill="#E7004C"/><path d="M15.894 66.509c-4.71-6.324-7.167-13.83-7.167-21.718 0-2.397.242-4.83.727-7.193a2.974 2.974 0 0 1 2.909-2.362h26.872c2.354 0 4.259-1.982 4.259-4.414 0-2.433-1.905-4.413-4.259-4.413h-23.86a.891.891 0 0 1-.796-.487.953.953 0 0 1 .034-.972 35.71 35.71 0 0 1 3.083-4.066c5.713-6.568 13.54-10.842 22.058-12.093 2.39-.347 4.086-2.606 3.74-5.004C43.182 1.633 41.314 0 39.13 0c-.208 0-.416 0-.624.035-10.596 1.529-20.361 6.88-27.425 15.011C3.913 23.282 0 33.81 0 44.722c0 9.8 3.082 19.146 8.934 27a4.423 4.423 0 0 0 3.533 1.772c.948 0 1.87-.305 2.631-.869a4.42 4.42 0 0 0 1.731-2.919 4.886 4.886 0 0 0-.935-3.197Zm-1.766 5.004c-.51.38-1.129.586-1.765.59-.9 0-1.766-.416-2.355-1.18-5.645-7.576-8.623-16.61-8.623-26.132A43.78 43.78 0 0 1 12.12 16.053C18.977 8.166 28.396 3.023 38.646 1.53c.138-.035.277-.035.416-.035A2.942 2.942 0 0 1 41.97 4.03c.243 1.6-.866 3.093-2.493 3.336-8.865 1.287-17.037 5.769-22.96 12.58a36.604 36.604 0 0 0-3.185 4.24c-1.039 1.597.104 3.717 2.009 3.717H39.2c1.557 0 2.804 1.32 2.804 2.954 0 1.633-1.247 2.953-2.805 2.953H12.328A4.386 4.386 0 0 0 8 37.355a38.217 38.217 0 0 0-.728 7.47c0 8.201 2.597 16.02 7.48 22.587.935 1.287.658 3.128-.624 4.101Z" fill="#FFF"/><g fill="#903FFF"><path d="M69.812 26.41H51.286c-2.424 0-4.398 1.98-4.398 4.412s1.974 4.414 4.397 4.414h18.527c2.424 0 4.398-1.982 4.398-4.414 0-2.433-1.974-4.413-4.398-4.413Zm0 7.366H51.286a2.946 2.946 0 0 1-2.944-2.954 2.946 2.946 0 0 1 2.944-2.953h18.526a2.946 2.946 0 0 1 2.943 2.953c-.034 1.633-1.35 2.954-2.943 2.954Zm-52.048 5.768c-2.423 0-4.397 1.98-4.397 4.413 0 8.687 3.255 16.888 9.21 23.039 5.957 6.185 13.921 9.625 22.371 9.625s16.414-3.405 22.37-9.625c5.922-6.15 9.212-14.352 9.212-23.039 0-2.432-1.974-4.413-4.398-4.413H17.764Zm57.277 4.413c0 8.305-3.117 16.124-8.796 21.996-5.679 5.908-13.263 9.174-21.331 9.174-8.069 0-15.653-3.266-21.332-9.174-5.679-5.872-8.795-13.69-8.795-21.996a2.946 2.946 0 0 1 2.943-2.954h54.368a2.947 2.947 0 0 1 2.943 2.954Z"/><path d="M44.948 69.255c12.432 0 22.682-9.8 24.103-22.344H20.846c1.42 12.544 11.67 22.344 24.102 22.344Zm15.169-7.54c-4.19 3.926-9.558 6.08-15.168 6.08-5.61 0-10.977-2.155-15.167-6.08-3.775-3.51-6.303-8.202-7.203-13.345h44.775c-.935 5.108-3.463 9.8-7.237 13.344ZM58.28 16.157C54.645 13.656 49.9 12.3 44.914 12.3c-5.022 0-9.8 1.39-13.436 3.927-1.282.903-1.836 2.501-1.351 3.995a3.534 3.534 0 0 0 3.394 2.503l22.82-.035c1.559 0 2.91-1.008 3.394-2.502.416-1.529-.139-3.128-1.454-4.031Zm0 3.544a2.08 2.08 0 0 1-1.974 1.46l-22.821.034c-.9 0-1.697-.59-1.974-1.459-.277-.869.07-1.807.797-2.328 3.394-2.363 7.895-3.649 12.605-3.649 4.71 0 9.176 1.286 12.536 3.614.761.522 1.107 1.46.83 2.328Z"/></g></g></svg>