<svg viewBox="0 0 90 90" xmlns="http://www.w3.org/2000/svg"><g fill="none" fill-rule="evenodd"><path fill="#0B0E35" d="M0 0h90v90H0z"/><path d="M59.771 10.003a19.863 19.863 0 0 0-14.077 5.857A20.045 20.045 0 0 0 39.863 30v3.751h9.954V30c0-1.976.585-3.909 1.68-5.554a9.957 9.957 0 0 1 4.468-3.68 9.916 9.916 0 0 1 10.847 2.171 10.02 10.02 0 0 1 2.723 5.12 10.04 10.04 0 0 1-.567 5.776 9.99 9.99 0 0 1-3.666 4.487 9.927 9.927 0 0 1-5.53 1.685H29.908a19.863 19.863 0 0 0-14.077 5.857A20.043 20.043 0 0 0 10 60.002c0 5.304 2.097 10.39 5.831 14.141A19.86 19.86 0 0 0 29.908 80h3.73v-9.999h-3.73a9.93 9.93 0 0 1-7.039-2.928 10.022 10.022 0 0 1-2.916-7.07c0-2.651 1.049-5.195 2.916-7.07a9.93 9.93 0 0 1 7.039-2.928h9.954V80h9.954V50.003h9.954a19.84 19.84 0 0 0 7.717-1.431 19.902 19.902 0 0 0 6.567-4.314A20.05 20.05 0 0 0 80 30.003c0-2.653-.525-5.28-1.546-7.728a20.01 20.01 0 0 0-4.399-6.528 19.902 19.902 0 0 0-6.567-4.314 19.822 19.822 0 0 0-7.717-1.43Z" fill="#FFF" fill-rule="nonzero"/></g></svg>