<svg viewBox="0 0 90 90" xmlns="http://www.w3.org/2000/svg"><g fill="none"><path d="M0 24.655a13.648 13.648 0 0 1 7.58-12.206 13.775 13.775 0 0 1 14.36 1.277c4.296 3.014 21.33 16.492 21.33 16.492v26.628L19.542 37.793V76.57H0V24.655Zm90 39.711a13.66 13.66 0 0 1-7.586 12.194 13.786 13.786 0 0 1-14.353-1.265c-4.298-3.013-21.332-16.492-21.332-16.492V32.12l23.729 19.053V12.396H90v51.97Z" fill="#00AEEF"/><path fill="#44C8F5" d="m63.73 45.709 2.132-1.605V17.475L46.73 32.065z"/><path fill="#0092C8" d="M46.729 32.065 63.73 45.709l-17 12.984z"/><path fill="#44C8F5" d="M24.138 71.359 43.27 56.89 26.192 43.18l-2.054 1.55z"/><path fill="#0092C8" d="m26.192 43.18 17.08-12.918V56.89z"/></g></svg>