<svg viewBox="0 0 90 90" xmlns="http://www.w3.org/2000/svg"><g fill="none"><path fill="#C00" d="M74.858 74.903H15.177v-8.531h-5.07v13.617H74.86v-5.087z"/><path d="M10.201 10v13.618h5.07v-8.53h59.652v8.53h5.07V10H10.2Zm2 18.414c-9.905 0-11.732 6.246-11.732 9.79 0 7.003 4.76 8.154 9.691 9.35l3.274.799c3.23.797 5.525 1.46 5.525 3.942 0 3.369-3.358 4.123-6.376 4.123-5.568 0-6.42-3.369-6.462-5.14H0C0 55.22 1.913 61.91 13.05 61.91c2.676 0 12.03-.84 12.03-10.413 0-5.715-3.826-7.485-7.991-8.548l-7.44-1.908c-1.274-.308-3.23-.842-3.23-3.323 0-2.88 2.89-3.81 5.313-3.81 5.569 0 6.078 3.367 6.25 4.784h6.123c-.044-3.899-2.553-10.278-11.905-10.278Zm62.713.831-10.07 31.836H71.2l6.17-20.902 6.272 20.902H90L79.944 29.245h-5.03Zm-41.77.01v31.816h13.422c6.49 0 8.213-1.11 10.024-2.88 1.677-1.64 2.737-4.034 2.737-6.56 0-3.148-1.017-6.248-4.901-7.71 1.324-.663 3.884-1.95 3.884-6.513 0-3.279-1.986-8.152-9.758-8.152H33.144Zm6.356 5.493h7.595c3.003 0 4.859.798 4.859 3.414 0 2.526-2.077 3.545-4.683 3.545h-7.77v-6.96Zm.002 12.319h8.433c2.384 0 4.771 1.066 4.771 3.856 0 3.235-1.855 4.651-5.08 4.651h-8.124v-8.507Zm35.369 14.092V80l5.04-5.116V61.16h-5.04Z" fill="#002E6D"/></g></svg>