<svg viewBox="0 0 90 90" xmlns="http://www.w3.org/2000/svg"><g fill="none"><path d="M25.37 26h-6.041L0 65h12.08l10.27-20.719 2.416 4.875h-1.812l-5.134 10.36H29.9L32.617 65H52.55V36.36h4.833v12.187C57.383 57.634 64.684 65 73.69 65c8.882 0 16.106-7.163 16.305-16.076l.004-.377V26H79.128v22.547c0 3.029-2.434 5.484-5.437 5.484-2.916 0-5.296-2.317-5.43-5.226l-.006-.258V26H28.389l5.134 10.36h8.155v22.546L25.369 26Z" fill="#FFCF00"/><path d="M66.624 27.645v20.902l.005.267c.136 3.723 3.102 6.717 6.791 6.857l.271.006.265-.005c3.69-.138 6.658-3.13 6.797-6.852l.005-.273V27.645h7.611v20.902l-.004.37c-.195 8.007-6.69 14.438-14.674 14.438-7.983 0-14.478-6.43-14.673-14.437l-.005-.371V34.714H50.92v28.64h-7.61v-28.64h-8.78l-3.503-7.069h35.596Zm-42.264 0 17.7 35.71h-8.435l-2.718-5.485h-10.45l3.504-7.068h3.443l-5.055-10.2-11.277 22.753H2.638l17.698-35.71h4.024Z" fill="#065740"/></g></svg>