<svg viewBox="0 0 90 90" xmlns="http://www.w3.org/2000/svg"><g fill="none" fill-rule="evenodd"><path fill="#1493FF" d="M0 0h90v90H0z"/><path d="M49.322 18.172a53.688 53.688 0 0 1 22.45 6.932c.142.077.23.227.228.39-.073 19.14-10.25 36.814-26.755 46.458a.285.285 0 0 1-.388-.069 49.255 49.255 0 0 1-5.39-15.821.16.16 0 0 1 .275-.126 44.082 44.082 0 0 0 5.264 4.736 44.554 44.554 0 0 0 17.128-29.676 44.108 44.108 0 0 0-17.128-3.432h-1.382a.16.16 0 0 1-.148-.229 49.336 49.336 0 0 1 5.435-8.98.48.48 0 0 1 .411-.183ZM44.949 18a.149.149 0 0 1 .125.229 53.512 53.512 0 0 0-5.184 9.38.4.4 0 0 1-.331.252 43.977 43.977 0 0 0-11.636 3.09 43.739 43.739 0 0 0 1.29 6.372 37.382 37.382 0 0 1 7.994-2.62.16.16 0 0 1 .182.183 52.188 52.188 0 0 0-1.587 9.781.469.469 0 0 1-.308.4c-.933.334-1.848.716-2.74 1.145a44.94 44.94 0 0 0 2.934 4.747c.045.065.072.14.08.218a52.204 52.204 0 0 0 3.814 16.977.16.16 0 0 1-.24.183A54.582 54.582 0 0 1 18 25.505a.492.492 0 0 1 .24-.412A53.74 53.74 0 0 1 44.949 18Z" fill="#FFF" fill-rule="nonzero"/></g></svg>