<svg viewBox="0 0 90 90" xmlns="http://www.w3.org/2000/svg"><g fill="none" fill-rule="evenodd"><path fill="#FFF" d="M0 0h90v90H0z"/><g fill="#000" fill-rule="nonzero"><path d="M10.186 36.514c0-5.35 3.405-8.36 9.678-8.36 4.529 0 5.33 2.95 5.341 4.012 0 2.067-2.915 4.252-2.915 4.252s.167 1.278 2.664 1.266c2.497-.012 4.935-1.66 4.923-5.792 0-4.778-4.995-6.904-9.905-6.892C15.862 25.024 5 25.621 5 36.442c0 9.555 18.162 10.451 18.186 16.614 0 6.677-7.48 8.48-10.001 8.492A3.25 3.25 0 0 1 9.6 58.741c0-5.41 5.365-6.915 5.365-6.915a2.257 2.257 0 0 0-2.39-2.198c-5.376 0-7.515 4.646-7.503 9.15 0 3.833 2.736 6.234 6.822 6.222 7.839 0 16.728-3.846 16.633-12.338-.024-7.943-18.317-10.009-18.341-16.148Z"/><path d="M84.852 57.774c-.071-.143-.239-.108-.478.084a10.517 10.517 0 0 1-7.683 2.83c-8.674 0-10.168-14.26-10.168-14.26s6.596-4.934 7.635-6.916c1.04-1.983-2.258-2.389-2.258-2.389s-4.612 5.626-7.898 7.274c.359-2.389 2.772-8.014 2.927-11.215.156-3.201-3.859-2.39-4.504-2.126 0 1.409-3.585 14.105-4.78 21.092-.752 1.195-1.84 2.604-2.807 2.604-.562 0-.765-1.039-.777-2.532 0-2.066 1.195-5.387 1.195-7.393 0-1.398-.645-1.481-1.195-1.481h-.896c-1.422 0-.956-1.195-2.223-1.195-3.895 0-8.854 4.264-9.069 10.75a11.186 11.186 0 0 1-4.098 1.97c-.98 0-1.195-.92-1.195-1.707 0-1.374 2.246-9.555 2.246-9.555s2.844-.729 4.087-.968c.944-.18 1.195-.25 1.577-.705.382-.453 1.087-1.397 1.66-2.233.574-.836 0-1.505-1.063-1.493a37.054 37.054 0 0 0-5.15.884s1.685-7.907 1.685-8.098c0-.191-.215-.239-.513-.239-.91.109-1.803.338-2.653.68a4.54 4.54 0 0 0-2.39 2.569c-.203.68-1.553 5.972-1.553 5.972s-7.17 2.496-8.209 2.866a.155.155 0 0 0-.107.143s.836 3.225 2.52 3.213a22.709 22.709 0 0 0 4.78-1.457s-1.828 7.286-1.828 9.699c0 1.552.741 3.38 3.776 3.368a11.951 11.951 0 0 0 6.691-2.473 3.92 3.92 0 0 0 3.764 2.39 7.72 7.72 0 0 0 5.114-2.485 3.453 3.453 0 0 0 3.119 2.448c1.075 0 2.198-1.194 3.023-2.388a4.847 4.847 0 0 0 0 .74c.334 3.01 4.779 1.194 5.042.824.155-2.186 0-6.64.932-9.388 1.17 9.46 5.556 15.766 13.43 15.766 4.41 0 6.667-1.29 7.611-2.329a3.26 3.26 0 0 0 .681-3.141Zm-37.805-3.082c-3.776 0 1.195-9.794 4.385-9.805 0 1.254-.072 9.782-4.385 9.805Z"/><path d="M77.755 57.69a9.059 9.059 0 0 0 6.548-2.986c.621-.955-.73-2.388-1.195-2.388a6.119 6.119 0 0 1-4.78 2.28c-2.987 0-2.306-3.26-2.306-3.26s5.736.74 8.042-3.38a5.552 5.552 0 0 0 .466-3.93 4.6 4.6 0 0 0-4.624-2.018c-3.25.275-7.36 3.679-8.269 7.764-.633 3.296.73 7.942 6.118 7.918Zm3.584-13.747c.538 0 .49.86.347 1.78-.203 1.254-1.924 4.443-5.21 4.323.275-1.851 2.725-6.031 4.923-6.103h-.06Z"/></g></g></svg>