<svg viewBox="0 0 90 90" xmlns="http://www.w3.org/2000/svg"><g fill="none"><path d="M90 70.21c0 2.148-1.747 3.786-3.801 3.786H3.8C1.747 74.098 0 72.358 0 70.21V20.786C0 18.74 1.747 17 3.801 17h82.295a3.785 3.785 0 0 1 3.801 3.786V70.21H90Z" fill="#00AEEF"/><path d="M89.178 18.433c-10.685 16.474-27.226 31.618-44.28 31.21-6.268-.103-13.46-1.945-19.521-6.857-4.52-3.684-9.041-9.414-10.788-17.6h-1.85c-2.773 0-4.417 2.456-4.109 4.707.103.512.206 1.126.308 1.74C10.274 39.614 15 48.619 22.911 54.45c6.164 4.503 13.767 7.47 22.089 7.47 15 0 31.027-9.516 45-33.972v-7.163c0-.819-.308-1.74-.822-2.353Z" fill="#FFF"/></g></svg>