<svg viewBox="0 0 90 90" xmlns="http://www.w3.org/2000/svg"><g fill="none" fill-rule="evenodd"><path fill="#FFF" d="M0 0h90v90H0z"/><path d="M73 31.105 44.96 15 18.901 30v16.105l10.139 5.842L17 58.895 44.96 75l26.06-15V43.895l-10.14-5.842L73 31.105ZM46.94 20.526l18.377 10.58-8.238 4.736L46.941 30v-9.474Zm-1.584 12.948 7.921 4.579-8.237 4.736-7.921-4.578 8.237-4.737ZM22.782 32.21 43.06 20.526v9.869L22.782 42.079V32.21ZM25 45.237l8.238-4.737 7.92 4.579-8.237 4.737L25 45.236Zm18.06 24.237-18.377-10.58 8.238-4.736L43.059 60v9.474Zm-6.337-17.527 8.237-4.736 8.238 4.736-8.238 4.737-8.237-4.737Zm30.495 5.842L46.94 69.474V60l20.277-11.684v9.473ZM65.317 45l-8.238 4.737L48.842 45l8.237-4.737L65.317 45Z" fill="#006899" fill-rule="nonzero"/></g></svg>