<svg viewBox="0 0 90 90" xmlns="http://www.w3.org/2000/svg"><g fill="none" fill-rule="evenodd"><path fill="#0071FF" d="M0 0h90v90H0z"/><path d="M68.558 47.386c2.158.509 3.503 2.708 3.005 4.913-3.404 15.063-18.115 24.455-32.858 20.977-9.862-2.326-17.531-9.943-20.22-19.717-.6-2.178.642-4.44 2.774-5.052 2.131-.612 4.345.657 4.944 2.835 1.905 6.92 7.327 12.305 14.306 13.952 10.428 2.46 20.833-4.184 23.24-14.838.499-2.205 2.652-3.58 4.81-3.07ZM50.464 17.77l.302.228 24.705 19.45a4.013 4.013 0 0 1 .674 5.628 3.995 3.995 0 0 1-5.413.826l-.203-.15-24.705-19.45a1.331 1.331 0 0 0-1.497-.103l-.15.103-24.706 19.45a3.995 3.995 0 0 1-5.616-.676 4.014 4.014 0 0 1 .48-5.465l.194-.163 24.705-19.45a9.319 9.319 0 0 1 11.23-.228Z" fill="#FFF" fill-rule="nonzero"/></g></svg>