<svg viewBox="0 0 90 90" xmlns="http://www.w3.org/2000/svg"><path d="m14.705 21.247 3.053 3.89C6.544 38.396 7.364 58.038 19.644 70.32c12.28 12.28 31.923 13.1 45.183 1.886l3.926 3.09c-15.146 13.5-38.194 12.838-52.54-1.508-14.348-14.348-15.01-37.395-1.509-52.54Zm48.632 25.298a8.56 8.56 0 0 1 .727 2.29 4.362 4.362 0 0 1-.218 1.671l-.509 2.036L85 73.478l-5.052 3.235c-.48.293-1.094.25-1.527-.11L55.45 58.722a604.026 604.026 0 0 1-8.614 6.07c-1.73 1.153-2.89.154-3.038.015l-.015-.015Zm-8.796-11.159c.572 1.02.977 2.124 1.2 3.271.109.618-.037 1.636-.4 2.944l-.727 2.581 2.253 2.18-6.796 8.252-4.144-3.235-2.362 1.822-1.196.923c-2.591 1.996-5.15 3.964-7.164 5.506l6.106 8.25-2.58 1.527a.832.832 0 0 1-.91-.11l-7.596-7.014c-1.745.69-2.58 0-2.58 0ZM28.99 11.18a38.28 38.28 0 0 1 49.796 49.795l-3.78-3.78a33.803 33.803 0 0 0 1.672-10.504 33.381 33.381 0 0 0-33.403-33.403A33.83 33.83 0 0 0 32.77 14.96Zm-6.834 37.4 8.36 6.288-2.726 4.834-7.051-7.633a.727.727 0 0 1-.11-.908l1.527-2.581Zm21.263-21.954c.419.713.725 1.485.909 2.29.05.698-.023 1.4-.218 2.072l-.51 2.036 1.927 1.999-6.906 8.941-3.09-3.962c-3.38 2.799-6.542 5.38-7.341 5.997-1.781 1.382-3.017.182-3.017.182ZM16.486 5l20.79 21.481-5.888 8.25L13.36 11.58a1.316 1.316 0 0 1-.109-1.527L16.486 5Z" fill="#00B0F5"/></svg>