<svg xmlns="http://www.w3.org/2000/svg" width="90" height="90" viewBox="0 0 90 90"><defs><linearGradient id="a" x1="-.04%" x2="-.04%" y1="7.069%" y2="99.765%"><stop offset="0%" stop-color="#EB2023"/><stop offset="9.627%" stop-color="#E92026"/><stop offset="20.386%" stop-color="#E31E27"/><stop offset="29.864%" stop-color="#E01E26"/><stop offset="40.43%" stop-color="#D81F27"/><stop offset="50%" stop-color="#CF2027"/><stop offset="60%" stop-color="#C62127"/><stop offset="70%" stop-color="#B92025"/><stop offset="80%" stop-color="#AE1F23"/><stop offset="90%" stop-color="#A01D22"/><stop offset="100%" stop-color="#901C1C"/></linearGradient><linearGradient id="b" x1="11.451%" x2="98.991%" y1="88.896%" y2="39.304%"><stop offset="0%" stop-color="#6C221F"/><stop offset="24.913%" stop-color="#7F2620"/><stop offset="49.826%" stop-color="#982B24"/><stop offset="74.913%" stop-color="#B53125"/><stop offset="100%" stop-color="#CB3327"/></linearGradient><linearGradient id="c" x1="22.534%" x2="98.683%" y1="67.789%" y2="37.185%"><stop offset="0%" stop-color="#E7EBEE"/><stop offset="24.913%" stop-color="#DFE4E8"/><stop offset="49.826%" stop-color="#CAD1D7"/><stop offset="74.913%" stop-color="#A8B5BD"/><stop offset="100%" stop-color="#93A6AD"/></linearGradient><linearGradient id="d" x1="44.072%" x2="44.072%" y1=".03%" y2="99.944%"><stop offset="0%" stop-color="#05AEE9"/><stop offset="9.627%" stop-color="#00A9E0"/><stop offset="20.386%" stop-color="#07A3DC"/><stop offset="29.864%" stop-color="#089DD5"/><stop offset="40.43%" stop-color="#0A92CC"/><stop offset="50%" stop-color="#0F87C3"/><stop offset="60%" stop-color="#127CB8"/><stop offset="70%" stop-color="#0E70AD"/><stop offset="80%" stop-color="#0F63A3"/><stop offset="90%" stop-color="#135393"/><stop offset="100%" stop-color="#184485"/></linearGradient></defs><g fill="none" fill-rule="evenodd"><rect width="90" height="90" fill="#FFF" opacity="0"/><g fill-rule="nonzero" transform="matrix(1 0 0 -1 8.095 79.018)"><g transform="matrix(1 0 0 -1 1.062 65.563)"><path fill="url(#a)" d="M28.2719927,46.207212 L35.5709844,58.3360873 C37.8335962,61.9711291 41.5610891,63.6208043 46.2053939,63.6208043 L64.9834657,63.6208043 L42.999944,36.9806682 L39.8810603,35.2046225 L31.6507639,37.8902986 L27.4802475,43.9253723 L28.2719927,46.207212 Z"/><path fill="url(#b)" d="M42.999944,36.9806682 L38.4106363,31.4176363 L26.2811595,37.9418244 L27.5676189,44.5272729 L28.2719927,46.207212 C27.9961497,41.7440493 35.659388,36.5620467 42.999944,36.9806682 L42.999944,36.9806682 Z"/><path fill="url(#c)" d="M28.2719927,46.207212 L21.7094313,35.3562332 C20.9189027,34.1252984 20.7023031,33.0482061 20.7023031,31.7933811 C20.7023031,30.4131874 21.2906971,29.6563915 23.5504186,28.4579451 C26.1828599,27.1975311 31.4828168,26.649445 36.9463096,26.649445 C45.824048,26.649445 47.9521484,29.4986472 48.8585816,32.5730932 C48.8585816,32.5730932 47.6051417,32.0749441 44.6567982,32.0749441 C35.30409,32.0749441 27.8280073,36.6149346 27.8280073,43.4890657 C27.8280073,44.9315824 28.2719927,46.207212 28.2719927,46.207212 L28.2719927,46.207212 Z"/><path fill="url(#d)" d="M0.0848571313,0.0448658597 L8.91222686,0.0448658597 C12.6350101,0.0448658597 14.1618818,1.56777744 15.6678663,3.06191936 C17.3915335,4.62884535 22.6192425,11.7042379 33.6706445,25.5137047 L21.7096327,25.5137047 C16.818576,25.5137047 15.2715571,24.6804461 13.3799076,21.7956505 L0.0848571313,0.0448658597 Z"/></g><path fill="#334357" d="M4.70375395,4.70375395 L5.34346449,2.40832202 L5.35522387,2.40832202 L6.00434192,4.70375395 L6.5476255,4.70375395 L6.96861148,1.82976029 L6.53351424,1.82976029 L6.23482586,4.17458163 L6.22541835,4.17458163 L5.55513341,1.82976029 L5.08946177,1.82976029 L4.43799185,4.16517412 L4.43093622,4.16517412 L4.13224785,1.82976029 L3.7183175,1.82976029 L4.1369516,4.70375395 L4.70375395,4.70375395 Z M3.35142469,4.70375395 L3.35142469,4.33450926 L2.50474898,4.33450926 L2.50474898,1.82976029 L2.08611488,1.82976029 L2.08611488,4.33450926 L1.23943917,4.33450926 L1.23943917,4.70375395 L3.35142469,4.70375395 Z" transform="translate(66.836 .11)"/></g></g></svg>