<svg viewBox="0 0 90 90" xmlns="http://www.w3.org/2000/svg"><g fill="none" fill-rule="evenodd"><path fill="#1E1E1E" d="M0 0h90v90H0z"/><path d="M70.48 46.102c-.054-.005-.057-.082-.004-.092 2.325-.408 4.477-1.906 4.477-4.408 0-3.111-2.3-4.6-6.342-4.6H52.61c-.09.666-.258 1.128-.437 1.7l-4.112 11.492-4.133-11.543c-.185-.539-.418-1.097-.49-1.651h-3.781v.587c.436.154.332 1.367.174 2.43l-1.954 13.76c-.116.78-.49.995-1.188.995h-1.668c-.705 0-.982-.32-.982-.995v-13.44c.003-.706.046-2.606.45-2.748v-.588h-4.28v8.681h-7.902v-8.68H18v.587c.391.137.444 1.933.448 2.685v12.454c-.006.751-.057 2.547-.448 2.685V56h4.305v-9.09h7.9V56h8.871c0-.47.065-1.457.145-2.033l1.741-12.5L46.116 56h1.335l5.197-14.532s1.23 8.504 1.735 12.5c.144 1.148.153 1.712.153 2.032h4.485v-.587c-.422-.29-.723-2.827-.723-2.827-.66-4.842-1.85-13.382-1.85-13.382-.105-.671.184-.976.779-.976h3.995c.815 0 1.034.39 1.034 1.25l.002 13.14c0 1.166-.078 2.743-.442 2.793v.588h7.23c4.54 0 6.954-1.84 6.954-5.115.003-2.764-2.273-4.541-5.52-4.782Zm-4.37-7.873h1.26c2.424.03 3.831 1.128 3.831 3.537 0 2.544-1.232 3.845-3.805 3.845h-1.285v-7.382h-.001ZM13.467 54v1.5H0V54h13.467Zm54.454-7.216c2.504.025 4.251 1.639 4.251 4.047-.001 2.68-1.26 3.953-3.622 3.953h-.262c-1.575 0-2.178-.428-2.178-1.888v-6.112h1.81Z" fill="#FFF" fill-rule="nonzero"/></g></svg>