<svg viewBox="0 0 90 90" xmlns="http://www.w3.org/2000/svg"><g fill="none"><rect fill="#884FFC" width="90" height="90" rx="8.824"/><path d="M51.176 11.47c0 2.924-2.567 5.295-5.735 5.295-3.167 0-5.735-2.37-5.735-5.295 0-2.923 2.568-5.294 5.735-5.294 3.168 0 5.735 2.37 5.735 5.294m17.648 27.486a2.775 2.775 0 0 1-1.61 2.514l-4.738 2.207 4.739 2.206a2.774 2.774 0 0 1 1.609 2.514c0 2.033-2.128 3.377-3.981 2.514l-7.846-3.654a3.952 3.952 0 0 1-2.291-3.58c0-1.534.893-2.93 2.291-3.581l7.846-3.654c1.853-.863 3.98.481 3.98 2.514ZM52.93 53.09c-.308 1.96-1.698 6.028-7.93 6.028-6.232 0-7.622-4.067-7.93-6.028-.085-.54.316-1.031.838-1.031h14.184c.522 0 .923.49.838 1.031Zm-20.283-7.06c0 2.356-1.975 4.265-4.412 4.265-2.436 0-4.411-1.91-4.411-4.265v-4.705c0-2.356 1.975-4.265 4.411-4.265 2.437 0 4.412 1.91 4.412 4.265v4.705Zm35.034-27.5H57.143a4.77 4.77 0 0 0-3.656 1.71l-1.37 1.635a4.77 4.77 0 0 1-3.656 1.709H41.54a4.77 4.77 0 0 1-3.656-1.71l-1.37-1.634a4.771 4.771 0 0 0-3.657-1.71H22.32c-4.043 0-7.32 3.295-7.32 7.36v34.69c0 4.065 3.277 7.361 7.32 7.361h45.36c4.043 0 7.32-3.296 7.32-7.36V25.89c0-4.066-3.277-7.362-7.32-7.362ZM54.064 74.118H37.7c-2.303 0-4.17 1.777-4.17 3.97 0 2.193 1.867 3.97 4.17 3.97h16.364c2.304 0 4.171-1.777 4.171-3.97 0-2.193-1.867-3.97-4.17-3.97" fill="#FFF"/></g></svg>