<svg viewBox="0 0 90 90" xmlns="http://www.w3.org/2000/svg"><defs><linearGradient x1="72.293%" y1="50.156%" x2="61.29%" y2="40.896%" id="a"><stop stop-color="#FF3148" offset="0%"/><stop stop-color="#FF5B6D" offset="100%"/><stop stop-color="#FF3148" offset="100%"/></linearGradient></defs><g fill="none" fill-rule="evenodd"><path fill="#FFF" d="M0 0h90v90H0z"/><g fill-rule="nonzero"><path d="m.656 38.398 21.067 3.077 9.385 19.038v.184a.676.676 0 0 0 1.128 0v-.184L51.499 1.492v-.205a.656.656 0 0 0-.656-.657.47.47 0 0 0-.287 0l-.102.103L.348 37.167l-.164.123a.739.739 0 0 0-.184.472.677.677 0 0 0 .471.636h.185Z" fill="url(#a)" transform="translate(13 15)"/><path d="m24.763 15.733 2.951 17.253v.472a2.05 2.05 0 0 0 1.885 1.395c.337.003.67-.082.964-.247l.389-.266 10.492-7.632.308-.225c.411-.382.648-.916.655-1.477a2.052 2.052 0 0 0-.717-1.539l-.43-.246-15.452-8.206h-.123a.512.512 0 0 0-.246 0 .655.655 0 0 0-.676.718Zm33.752 40.25.615-.103 17.255-2.503h.143a.657.657 0 0 0 .472-.636.658.658 0 0 0-.185-.471L64.233 39.94l-.328-.307a1.884 1.884 0 0 0-1.21-.431 2.05 2.05 0 0 0-1.762 1.128l-.164.492-3.996 12.31-.184.574a1.56 1.56 0 0 0 0 .307 2.05 2.05 0 0 0 1.926 1.97Z" fill="#FF3148"/></g></g></svg>