<svg viewBox="0 0 90 90" xmlns="http://www.w3.org/2000/svg"><g fill="none" fill-rule="evenodd"><path fill="#FFF" d="M0 0h90v90H0z"/><path d="M88.465 33.479c-6.33-4.426-17.074-6.542-27.242-7.504C74.844 16.739 80.6 17.894 80.6 17.894 73.693 9.62 68.32 7.119 68.32 7.119c-7.865.577-18.033 7.504-25.707 13.853C45.875 4.232 51.247.962 51.247.962c-5.564-.77-11.127-.577-16.499.577-3.07 3.27-5.18 8.658-6.523 14.43l-8.057-7.888c-4.988 3.078-9.209 7.311-12.47 11.93l8.441 8.273C4.053 31.17 1.175 35.018 1.175 35.018-.168 40.405-.36 45.793.6 51.18c3.07-4.425 11.894-7.119 19.952-8.466C6.163 60.031 6.355 68.112 6.355 68.112c2.878 4.618 6.523 8.659 10.935 12.122 0-5.387 3.645-12.507 8.25-19.048 1.918 19.24 7.673 26.744 7.673 26.744 5.372 1.347 10.936 1.924 16.5 1.347-6.715-7.504-8.634-25.783-9.21-36.365l29.353 28.861c4.796-3.27 9.017-7.311 12.278-12.122l-28.777-28.86c29.161 1.154 36.26 9.042 36.26 9.042.767-5.387.383-10.967-1.152-16.354Z" fill="#010101" fill-rule="nonzero"/></g></svg>