<svg xmlns="http://www.w3.org/2000/svg" width="90" height="90" viewBox="0 0 90 90"><g fill="none" fill-rule="evenodd"><rect width="90" height="90" fill="#000" opacity="0"/><path fill="#FFF" d="M85,45.0359375 C85,22.9265625 67.0723437,5 45.0359375,5 C22.9265625,5 5,22.9265625 5,45.0359375 C5,67.0723437 22.9265625,85 45.0359375,85 C67.0723437,85 85,67.0723437 85,45.0359375 L85,45.0359375 Z"/><path fill="#000" d="M51.8978594,61.8736563 C60.4718437,60.8611406 69.5910156,57.7436719 69.5910156,42.9344063 C69.5910156,38.7251875 68.1087656,35.2949063 65.6946094,32.6444219 C66.0840781,31.6320781 67.33,27.8123281 65.2247031,22.5129063 C65.2247031,22.5129063 62.1070625,21.4991875 54.78175,26.4091406 C51.6641094,25.5526875 48.2350312,25.006125 45.0395312,25.006125 C41.7647969,25.006125 38.3345156,25.5526875 35.2947344,26.4091406 C27.8900156,21.4991875 24.7725469,22.5129063 24.7725469,22.5129063 C22.668625,27.8123281 23.9160937,31.6320781 24.3053906,32.6444219 C21.8886562,35.2947344 20.4077812,38.7251875 20.4077812,42.9344063 C20.4077812,57.7436719 29.5269531,60.8611406 38.1009375,61.8736563 C37.0105625,62.8107188 35.9970156,64.6018281 35.6075469,67.0964219 C33.4243906,68.0310781 27.7342969,69.8245938 24.3053906,63.9009219 C24.3053906,63.9009219 22.278125,60.2382656 18.4595781,60.0046875 C18.4595781,60.0046875 14.6398281,59.9268281 18.1479687,62.3408125 C18.1479687,62.3408125 20.7192187,63.511625 22.4350469,67.9530469 C22.4350469,67.9530469 24.7725469,75.3589688 35.5283125,73.0199219 L35.5283125,79.6445 C35.5283125,80.6595938 34.7497187,81.8276563 32.8015156,81.5162188 C17.5238906,76.4491719 6.534375,61.9513438 6.534375,44.9604688 C6.534375,23.6811406 23.759,6.4566875 45.0395312,6.4566875 C66.2397969,6.4566875 83.5434844,23.6813125 83.4658867,44.9604688 C83.4658867,61.9513438 72.4749062,76.3713125 57.1983125,81.5162188 C55.2489062,81.9056875 54.4701406,80.737625 54.4701406,79.6445 L54.4701406,68.9679688 C54.4703125,65.3804219 53.2995,63.0442969 51.8978594,61.8736563 L51.8978594,61.8736563 Z M0,0 L90,0 L90,90 L0,90 L0,0 Z"/></g></svg>