<svg viewBox="0 0 90 90" xmlns="http://www.w3.org/2000/svg"><path d="M64.62 53.88a17.911 17.911 0 0 1 11.475 4.147 17.736 17.736 0 0 1 6.105 10.51L86 90H60.664l-6.408-36.12H64.62ZM86 0l-.004.025c-.072.4-.999 5.603-1.961 11.068l-.118.67-.236 1.34c-1.83 10.523-1.555 18.174-15.405 26.199L48.434 50.669c-13.198 7.55-15.372 18.196-17.082 28.037l-.121.701-.121.699c-.06.348-.12.695-.182 1.041-1.115 6.36-1.581 8.814-1.581 8.814H4s.967-5.405 1.969-11.092l.177-1.006.059-.335.117-.67C8.15 66.335 7.874 58.684 21.724 50.669L41.57 39.302c12.409-7.1 15.073-16.94 16.774-26.272l.127-.708.063-.353.123-.704c.143-.82.283-1.635.426-2.442C60.198 2.463 60.664 0 60.664 0H86ZM29.384.01l6.37 36.122H25.38a17.894 17.894 0 0 1-11.442-4.157 17.688 17.688 0 0 1-6.09-10.491L4.037.01h25.347Z" fill="#00D37E"/></svg>