<svg viewBox="0 0 90 90" xmlns="http://www.w3.org/2000/svg"><g fill="none"><path d="M74.3 26.461c-4.912 0-9.138 3.186-10.83 7.665a41.37 41.37 0 0 0-.388 1.175l-6.838 29.237h15.707c5.396 0 9.963-3.843 11.256-9.024v.003L90 26.46H74.3Z" fill="#16B14B"/><path d="M48.147 18a11.52 11.52 0 0 0-11.073 8.315c-.104.358-.188.725-.256 1.095L26.156 73H41.85c5.378 0 9.9-3.678 11.164-8.644h.004L63.858 18h-15.71Z" fill="#F27227"/><path d="M18.052 26.461c-5.09 0-9.444 3.42-11.007 8.158-.034.106-.068.212-.101.32l-.262 1.018L0 64.537h16.086c4.806 0 8.932-3.148 10.534-7.56l.637-2.719 6.498-27.797H18.052Z" fill="#1169B0"/><path d="m15.116 35.956-.006.025h-.244c-1.12 0-2.177.394-3.145 1.174-.932.75-1.544 1.664-1.756 2.413h-.008l-3.603 15.45.205-.003c1.133 0 2.204-.396 3.176-1.183.977-.783 1.602-1.746 1.854-2.856l.787-3.353 7.165.002c1.12 0 2.2-.413 3.178-1.191.975-.779 1.598-1.735 1.85-2.842l.044-.203-11.24-.008.75-3.186 9.735-.014c1.12 0 2.179-.39 3.144-1.163.963-.775 1.566-1.748 1.836-2.845l.05-.205-13.772-.012Zm39.741.938c-.62-.613-1.426-.923-2.4-.923l-13.74-.015-4.437 19.038h.006l-.006.024.205-.002c1.133 0 2.203-.396 3.176-1.184.977-.783 1.6-1.745 1.854-2.855l.798-3.392 9.511.008c1.116 0 2.114-.126 3.082-.897.963-.77 1.65-1.991 1.922-3.115l.835-3.528c.06-.278.095-.57.101-.867.016-.908-.288-1.68-.907-2.292Zm-4.288 6.484-9.266-.009.75-3.191 9.267.01-.75 3.19Zm32.241-6.473c-.607-.613-1.414-.924-2.393-.924H65.92l-.029.135c-.065.3-.1.574-.105.839-.015.928.285 1.71.895 2.326.61.612 1.416.923 2.395.923h3.033l-3.455 14.814.206-.002c1.133 0 2.203-.396 3.176-1.184.977-.783 1.6-1.745 1.853-2.855l2.532-10.774h7.152l.03-.134a4.49 4.49 0 0 0 .1-.865c.015-.916-.283-1.689-.893-2.299Z" fill="#FFF"/></g></svg>