<svg viewBox="0 0 90 90" xmlns="http://www.w3.org/2000/svg"><g fill="none" fill-rule="evenodd"><path fill="#212720" d="M0 0h90v90H0z"/><path d="M43.216 21.522c3.255 2.983 6.5 5.976 9.753 8.96 2.16 1.982 4.339 3.945 6.488 5.939.413.382.772.839 1.083 1.308.452.683.416 1.495.43 2.269.03 1.819.01 3.639.01 5.459 0 4.464.005 8.928-.005 13.393a15.09 15.09 0 0 1-.121 1.703c-.084.723-.573 1.233-1.312 1.344a10.08 10.08 0 0 1-1.473.1L50.025 62h-8.042c-5.34 0-10.681.001-16.022-.004a11.07 11.07 0 0 1-1.41-.083c-.88-.117-1.371-.622-1.463-1.485a13.23 13.23 0 0 1-.084-1.392c-.005-6.094-.005-12.187-.001-18.281 0-.528.063-1.058.05-1.585-.023-1.057.488-1.854 1.23-2.537 2.268-2.088 4.55-4.16 6.817-6.25 2.544-2.345 5.075-4.704 7.617-7.052.67-.617 1.352-1.22 2.036-1.823.768-.678 1.703-.682 2.463.014Zm24.94 30.804c2.611-.023 4.793 1.922 4.843 4.9.042 2.418-2.122 4.867-4.866 4.7-2.679.177-4.951-2.275-4.9-4.752.058-2.786 2.127-4.822 4.923-4.848ZM41.45 31.914c-3.121 2.887-6.232 5.785-9.373 8.65-.61.558-.89 1.14-.88 1.976.042 3.384.017 6.77.017 10.154 0 .17-.003.339.01.507.041.507.162.632.663.67.235.017.472.01.707.01 3.153.002 6.305.002 9.457 0 3.217 0 6.433.003 9.65 0 1.15 0 1.15-.005 1.15-1.101 0-3.575-.006-7.15.008-10.725.002-.46-.134-.785-.481-1.102-3.302-3.007-6.588-6.032-9.878-9.051-.477-.438-.566-.435-1.05.012Z" fill="#FFF" fill-rule="nonzero"/></g></svg>