<svg viewBox="0 0 90 90" xmlns="http://www.w3.org/2000/svg"><g fill="none" fill-rule="evenodd"><path fill="#1B212C" d="M0 0h90v90H0z"/><g fill-rule="nonzero"><path d="M20.44 50.146a.164.164 0 0 0-.273-.061c-.785.77-1.883 1.214-3.187 1.214-2.582 0-4.052-1.712-4.052-4.201 0-2.476 1.47-4.182 4.052-4.182 1.304 0 2.409.437 3.187 1.208l.04.04c.1.103.273.069.326-.068a7.857 7.857 0 0 1 1.145-1.978.208.208 0 0 0-.027-.286c-1.21-1.016-2.821-1.603-4.671-1.603-4.026 0-6.98 2.844-6.98 6.875C10 51.13 12.948 54 16.98 54c1.777 0 3.334-.546 4.525-1.494a.21.21 0 0 0 .04-.286 8.13 8.13 0 0 1-1.105-2.074Z" fill="#FFF"/><path d="M21.611 47.248c0-3.725 2.728-6.357 6.455-6.357 3.772 0 6.474 2.632 6.474 6.357 0 3.724-2.702 6.377-6.474 6.377-3.727 0-6.455-2.653-6.455-6.377Zm10.068 0c0-2.374-1.544-3.888-3.613-3.888-2.043 0-3.587 1.514-3.587 3.888 0 2.373 1.544 3.887 3.587 3.887 2.069 0 3.613-1.514 3.613-3.887Zm11.272-6.255v2.278a.24.24 0 0 1-.233.239h-.027a2.619 2.619 0 0 0-.4-.027c-2.182 0-3.56 1.316-3.56 3.88v5.853c0 .13-.106.238-.232.238h-2.402a.239.239 0 0 1-.233-.238v-12.08c0-.13.107-.238.233-.238h2.262c.127 0 .233.109.233.238v1.596c.792-1.268 2.203-1.923 4.126-1.97a.228.228 0 0 1 .233.231Zm13.155-4.754v16.983a.24.24 0 0 1-.233.24h-2.29a.239.239 0 0 1-.232-.24v-1.384c-.965 1.2-2.389 1.787-4.066 1.787-3.56 0-6.201-2.544-6.201-6.452 0-3.909 2.641-6.426 6.201-6.426 1.584 0 2.988.54 3.946 1.699v-6.207c0-.13.106-.239.233-.239h2.409c.126 0 .233.103.233.239Zm-2.822 10.94c0-2.4-1.583-3.928-3.653-3.928-2.07 0-3.653 1.527-3.653 3.928s1.584 3.929 3.653 3.929c2.07 0 3.653-1.528 3.653-3.929Zm5.43-6.281h2.402c.126 0 .233.109.233.238v12.086a.24.24 0 0 1-.233.24h-2.402a.239.239 0 0 1-.233-.24V41.136c0-.136.1-.238.233-.238Zm18.405-4.659v7.394c-.153 1.984-1.897 2.285-2.868 2.387-.033-3.574-2.07-5.266-5.576-5.266-1.896 0-3.72.478-5.024 1.426a.249.249 0 0 0-.073.307l.898 1.712c.06.116.2.157.313.095.007-.007.02-.007.027-.013.918-.676 2.235-1.085 3.513-1.085 2.043 0 3.054 1.01 3.054 2.728v.191h-3.167c-3.72 0-5.097 1.65-5.097 3.745 0 2.19 1.77 3.765 4.571 3.765 1.837 0 3.167-.614 3.86-1.692v1.296c0 .13.106.239.232.239h2.243a.24.24 0 0 0 .233-.239v-3.997a.104.104 0 0 0-.1-.102s-2.116-.014-2.569-.014c-.046 0-.08.028-.093.075-.073.273-.106.348-.106.348-.48 1.296-1.697 1.951-3.101 1.951-1.47 0-2.342-.682-2.342-1.74 0-.92.525-1.67 2.482-1.67h5.968c4.565-.069 5.536-3.424 5.603-5.505-.1 3.656-.991 5.123-2.715 5.982-.106.055-.14.11-.153.212v4.453c0 .13.107.24.233.24h2.402a.24.24 0 0 0 .233-.24v-16.71c0-.403-.106-.512-.233-.512h-2.402a.237.237 0 0 0-.246.239c0-.007 0 0 0 0Z" fill="#FFF"/><path d="M58.315 37.57c0-.867.685-1.55 1.61-1.55s1.61.642 1.61 1.488c0 .907-.665 1.61-1.61 1.61-.925 0-1.61-.683-1.61-1.549Z" fill="#FABC1C"/></g></g></svg>