<svg viewBox="0 0 90 90" xmlns="http://www.w3.org/2000/svg" xmlns:xlink="http://www.w3.org/1999/xlink"><defs><radialGradient cx="187542.24%" cy="10438.2%" fx="187542.24%" fy="10438.2%" r="12271.049%" gradientTransform="matrix(-.9367 0 0 -1 3632.147 208.764)" id="b"><stop stop-color="#94BC42" offset="0%"/><stop stop-color="#93BA42" offset="46%"/><stop stop-color="#8DB241" offset="68%"/><stop stop-color="#85A63F" offset="84%"/><stop stop-color="#78943C" offset="97%"/><stop stop-color="#758F3B" offset="100%"/></radialGradient><linearGradient x1="187182%" y1="7550%" x2="187182%" y2="-809%" id="c"><stop stop-color="#93B93D" offset="0%"/><stop stop-color="#B8D17F" offset="36%"/><stop stop-color="#FFF" offset="100%"/></linearGradient><path d="M35.88 1.702c-4.38.323-9.69 1.598-13.213 3.17C11.075 9.859 4.33 18.529 2.058 31.377c-1.744 10.206.247 24.652 11.04 34.534 9.146 8.34 21.714 9.59 28.375 9.59a49.82 49.82 0 0 0 11.707-1.323c13.801-3.674 21.143-10.2 25.335-22.58 3.386-10.114 2.988-25.159-5.52-36.004C62.821 2.874 46.514 1.5 39.974 1.5c-1.435 0-2.822.059-4.121.184" id="a"/></defs><g transform="translate(4 7)" fill="none" fill-rule="evenodd"><path d="M35.685.21c-4.546.337-10.058 1.663-13.714 3.3C9.938 8.696 2.936 17.718.58 31.086c-1.81 10.62.256 25.651 11.46 35.935 9.493 8.677 22.538 9.977 29.452 9.977a51.59 51.59 0 0 0 12.152-1.376C67.968 71.8 75.588 65.01 79.939 52.128c3.515-10.524 3.102-26.179-5.73-37.464C63.651 1.43 46.725 0 39.937 0c-1.49 0-2.93.061-4.279.191" fill="#787A7C"/><mask id="d" fill="#fff"><use xlink:href="#a"/></mask><use fill="url(#b)" fill-rule="nonzero" xlink:href="#a"/><path d="M66.465 10.262c.403 6.285-11.043 14.421-25.455 14.856-14.393-.435-25.854-8.598-25.454-14.856.495-6.819 10.959-12.57 25.454-12.533 14.496.038 24.979 5.714 25.455 12.533" fill="url(#c)" fill-rule="nonzero" mask="url(#d)"/></g></svg>