<svg viewBox="0 0 90 90" xmlns="http://www.w3.org/2000/svg"><g fill="none" fill-rule="evenodd"><path d="m32.774 0 16.138 21.521-13.205 17.61a9.783 9.783 0 0 0-.182 11.488l.182.25L48.914 68.48 32.774 90H7.826A7.826 7.826 0 0 1 0 82.174V7.826A7.826 7.826 0 0 1 7.826 0h24.948Zm22.01 29.348 9.977 13.305a3.913 3.913 0 0 1 0 4.696l-9.977 13.303-9.98-13.303a3.913 3.913 0 0 1 0-4.696l9.98-13.305Z" fill="#F36A4D"/><path d="M90 7.826v74.348A7.826 7.826 0 0 1 82.174 90H44.51l29.348-39.13a9.783 9.783 0 0 0 .27-11.362l-.27-.378L44.51 0h37.663A7.826 7.826 0 0 1 90 7.826Z" fill="#06378C"/></g></svg>