<svg viewBox="0 0 90 90" xmlns="http://www.w3.org/2000/svg"><g fill="none" fill-rule="evenodd"><path fill="#005AFF" d="M0 0h90v90H0z"/><path d="M36.578 49.875h2.044v-9.75h-2.044v9.75Zm-6.526-9.281a1.294 1.294 0 0 0-.396-.438 1.185 1.185 0 0 0-.593-.156c-.23 0-.429.063-.593.156-.165.094-.297.25-.396.438l-5.702 9.062-.165.219h2.34l.033-.063 4.417-7.062 1.945 3.094h-2.868l-.033.093-.824 1.344-.132.219h4.912l1.45 2.313.033.062h2.472l-.132-.219-5.768-9.062Zm11.075 4.281 6.362-4.5.362-.25h-3.197l-.033.031L39.347 44c-.198.156-.33.281-.396.438a.954.954 0 0 0-.098.437c0 .156 0 .313.065.406.066.125.165.25.33.375l5.57 4.157.034.03h3.164l-.363-.25-6.526-4.718ZM19.669 46.75l-6.79-6.344a1.157 1.157 0 0 0-.396-.312 1.061 1.061 0 0 0-.428-.094c-.33 0-.594.094-.758.313-.198.218-.297.5-.297.843v8.719h1.978v-6.719l6.757 6.438c.264.25.593.406.89.406.296 0 .56-.094.725-.313.198-.187.264-.468.264-.812v-8.813h-1.978v6.688h.033Zm56.562-3.781a4.13 4.13 0 0 0-1.022-1.5 4.706 4.706 0 0 0-1.582-.969 6.062 6.062 0 0 0-2.043-.344h-2.44a5.68 5.68 0 0 0-1.977.344 4.706 4.706 0 0 0-1.582.969c-.462.406-.792.937-1.055 1.5-.264.593-.363 1.25-.363 1.937 0 .688.132 1.375.363 1.969.263.594.593 1.125 1.055 1.563.461.437.988.78 1.582 1.03a5.16 5.16 0 0 0 1.977.376h2.44c.725 0 1.417-.125 2.01-.375a4.534 4.534 0 0 0 1.582-1.032c.462-.437.791-.968 1.055-1.562.264-.594.363-1.25.363-1.969a4.176 4.176 0 0 0-.363-1.937Zm-1.879 3.187a2.4 2.4 0 0 1-.626.938c-.264.25-.593.468-.956.625-.362.156-.758.218-1.186.218h-2.44c-.428 0-.824-.062-1.186-.218a2.635 2.635 0 0 1-.923-.625c-.264-.25-.462-.563-.626-.938-.133-.375-.231-.75-.231-1.187 0-.438.066-.813.23-1.188.132-.343.363-.656.627-.906.263-.25.56-.469.923-.594.362-.156.758-.218 1.186-.218h2.44c.428 0 .824.062 1.186.218.363.157.692.344.956.594s.462.563.626.906c.132.344.23.75.23 1.188-.032.437-.098.843-.23 1.187Zm-9.229-6.031H62.75l-.033.063-4.384 7.062-4.384-7.063-.033-.062h-2.472l.132.219 5.735 9.031c.099.188.23.313.396.438.164.124.362.156.593.156a1.057 1.057 0 0 0 .956-.594l5.735-9.031.132-.219Zm-16.48 9.75h2.043v-9.75h-2.044v9.75ZM79 41.375c0 .625-.528 1.094-1.187 1.094s-1.187-.5-1.187-1.094c0-.625.528-1.094 1.187-1.094.66 0 1.187.469 1.187 1.094Zm-2.077 0c0 .5.396.875.89.875a.87.87 0 0 0 .89-.875.87.87 0 0 0-.89-.875c-.527 0-.89.375-.89.875Zm.693.563h-.264v-1.094c.098 0 .264-.031.461-.031.23 0 .33.03.396.093.065.063.132.125.132.25s-.1.219-.231.25c.099.032.164.125.198.282a.9.9 0 0 0 .099.28h-.297c-.033-.03-.066-.124-.1-.28-.032-.125-.098-.157-.23-.157h-.132v.407h-.032Zm0-.625h.131c.165 0 .264-.063.264-.157 0-.093-.066-.156-.264-.156h-.164v.313h.033Z" fill="#FFF" fill-rule="nonzero"/></g></svg>