<svg viewBox="0 0 90 90" xmlns="http://www.w3.org/2000/svg"><path d="M86.632 16.968a4.14 4.14 0 0 1-1.5 2.494 4.054 4.054 0 0 1-2.65 1.048h-66.14a2.802 2.802 0 0 1-2.299-1.048 2.939 2.939 0 0 1-.6-2.494l2.35-13.42a4.189 4.189 0 0 1 1.5-2.494 4.054 4.054 0 0 1 2.65-1.048h66.09a2.852 2.852 0 0 1 2.299 1.048c.572.696.793 1.615.6 2.494l-2.3 13.42ZM55.337 48.446H39.439a2.802 2.802 0 0 1-2.3-1.047 2.939 2.939 0 0 1-.6-2.495l2.35-13.37a4.189 4.189 0 0 1 1.5-2.494 4.054 4.054 0 0 1 2.65-1.047h29.995a2.802 2.802 0 0 1 2.3 1.047c.572.697.793 1.615.6 2.495l-2.15 13.37a4.14 4.14 0 0 1-1.5 2.494 4.004 4.004 0 0 1-2.65 1.047H55.338ZM14.943 27.993h13.498a2.852 2.852 0 0 1 2.3 1.047c.563.681.784 1.581.6 2.445l-4.3 24.295h32.945a2.852 2.852 0 0 1 2.3 1.047c.571.697.792 1.616.6 2.495l-2.35 13.37a4.14 4.14 0 0 1-1.5 2.494 4.054 4.054 0 0 1-2.65 1.048H23.443l-1.8 10.276a4.09 4.09 0 0 1-1.45 2.445 4.054 4.054 0 0 1-2.65 1.047H4.046a2.802 2.802 0 0 1-2.3-1.047 2.89 2.89 0 0 1-.7-2.445l2.6-14.966.4-1.696 6.999-38.363a4.09 4.09 0 0 1 1.45-2.445 4.054 4.054 0 0 1 2.449-1.047Z" fill="#499ED9" fill-rule="evenodd"/></svg>