<svg viewBox="0 0 90 90" xmlns="http://www.w3.org/2000/svg"><path d="m83.16 64.042-10.29-5.91c-1.05-.595-2.31-.595-3.326 0l-7.035 4.056a13.893 13.893 0 0 0-6.966 12.03v6.715c0 1.19.63 2.308 1.68 2.903l10.291 5.945c1.12.63 2.485-.175 2.485-1.434v-7.379c0-3.987 2.135-7.624 5.565-9.617l7.596-4.371c1.12-.7 1.12-2.274 0-2.938ZM51.938 18.579V9.067c0-1.19-.63-2.308-1.68-2.903L39.968.22c-1.12-.63-2.486.175-2.486 1.434v10.142c0 3.986-2.135 7.623-5.565 9.617L11.93 32.952C7.66 35.505 5 40.087 5 45.052v6.715c0 1.189.63 2.308 1.68 2.903l10.29 5.945c1.12.63 2.486-.175 2.486-1.434v-7.379c0-3.987 2.135-7.624 5.565-9.617l19.987-11.54a13.959 13.959 0 0 0 6.93-12.066Zm22.786 21.158-10.29-5.945c-1.05-.595-2.31-.595-3.325 0L37.237 47.57a13.893 13.893 0 0 0-6.965 12.03v6.715c0 1.19.63 2.308 1.68 2.903l10.29 5.945c1.12.63 2.486-.175 2.486-1.434V66.35c0-3.987 2.135-7.624 5.565-9.617l24.431-14.094a1.674 1.674 0 0 0 0-2.902Z" fill="#F7618B"/></svg>