<svg viewBox="0 0 90 90" xmlns="http://www.w3.org/2000/svg"><g fill="none" fill-rule="evenodd"><path fill="#007CCE" d="M0 0h90v90H0z"/><path d="M69.92 39.89c0-1.852-.058-3.605-.058-5.14 0-9.766-4.643-14.649-8.54-17.026a25.855 25.855 0 0 0-13.024-3.298c-9.659 0-16.775 2.743-21.172 8.141a20.675 20.675 0 0 0-4.397 11.172c-.01.106-.01.212 0 .317a5.226 5.226 0 0 0 1.69 3.39 5.135 5.135 0 0 0 3.522 1.334 4.78 4.78 0 0 0 3.43-.989 4.862 4.862 0 0 0 1.811-3.101c1.119-5.25 3.602-10.112 14.213-10.112 5.624 0 9.295 1.169 11.219 3.575a6.942 6.942 0 0 1 1.47 2.5 7 7 0 0 1 .326 2.888c0 1.783-.668 3.962-5.89 5.12-3.386.744-6.949 1.16-10.394 1.556l-1.649.198C22.945 42.742 20 53.142 20 59.124c0 10.855 12.937 16.996 22.28 17.293h1.728a26.797 26.797 0 0 0 10.346-1.833l.284-.118a23.99 23.99 0 0 0 8.58-5.663 24.262 24.262 0 0 0 5.456-8.758c1.522-4.13 1.384-12.648 1.247-20.155Zm-9.932 11.043c0 12.44-11.838 15.163-16.402 15.163-6.223 0-12.927-3.337-12.927-8.745 0-5.824 5.193-7.656 16.108-9.34 2.836-.435 7.46-1.258 10.521-1.852a13.553 13.553 0 0 0 2.7-.871v5.645Z" fill="#FFF" fill-rule="nonzero"/></g></svg>