<svg viewBox="0 0 90 90" xmlns="http://www.w3.org/2000/svg"><g fill="none" fill-rule="evenodd"><path fill="#1E282E" d="M0 0h90v90H0z"/><g fill-rule="nonzero"><path d="m22.729 61.092.5-5.825h3.023l.42 5.825h8.629l-4.825-32.411H18.284L14 61.092h8.729Zm3.283-11.571h-2.883c.213-2.87.747-7.4 1.601-13.593.428 5.392.855 9.923 1.282 13.593Z" fill="#FFF"/><path d="M46.572 61.773c2.375 0 4.374-.527 5.996-1.582 1.621-1.054 2.669-2.282 3.143-3.683.473-1.402.71-3.777.71-7.127V48.12h-8.428v4.064c0 1.775-.097 2.902-.29 3.383-.194.48-.604.72-1.231.72-.654 0-1.075-.24-1.262-.72-.186-.48-.28-1.508-.28-3.083V37.429c0-1.641.094-2.71.28-3.203.187-.494.628-.74 1.322-.74.614 0 1.01.203 1.19.61.181.407.271 1.431.271 3.073v5.645h8.428v-3.083c0-3.03-.253-5.261-.76-6.696-.508-1.435-1.569-2.633-3.183-3.594-1.615-.96-3.664-1.441-6.146-1.441-1.829 0-3.447.31-4.855.93-1.408.622-2.51 1.472-3.303 2.553-.795 1.081-1.272 2.206-1.432 3.374-.16 1.167-.24 2.92-.24 5.255v9.47c0 3.175.26 5.554.78 7.136.521 1.582 1.582 2.82 3.184 3.714 1.601.894 3.637 1.34 6.106 1.34Z" fill="#6C777D"/><path fill="#FFF" d="M71.416 61.092V35.167h5.005v-6.486H58.003v6.486h4.985v25.925z"/></g></g></svg>