<svg viewBox="0 0 90 90" xmlns="http://www.w3.org/2000/svg"><path d="M45 89.872V67.31a.13.13 0 0 1 .068-.116l28.864-16.742a.13.13 0 0 0 .068-.116V43.92a.133.133 0 0 0-.2-.116L45.2 60.389a.132.132 0 0 1-.2-.116v-6.419c0-.048.026-.092.068-.116l28.864-16.742A.138.138 0 0 0 74 36.88v-6.416a.136.136 0 0 0-.2-.116L45.2 46.934a.132.132 0 0 1-.2-.117v-6.416a.13.13 0 0 1 .068-.116L73.932 23.55a.134.134 0 0 0 .068-.116V16.93a.283.283 0 0 0-.133-.232L45.133.036a.262.262 0 0 0-.266 0l-5.466 3.17a.133.133 0 0 0 0 .232l28.6 16.586a.136.136 0 0 1 0 .233l-5.467 3.17a.282.282 0 0 1-.268 0L33.534 6.764a.281.281 0 0 0-.283 0l-5.449 3.167a.133.133 0 0 0 0 .233l28.594 16.588a.134.134 0 0 1 0 .233l-5.464 3.17a.282.282 0 0 1-.282 0L21.932 13.489a.281.281 0 0 0-.282 0L16 16.775V73.21a.13.13 0 0 0 .068.116l5.53 3.21a.132.132 0 0 0 .201-.117V20.373c0-.048.025-.093.067-.117a.132.132 0 0 1 .134.001l5.534 3.21c.04.024.065.068.065.116v56.355c0 .048.026.092.068.116l5.53 3.21a.135.135 0 0 0 .137 0 .136.136 0 0 0 .067-.12V27.101a.133.133 0 0 1 .2-.116l5.532 3.207a.133.133 0 0 1 .068.116v56.358c0 .047.025.09.065.116l5.548 3.207a.133.133 0 0 0 .186-.117Z" fill="#300D4F"/></svg>