<svg xmlns="http://www.w3.org/2000/svg" width="90" height="90" viewBox="0 0 90 90"><g fill="none" fill-rule="evenodd"><rect width="90" height="90" fill="#FFF" opacity="0"/><path fill="#324251" fill-rule="nonzero" d="M83.0487805,51.090586 L83.0487805,68.2321661 C83.0487805,74.7313613 79.7584556,80 73.2926829,80 L16.7073171,80 C10.2415444,80 6.95121951,74.7313613 6.95121951,68.2321661 L6.95121951,51.0947076 C17.3195303,57.4539533 25.7761942,61.344055 36.2195122,62.7416608 L36.2195122,64.3095548 C36.2195122,68.6423516 39.7138751,72.1547774 44.0243902,72.1547774 L45.9756098,72.1547774 C50.2861249,72.1547774 53.7804878,68.6423516 53.7804878,64.3095548 L53.7804878,62.7418837 C63.611615,61.426913 71.4642758,57.9046379 81.2266585,52.1945193 C81.8409682,51.8352031 82.4348029,51.4672237 83.0487805,51.090586 Z M45.9756098,54.5030265 C48.1308673,54.5030265 49.8780488,56.2592394 49.8780488,58.4256378 L49.8780488,58.4256378 L49.8780488,64.3095548 C49.8780488,66.4759532 48.1308673,68.2321661 45.9756098,68.2321661 L45.9756098,68.2321661 L44.0243902,68.2321661 C41.8691327,68.2321661 40.1219512,66.4759532 40.1219512,64.3095548 L40.1219512,64.3095548 L40.1219512,58.4256378 C40.1219512,56.2592394 41.8691327,54.5030265 44.0243902,54.5030265 L44.0243902,54.5030265 Z M73.2926829,21.1608305 C79.7584556,21.1608305 85,26.4294692 85,32.9286644 L85,44.1931648 C84.8938247,44.2608435 83.2202153,45.2890242 83.1140517,45.3561415 C73.2375497,51.6001251 63.4115094,55.4146457 53.6178026,56.8244591 C52.8823459,53.2595446 49.740241,50.5804152 45.9756098,50.5804152 L44.0243902,50.5804152 C40.259759,50.5804152 37.1176541,53.2595446 36.3821974,56.8244591 C26.5380583,55.4073859 16.6612517,51.5607758 6.73336811,45.2594887 C6.67806035,45.2243845 5.05531093,44.2284214 5,44.1931648 L5,32.9286644 C5,26.4294692 10.2415444,21.1608305 16.7073171,21.1608305 L73.2926829,21.1608305 Z M64.5871185,16.5660983 L62.4860522,19.8716457 C56.0908577,15.7646106 50.2969208,13.8042459 45.1064431,13.9281553 C39.8546834,14.0535277 33.9687302,16.0321505 27.4573823,19.9066243 L25.469447,16.5311197 C32.5153143,12.3385887 39.0271615,10.1495652 45.0137876,10.0066498 C51.0616956,9.86227144 57.5854055,12.0695531 64.5871185,16.5660983 Z"/></g></svg>