<svg viewBox="0 0 90 90" xmlns="http://www.w3.org/2000/svg"><g fill="none" fill-rule="evenodd"><path fill="#1F1F1F" d="M0 0h90v90H0z"/><g transform="translate(23 17)" fill="#F4A52D" fill-rule="nonzero"><path d="M35.958 20.55a11.149 11.149 0 0 0-.03-11.211c-2.024-3.465-5.756-5.6-9.796-5.603h-6.129a1.499 1.499 0 0 0-1.06.433 1.472 1.472 0 0 0-.437 1.051 1.5 1.5 0 0 0 1.497 1.485h6.177a8.318 8.318 0 0 1 7.243 4.204 8.17 8.17 0 0 1-.154 8.318c.703.272 1.39.581 2.058.927.211.14.42.28.631.396Z"/><path d="M31.771 18.74c.257.07.493.162.75.231a7.395 7.395 0 0 0 .269-7.606 7.527 7.527 0 0 0-6.61-3.873h-2.013a1.499 1.499 0 0 0-1.06.434 1.472 1.472 0 0 0-.437 1.051 1.5 1.5 0 0 0 1.497 1.484h2.013a4.518 4.518 0 0 1 4.187 2.802 4.45 4.45 0 0 1-1.051 4.898c.817.162 1.659.347 2.455.579Zm7.416 5.126c-.19-.162-.38-.349-.57-.51a17.506 17.506 0 0 0-2.433-1.786c-.21-.14-.422-.255-.63-.395-.21-.139-.445-.254-.656-.376a17.029 17.029 0 0 0-2.106-.927c-.257-.093-.492-.189-.749-.255a7.944 7.944 0 0 0-.796-.231c-.92-.26-1.858-.449-2.807-.565-.656-.07-1.33-.117-2.013-.14h-1.475a1.499 1.499 0 0 0-1.06.433 1.472 1.472 0 0 0-.437 1.052 1.5 1.5 0 0 0 1.497 1.484h1.475a17.32 17.32 0 0 1 2.47.232c.423.07.82.162 1.217.254.906.236 1.79.546 2.644.927.256.117.492.232.749.377.256.145.467.254.7.394.662.392 1.296.825 1.901 1.298.19.162.398.324.586.486.19.158.37.328.538.51a15.596 15.596 0 0 1 3.572 17.145c-2.433 5.903-8.229 9.76-14.662 9.758H18.73a1.499 1.499 0 0 0-1.06.433 1.472 1.472 0 0 0-.438 1.051A1.5 1.5 0 0 0 18.73 56h7.412c7.698.017 14.63-4.616 17.5-11.696 2.87-7.08 1.1-15.18-4.468-20.448l.013.01Z"/><path d="M13.756 2.994h12.4c6.663.008 12.063 5.36 12.071 11.966a11.666 11.666 0 0 1-1.613 5.961c.645.398 1.262.838 1.847 1.319.211.162.397.324.586.488a14.685 14.685 0 0 0 2.199-7.77C41.242 6.698 34.488.003 26.156 0h-12.4a1.499 1.499 0 0 0-1.06.433 1.472 1.472 0 0 0-.438 1.052 1.514 1.514 0 0 0 1.498 1.509Zm-1.239 45.587h13.64c4.738.004 8.977-2.919 10.621-7.323a11.153 11.153 0 0 0-3.25-12.413c-.212-.188-.422-.349-.632-.51-.209-.163-.467-.325-.726-.489a10.596 10.596 0 0 0-3.018-1.298 11.689 11.689 0 0 0-2.575-.386H17.5a1.499 1.499 0 0 0-1.06.433 1.472 1.472 0 0 0-.437 1.052A1.5 1.5 0 0 0 17.5 29.13h8.657c.14.013.282.013.422 0 .83.044 1.65.208 2.433.488.39.147.771.317 1.14.51 3.327 1.809 4.994 5.622 4.05 9.265-.942 3.642-4.257 6.188-8.05 6.184H12.516a1.499 1.499 0 0 0-1.06.433 1.472 1.472 0 0 0-.438 1.052 1.527 1.527 0 0 0 1.498 1.518Z"/><path d="M13.756 52.323h12.4c6.133 0 11.657-3.68 13.973-9.31a14.863 14.863 0 0 0-3.422-16.34c-.19-.162-.38-.349-.57-.51-.19-.163-.397-.325-.585-.489a13.46 13.46 0 0 0-1.943-1.298c-.234-.14-.467-.254-.726-.394a8.31 8.31 0 0 0-.796-.376 15.321 15.321 0 0 0-3.089-.927 13.447 13.447 0 0 0-2.561-.25h-2.714a1.499 1.499 0 0 0-1.061.432 1.472 1.472 0 0 0-.437 1.052 1.5 1.5 0 0 0 1.498 1.484h2.85c.87.031 1.733.158 2.574.377.42.107.834.238 1.239.394.893.344 1.748.779 2.55 1.298.234.162.445.324.679.488.213.157.416.328.608.51a11.9 11.9 0 0 1 3.202 13.187c-1.79 4.628-6.273 7.684-11.274 7.685H13.756a1.499 1.499 0 0 0-1.06.434 1.472 1.472 0 0 0-.438 1.051c.004.821.67 1.49 1.498 1.502ZM5.662 3.133h3.837a1.491 1.491 0 0 0 1.498-1.485A1.5 1.5 0 0 0 9.499.164H5.662A1.499 1.499 0 0 0 4.6.597a1.472 1.472 0 0 0-.437 1.051 1.5 1.5 0 0 0 1.498 1.485Zm7.931 3.619h2.176c.397.002.78-.154 1.06-.433.282-.279.439-.657.437-1.052a1.5 1.5 0 0 0-1.497-1.484h-2.176c-.827 0-1.498.665-1.498 1.484 0 .82.67 1.485 1.498 1.485ZM13.5 25.348h6.013c.518 0 .997-.274 1.256-.718a1.427 1.427 0 0 0 0-1.438 1.452 1.452 0 0 0-1.256-.719H13.5a1.45 1.45 0 0 0-1.256.72 1.427 1.427 0 0 0 0 1.437c.259.444.737.718 1.256.718Zm3.953-5.194a1.451 1.451 0 0 0 1.45 1.438h1.847c.801 0 1.45-.644 1.45-1.438 0-.794-.649-1.437-1.45-1.437h-1.847a1.45 1.45 0 0 0-1.45 1.437Z"/><ellipse cx="1.45" cy="1.624" rx="1.45" ry="1.437"/><ellipse cx="9.404" cy="5.243" rx="1.45" ry="1.437"/><ellipse cx="5.662" cy="5.243" rx="1.03" ry="1.021"/><ellipse cx="19.933" cy="8.977" rx="1.45" ry="1.437"/><ellipse cx="14.739" cy="20.132" rx="1.45" ry="1.437"/><ellipse cx="9.358" cy="23.911" rx="1.45" ry="1.437"/><ellipse cx="16.191" cy="8.977" rx="1.03" ry="1.021"/><ellipse cx="10.997" cy="20.132" rx="1.03" ry="1.021"/><circle cx="13.078" cy="8.977" r="1"/><ellipse cx="8.283" cy="47.08" rx="1.45" ry="1.437"/><circle cx="4.749" cy="47.08" r="1"/><ellipse cx="13.733" cy="27.647" rx="1.03" ry="1.021"/><circle cx="10.622" cy="27.645" r="1"/><path d="M9.522 49.376c-.801 0-1.45.644-1.45 1.437 0 .794.649 1.438 1.45 1.438.8 0 1.45-.644 1.45-1.438a1.424 1.424 0 0 0-.423-1.018 1.45 1.45 0 0 0-1.027-.419Zm-3.742.418c-.57 0-1.03.457-1.03 1.021 0 .564.46 1.021 1.03 1.021.568 0 1.03-.457 1.03-1.02a.996.996 0 0 0-.296-.729 1.014 1.014 0 0 0-.734-.293Zm-2.272 1.044a.827.827 0 0 0-.841-.812.827.827 0 0 0-.82.835.827.827 0 0 0 .842.812.863.863 0 0 0 .82-.835Zm10.997 2.225H8.469c-.801 0-1.45.643-1.45 1.437s.649 1.438 1.45 1.438h6.036c.8 0 1.45-.644 1.45-1.438 0-.794-.65-1.437-1.45-1.437Z"/><ellipse cx="4.282" cy="54.5" rx="1.45" ry="1.437"/></g></g></svg>