<svg viewBox="0 0 90 90" xmlns="http://www.w3.org/2000/svg"><defs><linearGradient x1="49.857%" y1="99.683%" x2="49.857%" y2="-.014%" id="a"><stop stop-color="#FF9400" offset="0%"/><stop stop-color="#FF6500" offset="100%"/></linearGradient><linearGradient x1="50.1%" y1="100.104%" x2="50.1%" y2=".126%" id="b"><stop stop-color="#FFBD01" offset="0%"/><stop stop-color="#FFE201" offset="100%"/></linearGradient></defs><g fill="none"><path d="m15.654 12.176-8.92 5.249C3.005 19.542 0 24.882 0 29.21v31.672c0 4.328 3.003 9.576 6.735 11.786l8.919 5.248v-65.74Z" fill="url(#a)" transform="translate(5)"/><path d="m74.265 17.332-8.919-5.248V77.64l8.92-5.248C77.995 70.274 81 64.934 81 60.606V29.118c0-4.328-3.003-9.576-6.735-11.786Z" fill="url(#b)" transform="translate(5)"/><path d="m37.582 87.675 1.183.737c3.732 2.117 9.738 2.117 13.379 0l1.183-.737V53.61s-2.275-3.96-7.918-3.96c-5.643 0-7.918 3.96-7.918 3.96v34.066h.091Z" fill="#FFA801"/><path d="M52.235 1.588c-3.732-2.117-9.738-2.117-13.379 0l-1.183.737v33.514s2.275 3.959 7.918 3.959c5.643 0 7.918-3.96 7.918-3.96V2.234l-1.274-.645Z" fill="#FF5400"/></g></svg>