<svg viewBox="0 0 90 90" xmlns="http://www.w3.org/2000/svg"><defs><linearGradient x1="100%" y1="0%" x2="0%" y2="100%" id="a"><stop stop-color="#FFE200" offset="0%"/><stop stop-color="#FFC11E" offset="100%"/></linearGradient></defs><g fill="none" fill-rule="evenodd"><path fill="url(#a)" d="M0 0h90v90H0z"/><path d="M64 65.5v9H30v-9h34Zm-40.034.407.256.115c.475.23.778.71.778 1.239V72a2 2 0 0 1-2 2h-5a2 2 0 0 1-2-2v-3.9c0-.706.374-1.354.975-1.708l.143-.076c2.017-.978 4.854-1.238 6.848-.409ZM68 49v9H16v-9h52Zm-8-16.5v9H16v-9h44ZM74 16v9H16v-9h58Z" fill="#000"/></g></svg>