<svg xmlns="http://www.w3.org/2000/svg" width="90" height="90" viewBox="0 0 90 90"><g fill="none" fill-rule="evenodd"><rect width="90" height="90" fill="#FFF" opacity="0"/><g fill="#F49600" fill-rule="nonzero" transform="translate(.226 14)"><path d="M80.1791385,0.258222801 C75.6217287,-0.903914847 75.9126272,1.90458447 76.0095934,7.71527271 C76.1550426,20.7893213 75.7671779,36.5266019 71.694599,42.3372902 C68.8825802,46.3079271 60.9798377,49.3585384 52.4468151,50.9080553 C42.7986816,52.6996842 32.6172342,52.796529 28.6901045,50.7627881 C22.7266853,47.6637544 16.3269184,38.7540324 12.0604071,27.6168799 C11.2846778,25.5347167 10.21805,21.3703901 7.84237892,22.0967261 C3.67283379,23.3072862 0.424467246,27.8105695 0.036602583,31.7327841 C-0.35126208,35.5581539 2.36379056,41.0298853 7.21209884,46.5500391 C11.963441,51.9249258 18.5086571,57.6387692 24.6660087,60.1567341 C36.8352624,65.0958191 73.0036422,59.8177773 81.1972832,47.8090216 C85.754693,41.0783077 88.8576103,23.5978206 89.875755,14.3007194 C90.6514844,6.79524707 87.8394656,2.19511888 80.1791385,0.258222801 Z"/><path d="M50.2650764,39.9161701 C54.1922061,39.3351012 57.4405726,32.798077 56.9557418,22.7262173 C56.5193941,12.8480473 50.7014241,4.61623898 41.7805369,6.45629026 C34.798973,7.90896232 33.1990312,17.3029083 35.1383545,25.8736735 C36.9807117,33.6696802 42.8956478,40.9330405 50.2650764,39.9161701 Z"/></g></g></svg>