<svg viewBox="0 0 90 90" xmlns="http://www.w3.org/2000/svg"><g fill="none" fill-rule="evenodd"><path fill="#FFF" d="M0 0h90v90H0z"/><g fill-rule="nonzero"><path d="M30.345 45.381a5.342 5.342 0 1 1 0 10.686 5.344 5.344 0 1 1 0-10.686" fill="#994FFA"/><path d="M30.345 60.264a5.343 5.343 0 1 1 0 10.686 5.344 5.344 0 1 1 0-10.686" fill="#BF91FC"/><path d="M30.344 30.497a5.344 5.344 0 1 0 0 10.686 5.345 5.345 0 0 0 5.348-5.341 5.345 5.345 0 0 0-5.348-5.345ZM56.804 17h-10.49v42.002c0 11.138 5.285 15.285 19.687 13.657v-9.51c-6.022.323-9.195.244-9.195-4.147V41.29H66V31.206h-9.195V17Z" fill="#5405BD"/></g></g></svg>