<svg viewBox="0 0 90 90" xmlns="http://www.w3.org/2000/svg"><g fill="none" fill-rule="evenodd"><path fill="#4D0E5B" d="M0 0h90v90H0z"/><path d="M21.755 10.073c.086.08.242.163.412.188l.068.004.048-.009a7.24 7.24 0 0 0 .4-.087c.105.1.209.1.413.1.174-.083.418-.097.675-.1h.198c.264-.001 1.595-.013 3.987-.096h1.448c.185.035.33.057.426.07l.09.014c.056.009.058.011-.002.012h.415a.846.846 0 0 1 .361-.095h.983c.105 0 .514.095 1.242.3 0 0 .204-.105.723-.205h.31c.207-.096.416-.193.518-.096.723.096.723.803 1.03.803.624 0-.618-.707 1.655-.707.723-.096 1.138 0 1.243.305l.308.298h.208v.104h.207l.826.395c.105 0 .31-.104.621-.2.31-.098.518-.098.62 0 .31 0-.31.301 2.48.995-.103.208-.103.507 0 .902l.623 1.003c.104 0 .203.198.308.698l1.033.996.105 2.297-.105.102v1.896c.105.104.105.201.105.3-.087 0-.102.07-.104.154l-.001.037.001-.027c.01-.208.11.299.208 1.439v1.595c.087.17.102.333.104.44v.056c0 .105 0 .402-.104.707v1.397c.105.297.105.595.105.697 0 .395-.209 1.2-.209 1.598 0 .161.05.433.11.727l.091.446c.06.294.11.565.11.725 0 .4-.207.996-.207 1.397 0 .501 0 1.204.105 2.103-.105 1.096-.416 2.297-.932 3.792v.298c-.105.104-.207.402-.415.899l-.105.105v.097c-.1.305-.41.6-.723.898l-.02.018c-.09.087-.493.471-1.22 1.083-.722.2-1.138.498-1.24.898-.103.098.102.3.62.603.103.097.31.194.519.194 0 .104.207.305.514.704.31 0 .417.298 1.242.7.105.196.515.595 1.034 1.198l.205.4c.105 0 .105 0 .207.098v.297c.105 0 .105 0 .209.102.105.5.514 1.6.514 3.198-.102 4.795-.102 8.891 0 12.387v.6c.107.203.107.398.107.597 0 .102 0 .303-.107.4v4.097c0 .601 0 1.1-.102 1.5v.299c.102 1.398.102 2.193 0 2.297 0 .298-.105.601-.205 1.4-.102.295-.207.795-.93 2.294-.31.5-.624 1.302-2.174 2.595l-.307.305-.623.5h-.307v.095h-.209l-1.24.4c.087.088.1.1.037.102h-.14c-.103 0-.103 0-.103.1l-.828.2c0 .083 0 .097-.06.1h-.148c-.102.1-.31.1-.515.2h-2.278c-.511 0-1.753.199-2.169.199-.208 0-.412 0-.618-.1h-3.724c-.514.1-.825.1-1.033.1-.204 0-.515 0-1.034-.1h-1.548c-.105.1-.208.1-.31.1-.105 0-.314 0-.416-.1h-4.134c-.31 0-.829-.1-1.448-.3-.104-.098-.308-.9-.516-2.299v-3.596a148.64 148.64 0 0 1-.105-5.287v-.403l.105-2.103c0-.296 0-.594-.105-.995-.102-.402-.102-.699 0-.996.087-.087.102-.449.104-.97v-.332c.106-.998.106-2.1 0-3.294v-7.097l.209-1.2v-1.399l-.208-1.194c0-.303.208-1.1.208-1.199.102-1.5.102-2.8 0-3.896 0-.3-.208-.898-.208-1.202 0-.299.208-.901.208-1.197l-.313-4.594.313-2.098c.102-.703.102-1.3 0-1.896-.103-.204-.103-.503-.208-1.004-.105-1.098 0-3.795 0-4.892v-5.598c0-.296.31-1.895 0-3.196 0-.6 0-1.398-.105-2.496v-1.895L19 12.486c.308-.103.082-.53.082-.632l.49-.357c.106 0 .185-.417.288-.515-.103-.4.344-.009.446-.609 0-.104.102-.204.206-.3.313-.097.725-.097 1.243 0ZM58.946 10v.097h.397c.197 0 .491.2.99.501 0 .103.191 0 .191 0l.3-.194.492-.307h.397c.097 0 .293-.097.69.2.078-.08.473-.097 1.184-.1h.593c1.382-.1 2.469-.1 3.254 0 .099.1.396.1.789.1.3-.1.591-.1.99-.1.293 0 .49.1.787.302v1.499h-.097c-.096.103-.096.204-.096.505-.103.096 0 .298.193.498v.202h-.097c0 .801-.096 1.998-.294 3.7-.3.1-.99.203-2.076.203a145.52 145.52 0 0 0-3.769-.077h-.418c-.857.003-1.405.029-1.633.077-.834 0-1.235.261-1.201.87l.012.127c0 1.75-.056 1.94-.04 2.106l.006.045c.006.04.017.085.034.155v3.301l.2 1.4.1.097c.098.306.098.706 0 1l-.3 2.505v.084c.004.171.019.543.102 1.115.081.087.095.17.097.31v.017c-.002-.08-.016.057-.097.472-.102.705-.102 1.304 0 1.706.197.5.296.899.296 1.2 0 .401-.398.603-.398 1.5v1.202c0 .7-.097 1.102-.39 1.198 0 .098.097.202.39.401l.2.203c.393 0 1.38-.203 1.776-.203h1.086c1.478.099 2.268.203 2.367.203.99-.104 1.386-.104 1.187-.203.294.099.59.402.786.703.297-.106.494-.202.596-.202.292 0 .397.096.491.402-.094.5-.094 1.1-.094 1.9.067.072.087.144.092.142l.002-.008v1.064h-.094l-.2 1.002c.095 0 .2.202.493.599.098.103.098.505 0 1.103l-.889 1.003-.294.195-.889.101c-.99.1-2.567.1-4.737 0h-1.58c-.299.1-.396.205-.299.205l-.192.4c-.101.098-.101.098 0 .195v2.805c.095.7.192 1.298.192 1.7v3.002c-.097 0-.192.101-.192.297v.706s-.199.396-.199.5l.2.401v.298c.094 1.497.191 3.402.191 5.706v7.7l.2.304-.098 1.8c.097.8 0 1.9-.102 3.404l-.192.598c.095.2.095.498.192.9-.097.2-.192.5-.192.9v.401c0 .902-.595 1.181-1.386 1.785-.044.043-.322.066-.85.071h-.445c-.656-.005-1.568-.028-2.753-.071l-1.187.001a31.47 31.47 0 0 1-2.464-.086c0-.098-.097-.2-.39-.299-.3-.899-.397-1.601-.397-2.098v-.104c.097-.3.097-.596.097-1.102v-3.245c.004-.776.02-.96.102-.556 0-.102-.102-.4-.2-.898-.1-.3-.1-.604 0-1.006.088-.087.097-.422.172-.922l.023-.151-.003-.016c-.01-.06-.035-.214-.094-.506.102-.304.102-.902.102-1.607h-.102v-.298l-.003-.029a.358.358 0 0 0-.094-.172v-.397c.097-.302.097-.7.097-1.204v-2.397c.102-.5.102-1.2.2-2.206 0-.7-.297-2.397-.297-3.097.097.298.097-1.906.199-6.51 0-1.497 0-3.298-.102-5.203-.097-.7-.097-1.198 0-1.698v-.5c.102-.5.2-1.402.102-2.605v-1.4h.097v-.202c-.076.393-.092-.005-.096-1.19v-.359l-.001-.196v-.652c0-.402 0-1.208.097-2.4.09-.903.1-1.639.1-2.142v-.561c-.1-.103-.1-.2-.1-.303.1-.096.1-.298.1-.596l.095-.104c.099-.5 0-1.102-.195-1.798v-2.507c-.086-.265-.096-.77-.168-1.367l-.019-.139.003-.03c.014-.148.039-.438.087-.861.097-.402.097-1.4 0-2.905v-2.8c0-1.102 0-1.905-.102-2.503v-.298c.092-.361.1-.48.102-.426V14.9c.097-.096 0-.2-.102-.297v-.304c0-.099 0-.099-.097-.099 0-.7.363-1.614.264-2.418-.1-.498-.195-.999-.195-1.302.095-.195.294-.195.492-.099l.328-.083.198-.102.096-.099c.197-.097.594-.097 1.087 0 .49 0 1.777.307 2.07.1h.098l.101-.1h.59c.1.1.198.1.497.2h.59c.79.107 1.187 0 1.286-.1.491-.1.785-.197.984-.197ZM29.404 44.836v.402c0 .4.827.298.929.595v1.102c.061.06.086.085.095.116l.005.029-.003-.01c-.008-.004-.024.025-.063.1l-.032.06.012-.017c.07-.094.084.277.087 1.161v.356l.001.196v.208c0 .096 0 .795-.102 2.295v.998c.102.504.102.804.102 1.004 0 .395-.204 1.598-.204 1.992 0 .305 0 1.004.102 2.201.102 2.896.102 5.894-.102 8.891 0 .098 0 .498.102.996v1.403c-.102.299-.102.395-.102.501v1.693c0 .298-.208.7-.208.7 0 .104.412.4.412.498.519-.195 1.033-.297 1.552-.195.508.08.809.095.901.097h.03l1.136-.497c.207.097.416.2.515.2.313 0 .726 0 .726-1.1l.205-.2v-2.2c.068-.582.137-.872.177-.921l.004-.005-.002-.01c-.06-.188-.179-.486-.179-.56 0-.302.212-.802.212-1.1-.107-.296-.107-.7-.212-1.399-.102-.4-.102-1.1 0-2.198 0-.099.212-.498.212-.597 0-.301-.212-.899-.212-1.202 0-.498.212-1.8.212-2.297 0-.402-.212-1.599-.212-1.994.105-.202.105-.505.212-.901a35.155 35.155 0 0 1-.212-3.997c0-.299.105-.7.212-1.197l-.212-1.196c0-.306.212-.804.212-.903l-.728-1.5-.309-.401-.205-.297c-.416-.299-1.242-.498-2.38-.402l-.103.103c-.826.1-1.242.201-1.242.1-.102-.1-.412-.1-.722-.203 0 0-.103 0-.207-.096.104-.104.104-.104 0-.203-.104-.2-.206-.296-.412-.2Zm1.031-28.77h-.204l-.415.2-.104.104c-.204.096-.514.096-.93.194-.103-.098-.205-.194-.516-.299h-.828c-.103.299.105.603.518.7.103-.097.519-.2 1.033-.302.415.102.931.301 1.446.606 0 .293-.204.895-.204 1.193 0 .203 0 .6.102 1.3v.898l.102.997-.102.206c.102-.102.102 0 .102.099v1.496l-.102.102c0 .101 0 .101.102.2 0 .9-.102 1.494-.412 1.798 0 .5 0 1.3.104 2.297v.197c0 .301 0 .8.104 1.299-.104.098-.104.2-.104.402l.104.304c.085.08.1.227.102.394l-.001.073c-.004-.017-.022.096-.101.329v.394s0 .305.102.801c0 .146-.017.182-.037.218l-.013.025c-.044.093-.083.309.05 1.854 0 .203-.102.803-.206 1.696 0 .402 0 1.004-.104 1.702-.207.298-.311.603-.311.802 0 .098 0 .299.104.395.104.105.311.105.725 0 .102 0 .102 0 .204-.096.314.096.83.2 1.344.096l1.139.603c0-.299.103-.498.208-.804.102.105.308.105.723.201.102-.096.31-.297.825-.395v-.601l.728-2.796c0-.297.102-.699.204-1.197-.102.297-.102.098-.204-.705 0-.194 0-.597.102-1.094 0-.304 0-.802-.102-1.3.102-1.203.102-2.997 0-5.292 0-.203-.107-.3-.212-.404v-.401l.212-.496v-3.593c-.107-.506-.212-1.002-.212-1.3.105-.302.105-.5.105-.704-.105-.1-.105-.1-.105-.196-.205-.603-.516-.997-1.03-1.203l-.518-.4c-.62.102-1.552.102-2.791 0-.31-.1-.416-.197-.416-.498-.102 0-.204 0-.31-.1Z" fill="#FFF"/></g></svg>