<svg viewBox="0 0 90 90" xmlns="http://www.w3.org/2000/svg"><defs><linearGradient x1="-.031%" y1="50%" x2="100.044%" y2="50%" id="a"><stop stop-color="#00BFFF" offset="0%"/><stop stop-color="#6619FF" offset="100%"/></linearGradient></defs><g fill="none" fill-rule="evenodd"><path fill="#191C41" d="M0 0h90v90H0z"/><path d="M58.2 45 78 64.8h-7.013c-1.237 0-2.268-.412-3.093-1.237L49.537 45l18.357-18.356c.825-.825 2.062-1.238 3.093-1.238H78L58.2 45ZM22.106 26.644c-.825-.825-2.062-1.238-3.094-1.238H12L31.8 45 12 64.8h7.012c1.238 0 2.27-.412 3.094-1.237l18.356-18.357c0-.206-18.356-18.562-18.356-18.562ZM45 49.538 26.644 67.894c-.825.825-1.238 2.062-1.238 3.093V78l19.8-19.8 19.8 19.8v-7.013c0-1.237-.412-2.268-1.237-3.093L45 49.537Zm0-9.075 18.356-18.357c.825-.825 1.238-2.062 1.238-3.094V12L45 31.8 25.2 12v7.012c0 1.238.413 2.27 1.238 3.094L45 40.462Z" fill="url(#a)" fill-rule="nonzero"/></g></svg>