<svg viewBox="0 0 90 90" xmlns="http://www.w3.org/2000/svg"><g fill="none" fill-rule="evenodd"><path fill="#E8FBF2" d="M0 0h90v90H0z"/><path d="M58.26 39.283c-.469 0-.856.139-1.164.416-.307.277-.46.7-.46 1.27v.27h2.172v2.991h-2.173v8.432h-3.973V44.23H50.62v-2.99h2.042v-.316c0-1.544.391-2.75 1.174-3.62.783-.87 1.921-1.304 3.414-1.304.849 0 1.536.105 2.063.315v3.125c-.424-.104-.775-.157-1.053-.157Zm13.162 1.956v11.423h-3.908v-1.551c-.322.54-.79.963-1.405 1.27-.628.31-1.32.468-2.02.461-.95 0-1.8-.24-2.546-.72-.746-.48-1.328-1.165-1.745-2.057-.417-.892-.626-1.922-.626-3.092 0-1.184.213-2.233.637-3.148.424-.914 1.01-1.626 1.756-2.136a4.373 4.373 0 0 1 2.525-.765 4.22 4.22 0 0 1 2.008.484c.608.322 1.08.753 1.416 1.293v-1.462h3.908Zm-6.1 8.568c.702 0 1.243-.248 1.624-.742.38-.495.57-1.207.57-2.136 0-.945-.19-1.668-.57-2.17-.38-.502-.922-.754-1.625-.754-.688 0-1.229.259-1.624.776s-.593 1.248-.593 2.193c0 .914.19 1.615.57 2.102.381.487.93.73 1.647.73l.001.001Zm14.914-3.036L85 52.662h-4.654l-2.371-3.058-2.37 3.058h-4.633l4.764-5.891-4.479-5.532h4.654l2.064 2.744 2.042-2.744h4.698l-4.479 5.532Z" fill="#3ECF8E"/><path d="M6.603 51.268c1.068 1.05 2.546 1.574 4.434 1.574.907 0 1.76-.12 2.557-.36.798-.24 1.438-.577 1.921-1.012l-1.01-2.765a4.69 4.69 0 0 1-1.371.787c-.48.187-.99.286-1.504.292-.835 0-1.471-.244-1.91-.73-.44-.488-.659-1.211-.659-2.17 0-.945.22-1.657.659-2.137.439-.48 1.068-.72 1.888-.72.483 0 .988.098 1.514.293.527.195.988.457 1.384.787l1.01-2.811c-.469-.42-1.098-.753-1.889-1a8.04 8.04 0 0 0-2.414-.372c-1.23 0-2.313.251-3.25.754a5.39 5.39 0 0 0-2.184 2.125c-.52.914-.779 1.97-.779 3.17 0 1.814.534 3.246 1.603 4.295Zm14.979-10.343c1.229 0 2.301.243 3.216.73a5.139 5.139 0 0 1 2.118 2.068c.498.893.747 1.946.747 3.16 0 1.214-.249 2.268-.746 3.16a5.14 5.14 0 0 1-2.119 2.068c-.915.487-1.986.732-3.216.732-1.244 0-2.327-.24-3.249-.72a5.034 5.034 0 0 1-2.13-2.07c-.497-.899-.746-1.956-.746-3.17s.249-2.27.746-3.17a5.035 5.035 0 0 1 2.13-2.069c.922-.479 2.005-.719 3.249-.719Zm.007 3.058c-.732 0-1.28.236-1.646.708-.366.472-.55 1.203-.55 2.192 0 1.005.184 1.743.55 2.215.365.473.914.709 1.646.709 1.434 0 2.151-.975 2.151-2.924 0-.989-.179-1.72-.537-2.192-.359-.472-.897-.708-1.614-.708Zm8.197 7.285c1.069 1.05 2.547 1.574 4.435 1.574.907 0 1.76-.12 2.557-.36.798-.24 1.438-.577 1.921-1.012l-1.01-2.765a4.69 4.69 0 0 1-1.372.787c-.52.195-1.02.292-1.504.292-.834 0-1.47-.244-1.91-.73-.438-.488-.658-1.211-.658-2.17 0-.945.22-1.657.659-2.137.439-.48 1.068-.72 1.888-.72.483 0 .987.098 1.514.293.527.195.988.457 1.383.787l1.01-2.811c-.468-.42-1.097-.753-1.888-1a8.038 8.038 0 0 0-2.415-.372c-1.229 0-2.312.251-3.249.754a5.39 5.39 0 0 0-2.184 2.125c-.52.914-.78 1.97-.78 3.17 0 1.814.535 3.246 1.603 4.295Zm14.986-10.344c1.23 0 2.302.244 3.217.731a5.139 5.139 0 0 1 2.118 2.069c.498.892.746 1.945.746 3.16 0 1.213-.248 2.267-.746 3.159a5.14 5.14 0 0 1-2.118 2.068c-.915.488-1.987.731-3.216.731h-.001c-1.243 0-2.326-.24-3.248-.72a5.034 5.034 0 0 1-2.13-2.068c-.497-.9-.746-1.957-.746-3.17 0-1.215.248-2.272.746-3.171a5.035 5.035 0 0 1 2.13-2.07c.922-.479 2.005-.719 3.248-.719Zm-.003 3.059c-.732 0-1.281.236-1.647.708-.366.472-.549 1.203-.549 2.192 0 1.005.183 1.743.549 2.215.366.473.915.709 1.647.709 1.434 0 2.151-.974 2.151-2.924 0-.989-.179-1.72-.538-2.192-.358-.472-.896-.708-1.613-.708Z" fill="#09F"/></g></svg>