<svg viewBox="0 0 90 90" xmlns="http://www.w3.org/2000/svg"><g fill="none" fill-rule="evenodd"><path fill="#353648" d="M0 0h90v90H0z"/><path d="M47.547 25c1.655 0 3.214.745 4.214 2.013l12.365 15.673 12.73-15.709c1.017-1.256 2.587-1.981 4.242-1.96l.902.01-16.12 19.88L81.732 65h-.886c-1.653 0-3.211-.744-4.212-2.012L64.097 47.107 51.503 62.639c-1.019 1.255-2.586 1.98-4.242 1.96l-.883-.012 15.964-19.701L46.645 25h.902ZM8.882 40.792c-.487 0-.882.38-.882.85v6.622c0 .468.395.849.882.849h6.88c.487 0 .882-.38.882-.85v-6.622c0-.469-.395-.849-.882-.849h-6.88Zm17.464 8.32h-8.82c-.487 0-.882.38-.882.85v14.093c0 .47.395.85.882.85h7.938c.488 0 .882-.38.882-.85v-6.198c0-.469.395-.849.883-.849h6.086c7.182 0 11.556-4.488 13.274-6.697.404-.519.008-1.199-.666-1.199H26.346ZM17.526 25c-.487 0-.882.38-.882.85v14.093c0 .469.395.849.882.849h7.938c.488 0 .882-.38.882-.85V33.66c0-.469.395-.849.883-.849h6.791c4.796 0 5.926 4.995 6.187 6.996a.941.941 0 0 0 .93.815h7.931c.5 0 .903-.399.855-.878C49.268 33.232 44.25 25 36.49 25H17.526Z" fill="#FFF"/></g></svg>