<svg viewBox="0 0 90 90" xmlns="http://www.w3.org/2000/svg"><g fill="#008CA8"><path d="M59.642 48.593a5.498 5.498 0 0 1-2.49-.626 5.422 5.422 0 0 1-2.243-7.205 12.934 12.934 0 0 0 1.505-6.146c0-7.303-5.949-13.228-13.297-13.243a13.225 13.225 0 0 0-9.657 4.134 5.497 5.497 0 0 1-6.899-.52 5.414 5.414 0 0 1-.871-6.822c8.312-8.422 21.563-9.557 31.202-2.672 9.639 6.884 12.782 19.73 7.401 30.245a5.476 5.476 0 0 1-4.65 2.855Z"/><path d="M66.4 79.946c-7.658.393-14.916-3.417-18.905-9.926-1.368-2.202-2.736-4.46-3.885-6.716-1.15-2.257-2.189-3.97-3.365-5.928-5.8-9.572-10.78-13.596-16.662-13.596a12.878 12.878 0 0 0-11.628 6.207 12.714 12.714 0 0 0 0 13.12 12.878 12.878 0 0 0 11.628 6.206h10.944a5.447 5.447 0 0 1 4.452 5.344A5.447 5.447 0 0 1 34.527 80H23.583C10.56 80 0 69.506 0 56.56c0-12.945 10.559-23.44 23.583-23.44 12.804 0 20.547 10.034 25.854 18.79 1.259 2.067 2.408 4.188 3.584 6.282 1.177 2.094 2.353 4.242 3.639 6.336a10.116 10.116 0 0 0 9.74 4.731c5.273.007 10.015-3.187 11.964-8.057a12.726 12.726 0 0 0-3.127-14.023 5.413 5.413 0 0 1 .401-6.911 5.496 5.496 0 0 1 6.903-.92c7.065 6.579 9.366 16.78 5.804 25.728C84.783 74.023 76.08 79.898 66.4 79.891v.055Z"/></g></svg>