<svg viewBox="0 0 90 90" xmlns="http://www.w3.org/2000/svg"><g fill="none" fill-rule="evenodd"><path fill="#000" d="M0 0h90v90H0z"/><g fill-rule="nonzero"><path d="M33.282 17.912a3.91 3.91 0 0 1-2.407 3.61 3.882 3.882 0 0 1-4.242-.852 3.92 3.92 0 0 1-.84-4.261 3.893 3.893 0 0 1 3.6-2.409 3.898 3.898 0 0 1 3.891 3.906m15.557.006a3.901 3.901 0 0 1-3.895 3.906 3.901 3.901 0 0 1-3.891-3.91A3.901 3.901 0 0 1 44.948 14a3.901 3.901 0 0 1 3.893 3.906M41.09 31.408a3.91 3.91 0 0 1-2.402 3.614 3.882 3.882 0 0 1-4.244-.846 3.92 3.92 0 0 1-.845-4.26 3.893 3.893 0 0 1 3.597-2.414 3.901 3.901 0 0 1 3.893 3.906m-15.484 0a3.91 3.91 0 0 1-2.402 3.614 3.882 3.882 0 0 1-4.244-.847 3.92 3.92 0 0 1-.844-4.261 3.893 3.893 0 0 1 3.6-2.412 3.898 3.898 0 0 1 3.89 3.906" fill="#0EBBCC"/><path d="M56.633 31.408a3.91 3.91 0 0 1-2.402 3.614 3.882 3.882 0 0 1-4.243-.846 3.92 3.92 0 0 1-.846-4.26 3.893 3.893 0 0 1 3.598-2.414 3.901 3.901 0 0 1 3.893 3.906" fill="#535454"/><path d="M72.206 31.408a3.91 3.91 0 0 1-2.402 3.614 3.882 3.882 0 0 1-4.244-.846 3.92 3.92 0 0 1-.845-4.26 3.893 3.893 0 0 1 3.597-2.414 3.901 3.901 0 0 1 3.894 3.906m-7.822-13.496a3.901 3.901 0 0 1-3.895 3.906 3.901 3.901 0 0 1-3.891-3.91A3.901 3.901 0 0 1 60.49 14a3.901 3.901 0 0 1 3.893 3.906" fill="#0EBBCC"/><path d="M33.282 44.94a3.91 3.91 0 0 1-2.405 3.612 3.882 3.882 0 0 1-4.243-.85 3.92 3.92 0 0 1-.84-4.262 3.893 3.893 0 0 1 3.6-2.41c1.032 0 2.022.412 2.752 1.145a3.915 3.915 0 0 1 1.138 2.764" fill="#535454"/><path d="M17.786 44.94a3.901 3.901 0 0 1-3.893 3.909A3.901 3.901 0 0 1 10 44.939a3.901 3.901 0 0 1 3.893-3.909c2.15 0 3.893 1.75 3.893 3.91m31.055 0a3.901 3.901 0 0 1-3.893 3.909 3.901 3.901 0 0 1-3.893-3.91 3.901 3.901 0 0 1 3.893-3.909c2.15 0 3.893 1.75 3.893 3.91M41.09 58.436a3.91 3.91 0 0 1-2.402 3.613 3.882 3.882 0 0 1-4.244-.845 3.92 3.92 0 0 1-.845-4.26 3.893 3.893 0 0 1 3.597-2.415 3.901 3.901 0 0 1 3.893 3.907m-15.484 0a3.91 3.91 0 0 1-2.402 3.614 3.882 3.882 0 0 1-4.244-.847 3.92 3.92 0 0 1-.844-4.262 3.893 3.893 0 0 1 3.6-2.412 3.898 3.898 0 0 1 3.89 3.907" fill="#0EBBCC"/><path d="M56.633 58.436a3.91 3.91 0 0 1-2.402 3.613 3.882 3.882 0 0 1-4.243-.845 3.92 3.92 0 0 1-.846-4.26 3.893 3.893 0 0 1 3.598-2.415 3.901 3.901 0 0 1 3.893 3.907" fill="#535454"/><path d="M72.206 58.436a3.91 3.91 0 0 1-2.402 3.613 3.882 3.882 0 0 1-4.244-.845 3.92 3.92 0 0 1-.845-4.26 3.893 3.893 0 0 1 3.597-2.415 3.901 3.901 0 0 1 3.894 3.907M64.384 44.94a3.901 3.901 0 0 1-3.893 3.909 3.901 3.901 0 0 1-3.893-3.91 3.901 3.901 0 0 1 3.893-3.909c2.15 0 3.893 1.75 3.893 3.91m15.616 0a3.901 3.901 0 0 1-3.893 3.909 3.901 3.901 0 0 1-3.893-3.91 3.901 3.901 0 0 1 3.893-3.909c2.15 0 3.893 1.75 3.893 3.91M33.282 72.088a3.91 3.91 0 0 1-2.403 3.614 3.882 3.882 0 0 1-4.244-.848 3.92 3.92 0 0 1-.842-4.262 3.893 3.893 0 0 1 3.6-2.41 3.898 3.898 0 0 1 3.891 3.906m15.557 0a3.91 3.91 0 0 1-2.401 3.614 3.882 3.882 0 0 1-4.244-.846 3.92 3.92 0 0 1-.845-4.26 3.893 3.893 0 0 1 3.597-2.414 3.901 3.901 0 0 1 3.893 3.906m15.543 0a3.91 3.91 0 0 1-2.401 3.614 3.882 3.882 0 0 1-4.244-.846 3.92 3.92 0 0 1-.845-4.26 3.893 3.893 0 0 1 3.597-2.414 3.901 3.901 0 0 1 3.893 3.906" fill="#0EBBCC"/></g></g></svg>