<svg viewBox="0 0 90 90" xmlns="http://www.w3.org/2000/svg"><g fill="none" fill-rule="evenodd"><path fill="#141F49" d="M0 0h90v90H0z"/><path d="M86 42.927v-3.979H70.903v14.674c-.083-1.741-.743-3.068-1.898-3.98-.825-.663-2.063-1.16-3.713-1.575l-3.712-.912c-1.485-.331-2.392-.663-2.805-.911-.413-.166-.742-.498-.825-.912-.165-.25-.165-.498-.165-.83 0-.663.248-1.243.743-1.657.165-.083.165-.166.33-.25a5.608 5.608 0 0 1 2.805-.745c1.072 0 1.897.166 2.64.497 1.072.498 1.65 1.492 1.732 2.736h4.208c-.083-2.238-.908-3.98-2.475-5.223-1.568-1.243-3.548-1.824-5.858-1.824-2.722 0-4.785.663-6.27 1.907-.825.746-1.485 1.658-1.815 2.736a1.662 1.662 0 0 0-.165.746c-.495 2.487-2.145 4.145-4.785 4.145-4.207 0-5.858-3.648-5.858-7.212 0-3.814 1.568-7.462 5.858-7.462 2.392 0 4.373 1.576 4.703 3.814h4.537c-.578-4.974-4.538-7.71-9.24-7.71-6.352 0-10.23 4.56-10.56 10.528V29.58H33.53v13.43c0 3.234-1.073 4.726-4.455 4.726-3.878 0-4.455-2.321-4.455-4.726V29.58H20v13.43c0 5.886 3.383 8.705 9.157 8.705 5.775 0 9.158-2.819 9.158-8.705v-1.658c.33 5.803 4.208 10.363 10.56 10.363 2.64 0 4.785-.829 6.517-2.321.165.083.165.166.33.248.825.58 2.475 1.161 4.703 1.659l2.31.497c1.32.332 2.31.663 2.97.995.66.414.99.995.99 1.658 0 1.243-.66 2.072-1.897 2.487-.66.249-1.568.331-2.64.331-1.816 0-3.053-.414-3.796-1.326-.412-.497-.742-1.244-.825-2.155H53.33c0 2.238.825 3.979 2.475 5.305C57.373 60.42 59.682 61 62.405 61c2.722 0 4.868-.663 6.435-1.907 1.403-1.16 2.145-2.653 2.227-4.476v6.051h4.785V51.55h8.993v-3.647h-9.157v-4.975H86Z" fill="#FFF" fill-rule="nonzero"/></g></svg>