<svg viewBox="0 0 90 90" xmlns="http://www.w3.org/2000/svg"><path d="M43.725.017c-.018.018-.784.089-1.71.142-2.421.16-3.222.267-5.715.746-9.526 1.849-18.304 6.824-24.767 14.021-1.62 1.813-2.119 2.435-3.312 4.14-4.771 6.807-7.3 13.72-8.154 22.32-.09.925-.09 5.811 0 7.126.089 1.28.107 1.369.445 3.732.766 5.118 2.813 10.805 5.644 15.638.73 1.226 3.205 4.852 3.65 5.314.125.142.552.622.944 1.101 3.17 3.768 7.656 7.446 12.09 9.916 1.94 1.084 2.26 1.244 4.201 2.097 2.707 1.209 6.909 2.524 9.259 2.897.338.053.82.124 1.068.178 1.211.23 1.585.284 2.493.373.534.053 1.264.124 1.602.16.695.106 5.734.106 6.855.017 6.57-.515 12.731-2.327 18.446-5.455 1.62-.889 5.021-3.128 6.125-4.016 5.467-4.46 9.508-9.419 12.446-15.265 1.798-3.572 3.258-7.89 3.935-11.533.178-.889.338-1.76.374-1.955.516-2.683.463-11.213-.107-13.86a24.295 24.295 0 0 1-.25-1.334 24.317 24.317 0 0 0-.195-1.066c-.053-.249-.142-.64-.196-.888a4.11 4.11 0 0 0-.178-.711 4.382 4.382 0 0 1-.178-.622c-.178-.942-1.478-4.603-2.137-6.095-1.353-3.021-3.418-6.575-5.11-8.832C75.33 10.395 67.388 4.815 58.111 1.972 56.58 1.51 54.8 1.065 53.66.87c-.392-.071-.837-.142-1.015-.178-.16-.018-.677-.106-1.157-.178a22.917 22.917 0 0 1-1.211-.177c-.677-.125-6.445-.409-6.552-.32Zm3.881 6.735c1.086.053 2.119.142 2.315.178.196.053.659.124 1.033.177 2.368.32 5.608 1.209 8.047 2.168 15.83 6.256 25.658 21.84 24.393 38.687-.07.87-.142 1.723-.178 1.883-.035.16-.107.729-.178 1.262-.196 1.51-1.228 5.402-1.958 7.357-1.264 3.412-3.205 6.895-5.52 9.951-1.282 1.706-4.86 5.332-6.606 6.718-4.878 3.838-11.466 6.823-16.968 7.694-.32.054-.73.125-.89.16-.41.071-2.065.267-3.134.356-1.157.106-4.736.106-5.875 0-1.371-.125-2.618-.267-3.205-.374C30.62 81.512 23.89 78.1 18.139 72.45c-1.887-1.83-3.027-3.127-2.528-2.807.676.408 3.472.781 5.555.71 4.86-.124 9.454-2.22 13.3-6.06l1.656-1.634.285.568c1.94 3.75 6.036 6.807 9.882 7.34 5.43.746 10.149-1.44 13.977-6.522 1.94-2.577 3.667-6.86 4.255-10.556.196-1.297.25-5.846.071-6.93-.089-.587-.196-1.315-.249-1.617-.036-.302-.285-1.227-.552-2.044-1.496-4.745-4.576-8.334-8.35-9.756-1.55-.569-1.906-.622-4.274-.622-2.475.018-4.469.444-6.445 1.404-.659.338-1.229.586-1.247.569-.017-.018.32-2.15.552-3.448.054-.302.143-.835.196-1.155.054-.302.178-1.048.285-1.635.214-1.173.267-1.51.41-2.31a92.97 92.97 0 0 1 .57-3.288c.142-.728.302-1.937.373-2.665.09-1.137.036-1.457-.302-2.168-.57-1.244-1.603-2.221-2.422-2.346-.819-.124-11.538-.124-12.196 0-.25.054-.57.302-.73.569-.445.746-.98 3.945-.873 5.224.054.64.677.729 5.182.747 2.795.018 4.344.089 4.344.195a18.82 18.82 0 0 0-.142 1.066c-.072.48-.25 1.6-.392 2.488-.339 2.044-.339 2.062-.784 4.71a109.9 109.9 0 0 1-.445 2.665c-.035.249-.445 2.683-.89 5.42a977.446 977.446 0 0 1-.908 5.509 7.813 7.813 0 0 1-.16.8c-.036.142-.125.622-.178 1.066-.054.444-.143.924-.178 1.066-.036.142-.107.586-.178.977-.196 1.404-.285 1.795-.641 3.2-1.3 5.1-4.808 9.63-8.903 11.532-3.08 1.422-6.873 1.67-9.793.658-3.685-1.262-5.875-3.732-7.389-8.317-.463-1.404-.498-1.6-.961-4.318-.962-5.776-.16-13.186 2.065-19.139 1.015-2.719 3.17-6.824 4.558-8.672 2.012-2.666 4.95-5.829 7.087-7.588 1.87-1.546 5.092-3.59 7.567-4.78 4.807-2.328 9.454-3.537 14.689-3.839 1.033-.053 1.905-.124 1.94-.16.036-.035.232-.035.446.018.213.036 1.264.125 2.332.178Zm5.93 32.698c1.976.888 3.703 3.27 4.273 5.864.445 1.972.48 2.381.462 4.087-.017 2.95-.462 5.242-1.477 7.712-1.265 3.04-3.419 5.563-5.627 6.593-2.849 1.333-6.356.533-8.28-1.883-1.62-2.026-2.278-4.212-2.278-7.624-.018-4.194 1.015-7.855 2.955-10.68 2.796-4.052 6.57-5.598 9.971-4.07Z"/></svg>