<svg viewBox="0 0 90 90" xmlns="http://www.w3.org/2000/svg"><g fill="none" fill-rule="evenodd"><path fill="#0C4B73" d="M0 0h90v90H0z"/><g fill-rule="nonzero"><path fill="#1EA0F2" d="M52 31 38 45l7 7 14-14z"/><path fill="#1576B3" d="m45 52 7 7h28L59 38z"/><path fill="#B4DFFB" d="M10 59h14l14-14-7-7z"/><path fill="#69C0F6" d="M24 59h14l7-7-7-7z"/><path fill="#1EA0F2" d="M52 31 38 45l7 7 14-14z"/><path fill="#1576B3" d="m45 52 7 7h28L59 38z"/><path fill="#B4DFFB" d="M10 59h14l14-14-7-7z"/><path fill="#69C0F6" d="M24 59h14l7-7-7-7z"/></g></g></svg>