<svg viewBox="0 0 90 90" xmlns="http://www.w3.org/2000/svg"><path d="M56.475 30.658h9.857c.775 0 1.404.632 1.404 1.412 0 .339-.121.666-.341.923L48.876 54.555a1.417 1.417 0 0 0 .145 1.992 1.4 1.4 0 0 0 .918.343h7.111a1.414 1.414 0 0 1 .813 2.564L15.188 89.888a.6.6 0 0 1-.839-.143.608.608 0 0 1-.05-.615l11.714-24.166c.34-.7.05-1.546-.647-1.888a1.398 1.398 0 0 0-.615-.142H13.003A1.006 1.006 0 0 1 12 61.925c0-.194.056-.383.16-.546l15.7-24.5a1.415 1.415 0 0 0-.42-1.95 1.399 1.399 0 0 0-.761-.226H16.512a1.006 1.006 0 0 1-.874-1.504L33.08 2.055A4.009 4.009 0 0 1 36.577 0h41.019a1.414 1.414 0 0 1 1.044 2.356L55.43 28.302a1.417 1.417 0 0 0 .106 1.994 1.4 1.4 0 0 0 .939.362Z" fill="#888"/></svg>