<svg viewBox="0 0 90 90" xmlns="http://www.w3.org/2000/svg"><g fill="none" fill-rule="evenodd"><path fill="#4943F7" d="M0 0h90v90H0z"/><path d="M44.8 29.156h15.73v15.73H44.8z"/><path stroke="#FFF" stroke-width=".57" d="M45.085 29.441h15.16v15.16h-15.16z"/><path d="M15 45.05C15 28.51 28.26 15 44.801 15v14.156c-8.644-.012-15.661 6.986-15.673 15.63-.012 8.645 6.986 15.662 15.63 15.674a15.456 15.456 0 0 0 15.457-15.575H75C75 61.425 61.49 75 44.95 75 28.409 75 14.998 61.59 15 45.05Zm44.271-14.32V15H75v15.729H59.271Z" fill="#FFF" fill-rule="nonzero"/></g></svg>