<svg viewBox="0 0 90 90" xmlns="http://www.w3.org/2000/svg"><defs><linearGradient x1="35.676%" y1="6.52%" x2="64.568%" y2="94.184%" id="a"><stop stop-color="#E5653C" offset="7.59%"/><stop stop-color="#E2A432" offset="100%"/></linearGradient></defs><path d="M77 31.153C77 13.97 62.873 0 45.5 0 28.127 0 14 13.97 14 31.153v27.673c0 3.078.449 6.133 1.343 9.056 1.926 6.265 5.91 11.89 11.216 15.854C32.044 87.83 38.604 90 45.5 90 62.873 90 77 76.03 77 58.847c0-4.782-1.142-9.565-3.29-13.836A30.828 30.828 0 0 0 77 31.15v.002Zm-31.5-3.499c-9.582.067-17.373 7.837-17.373 17.314 0 9.476 7.79 17.249 17.529 17.313 8.978-.043 17.35-3.784 23.306-10.362a23.599 23.599 0 0 1 1.008 6.866c0 13.329-10.971 24.175-24.448 24.175-5.35 0-10.434-1.68-14.687-4.844-4.118-3.079-7.207-7.441-8.706-12.29a24.12 24.12 0 0 1-1.056-7.04V31.15c0-13.326 10.971-24.174 24.449-24.174 13.48 0 24.448 10.848 24.448 24.174a23.57 23.57 0 0 1-1.008 6.866C62.985 31.44 54.612 27.7 45.5 27.654Zm20.037 17.338A24.415 24.415 0 0 1 45.613 55.33c-5.757 0-10.458-4.65-10.458-10.338 0-5.67 4.68-10.32 10.412-10.34 7.992.02 15.404 3.872 19.97 10.34Z" fill="url(#a)"/></svg>