<svg viewBox="0 0 90 90" xmlns="http://www.w3.org/2000/svg"><defs><linearGradient x1="50%" y1="0%" x2="50%" y2="100%" id="a"><stop stop-color="#002452" offset="0%"/><stop stop-color="#00101F" offset="100%"/></linearGradient><linearGradient x1="50%" y1="0%" x2="50%" y2="100%" id="b"><stop stop-color="#FBFBF3" offset="0%"/><stop stop-color="#B6B4B7" offset="100%"/></linearGradient></defs><g fill="none" fill-rule="evenodd"><path fill="url(#a)" d="M0 0h90v90H0z"/><path d="M51.45 0c.763 4.422 1.43 8.844 2.193 13.266l.572 3.387c.285 1.788.571 3.575.857 5.269.096.659.477 1.223.763 1.788.763 1.6 1.62 3.199 2.478 4.892.763 1.506 1.43 2.917 2.193 4.422.858 1.6 1.62 3.293 2.478 4.893.286.658.667 1.317.953 1.881.096.283.096.377-.095.565-.503.538-5.159 6.14-10.272 12.31l-.7.844c-6.317 7.624-13.07 15.794-13.43 16.2-.096.095-.382.283-.572.283H25.046c-.19 0-.381-.094-.572-.188-2.334-3.327-5.791-7.687-9.376-12.034l-.634-.767C7.694 48.84.682 40.931.071 40.27c-.095-.188-.095-.282 0-.47 1.24-2.353 2.384-4.799 3.623-7.151.858-1.694 1.81-3.481 2.669-5.175.858-1.6 1.62-3.199 2.383-4.798.286-.565.286-1.13.381-1.788.381-2.07.667-4.14 1.049-6.21l.229-1.537.495-3.04c.08-.51.157-1.02.229-1.538.286-1.788.572-3.481.858-5.175L12.559 0c.572.376 1.048.659 1.525 1.035L15.87 2.29l3.575 2.476c.595.415 1.191.832 1.787 1.256l6.863 4.798c.667.47 1.24.94 2.002 1.317.286.188.667.094 1.049.188.19 0 .38.094.571.188h.477l.128-.014.22-.065a.567.567 0 0 1 .129-.015c.858.094 1.525-.376 2.192-.846 3.05-2.164 6.1-4.234 9.246-6.398C46.493 3.387 48.972 1.694 51.45 0ZM37.533 23.616c-.095.094-5.624 5.55-5.815 5.833-.571-1.13-4.67-5.551-5.052-5.833C22.758 25.403 6.076 37.728 5.6 38.858c-.286.47-.19.658.096.94 1.906 2.164 9.722 10.538 10.104 11.008.858-2.822.667-1.881 2.001-5.927l.286 8.186c.096.282.096.564.286.752 2.574 3.011 5.243 5.928 7.817 8.844.19.188.381.377.667.47.667.283 1.335.471 2.002.66.572.187 1.144.376 1.81.564 0-.47-.094-.847-.094-1.223 0-.097-.627-1.727-1.353-3.407l-.22-.504c-.63-1.424-1.294-2.777-1.668-3.146.095-.094.095-.094.19-.094.763-.282 7.53-.564 8.484-.188.19.094.381.188.667.282-.044.044-.738 1.49-1.472 3.044l-.245.52c-.777 1.65-1.524 3.259-1.524 3.305-.095.47-.095.846-.095 1.317.095 0 .19 0 .286-.094.953-.283 1.906-.565 2.86-.941.476-.188.953-.282 1.239-.565 2.669-2.916 6.768-8.091 9.437-11.102.44-3.307.474-7.258.476-7.981v-.11s0-.565.096-.565c.858 4.14.953 4.705 1.62 6.963.286-.283 2.574-2.729 2.764-3.011 2.098-2.446 4.29-4.893 6.387-7.339.095-.188.19-.282.095-.47-.572-1.318-1.048-2.54-1.62-3.858-.095-.188-.19-.376-.381-.47-.648-.443-5.015-3.119-9.46-5.748l-.762-.45c-3.808-2.243-7.52-4.357-8.843-4.904Zm3.527 13.83c1.049.094 2.097.094 3.241.188.572 0 1.144 0 1.811.094l-1.716 1.694-2.001 1.976c-.286.282-.668.188-.954.188-1.43-.094-2.955-.282-4.384-.376-.286 0-.477-.094-.858-.094.572-.47.953-.847 1.43-1.224.857-.752 1.715-1.41 2.573-2.164.286-.188.477-.282.858-.282Zm-17.825 0c.19 0 .476.188.667.282 1.24 1.13 2.478 2.353 3.813 3.482v.094c-.381 0-.858.094-1.24.094-1.524.094-2.954.094-4.48.094-.095 0-.285-.094-.38-.188-1.05-1.13-2.002-2.164-3.051-3.293l-.572-.565h5.243ZM48.4 7.81c-2.097 3.67-7.912 8.938-9.914 12.514 2.86 1.317 13.822 8.561 16.777 9.879-.095-.47-4.575-8.562-4.67-9.033l-.763-4.61c-.19-.847-.286-1.693-.382-2.54-.19-1.317-.476-2.729-.667-4.046-.095-.658-.286-1.411-.381-2.164Zm-32.6 0h-.096c-.762 4.799-3.908 15.148-4.67 20.04 2.86-1.223 11.915-6.868 14.774-8.185-2.097-3.575-8.007-8.28-10.008-11.855Z" transform="translate(13 10)" fill="url(#b)" fill-rule="nonzero"/></g></svg>