<svg viewBox="0 0 90 90" xmlns="http://www.w3.org/2000/svg"><path d="M77.624 44.66c0 1.666-.85 1.938-2.958 1.938-2.244 0-2.652-.374-2.89-2.074-.442-4.319-3.366-7.991-8.263-8.4-1.564-.135-1.938-.713-1.938-2.652 0-1.802.272-2.652 1.666-2.652 8.5.034 14.383 6.869 14.383 13.84Zm12.376 0C90 31.704 81.228 18 60.963 18H20.706c-.816 0-1.326.408-1.326 1.156 0 .408.306.782.578.986 1.462 1.156 3.639 2.449 6.495 3.877 2.788 1.394 4.964 2.312 7.14 3.196.918.374 1.258.782 1.258 1.293 0 .714-.51 1.156-1.496 1.156H1.394c-.952 0-1.394.612-1.394 1.224 0 .51.17.952.612 1.394 2.584 2.72 6.732 5.985 12.75 9.76 5.27 3.298 11.799 6.869 17 9.35.885.409 1.157.885 1.157 1.395-.034.578-.476 1.054-1.496 1.054H15.368c-.816 0-1.292.442-1.292 1.122 0 .375.306.85.714 1.225 3.332 3.026 8.67 6.325 15.777 9.351C40.053 69.586 49.675 72 60.487 72 80.99 72 90 56.664 90 44.66ZM63.241 63.057c-10.064 0-18.462-8.196-18.462-18.397 0-10.066 8.398-18.125 18.462-18.125 10.337 0 18.395 8.06 18.395 18.125-.034 10.201-8.092 18.397-18.395 18.397Z" fill="#FF642D"/></svg>