<svg viewBox="0 0 90 90" xmlns="http://www.w3.org/2000/svg"><g fill="none" fill-rule="evenodd"><path fill="#4A5E6D" d="M0 0h90v90H0z"/><path d="M20.223 20.223c-3.382 3.434-5.93 7.31-7.648 11.628C10.858 36.117 10 40.5 10 45s.858 8.883 2.575 13.15c1.717 4.317 4.266 8.167 7.648 11.549 3.434 3.434 7.31 6.009 11.628 7.726C36.117 79.142 40.5 80 45 80s8.883-.858 13.15-2.575c4.317-1.717 8.193-4.292 11.627-7.726 3.382-3.382 5.931-7.232 7.648-11.55C79.142 53.883 80 49.5 80 45s-.858-8.883-2.575-13.15c-1.717-4.318-4.266-8.193-7.648-11.627-3.434-3.382-7.31-5.931-11.628-7.648C53.883 10.858 49.5 10 45 10s-8.883.858-13.15 2.575c-4.317 1.717-8.193 4.266-11.627 7.648Zm45.106 45.106c-2.81 2.757-5.983 4.838-9.52 6.243-3.538 1.405-7.141 2.107-10.809 2.107-3.668 0-7.27-.702-10.808-2.107-3.538-1.405-6.712-3.486-9.52-6.243l7.257-7.258c1.82 1.821 3.876 3.174 6.165 4.058 2.289.937 4.617 1.405 6.984 1.405s4.67-.468 6.906-1.405c2.29-.884 4.318-2.237 6.087-4.058 1.821-1.82 3.174-3.876 4.058-6.165.937-2.289 1.405-4.617 1.405-6.984s-.468-4.67-1.405-6.906c-.884-2.29-2.237-4.318-4.058-6.087L31.93 58.07c-1.821-1.82-3.174-3.876-4.058-6.165-.937-2.289-1.405-4.617-1.405-6.984s.468-4.67 1.405-6.906c.884-2.238 2.237-4.267 4.058-6.087 1.82-1.821 3.876-3.174 6.165-4.058 2.289-.937 4.617-1.405 6.984-1.405s4.67.468 6.906 1.405c2.29.884 4.318 2.237 6.087 4.058l7.258-7.258c2.81 2.81 4.942 5.957 6.399 9.443 1.405 3.537 2.107 7.14 2.107 10.808s-.702 7.27-2.107 10.808c-1.457 3.538-3.59 6.737-6.4 9.599Z" fill="#FFF" fill-rule="nonzero"/></g></svg>