<svg viewBox="0 0 90 90" xmlns="http://www.w3.org/2000/svg"><path d="M2.068 53.532 4.19 72.858c.278 2.166.322 3.138-.135 3.25-.414.075-.818-.449-1.046-1.706L.205 59.65c-.34-1.207-.25-3.261.22-4.543l.554-1.52c.446-1.265.94-1.287 1.09-.055Zm6.003 1.012c-.047-1.235-1.029-1.494-1.506-.583-.476.911-.679 3.51-.515 4.738l.906 9.513c.22 1.61.45 2.101.832 2.032.447-.1.555-1.575.496-2.874l-.213-12.826Zm4.05 10.666.71-27.094c.08-.786-1.048-.705-1.638.098l-.214.278c-.593.803-1.109 2.116-1.125 2.907l1.028 23.964c.036.786.217 1.848.555 1.84.394-.073.618-.9.685-1.993Zm4.792-23.448-1.317 20.976c-.086.886.069 1.95.377 1.934.382-.022.76-1.196.831-1.95l3.28-23.371c-.108-1.21-1.328-1.436-2.104-.254-.385.624-1.004 1.893-1.067 2.665Zm3.812 20.427c.41.159.762-.934 1.317-2.645l9.327-36.392c.224-.89-.278-2.082-1.331-2.247-.815-.122-1.858.95-2.118 2.155l-7.176 36.422c-.302 1.489-.418 2.562-.02 2.707Zm5.587-.301 13.35-32.225c.554-1.238.554-2.336-.46-2.707-1.132-.395-2.571 1.135-3.137 2.43l-10.96 31.92c-.46 1.34-.881 2.583-.424 2.756.522.186 1.062-.95 1.63-2.174ZM59.2 16.045a2.182 2.182 0 0 0-.341-2.76l-1.592-1.05c-.912-.474-1.852-.218-2.323.657L31.277 59.176s-1.94 3.294-1.283 3.595c.52.248 1.863-1.884 1.863-1.884L59.2 16.045ZM33.864 65.174 66.932 28.47c.746-.864 1.373-1.489.973-2.665a4.198 4.198 0 0 0-1.608-2.168c-.746-.574-1.785-.457-2.453.415L32.949 64.248c-1.109 1.263-1.663 2.25-1.309 2.509.394.295 1.29-.496 2.224-1.583Zm4.347-.343c.333.399 1.536-.385 2.737-1.318l44.53-31.969c.973-.786 1.536-2.207 1.214-3.141l-1.47-3.76c-.318-.898-1.27-.97-2.117-.156L40 62.428c-1.051 1.012-2.232 1.876-1.789 2.403Zm.333 5.329 42.207-17.4c1.317-.616 2.367-1.99 2.326-3.066l-.455-4.833c-.036-1.009-1.004-1.265-2.14-.577l-42.42 24.48c-1.306.813-2.568 1.393-2.399 1.95.17.558 1.423.123 2.876-.554h.005Zm50.979-7.283.471-5.039c.095-1.1-.998-1.583-2.406-1.073l-43.13 14.582c-1.525.558-2.939.92-2.773 1.489.139.487 1.356.259 2.986-.034l41.794-7.277c1.583-.295 2.961-1.5 3.058-2.648Zm-46.9 15.11h35.63c1.716.136 3.108-.767 3.54-2.021l.76-1.968c.554-1.458-.832-2.333-2.479-2.168l-37.232 4.386c-1.664.176-3.724.502-3.605 1.115.12.614 1.772.675 3.385.655Z" fill="#F58025"/></svg>