<svg viewBox="0 0 90 90" xmlns="http://www.w3.org/2000/svg"><defs><linearGradient x1="50%" y1="0%" x2="50%" y2="100%" id="a"><stop stop-color="#2C3774" offset="0%"/><stop stop-color="#14172B" offset="100%"/></linearGradient></defs><g fill="none" fill-rule="evenodd"><path fill="url(#a)" d="M0 0h90v90H0z"/><path d="M59.529 63.712c-.208 0-.417-.005-.626-.013C55.954 68.238 50.956 71 45.535 71v-4.14c4.38 0 8.384-2.415 10.48-6.32l.668-1.243 1.385.18c.484.063.976.095 1.46.095 6.279 0 11.39-5.182 11.39-11.548 0-3.414-1.563-6.758-4.174-8.933l-.805-.671.064-1.055c.013-.219.02-.441.02-.662 0-6.109-4.905-11.082-10.93-11.082-2.17 0-4.26.642-6.064 1.863l-1.52 1.028-1.175-1.418c-2.088-2.518-5.127-3.954-8.37-3.954-6.024 0-10.928 4.973-10.928 11.082 0 .17.004.343.011.514l.065 1.406-1.265.578c-4.115 1.88-6.764 6.032-6.764 10.606 0 6.409 5.145 11.626 11.464 11.626.672 0 1.346-.06 2.003-.177l1.533-.274.666 1.427c1.969 4.216 6.194 6.932 10.786 6.932V71c-5.668 0-10.906-3.07-13.77-7.956a15.48 15.48 0 0 1-1.218.048C21.973 63.092 15 56.02 15 47.326c0-5.745 3.08-10.998 7.967-13.766C23.31 25.47 29.904 19 37.965 19c3.864 0 7.527 1.491 10.3 4.146a14.782 14.782 0 0 1 6.828-1.665c8.239 0 14.945 6.76 15.012 15.097A15.946 15.946 0 0 1 75 48.024c0 8.652-6.939 15.688-15.471 15.688Zm-6.24-13.413c-1.386.537-2.75.81-4.064.81a9.657 9.657 0 0 1-3.86-.813l-.1-.043c-.457-.2-.653-.44-.653-.968v-.704c0-.62.352-1.019.926-1.019l.129.018.034.013a9.448 9.448 0 0 0 3.522.685c1.206 0 2.47-.232 3.754-.69l.115-.026h.032c.574 0 .926.399.926 1.019v.704c0 .561-.19.765-.72.996l-.04.018Zm-17.021-6.757 3.753-1-3.762-1c-.39-.104-.671-.416-.671-.962v-1.2c0-.524.31-.75.665-.75.115 0 .234.025.353.07l6.698 2.198c.508.172.788.586.788 1.154v.981c0 .568-.28.983-.789 1.155l-6.712 2.201a1.08 1.08 0 0 1-.313.051c-.42 0-.69-.307-.69-.753v-1.181c0-.568.29-.881.68-.964Z" fill="#FFF" fill-rule="nonzero"/></g></svg>