<svg viewBox="0 0 90 90" xmlns="http://www.w3.org/2000/svg"><g fill="none" fill-rule="evenodd"><path fill="#9AD36A" d="m8 25 15 8-15 8zm15-8 15 8-15 8z"/><path fill="#007EDB" d="m8 41 15 8-15 8z"/><path fill="#002F52" d="m8 57 15 8-15 8z"/><path fill="#5AB0EF" d="M23 33 8 41l15 8z"/><path fill="#62AE18" d="M23 17 8 25l15 8z"/><path fill="#5AB0EF" d="m38 9-15 8 15 8z"/><path fill="#004A80" d="M23 49 8 57l15 8z"/><path fill="#00223B" d="M23 65 8 73l15 8zM68 9l15 8-15 8z"/><path fill="#004A80" d="m68 25 15 8-15 8z"/><path fill="#5AB0EF" d="m68 41 15 8-15 8z"/><path fill="#62AE18" d="m68 57 15 8-15 8z"/><path fill="#5AB0EF" d="m53 65 15 8-15 8z"/><path fill="#002F52" d="m83 17-15 8 15 8z"/><path fill="#007EDB" d="m83 33-15 8 15 8z"/><path fill="#9AD36A" d="m83 49-15 8 15 8zm-15 8-15 8 15 8z"/><path fill="#004A80" d="m38 57 15 8-15 8zm0 16 15 8-15 8z"/><path fill="#002F52" d="m53 49-15 8 15 8z"/><path fill="#007EDB" d="m53 65-15 8 15 8zM38 9l15 8-15 8z"/><path fill="#002F52" d="m38 25 15 8-15 8z"/><path fill="#004A80" d="M53 1 38 9l15 8zm0 16-15 8 15 8z"/></g></svg>