<svg viewBox="0 0 90 90" xmlns="http://www.w3.org/2000/svg"><g fill="none"><path d="M78.597 39.665a16.178 16.178 0 0 0-3.083-.966 23.991 23.991 0 0 0-2.51-9.022c-.86 2.076-2.044 4.045-3.37 5.907-3.479 4.69-7.96 8.52-12.694 11.815-9.61 6.552-20.474 11.099-31.769 14.142-7.279 1.933-14.773 3.258-22.446 3.687C5.952 70.491 11.761 74 18.395 74h2.975c10.506-.036 21.012-.072 31.518-.072 5.594 0 11.223.072 16.817.036 3.586-.036 6.598.036 9.825-1.754 3.047-1.683 5.557-4.225 7.53-7.053C88.996 62.364 90 59.07 90 55.669c.036-7.34-4.554-13.676-11.403-16.004Z" fill="#E4411F"/><path d="M23.88 55.74c10.937-1.933 21.73-5.37 31.447-10.883 4.84-2.757 9.43-6.087 13.123-10.24 1.578-1.826 2.94-3.795 3.98-5.979C68.27 21.12 60.167 16 50.952 16a24.63 24.63 0 0 0-21.084 11.815c-1.828-.967-3.872-1.468-6.023-1.468-6.992 0-12.694 5.55-12.945 12.46C4.41 41.741 0 48.293 0 55.596c0 .573.036 1.146.072 1.719 7.888.43 15.92-.179 23.808-1.575Z" fill="#7C858E"/></g></svg>