<svg width="90" height="90" viewBox="0 0 90 90" xmlns="http://www.w3.org/2000/svg"><defs><linearGradient x1="11.356%" y1="90.132%" x2="50%" y2="24.766%" id="a"><stop stop-color="#7C2DD4" offset="0%"/><stop stop-color="#3A216F" offset="100%"/></linearGradient></defs><g fill="none" fill-rule="evenodd"><rect fill="#FFF" opacity="0" width="90" height="90"/><path d="M81.7609675,54 L8.25286682,54 C6.70609882,54 5.38969422,52.9134082 5.07538362,51.4277176 L5.02611162,51.1254618 L0.0267732121,10.0597994 C-0.106376188,8.90619238 0.261277212,7.75083838 1.03670461,6.88608217 C2.45019521,5.30975817 4.81836682,5.09700277 6.48384282,6.33842997 L6.77011862,6.57261917 L21.6298706,23.8375106 C23.2421548,25.2100494 25.6174748,25.1033314 27.101274,23.6498014 L27.3535296,23.3793422 L42.227273,1.42695777 C42.3652132,1.26507677 42.5156688,1.11428237 42.6772502,0.975967172 C44.2857886,-0.400955229 46.6613904,-0.300703829 48.1491446,1.14878177 L48.4021362,1.41855317 L63.5570041,23.6002062 C64.6386553,24.7881782 66.2640403,25.1868374 67.7087039,24.7620918 L82.6009003,6.71624797 C83.3717519,6.01505077 84.3787359,5.64037657 85.4111005,5.66010897 L85.6154135,5.67230417 C85.8762521,5.65142977 86.1405299,5.65566217 86.4047449,5.68612897 C88.5209741,5.93015317 90.0685323,7.75927758 89.9976613,9.85057198 L89.9728687,10.1827622 L84.9877227,51.1254618 C84.8104549,52.6613102 83.5796437,53.8438924 82.0670209,53.9857158 L81.7609675,54 L8.25286682,54 L81.7609675,54 Z" transform="translate(0 18)" fill="url(#a)" fill-rule="nonzero"/></g></svg>