<svg viewBox="0 0 90 90" xmlns="http://www.w3.org/2000/svg" xmlns:xlink="http://www.w3.org/1999/xlink"><defs><circle id="b" cx="45" cy="45" r="45"/><circle id="d" cx="45" cy="45" r="45"/><circle id="f" cx="45" cy="45" r="45"/><linearGradient x1="42.525%" y1="22.216%" x2="60.943%" y2="85.018%" id="a"><stop stop-color="#00C2A2" offset="0%"/><stop stop-color="#00B395" offset="100%"/></linearGradient></defs><g fill="none" fill-rule="evenodd"><circle cx="45" cy="45" r="45" fill="url(#a)" fill-rule="nonzero"/><mask id="c" fill="#fff"><use xlink:href="#b"/></mask><circle stroke="#FFF" stroke-width="7.031" mask="url(#c)" cx="45" cy="45" r="47.5"/><mask id="e" fill="#fff"><use xlink:href="#d"/></mask><path d="M92.5 44.458C92.5 16.082 77.695 5 57.753 5 40.16 5 25 14.674 25 31.25S36.42 55 47.5 55s17.94-6.208 17.94-16.29c0-10.082-8.6-13.504-12.797-13.504-4.197 0-9.961 2.84-9.961 9.154 0 6.315 4.606 8.39 7.859 8.39 3.252 0 5.647-2.32 5.65-5.67.003-3.351-2.337-4.593-4.682-4.593" stroke="#FFF" stroke-width="2.813" stroke-linecap="round" mask="url(#e)"/><mask id="g" fill="#fff"><use xlink:href="#f"/></mask><path d="M27.5 45C20.35 48.906 10 64.39 10 77.5" stroke="#FFF" stroke-width="2.813" mask="url(#g)"/></g></svg>