<svg xmlns="http://www.w3.org/2000/svg" xmlns:xlink="http://www.w3.org/1999/xlink" width="90" height="90" viewBox="0 0 90 90"><defs><circle id="b" cx="45" cy="45" r="45"/><circle id="d" cx="45" cy="45" r="45"/><circle id="f" cx="45" cy="45" r="45"/><linearGradient id="a" x1="42.525%" x2="60.943%" y1="22.216%" y2="85.018%"><stop offset="0%" stop-color="#00C2A2"/><stop offset="100%" stop-color="#00B395"/></linearGradient></defs><g fill="none" fill-rule="evenodd"><rect width="90" height="90" fill="#FFF" opacity="0"/><circle cx="45" cy="45" r="45" fill="url(#a)" fill-rule="nonzero"/><mask id="c" fill="#fff"><use xlink:href="#b"/></mask><circle cx="45" cy="45" r="47.5" stroke="#FFF" stroke-width="7.031" mask="url(#c)"/><mask id="e" fill="#fff"><use xlink:href="#d"/></mask><path stroke="#FFF" stroke-linecap="round" stroke-width="2.813" d="M92.5,44.4579964 C92.5,16.0820323 77.6953125,5.00000001 57.7525615,5.00000001 C40.1601319,5.00000001 25,14.6741365 25,31.25 C25,47.8258636 36.4194554,55 47.5,55 C58.5805447,55 65.439511,48.7916918 65.439511,38.709812 C65.439511,28.6279324 56.8393852,25.2064049 52.6429086,25.2064049 C48.4464319,25.2064049 42.6815567,28.0457072 42.6815567,34.360405 C42.6815567,40.6751032 47.2878844,42.749926 50.5406256,42.749926 C53.7933667,42.749926 56.187574,40.4300025 56.1909043,37.0794018 C56.1942346,33.7288008 53.8544849,32.4871388 51.5086284,32.4871388" mask="url(#e)"/><mask id="g" fill="#fff"><use xlink:href="#f"/></mask><path stroke="#FFF" stroke-width="2.813" d="M27.5,45 C20.3508337,48.9055286 10,64.3899569 10,77.5" mask="url(#g)"/></g></svg>