<svg viewBox="0 0 90 90" xmlns="http://www.w3.org/2000/svg"><defs><linearGradient x1="100%" y1="0%" x2="0%" y2="100%" id="a"><stop stop-color="#0097FF" offset="0%"/><stop stop-color="#0638FF" offset="100%"/></linearGradient></defs><g fill="none" fill-rule="evenodd"><path fill="url(#a)" d="M0 0h90v90H0z"/><path d="M41.563 31.18a17.079 17.079 0 0 0-13.259.33 16.266 16.266 0 0 0-4.509 3.055L12.646 45.229A8.455 8.455 0 0 0 10 51.339c0 4.739 4.076 8.638 9.029 8.638h.004c.11 0 .218 0 .328-.006-2.663-.935-4.445-3.374-4.445-6.087 0-1.773.76-3.47 2.103-4.694l9.323-8.914.988-.95.336-.321.38-.364c.232-.219.472-.429.72-.628 3.854-3.218 8.8-4.988 13.914-4.983.834 0 1.667.047 2.494.14a16.388 16.388 0 0 0-3.61-1.989v-.001Zm37.782 4.214c-1.865-4.391-7.174-6.538-11.765-4.76l-.115.047a9.04 9.04 0 0 0-2.876 1.852l-6.822 6.525-.984.938-.09.082c-1.18 1.039-3.034 1.004-4.167-.082l-5.232-5.005a20.586 20.586 0 0 0-11.773.768 10.452 10.452 0 0 1 7.07 2.879l9.05 8.655c1.655 1.58 4.375 1.58 6.03 0l11.17-10.686c.11-.104.226-.2.349-.286a6.963 6.963 0 0 1 4.408-1.559c2.866 0 5.437 1.739 6.391 4.323a8.441 8.441 0 0 0-.645-3.693h.001v.002Zm-5.742.811a5.5 5.5 0 0 0-.91.075c.145.097.28.205.407.326.564.539.881 1.272.881 2.036s-.315 1.496-.88 2.036L62 51.298l-.072.068a9.879 9.879 0 0 1-.607.535c-3.878 3.311-8.9 5.14-14.098 5.133-.776 0-1.551-.04-2.323-.119 4.572 3.248 10.6 3.989 15.88 1.948a16.203 16.203 0 0 0 5.4-3.425l10.832-10.355.343-.33c.123-.116.24-.235.355-.356a4.91 4.91 0 0 0 1.157-3.15c0-2.765-2.378-5.04-5.267-5.04h-.003l.005-.002ZM54.547 54.242a10.495 10.495 0 0 1-7.167-2.878l-9.005-8.615a4.435 4.435 0 0 0-3.049-1.234 4.34 4.34 0 0 0-3.022 1.195l-2.657 2.543-1.119 1.07-2.597 2.485-1.077 1.031-1.78 1.705-1.59 1.523-.318.305a3.083 3.083 0 0 1-2.13.844 3.08 3.08 0 0 1-2.128-.844 2.874 2.874 0 0 1-.38-.443 4.813 4.813 0 0 0-.096.95c0 2.765 2.377 5.04 5.266 5.042a5.373 5.373 0 0 0 3.653-1.411l.068-.064.092-.088 2.935-2.807 4.768-4.562c1.172-1.096 3.074-1.085 4.233.023l5.332 5.1a20.58 20.58 0 0 0 11.768-.87Z" fill="#FFF" fill-rule="nonzero"/></g></svg>