<svg viewBox="0 0 90 90" xmlns="http://www.w3.org/2000/svg"><defs><linearGradient x1="100%" y1="64.039%" x2="0%" y2="64.039%" id="a"><stop stop-color="#0099EA" offset="0%"/><stop stop-color="#0088D6" offset="100%"/></linearGradient></defs><g fill="none" fill-rule="evenodd"><path fill="url(#a)" d="M0 0h90v90H0z"/><path d="M71.045 40.434c2.538 0 4.526 2.005 4.526 4.565 0 2.56-1.988 4.567-4.526 4.567-2.536 0-4.523-2.007-4.523-4.567s1.987-4.565 4.523-4.565m-52.093 0c2.537 0 4.526 2.005 4.526 4.565 0 2.56-1.989 4.567-4.526 4.567-2.536 0-4.523-2.007-4.523-4.567s1.987-4.565 4.523-4.565m26.104-5.945c5.764-.028 10.443 4.693 10.417 10.51 0 5.844-4.627 10.512-10.417 10.512S34.643 50.843 34.643 45c-.027-5.816 4.65-10.538 10.413-10.51m0-6.489c-7.67 0-14.171 5.248-16.186 12.358-1.751-3.77-5.547-6.413-9.918-6.413C12.942 33.945 8 38.932 8 45s4.941 11.057 10.952 11.057c4.371 0 8.167-2.645 9.918-6.417C30.885 56.751 37.386 62 45.056 62c7.614 0 14.082-5.17 16.149-12.201 1.784 3.686 5.53 6.257 9.84 6.257 6.011 0 10.955-4.99 10.955-11.058 0-6.066-4.944-11.053-10.955-11.053-4.31 0-8.056 2.568-9.84 6.254C59.138 33.17 52.67 28 45.056 28" fill="#FFF"/></g></svg>