<svg viewBox="0 0 90 90" xmlns="http://www.w3.org/2000/svg"><path d="M90 2c-7.813 0-14.113 6.314-14.113 14.146v40.968c0 1.714-.098 3.427-.293 5.238-.195 1.762-.683 3.377-1.465 4.845-.781 1.469-1.953 2.693-3.516 3.672-1.563.978-3.809 1.468-6.641 1.468-2.833 0-5.079-.49-6.642-1.468-1.562-.98-2.734-2.203-3.516-3.672-.78-1.468-1.27-3.083-1.465-4.845a47.71 47.71 0 0 1-.293-5.238v-42.24c-7.813 0-14.112 6.313-14.112 14.145v28.047a48.39 48.39 0 0 1-.293 5.237c-.196 1.762-.684 3.377-1.465 4.846-.782 1.468-1.954 2.692-3.516 3.67-1.563.98-3.81 1.469-6.642 1.469-2.832 0-5.078-.49-6.641-1.468-1.563-.98-2.735-2.203-3.516-3.671-.782-1.469-1.27-3.084-1.465-4.846a47.746 47.746 0 0 1-.293-5.237v-29.32C6.3 27.746 0 34.11 0 41.892v15.174c0 4.013.39 7.537 1.172 10.572.781 3.035 1.758 5.629 2.93 7.832 1.22 2.202 2.588 4.013 4.15 5.482a25.863 25.863 0 0 0 4.787 3.573c3.76 2.153 8.106 3.328 12.94 3.475 4.933-.147 9.279-1.322 13.088-3.475a24.084 24.084 0 0 0 4.737-3.573c.39-.392.78-.784 1.172-1.224.39.44.78.832 1.172 1.224a25.867 25.867 0 0 0 4.785 3.573c3.76 2.153 8.107 3.328 12.941 3.475 4.932-.147 9.278-1.322 13.087-3.475a24.08 24.08 0 0 0 4.737-3.573c1.563-1.469 2.93-3.28 4.151-5.482 1.221-2.203 2.198-4.797 2.93-7.832.733-3.035 1.074-6.51 1.074-10.572L90 2Z" fill="#EF4273"/></svg>