<svg viewBox="0 0 90 90" xmlns="http://www.w3.org/2000/svg"><g fill="none" fill-rule="evenodd"><path fill="#0073C7" d="M0 0h90v90H0z"/><path d="M16.4 38.443c-.8 0-1.426.252-1.88.756-.454.504-.733 1.127-.84 1.87h5.44c-.107-.743-.4-1.366-.88-1.87s-1.093-.756-1.84-.756Zm9.44-.875c-.854-1.644-2.106-2.983-3.76-4.017C20.426 32.517 18.587 32 16.56 32c-2.88 0-5.36 1.02-7.44 3.062S6 39.583 6 42.5s1.04 5.396 3.12 7.438C11.2 51.979 13.68 53 16.56 53c2.027 0 3.866-.504 5.52-1.511 1.654-1.008 2.906-2.333 3.76-3.978a11.575 11.575 0 0 1-.88-2.386 10.723 10.723 0 0 1-.32-2.625c0-.901.106-1.764.32-2.585.21-.811.504-1.598.88-2.347Zm-8.88 8.194c.853 0 1.6-.226 2.24-.677.64-.45 1.174-.676 1.6-.676.373 0 .706.146 1 .437.294.293.44.624.44.995 0 .742-.614 1.405-1.84 1.988-1.226.584-2.48.876-3.76.876-1.92 0-3.466-.623-4.64-1.87-1.174-1.246-1.76-2.798-1.76-4.653 0-1.697.573-3.208 1.72-4.534 1.146-1.326 2.627-1.99 4.44-1.99 1.814 0 3.28.677 4.4 2.03 1.12 1.352 1.68 2.717 1.68 4.096 0 .53-.12.915-.36 1.153-.24.239-.627.358-1.16.358h-7.2c.107.85.467 1.472 1.08 1.87.614.397 1.32.597 2.12.597ZM43.52 42.5c0-1.008.134-1.962.4-2.864.263-.892.64-1.748 1.12-2.545-.906-1.538-2.16-2.77-3.76-3.7C39.68 32.465 37.92 32 36 32c-2.933 0-5.426 1.02-7.48 3.062-2.053 2.042-3.08 4.521-3.08 7.438s1.027 5.396 3.08 7.438C30.574 51.979 33.067 53 36 53c1.92 0 3.68-.464 5.28-1.392 1.6-.928 2.854-2.161 3.76-3.699a10.876 10.876 0 0 1-1.12-2.545c-.27-.93-.406-1.895-.4-2.864Zm-2 3.898c0 .424-.067.888-.2 1.392-.134.503-.6.755-1.4.755-.48 0-.84-.12-1.08-.358-.24-.238-.414-.596-.52-1.074-.48.531-.987.929-1.52 1.194a3.893 3.893 0 0 1-1.76.398c-1.6 0-2.933-.61-4-1.83-1.066-1.22-1.6-2.784-1.6-4.693 0-1.856.546-3.407 1.64-4.653 1.093-1.247 2.413-1.87 3.96-1.87.64 0 1.253.12 1.84.358a3.21 3.21 0 0 1 1.44 1.154c.054-.372.226-.69.52-.955a1.553 1.553 0 0 1 1.08-.398c.8 0 1.266.252 1.4.756.133.504.2.968.2 1.392v8.432Zm-6-7.637c-.907 0-1.586.372-2.04 1.114-.454.742-.68 1.511-.68 2.307a4.3 4.3 0 0 0 .68 2.346c.454.716 1.133 1.074 2.04 1.074s1.573-.358 2-1.074a4.5 4.5 0 0 0 .64-2.346c0-.796-.214-1.565-.64-2.307-.426-.742-1.093-1.114-2-1.114Zm28.24-2.068a10.681 10.681 0 0 0-3.72-3.42C58.52 32.424 56.826 32 54.96 32c-2.933 0-5.426 1.02-7.48 3.062-2.053 2.042-3.08 4.521-3.08 7.438s1.027 5.396 3.08 7.438C49.534 51.979 52.027 53 54.96 53c1.867 0 3.56-.424 5.08-1.273a10.681 10.681 0 0 0 3.72-3.42 12.338 12.338 0 0 1-1.28-2.745A9.813 9.813 0 0 1 62 42.5c0-1.06.16-2.082.48-3.062.312-.964.742-1.886 1.28-2.745Zm-9.2 12.012c-.96 0-1.986-.24-3.08-.716-1.093-.478-1.64-1.114-1.64-1.91 0-.264.12-.583.36-.954s.6-.557 1.08-.557c.693 0 1.254.199 1.68.597.426.397 1.04.597 1.84.597.534 0 .894-.08 1.08-.24.186-.158.28-.397.28-.715 0-.796-.986-1.379-2.96-1.75s-2.96-1.538-2.96-3.5c0-1.167.44-2.108 1.32-2.824.88-.716 1.986-1.074 3.32-1.074.853 0 1.773.2 2.76.596.987.398 1.48 1.021 1.48 1.87 0 .371-.133.702-.4.994a1.255 1.255 0 0 1-.96.438c-.32 0-.774-.16-1.36-.477-.587-.319-1.174-.478-1.76-.478-.267 0-.52.08-.76.24-.24.158-.36.396-.36.715 0 .795.986 1.378 2.96 1.75 1.974.37 2.96 1.511 2.96 3.42 0 1.114-.44 2.055-1.32 2.824-.88.77-2.067 1.154-3.56 1.154ZM84 42.5c0-2.917-1.027-5.396-3.08-7.438C78.866 33.021 76.373 32 73.44 32c-2.933 0-5.426 1.02-7.48 3.062-2.053 2.042-3.08 4.521-3.08 7.438s1.027 5.396 3.08 7.438C68.014 51.979 70.507 53 73.44 53c2.933 0 5.426-1.02 7.48-3.062C82.973 47.896 84 45.417 84 42.5Zm-5.84-4.773L73.6 49.102c-.095.3-.26.572-.48.796-.213.212-.507.318-.88.318-.427 0-.773-.12-1.04-.358-.267-.239-.4-.517-.4-.835 0-.106.026-.24.08-.398.044-.136.097-.269.16-.398l1.2-2.943-3.04-7.557a1.546 1.546 0 0 1-.12-.318 1.665 1.665 0 0 1-.04-.398c0-.37.147-.662.44-.875.293-.212.574-.318.84-.318.373 0 .667.08.88.239.213.16.4.398.56.716l1.84 5.17 2.08-5.17c.107-.318.28-.557.52-.716.24-.16.52-.239.84-.239.266 0 .547.106.84.318.293.213.44.504.44.875 0 .16-.013.292-.04.398-.028.11-.068.217-.12.318Z" fill="#FFF" fill-rule="nonzero"/></g></svg>