<svg viewBox="0 0 90 90" xmlns="http://www.w3.org/2000/svg"><g fill="none"><path d="M33.652 74.25c2.743 1.375 7.146 2.667 10.223 3.03 3.044.353 8.353.103 9.715-.147 4.32-.786 6.992-2.578 9.655-5.259 1.79-1.802 2.832-4.105 3.575-6.717.718-2.303.718-6.424-.062-8.565-.694-1.901-1.634-3.308-3.023-4.748-2.735-2.831-6.003-4.384-13.65-6.491-8.248-2.271-11.062-3.556-11.908-5.434-.313-.65-.443-1.547-.203-2.58.809-3.001 3.743-4.155 8.091-4.127 4.046.026 7.883 1.12 11.98 3.603 1.598.966 2.516 1.58 2.76 1.836.25-.373 5.193-6.877 5.4-7.13-.407.004-.813.004-1.22 0-6.029-4.33-12.797-6.287-18.228-6.287-4.583 0-8.128.672-10.788 1.868-6.37 2.86-8.028 9.77-8.028 12.836 0 4.037.905 6.702 3.181 9.205 2.571 2.826 5.946 4.44 13.599 6.504 7.473 2.016 9.976 3.126 11.296 4.496 1.324 1.37 1.446 3.005 1.057 4.508-.9 3.475-3.988 4.757-8.908 4.76-5.353.007-11.398-2.837-16.477-6.791-.57.729-5.168 6.441-5.847 7.314.956.964 5.28 4.157 8.026 5.532l-.216-1.216Z" fill="#FFF"/><path d="M10.67 80.9V40.318H1.86c-1.55 0-2.693-2.753-1.074-4.071C6.41 31.665 32.383 10.03 40.848 3.669 41.344 3.422 42.33 3 43.366 3c1.037 0 1.825.11 2.924.596 2.132.94 13.107 9.878 13.141 9.878.034 0 0-5.429 0-5.924 0-.648.397-1.177 1.097-1.177h13.475c.731 0 1.097.529 1.097 1.177v18.713c8.733 7.257 13.525 11.273 14.376 12.047 1.253 1.14.031 3.894-1.276 3.894h-6.348V80.9c0 2.44-.308 6.1-4.283 6.1H15.945c-2.963 0-5.275-1.422-5.275-6.1Zm23.151-6.455c2.751 1.368 7.162 2.652 10.247 3.009 3.054.354 8.368.104 9.736-.141 4.328-.781 7.003-2.56 9.673-5.225 1.796-1.792 2.837-4.08 3.584-6.679.717-2.287.717-6.381-.063-8.507-.697-1.89-1.637-3.284-3.03-4.714-2.74-2.813-6.017-4.358-13.677-6.45-8.264-2.255-11.083-3.532-11.933-5.4-.314-.645-.444-1.539-.204-2.565.81-2.985 3.75-4.126 8.11-4.1 4.056.026 7.9 1.115 12.006 3.582 1.597.961 2.519 1.568 2.764 1.823.248-.37 5.202-6.832 5.41-7.08a66.365 66.365 0 0 0-1.435-1.21c-6.045-4.306-12.826-6.25-18.268-6.25-4.594 0-8.143.67-10.81 1.858-6.382 2.839-8.045 9.705-8.045 12.752 0 4.012.906 6.66 3.187 9.148 2.576 2.806 5.961 4.41 13.624 6.46 7.494 2 10 3.105 11.328 4.465 1.326 1.36 1.451 2.985 1.057 4.48-.903 3.45-3.993 4.725-8.926 4.73-5.367.005-11.422-2.818-16.514-6.746-.57.724-5.176 6.397-5.855 7.267.95.953 5.286 4.128 8.037 5.496l-.003-.003Z" fill="#19465D"/></g></svg>