<svg viewBox="0 0 90 90" xmlns="http://www.w3.org/2000/svg"><defs><linearGradient x1="50%" y1="0%" x2="50%" y2="100%" id="a"><stop stop-color="#31B7CF" offset="0%"/><stop stop-color="#0D93B0" offset="100%"/></linearGradient></defs><g fill="none" fill-rule="evenodd"><path fill="url(#a)" d="M0 0h90v90H0z"/><path d="M20 52.866C20 40.53 33.975 20.246 49.758 16c-3.578 3.598-8.494 9.022-11.236 14.944-3.888 8.394-4.256 21.21-3.916 22.715l.549 2.43 2.332-.908c2.519-.98 4.948-2.394 7.222-4.202a32.858 32.858 0 0 0 2.47-2.19 35.732 35.732 0 0 0 1.574-1.648c5.005-5.597 8.212-12.842 8.73-19.36C64.606 32.576 70 43.04 70 52.867 70 65.898 59.72 75 44.999 75 30.28 75 20 65.898 20 52.866Z" fill="#FFF"/></g></svg>