<svg viewBox="0 0 90 90" xmlns="http://www.w3.org/2000/svg"><g fill="none" fill-rule="evenodd"><path fill="#0054BA" d="M0 0h90v90H0z"/><path d="M62.925 28.095c-.36.056-.87.131-1.125.159-.255.037-.482.075-.52.094a1.854 1.854 0 0 1-.387.093c-.492.075-2.042.562-2.694.852-5.368 2.348-8.865 6.773-9.82 12.434-.17 1.01-.227 3.433-.104 4.528.123 1.132.16 1.385.236 1.703.047.178.104.43.133.561.198 1.095.87 2.938 1.436 3.976.501.899.671 1.18 1.059 1.731 2.268 3.237 5.661 5.474 9.612 6.353 1.456.327 2.372.421 4.017.421 1.162 0 2.4-.075 2.883-.168.104-.02.406-.066.661-.103 1.37-.187 3.176-.777 4.452-1.441.775-.402 2.174-1.254 2.306-1.413.028-.028.236-.196.473-.374.463-.356.964-.786 1.862-1.628L78 55.32l-2.108-2.049c-1.153-1.132-2.211-2.115-2.353-2.19-.236-.121-.274-.112-.803.31a17.2 17.2 0 0 0-.596.495c-.028.038-.387.3-.803.58-1.342.917-2.193 1.329-3.62 1.722-.426.112-.804.215-.823.215-.028 0-.34.028-.69.066-3.08.336-5.595-.524-7.721-2.648-1.456-1.45-2.458-3.509-2.76-5.642-.104-.767-.076-3.06.056-3.649.057-.28.123-.617.152-.739.085-.449.444-1.431.775-2.096.935-1.908 2.381-3.377 4.158-4.228.927-.459.993-.478 1.702-.655 2.552-.627 5.34-.206 7.731 1.188.624.365 2.212 1.525 2.656 1.927l.198.187.322-.337c.18-.187.661-.748 1.077-1.235.416-.486.775-.907.804-.935.444-.44 2.173-2.582 2.173-2.695 0-.13-.775-.889-1.417-1.375-2.184-1.665-5.132-2.938-7.58-3.265-.917-.131-1.23-.15-2.675-.206-.832-.028-1.683-.066-1.89-.066a5.964 5.964 0 0 0-1.04.094Zm-35.869.047c-2.07.196-4.092.748-5.765 1.553-.662.318-2.23 1.272-2.788 1.693-3.138 2.358-5.34 5.801-6.2 9.674-.246 1.104-.303 1.694-.303 3.247 0 2.142.038 2.648.265 3.93.312 1.786 1.502 4.5 2.608 5.96.199.27.369.514.369.542 0 .15 1.871 2.058 2.599 2.638 1.786 1.441 4.82 2.863 6.758 3.172.18.028.359.075.387.093.076.047 1.163.206 1.929.29.831.085 3.175.085 4.11-.009 1.088-.103 2.76-.412 3.772-.702 2.41-.692 4.594-1.796 7.523-3.826l.379-.262.009-6.989.019-6.989-6.04-.01H29.06l-.36.01v2.994c0 2.049.03 2.994.095 3.022.057.019 1.664.028 3.573.028l3.478-.01v4.502l-.255.187c-.709.515-2.438 1.235-3.327 1.394-.18.028-.36.075-.397.094-.038.028-.397.074-.803.103-.416.028-.775.074-.804.093-.085.047-1.654.047-2.164 0-.832-.084-1.88-.3-2.363-.496-.076-.028-.16-.065-.189-.075-.274-.065-1.125-.524-1.739-.926-2.836-1.88-4.47-5.174-4.357-8.804.019-.673.057-1.347.085-1.497a18.5 18.5 0 0 0 .113-.533c.029-.14.057-.29.057-.328.01-.224.69-1.983.936-2.441 1.153-2.106 3.043-3.752 5.141-4.463.577-.197.671-.215 1.56-.365 1.02-.169 3.336-.094 3.932.13.123.048.226.076.226.048 0-.02.265.037.596.13 1.446.412 2.703 1.058 4.055 2.078.406.308.794.58.87.608.065.028.235-.094.368-.272.246-.318 2.958-3.555 3.686-4.406.217-.253.406-.505.416-.562.028-.121-1.503-1.253-2.477-1.843-1.88-1.132-4.281-2.011-6.238-2.283-.255-.037-.557-.093-.661-.112-.369-.084-4.263-.093-5.057-.01Z" fill="#FFF" fill-rule="nonzero"/></g></svg>