<svg viewBox="0 0 90 90" xmlns="http://www.w3.org/2000/svg"><g fill="none" fill-rule="evenodd"><path fill="#C72020" d="M0 0h90v90H0z"/><path d="M45.879 23.837c8.985 0 16.737 5.237 20.481 12.839-.024 0-.048-.005-.072-.005h-6.622c-5.609 0-10.157 4.588-10.157 10.247 0 5.66 4.548 10.245 10.157 10.245h6.621l.072-.002C62.616 64.763 54.863 70 45.879 70 33.244 70 23 59.665 23 46.918a23.106 23.106 0 0 1 11.502-20.024l2.822 4.553 5.381-1.866-.566-5.433a22.833 22.833 0 0 1 3.74-.311ZM60.08 41.14c3.032 0 5.49 2.48 5.49 5.541 0 3.06-2.458 5.541-5.49 5.541s-5.49-2.48-5.49-5.541c0-3.06 2.458-5.541 5.49-5.541ZM38.747 20l1.732 8.341-2.029.704-4.929-8.499L38.747 20Z" fill="#FFF" fill-rule="nonzero"/></g></svg>