<svg viewBox="0 0 90 90" xmlns="http://www.w3.org/2000/svg"><g fill="none" fill-rule="evenodd"><path d="M85.38 31.74H4.62c-.795 0-1.515.33-2.04.854a2.914 2.914 0 0 0-.855 2.054v19.179c0 .794.33 1.53.855 2.054a2.881 2.881 0 0 0 2.04.855H75.9c2.4 3.029 4.725 6.118 7.125 9.147.375.51 1.17.6 1.155-.39v-8.757h1.215a2.88 2.88 0 0 0 2.04-.855c.525-.525.855-1.26.855-2.054V34.648c0-.794-.33-1.53-.855-2.054a2.944 2.944 0 0 0-2.055-.855Z" fill="#FFF"/><path d="M85.38 30A4.635 4.635 0 0 1 90 34.648v19.179a4.699 4.699 0 0 1-1.35 3.284 4.628 4.628 0 0 1-2.745 1.334v7.093c0 1.664-1.335 2.909-2.955 2.309-.57-.21-1.2-.705-1.815-1.515l-6.12-7.857H4.62A4.635 4.635 0 0 1 0 53.827V34.648c0-1.274.525-2.444 1.35-3.283A4.616 4.616 0 0 1 4.62 30h80.76Zm0 1.74H4.62c-.795 0-1.515.33-2.04.854a2.914 2.914 0 0 0-.855 2.054v19.179c0 .794.33 1.53.855 2.054a2.881 2.881 0 0 0 2.04.855H75.9c2.4 3.029 4.725 6.118 7.125 9.147.375.51 1.17.6 1.155-.39v-8.757h1.215a2.88 2.88 0 0 0 2.04-.855c.525-.525.855-1.26.855-2.054V34.648c0-.794-.33-1.53-.855-2.054a2.944 2.944 0 0 0-2.055-.855Zm-4.395 3.583c1.635 0 2.97 1.35 2.97 3.014v12.22c0 1.65-1.335 3.015-2.97 3.015H37.38c-1.635 0-2.97-1.35-2.97-3.014v-12.22c0-1.65 1.335-3.015 2.97-3.015h43.605Zm-56.61 1.515c.69 0 1.335.075 1.95.225.6.15 1.14.39 1.605.734a3.43 3.43 0 0 1 1.08 1.35c.255.57.39 1.274.39 2.114 0 1.215-.27 2.16-.795 2.85a3.806 3.806 0 0 1-1.98 1.379l2.775 5.143c.045.06.075.12.09.18s.015.12.015.165c0 .165-.06.345-.165.525-.105.18-.24.33-.405.464-.165.135-.345.24-.555.33-.21.09-.405.12-.6.12a.994.994 0 0 1-.54-.165 1.47 1.47 0 0 1-.42-.48l-3.015-5.848H22.02v5.519c0 .284-.135.494-.42.644-.285.15-.6.225-.96.225-.345 0-.66-.075-.945-.225-.285-.15-.435-.36-.435-.644V37.677c0-.225.075-.42.24-.584a.87.87 0 0 1 .645-.255h4.23Zm-8.325 0c.18 0 .375.03.585.09.21.06.39.135.555.24.165.104.315.224.42.36a.723.723 0 0 1 .165.45c0 .03-.015.104-.045.21l-4.035 13.3c-.105.33-.315.554-.66.704a2.67 2.67 0 0 1-1.11.225 2.67 2.67 0 0 1-1.11-.225c-.33-.15-.555-.39-.66-.704l-4.065-13.3c-.03-.12-.045-.18-.045-.21 0-.166.06-.33.165-.466a1.66 1.66 0 0 1 .42-.36 2.3 2.3 0 0 1 .555-.24c.21-.06.39-.09.585-.09.24 0 .435.046.6.12.165.09.27.226.33.42l3.225 11.456 3.195-11.456c.06-.194.165-.344.33-.42.165-.06.36-.104.6-.104Zm25.515-.06c-.66 0-1.275.09-1.86.27a4.01 4.01 0 0 0-1.53.84c-.435.374-.78.869-1.035 1.484-.255.615-.39 1.364-.39 2.249v5.878c0 .885.12 1.634.375 2.25.255.614.6 1.109 1.035 1.484.435.375.945.66 1.53.84.585.18 1.2.27 1.86.27.72 0 1.395-.106 1.995-.3a5.03 5.03 0 0 0 1.59-.84 3.56 3.56 0 0 0 1.035-1.32 4.08 4.08 0 0 0 .36-1.724c0-.54-.105-.9-.33-1.08-.225-.18-.57-.27-1.035-.27-.36 0-.66.06-.915.195-.255.12-.39.345-.42.675a7.5 7.5 0 0 1-.09.735c-.045.255-.135.51-.285.734-.135.225-.345.42-.63.57-.285.15-.66.225-1.125.225-.72 0-1.275-.195-1.65-.585-.375-.39-.57-1.004-.57-1.83v-5.877c0-.825.195-1.44.57-1.83.375-.39.915-.584 1.62-.584.495 0 .885.075 1.17.225.285.15.495.345.63.57.15.224.24.45.285.69.045.224.075.434.09.6.015.329.15.554.39.674.255.12.57.195.96.195.465 0 .795-.09 1.02-.27.225-.18.33-.54.33-1.08 0-.6-.12-1.154-.36-1.65a3.607 3.607 0 0 0-1.02-1.259 4.58 4.58 0 0 0-1.575-.794c-.63-.255-1.305-.36-2.025-.36Zm15.705 0c-.345 0-.66.06-.945.195-.285.135-.42.344-.42.644v5.503H51.21v-5.503c0-.3-.135-.51-.42-.644a2.156 2.156 0 0 0-.93-.195c-.345 0-.66.06-.945.195-.285.135-.42.344-.42.644v13.706c0 .285.135.494.42.644.285.15.585.225.945.225.33 0 .645-.075.93-.225.285-.15.42-.36.42-.644v-6.058h4.695v6.058c0 .285.135.494.42.644.285.15.585.225.945.225.33 0 .645-.075.93-.225.285-.15.42-.36.42-.644V37.617c0-.3-.135-.51-.42-.644-.3-.12-.6-.195-.93-.195Zm8.73-.12c-.39 0-.75.075-1.08.225-.33.15-.555.39-.645.704l-4.02 13.27c-.03.12-.045.18-.045.21 0 .166.06.33.165.466.105.135.255.254.42.36.165.104.345.18.555.224.195.06.39.09.57.09.24 0 .435-.045.6-.12a.672.672 0 0 0 .33-.42l.795-2.804h4.77l.795 2.805c.06.194.165.33.33.42.165.09.36.12.6.12.18 0 .375-.03.57-.09a2.3 2.3 0 0 0 .555-.24c.165-.106.3-.225.42-.36a.645.645 0 0 0 .165-.45c0-.03-.015-.105-.045-.21l-4.02-13.27c-.09-.33-.315-.555-.645-.705a2.917 2.917 0 0 0-1.14-.225Zm14.85.12h-8.82a.696.696 0 0 0-.645.39c-.135.254-.21.54-.21.84 0 .344.075.629.225.869.15.24.36.375.63.375h3.06v12.086c0 .285.135.494.42.644.285.15.585.225.945.225.33 0 .645-.075.93-.225.285-.15.42-.36.42-.644V39.252h3.045c.27 0 .495-.12.63-.375.15-.255.225-.54.225-.87 0-.3-.075-.57-.21-.84a.696.696 0 0 0-.645-.39ZM66 40.226l1.815 6.478h-3.63L66 40.226Zm-41.625-.974H22.05v4.513h2.505c.6-.03 1.095-.195 1.47-.495.405-.33.615-.914.615-1.739 0-.84-.21-1.424-.615-1.754-.405-.36-.96-.525-1.65-.525Z" fill="#000" fill-rule="nonzero"/></g></svg>