<svg viewBox="0 0 90 90" xmlns="http://www.w3.org/2000/svg"><g fill="none" fill-rule="evenodd"><path fill="#2C323D" d="M0 0h90v90H0z"/><path d="M53.892 24c6.622 0 13.444 2.496 18.248 6.67l.706.608-6.255 6.61-.63-.556c-3.145-2.753-7.62-4.536-11.398-4.536-6.524 0-11.259 4.934-11.259 11.73 0 6.8 4.852 11.736 11.537 11.736 4.214 0 8.657-2.052 12.191-5.628l.626-.635L74 56.556l-.658.621C70.25 60.097 63.645 65 54.172 65c-7.544 0-13.803-3.319-17.476-8.667H12l.675-5.74h21.327a21.29 21.29 0 0 1-.648-3.223H18.517l.673-5.738h14.166c.143-1.11.354-2.19.658-3.227h-9.467l.673-5.74h11.526C40.417 27.357 46.596 24 53.892 24ZM17.585 41.631l-.671 5.739h-4.177l.674-5.739h4.174Z" fill="#FFF"/></g></svg>