<svg viewBox="0 0 90 90" xmlns="http://www.w3.org/2000/svg"><g fill="none" fill-rule="evenodd"><path fill="#FFF" d="M0 0h90v90H0z"/><path d="M25.68 19.013c-.183.026-.379.052-.562.079-1.833.222-3.482.903-4.974 1.977-.314.222-.602.458-.93.707-.026-.066-.052-.131-.052-.184-.052-.353-.104-.72-.17-1.073-.091-.603-.393-.864-.995-.864h-1.505c-.903 0-1.073.17-1.073 1.073v27.403c0 .13 0 .262.013.392.026.393.262.642.641.655.917.013 1.846.013 2.762 0 .38 0 .615-.262.655-.655.013-.13.013-.261.013-.392v-9.48c.144.119.222.184.288.25 2.343 1.95 5.039 2.592 7.984 2.016 2.67-.524 4.529-2.16 5.733-4.57.916-1.82 1.296-3.757 1.348-5.773.065-2.24-.157-4.439-1.06-6.52-1.113-2.566-2.958-4.255-5.746-4.831-.42-.092-.851-.131-1.283-.197-.366-.013-.72-.013-1.086-.013ZM19.477 24.5c0-.197.053-.314.223-.432 1.793-1.244 3.77-1.899 5.969-1.728 1.95.144 3.547 1.1 4.384 3.39.51 1.401.642 2.855.642 4.321 0 1.362-.105 2.697-.524 4.006-.89 2.789-2.932 3.85-5.576 3.732-1.832-.079-3.43-.786-4.895-1.82-.157-.118-.223-.223-.223-.432.014-1.846 0-3.68 0-5.525 0-1.833.014-3.666 0-5.512Zm26.925-5.486c-.131.013-.262.04-.38.052-1.283.066-2.54.223-3.783.537-.798.21-1.57.498-2.343.76-.47.157-.707.497-.693 1.008.013.432-.014.864 0 1.296.013.628.274.799.89.641 1.02-.261 2.042-.55 3.076-.746 1.61-.301 3.233-.432 4.869-.183.85.13 1.649.38 2.199 1.1.484.628.667 1.374.693 2.147.04 1.086.026 2.173.04 3.26 0 .052-.014.118-.027.183-.065-.013-.117 0-.17-.013-1.374-.327-2.762-.563-4.188-.642-1.48-.078-2.945.014-4.359.511-1.688.59-3.05 1.61-3.848 3.26-.615 1.283-.707 2.645-.51 4.02.261 1.832 1.178 3.246 2.8 4.15 1.558.864 3.247.969 4.961.707 1.977-.301 3.73-1.14 5.275-2.41a.963.963 0 0 1 .21-.143c.078.497.144.969.235 1.44.079.406.327.668.707.68a57.95 57.95 0 0 0 2.133 0c.354-.012.59-.248.629-.615.013-.117.013-.248.013-.366V25.769c0-.563-.026-1.126-.118-1.69-.249-1.688-.969-3.076-2.487-3.98-.877-.523-1.845-.785-2.853-.929-.471-.065-.943-.105-1.414-.17-.51.013-1.034.013-1.557.013Zm4.58 16.72c0 .17-.052.287-.196.392-1.466 1.06-3.076 1.767-4.895 1.95-.746.08-1.492.053-2.199-.235-.825-.327-1.361-.903-1.623-1.741a4.308 4.308 0 0 1-.013-2.54c.327-1.087 1.1-1.702 2.147-2.043 1.06-.34 2.16-.392 3.246-.288 1.1.092 2.172.301 3.272.445.21.027.275.131.275.34-.013.63 0 1.245 0 1.873-.013.615-.026 1.23-.013 1.846Zm16.728.81c-1.688-4.673-3.377-9.36-5.065-14.034-.262-.746-.55-1.48-.825-2.213-.144-.38-.418-.628-.837-.628-.995-.013-1.99-.026-2.998-.013-.327 0-.484.261-.419.589.066.275.144.537.25.798 2.565 6.35 5.143 12.713 7.735 19.05.222.537.275.995.026 1.545-.432.956-.772 1.964-1.217 2.92-.393.85-1.047 1.492-1.99 1.74-.667.184-1.335.21-2.016.145-.327-.026-.654-.105-.981-.131-.445-.026-.668.17-.68.628a20 20 0 0 0 0 1.296c.012.72.26 1.048.968 1.166.733.13 1.479.248 2.212.261 2.238.053 4.018-.85 5.17-2.801a17.2 17.2 0 0 0 1.204-2.41c3.102-7.829 6.165-15.671 9.24-23.513.093-.236.171-.472.21-.72.053-.367-.117-.576-.484-.576-.864-.014-1.74 0-2.605 0-.484 0-.824.209-1.008.68-.065.184-.144.354-.209.537-1.518 4.36-3.037 8.72-4.555 13.093-.327.942-.667 1.898-1.008 2.906-.052-.144-.078-.222-.118-.314Z" fill="#252F3E" fill-rule="nonzero"/><g fill="#F90" fill-rule="nonzero"><path d="M77.327 59.069C68.573 65.556 55.855 69 44.919 69c-15.325 0-29.135-5.686-39.565-15.137-.824-.747-.08-1.762.905-1.174 11.281 6.567 25.197 10.545 39.592 10.545 9.711 0 20.38-2.03 30.199-6.194 1.463-.667 2.714.961 1.277 2.029Z"/><path d="M80.972 54.904c-1.118-1.441-7.397-.694-10.244-.347-.851.107-.984-.64-.213-1.201 5.002-3.524 13.224-2.51 14.182-1.335.958 1.201-.266 9.45-4.949 13.402-.718.614-1.41.293-1.09-.508 1.063-2.642 3.431-8.596 2.314-10.01Z"/></g></g></svg>