<svg viewBox="0 0 90 90" xmlns="http://www.w3.org/2000/svg"><g fill="none" fill-rule="evenodd"><path fill="#FFF" d="M0 0h90v90H0z"/><circle fill="#252437" cx="45" cy="45" r="39"/><g fill-rule="nonzero"><path d="m42.074 45.816-14.97 20.33a.537.537 0 0 0 .442.853h4.04a.547.547 0 0 0 .44-.221L47.46 45.816a.531.531 0 0 0 0-.632L45 41.842l-12.974-17.62a.547.547 0 0 0-.44-.222h-4.04a.537.537 0 0 0-.44.854l14.969 20.33a.532.532 0 0 1-.001.632Z" fill="#656FFF"/><path d="M49.946 41.243a.549.549 0 0 0 .88 0l12.069-16.39a.537.537 0 0 0-.44-.853h-4.04a.547.547 0 0 0-.441.221L47.926 37.868a.531.531 0 0 0 0 .632l2.02 2.743Zm.881 8.513a.549.549 0 0 0-.881 0l-2.02 2.744a.531.531 0 0 0 0 .632l10.048 13.647a.546.546 0 0 0 .44.221h4.04a.537.537 0 0 0 .44-.854l-12.067-16.39Z" fill="#F55E6E"/></g></g></svg>