<svg viewBox="0 0 90 90" xmlns="http://www.w3.org/2000/svg"><g fill="none" fill-rule="evenodd"><path fill="#394449" d="M0 0h90v90H0z"/><path d="M28 47.105c-7.706 0-13.958 6.242-14 13.957V85H7V5h7v40.448a20.892 20.892 0 0 1 14-5.36c11.598 0 21 9.425 21 21.052V85h-7V61.14c0-7.751-6.268-14.035-14-14.035Z" fill="#FFF"/><path d="M63 40.088c11.598 0 21 9.425 21 21.052V85h-7V61.14c0-7.751-6.268-14.035-14-14.035-5.142 0-9.637 2.78-12.07 6.921a22.89 22.89 0 0 0-3.425-7.095c3.84-4.206 9.36-6.843 15.495-6.843Z" fill="#8AC832"/></g></svg>