<svg viewBox="0 0 90 90" xmlns="http://www.w3.org/2000/svg"><g fill="none"><path d="m30.43 40.442 3.24-2.706-23.633-19.744-.116-.08-.135-.074-.132-.05-.148-.037h-.158l-.148.015-.142.031-.135.054-.125.071-.125.092-.107.103-.081.124-.072.125-.04.143-.036.147v.271l.21 1.468.242 1.473.103.58.157.893.291 1.46.299 1.45.345 1.45.352 1.457.387 1.437.406 1.432.439 1.42.446 1.415.489 1.412.5 1.41.52 1.388.55 1.389.57 1.38.606 1.351.612 1.363.649 1.348.653 1.334.69 1.326.894 1.639 11.684-9.76Zm34.703 19.282 1.7-2.39L53.095 45.85l-3.239-2.706-2.177 1.824-.332.25-.273.164-.268.147-.282.125-.3.103-.296.084-.307.048-.314.036-.304.019-.417-.019-.313-.055-.3-.06-.303-.084-.292-.11-.28-.127-.27-.16-.258-.174-.25-.187-2.18-1.824-3.238 2.706-13.733 11.484.854 1.22.872 1.202.894 1.192.919 1.183.935 1.158.948 1.152.979 1.132.988 1.115 1.007 1.1 1.033 1.078 1.05 1.058 1.061 1.046 1.083 1.036 1.106 1.006 1.114.992 1.136.976 1.14.956 1.167.935 1.176.907 2.363 1.74h.009l1.208-.867 1.195-.905 1.176-.911 1.171-.93 1.142-.956 1.136-.976 1.11-.99 1.095-1.017 1.083-1.027 1.073-1.046 1.038-1.068 1.029-1.076 1.01-1.101.989-1.106.98-1.145.947-1.134.935-1.17.918-1.174.895-1.193v-.002ZM45.005 36.381l27.08-22.629-1.287-.477-1.302-.453-1.302-.427-1.31-.4-1.325-.384-1.319-.352-1.333-.346-1.343-.307-1.34-.286-1.346-.253-1.352-.239-1.361-.22-1.365-.187-1.364-.165-1.365-.132-1.365-.116-1.372-.093-1.373-.063-1.372-.04-1.586-.022-1.381.01-1.365.043-1.372.059-1.374.084-1.374.116-1.364.134-1.365.156-1.365.185-1.348.21-1.357.236-1.35.257-1.342.286-1.34.306-1.336.325-1.318.361-1.324.375-1.32.4-1.3.427-1.303.444-1.49.548 27.09 22.629Zm36.667-17.6-.01-.156-.03-.134-.056-.147-.07-.125-.092-.124-.105-.103-.126-.08-.123-.074-.148-.05-.143-.037h-.148l-.147.015-.144.031-.135.054-.227.14-23.637 19.745 3.238 2.706 11.684 9.76.716-1.303.69-1.332.667-1.32.656-1.349.622-1.348.595-1.367.581-1.38.55-1.379.546-1.389.501-1.397.487-1.411.457-1.418.449-1.42.402-1.43.398-1.441.367-1.45.34-1.443.313-1.459.295-1.463.228-1.255.041-.206.236-1.473.273-1.842.01-.146ZM90 18.616v.476l-.035.477-.05.466-.374 2.538-.27 1.539-.282 1.53-.313 1.531-.343 1.527-.354 1.522-.386 1.512-.414 1.504-.44 1.5-.455 1.496-.48 1.48-.508 1.483-.52 1.473-.563 1.46-.571 1.45-.605 1.441-.627 1.431-.646 1.427-.663 1.41-.701 1.397-.705 1.394-.737 1.376-.762 1.369-.778 1.357-.806 1.336-.822 1.33-.841 1.313-.863 1.308-.895 1.282-.909 1.272-.926 1.254-.947 1.248-.967 1.233-.988 1.21-1.007 1.193-1.025 1.183-1.051 1.17-1.06 1.138-1.083 1.132-1.1 1.12-1.113 1.087-1.136 1.076-1.154 1.068-1.168 1.037-1.186 1.027-1.207.994-1.221.984-1.226.964-1.249.943-1.27.923-1.28.903-1.287.89-1.315.862-1.311.838-2.162-1.402-1.302-.867-1.29-.892-1.273-.92-1.25-.936-1.236-.963-1.23-.973-1.204-.996-1.19-1.014-1.176-1.028-1.162-1.058-1.137-1.07-1.123-1.084-1.114-1.108-1.083-1.132L25 72.92l-1.051-1.154-1.029-1.18-1.02-1.192-.988-1.202-.98-1.223-.953-1.242-.94-1.255-.904-1.264-.898-1.284-.872-1.295-.854-1.304-.832-1.332-.811-1.334-.791-1.348-.76-1.367-.752-1.37-.716-1.389-.697-1.398-.69-1.41-.645-1.419-.634-1.429-.613-1.432-.586-1.45-.559-1.462-.54-1.458-.51-1.482-.493-1.483-.465-1.49-.448-1.494-.415-1.501-.398-1.517-.364-1.514-.352-1.522-.313-1.534-.3-1.532-.274-1.535-.249-1.543-.221-1.545-.07-.89L0 18.679l.022-.48.04-.463.062-.468.1-.462.102-.472.13-.433.003-.012.166-.444.179-.437.207-.437.219-.414.249-.404.26-.378.291-.387.305-.361.32-.343L3 11.95l.354-.312.377-.297.383-.268.395-.262.42-.235 2.517-1.3 1.299-.632 1.302-.6 1.318-.58 1.324-.573 1.343-.525 1.342-.521 1.355-.495 1.36-.466 1.377-.444 1.37-.422 1.387-.398 1.396-.373 1.396-.352 1.403-.334 1.405-.299 1.413-.279 1.42-.262 1.42-.224 1.427-.209L34.93 1.1l1.44-.156 1.435-.132 1.434-.116 1.44-.084 1.446-.059L43.561.51 45.005.5l2.84.053 1.438.059 1.438.084 1.437.101 1.434.14 1.437.156 1.427.185 1.428.205 1.421.231 1.42.254 1.413.286 1.418.297 1.39.334 1.406.352 1.386.372 1.383.393 1.385.427 1.361.444 1.365.465 1.353.497 1.352.508 1.333.543 1.334.56 1.309.574 1.311.614 1.29.624 1.29.65 1.272.667.77.462.385.272.374.29.354.311.345.333.32.339.314.365.282.369.27.396.25.404.227.414.207.428.179.43.17.45.022.074v.003l.108.369.12.462.089.459.077.468.039.477.022.466Z" fill="#E74C3C"/><path fill="#000" opacity=".12" d="m88.362 15.961-.258-.196-.27-.187-.283-.165-.291-.147-.3-.123-.314-.103-.312-.073-.323-.063-.32-.029-.334-.011-.325.011-.319.04-.323.052-.324.084-.314.103-.29.123-.3.158-.273.165-.455.332-2.468 2.063-23.637 19.74-6.473 5.41-2.176 1.825-.332.247-.27.165-.272.147-.28.123-.302.103-.294.084-.31.052-.311.033-.306.018-.415-.018-.314-.052-.3-.062-.3-.084-.292-.114-.282-.123-.27-.158-.258-.176-.252-.185-2.176-1.826-6.473-5.41-23.634-19.737-2.467-2.065-.26-.197-.273-.187-.278-.168-.292-.133-.313-.122-.312-.096-.313-.073-.321-.063-.325-.018-.332-.011-.323.018-.322.033-.325.074-.319.08-.306.107-.3.134-.292.143-.278.176-.262.187-.424.373 7.48 6.25.01.007 21.543 17.996 6.472 5.408 2.739 2.29.345.27.354.26.363.226.387.22.386.194.405.167.406.154.417.136.426.103.426.084.426.073.439.039.579.022.431-.022.434-.03.437-.05.428-.083.43-.103.414-.125.406-.147.405-.165.395-.185.374-.21.375-.22.365-.247.461-.361 2.737-2.29 6.472-5.408 21.546-17.996.008-.007 7.481-6.25z"/><path d="m81.06 17.838.123.073.126.083.103.1.094.125.072.125.054.147.03.134.01.156-.01.146-.272 1.842-.236 1.473-.04.206-.23 1.255-.294 1.463-.314 1.459-.341 1.442-.365 1.45-.398 1.443-.402 1.429-.449 1.42-.457 1.418-.487 1.412-.501 1.396-.544 1.39-.552 1.379-.58 1.38-.596 1.366-.622 1.348-.658 1.349-.664 1.32-.691 1.33-.716 1.305-11.684-9.76-3.238-2.704 23.637-19.744.227-.143.135-.055.144-.03.147-.013h.148l.143.035.148.05ZM66.835 57.336l-1.7 2.388-.895 1.193-.918 1.174-.933 1.172-.95 1.134-.98 1.145-.988 1.108-1.01 1.099-1.03 1.076-1.037 1.068-1.074 1.046-1.082 1.027-1.095 1.014-1.11.993-1.137.976-1.141.956-1.171.93-1.177.911-1.195.905-1.207.868h-.01l-2.36-1.741-1.177-.907-1.169-.935-1.14-.956-1.137-.976-1.114-.99-1.105-1.008-1.082-1.036-1.06-1.046-1.051-1.058-1.033-1.077-1.007-1.1-.988-1.116-.978-1.132-.95-1.152-.934-1.156-.919-1.185-.894-1.192-.872-1.202-.854-1.218L36.904 45.85l3.238-2.706 2.178 1.824.252.187.258.174.27.16.28.125.291.11.305.086.3.062.314.053.415.019.304-.019.313-.036.308-.048.295-.084.301-.103.28-.125.27-.147.272-.165.332-.25 2.178-1.823 3.238 2.706 13.739 11.486ZM10.037 17.994 33.67 37.736l-3.238 2.704-11.684 9.76-.895-1.638-.69-1.325-.652-1.335-.647-1.349-.614-1.36-.605-1.355-.572-1.38-.55-1.388-.52-1.389-.5-1.41-.488-1.41-.446-1.415-.439-1.42-.406-1.431-.387-1.439-.352-1.454-.345-1.451-.3-1.451-.291-1.46-.157-.894-.103-.58-.24-1.473-.212-1.467v-.272l.037-.147.039-.143.073-.125.08-.124.107-.101.125-.094.125-.073.135-.051.142-.032.148-.013h.158l.148.035.132.05.135.073.116.085Zm62.048-4.242L45.005 36.38l-27.09-22.627 1.488-.548 1.304-.444 1.3-.428 1.32-.4 1.325-.374 1.318-.361 1.335-.325 1.34-.306 1.343-.285 1.35-.258 1.356-.237 1.351-.209 1.365-.185 1.365-.156 1.364-.134 1.372-.116 1.374-.084 1.374-.059 1.364-.044 1.382-.009 1.584.022 1.372.04 1.373.063 1.374.092 1.365.117 1.365.134 1.364.165 1.365.185 1.359.22 1.35.239 1.346.253 1.342.286 1.343.307 1.333.348 1.319.35 1.324.384 1.31.4 1.303.427 1.302.453 1.287.477Z" fill="#FFF"/><path fill="#000" opacity=".12" d="m88.362 15.961-.258-.196-.27-.187-.283-.165-.291-.147-.3-.123-.314-.103-.312-.073-.323-.063-.32-.029-.334-.011-.325.011-.319.04-.323.052-.324.084-.314.103-.29.123-.3.158-.273.165-.455.332-2.468 2.063-23.637 19.74-6.473 5.41-2.176 1.825-.332.247-.27.165-.272.147-.28.123-.302.103-.294.084-.31.052-.311.033-.306.018-.415-.018-.314-.052-.3-.062-.3-.084-.292-.114-.282-.123-.27-.158-.258-.176-.252-.185-2.176-1.826-6.473-5.41-23.634-19.737-2.467-2.065-.26-.197-.273-.187-.278-.168-.292-.133-.313-.122-.312-.096-.313-.073-.321-.063-.325-.018-.332-.011-.323.018-.322.033-.325.074-.319.08-.306.107-.3.134-.292.143-.278.176-.262.187-.424.373 7.48 6.25.01.007 21.543 17.996 6.472 5.408 2.739 2.29.345.27.354.26.363.226.387.22.386.194.405.167.406.154.417.136.426.103.426.084.426.073.439.039.579.022.431-.022.434-.03.437-.05.428-.083.43-.103.414-.125.406-.147.405-.165.395-.185.374-.21.375-.22.365-.247.461-.361 2.737-2.29 6.472-5.408 21.546-17.996.008-.007 7.481-6.25z"/><path d="m81.06 17.838.123.073.126.083.103.1.094.125.072.125.054.147.03.134.01.156-.01.146-.272 1.842-.236 1.473-.04.206-.23 1.255-.294 1.463-.314 1.459-.341 1.442-.365 1.45-.398 1.443-.402 1.429-.449 1.42-.457 1.418-.487 1.412-.501 1.396-.544 1.39-.552 1.379-.58 1.38-.596 1.366-.622 1.348-.658 1.349-.664 1.32-.691 1.33-.716 1.305-11.684-9.76-3.238-2.704 23.637-19.744.227-.143.135-.055.144-.03.147-.013h.148l.143.035.148.05ZM66.835 57.336l-1.7 2.388-.895 1.193-.918 1.174-.933 1.172-.95 1.134-.98 1.145-.988 1.108-1.01 1.099-1.03 1.076-1.037 1.068-1.074 1.046-1.082 1.027-1.095 1.014-1.11.993-1.137.976-1.141.956-1.171.93-1.177.911-1.195.905-1.207.868h-.01l-2.36-1.741-1.177-.907-1.169-.935-1.14-.956-1.137-.976-1.114-.99-1.105-1.008-1.082-1.036-1.06-1.046-1.051-1.058-1.033-1.077-1.007-1.1-.988-1.116-.978-1.132-.95-1.152-.934-1.156-.919-1.185-.894-1.192-.872-1.202-.854-1.218L36.904 45.85l3.238-2.706 2.178 1.824.252.187.258.174.27.16.28.125.291.11.305.086.3.062.314.053.415.019.304-.019.313-.036.308-.048.295-.084.301-.103.28-.125.27-.147.272-.165.332-.25 2.178-1.823 3.238 2.706 13.739 11.486ZM10.037 17.994 33.67 37.736l-3.238 2.704-11.684 9.76-.895-1.638-.69-1.325-.652-1.335-.647-1.349-.614-1.36-.605-1.355-.572-1.38-.55-1.388-.52-1.389-.5-1.41-.488-1.41-.446-1.415-.439-1.42-.406-1.431-.387-1.439-.352-1.454-.345-1.451-.3-1.451-.291-1.46-.157-.894-.103-.58-.24-1.473-.212-1.467v-.272l.037-.147.039-.143.073-.125.08-.124.107-.101.125-.094.125-.073.135-.051.142-.032.148-.013h.158l.148.035.132.05.135.073.116.085Zm62.048-4.242L45.005 36.38l-27.09-22.627 1.488-.548 1.304-.444 1.3-.428 1.32-.4 1.325-.374 1.318-.361 1.335-.325 1.34-.306 1.343-.285 1.35-.258 1.356-.237 1.351-.209 1.365-.185 1.365-.156 1.364-.134 1.372-.116 1.374-.084 1.374-.059 1.364-.044 1.382-.009 1.584.022 1.372.04 1.373.063 1.374.092 1.365.117 1.365.134 1.364.165 1.365.185 1.359.22 1.35.239 1.346.253 1.342.286 1.343.307 1.333.348 1.319.35 1.324.384 1.31.4 1.303.427 1.302.453 1.287.477Z" fill="#FFF"/><path fill="#000" opacity=".12" d="m88.362 15.961-.258-.196-.27-.187-.283-.165-.291-.147-.3-.123-.314-.103-.312-.073-.323-.063-.32-.029-.334-.011-.325.011-.319.04-.323.052-.324.084-.314.103-.29.123-.3.158-.273.165-.455.332-2.468 2.063-23.637 19.74-6.473 5.41-2.176 1.825-.332.247-.27.165-.272.147-.28.123-.302.103-.294.084-.31.052-.311.033-.306.018-.415-.018-.314-.052-.3-.062-.3-.084-.292-.114-.282-.123-.27-.158-.258-.176-.252-.185-2.176-1.826-6.473-5.41-23.634-19.737-2.467-2.065-.26-.197-.273-.187-.278-.168-.292-.133-.313-.122-.312-.096-.313-.073-.321-.063-.325-.018-.332-.011-.323.018-.322.033-.325.074-.319.08-.306.107-.3.134-.292.143-.278.176-.262.187-.424.373 7.48 6.25.01.007 21.543 17.996 6.472 5.408 2.739 2.29.345.27.354.26.363.226.387.22.386.194.405.167.406.154.417.136.426.103.426.084.426.073.439.039.579.022.431-.022.434-.03.437-.05.428-.083.43-.103.414-.125.406-.147.405-.165.395-.185.374-.21.375-.22.365-.247.461-.361 2.737-2.29 6.472-5.408 21.546-17.996.008-.007 7.481-6.25z"/><path d="m81.06 17.838.123.073.126.083.103.1.094.125.072.125.054.147.03.134.01.156-.01.146-.272 1.842-.236 1.473-.04.206-.23 1.255-.294 1.463-.314 1.459-.341 1.442-.365 1.45-.398 1.443-.402 1.429-.449 1.42-.457 1.418-.487 1.412-.501 1.396-.544 1.39-.552 1.379-.58 1.38-.596 1.366-.622 1.348-.658 1.349-.664 1.32-.691 1.33-.716 1.305-11.684-9.76-3.238-2.704 23.637-19.744.227-.143.135-.055.144-.03.147-.013h.148l.143.035.148.05ZM66.835 57.336l-1.7 2.388-.895 1.193-.918 1.174-.933 1.172-.95 1.134-.98 1.145-.988 1.108-1.01 1.099-1.03 1.076-1.037 1.068-1.074 1.046-1.082 1.027-1.095 1.014-1.11.993-1.137.976-1.141.956-1.171.93-1.177.911-1.195.905-1.207.868h-.01l-2.36-1.741-1.177-.907-1.169-.935-1.14-.956-1.137-.976-1.114-.99-1.105-1.008-1.082-1.036-1.06-1.046-1.051-1.058-1.033-1.077-1.007-1.1-.988-1.116-.978-1.132-.95-1.152-.934-1.156-.919-1.185-.894-1.192-.872-1.202-.854-1.218L36.904 45.85l3.238-2.706 2.178 1.824.252.187.258.174.27.16.28.125.291.11.305.086.3.062.314.053.415.019.304-.019.313-.036.308-.048.295-.084.301-.103.28-.125.27-.147.272-.165.332-.25 2.178-1.823 3.238 2.706 13.739 11.486ZM10.037 17.994 33.67 37.736l-3.238 2.704-11.684 9.76-.895-1.638-.69-1.325-.652-1.335-.647-1.349-.614-1.36-.605-1.355-.572-1.38-.55-1.388-.52-1.389-.5-1.41-.488-1.41-.446-1.415-.439-1.42-.406-1.431-.387-1.439-.352-1.454-.345-1.451-.3-1.451-.291-1.46-.157-.894-.103-.58-.24-1.473-.212-1.467v-.272l.037-.147.039-.143.073-.125.08-.124.107-.101.125-.094.125-.073.135-.051.142-.032.148-.013h.158l.148.035.132.05.135.073.116.085Zm62.048-4.242L45.005 36.38l-27.09-22.627 1.488-.548 1.304-.444 1.3-.428 1.32-.4 1.325-.374 1.318-.361 1.335-.325 1.34-.306 1.343-.285 1.35-.258 1.356-.237 1.351-.209 1.365-.185 1.365-.156 1.364-.134 1.372-.116 1.374-.084 1.374-.059 1.364-.044 1.382-.009 1.584.022 1.372.04 1.373.063 1.374.092 1.365.117 1.365.134 1.364.165 1.365.185 1.359.22 1.35.239 1.346.253 1.342.286 1.343.307 1.333.348 1.319.35 1.324.384 1.31.4 1.303.427 1.302.453 1.287.477Z" fill="#FFF"/><path fill="#000" opacity=".12" d="m88.362 15.961-.258-.196-.27-.187-.283-.165-.291-.147-.3-.123-.314-.103-.312-.073-.323-.063-.32-.029-.334-.011-.325.011-.319.04-.323.052-.324.084-.314.103-.29.123-.3.158-.273.165-.455.332-2.468 2.063-23.637 19.74-6.473 5.41-2.176 1.825-.332.247-.27.165-.272.147-.28.123-.302.103-.294.084-.31.052-.311.033-.306.018-.415-.018-.314-.052-.3-.062-.3-.084-.292-.114-.282-.123-.27-.158-.258-.176-.252-.185-2.176-1.826-6.473-5.41-23.634-19.737-2.467-2.065-.26-.197-.273-.187-.278-.168-.292-.133-.313-.122-.312-.096-.313-.073-.321-.063-.325-.018-.332-.011-.323.018-.322.033-.325.074-.319.08-.306.107-.3.134-.292.143-.278.176-.262.187-.424.373 7.48 6.25.01.007 21.543 17.996 6.472 5.408 2.739 2.29.345.27.354.26.363.226.387.22.386.194.405.167.406.154.417.136.426.103.426.084.426.073.439.039.579.022.431-.022.434-.03.437-.05.428-.083.43-.103.414-.125.406-.147.405-.165.395-.185.374-.21.375-.22.365-.247.461-.361 2.737-2.29 6.472-5.408 21.546-17.996.008-.007 7.481-6.25z"/><path d="m81.06 17.838.123.073.126.083.103.1.094.125.072.125.054.147.03.134.01.156-.01.146-.272 1.842-.236 1.473-.04.206-.23 1.255-.294 1.463-.314 1.459-.341 1.442-.365 1.45-.398 1.443-.402 1.429-.449 1.42-.457 1.418-.487 1.412-.501 1.396-.544 1.39-.552 1.379-.58 1.38-.596 1.366-.622 1.348-.658 1.349-.664 1.32-.691 1.33-.716 1.305-11.684-9.76-3.238-2.704 23.637-19.744.227-.143.135-.055.144-.03.147-.013h.148l.143.035.148.05ZM66.835 57.336l-1.7 2.388-.895 1.193-.918 1.174-.933 1.172-.95 1.134-.98 1.145-.988 1.108-1.01 1.099-1.03 1.076-1.037 1.068-1.074 1.046-1.082 1.027-1.095 1.014-1.11.993-1.137.976-1.141.956-1.171.93-1.177.911-1.195.905-1.207.868h-.01l-2.36-1.741-1.177-.907-1.169-.935-1.14-.956-1.137-.976-1.114-.99-1.105-1.008-1.082-1.036-1.06-1.046-1.051-1.058-1.033-1.077-1.007-1.1-.988-1.116-.978-1.132-.95-1.152-.934-1.156-.919-1.185-.894-1.192-.872-1.202-.854-1.218L36.904 45.85l3.238-2.706 2.178 1.824.252.187.258.174.27.16.28.125.291.11.305.086.3.062.314.053.415.019.304-.019.313-.036.308-.048.295-.084.301-.103.28-.125.27-.147.272-.165.332-.25 2.178-1.823 3.238 2.706 13.739 11.486ZM10.037 17.994 33.67 37.736l-3.238 2.704-11.684 9.76-.895-1.638-.69-1.325-.652-1.335-.647-1.349-.614-1.36-.605-1.355-.572-1.38-.55-1.388-.52-1.389-.5-1.41-.488-1.41-.446-1.415-.439-1.42-.406-1.431-.387-1.439-.352-1.454-.345-1.451-.3-1.451-.291-1.46-.157-.894-.103-.58-.24-1.473-.212-1.467v-.272l.037-.147.039-.143.073-.125.08-.124.107-.101.125-.094.125-.073.135-.051.142-.032.148-.013h.158l.148.035.132.05.135.073.116.085Zm62.048-4.242L45.005 36.38l-27.09-22.627 1.488-.548 1.304-.444 1.3-.428 1.32-.4 1.325-.374 1.318-.361 1.335-.325 1.34-.306 1.343-.285 1.35-.258 1.356-.237 1.351-.209 1.365-.185 1.365-.156 1.364-.134 1.372-.116 1.374-.084 1.374-.059 1.364-.044 1.382-.009 1.584.022 1.372.04 1.373.063 1.374.092 1.365.117 1.365.134 1.364.165 1.365.185 1.359.22 1.35.239 1.346.253 1.342.286 1.343.307 1.333.348 1.319.35 1.324.384 1.31.4 1.303.427 1.302.453 1.287.477Z" fill="#FFF"/><path d="m30.43 40.442 3.24-2.706-23.633-19.744-.116-.08-.135-.074-.132-.05-.148-.037h-.158l-.148.015-.142.031-.135.054-.125.071-.125.092-.107.103-.081.124-.072.125-.04.143-.036.147v.271l.21 1.468.242 1.473.103.58.157.893.291 1.46.299 1.45.345 1.45.352 1.457.387 1.437.406 1.432.439 1.42.446 1.415.489 1.412.5 1.41.52 1.388.55 1.389.57 1.38.606 1.351.612 1.363.649 1.348.653 1.334.69 1.326.894 1.639 11.684-9.76Zm34.703 19.282 1.7-2.39L53.095 45.85l-3.239-2.706-2.177 1.824-.332.25-.273.164-.268.147-.282.125-.3.103-.296.084-.307.048-.314.036-.304.019-.417-.019-.313-.055-.3-.06-.303-.084-.292-.11-.28-.127-.27-.16-.258-.174-.25-.187-2.18-1.824-3.238 2.706-13.733 11.484.854 1.22.872 1.202.894 1.192.919 1.183.935 1.158.948 1.152.979 1.132.988 1.115 1.007 1.1 1.033 1.078 1.05 1.058 1.061 1.046 1.083 1.036 1.106 1.006 1.114.992 1.136.976 1.14.956 1.167.935 1.176.907 2.363 1.74h.009l1.208-.867 1.195-.905 1.176-.911 1.171-.93 1.142-.956 1.136-.976 1.11-.99 1.095-1.017 1.083-1.027 1.073-1.046 1.038-1.068 1.029-1.076 1.01-1.101.989-1.106.98-1.145.947-1.134.935-1.17.918-1.174.895-1.193v-.002ZM45.005 36.381l27.08-22.629-1.287-.477-1.302-.453-1.302-.427-1.31-.4-1.325-.384-1.319-.352-1.333-.346-1.343-.307-1.34-.286-1.346-.253-1.352-.239-1.361-.22-1.365-.187-1.364-.165-1.365-.132-1.365-.116-1.372-.093-1.373-.063-1.372-.04-1.586-.022-1.381.01-1.365.043-1.372.059-1.374.084-1.374.116-1.364.134-1.365.156-1.365.185-1.348.21-1.357.236-1.35.257-1.342.286-1.34.306-1.336.325-1.318.361-1.324.375-1.32.4-1.3.427-1.303.444-1.49.548 27.09 22.629Zm36.667-17.6-.01-.156-.03-.134-.056-.147-.07-.125-.092-.124-.105-.103-.126-.08-.123-.074-.148-.05-.143-.037h-.148l-.147.015-.144.031-.135.054-.227.14-23.637 19.745 3.238 2.706 11.684 9.76.716-1.303.69-1.332.667-1.32.656-1.349.622-1.348.595-1.367.581-1.38.55-1.379.546-1.389.501-1.397.487-1.411.457-1.418.449-1.42.402-1.43.398-1.441.367-1.45.34-1.443.313-1.459.295-1.463.228-1.255.041-.206.236-1.473.273-1.842.01-.146ZM90 18.616v.476l-.035.477-.05.466-.374 2.538-.27 1.539-.282 1.53-.313 1.531-.343 1.527-.354 1.522-.386 1.512-.414 1.504-.44 1.5-.455 1.496-.48 1.48-.508 1.483-.52 1.473-.563 1.46-.571 1.45-.605 1.441-.627 1.431-.646 1.427-.663 1.41-.701 1.397-.705 1.394-.737 1.376-.762 1.369-.778 1.357-.806 1.336-.822 1.33-.841 1.313-.863 1.308-.895 1.282-.909 1.272-.926 1.254-.947 1.248-.967 1.233-.988 1.21-1.007 1.193-1.025 1.183-1.051 1.17-1.06 1.138-1.083 1.132-1.1 1.12-1.113 1.087-1.136 1.076-1.154 1.068-1.168 1.037-1.186 1.027-1.207.994-1.221.984-1.226.964-1.249.943-1.27.923-1.28.903-1.287.89-1.315.862-1.311.838-2.162-1.402-1.302-.867-1.29-.892-1.273-.92-1.25-.936-1.236-.963-1.23-.973-1.204-.996-1.19-1.014-1.176-1.028-1.162-1.058-1.137-1.07-1.123-1.084-1.114-1.108-1.083-1.132L25 72.92l-1.051-1.154-1.029-1.18-1.02-1.192-.988-1.202-.98-1.223-.953-1.242-.94-1.255-.904-1.264-.898-1.284-.872-1.295-.854-1.304-.832-1.332-.811-1.334-.791-1.348-.76-1.367-.752-1.37-.716-1.389-.697-1.398-.69-1.41-.645-1.419-.634-1.429-.613-1.432-.586-1.45-.559-1.462-.54-1.458-.51-1.482-.493-1.483-.465-1.49-.448-1.494-.415-1.501-.398-1.517-.364-1.514-.352-1.522-.313-1.534-.3-1.532-.274-1.535-.249-1.543-.221-1.545-.07-.89L0 18.679l.022-.48.04-.463.062-.468.1-.462.102-.472.13-.433.003-.012.166-.444.179-.437.207-.437.219-.414.249-.404.26-.378.291-.387.305-.361.32-.343L3 11.95l.354-.312.377-.297.383-.268.395-.262.42-.235 2.517-1.3 1.299-.632 1.302-.6 1.318-.58 1.324-.573 1.343-.525 1.342-.521 1.355-.495 1.36-.466 1.377-.444 1.37-.422 1.387-.398 1.396-.373 1.396-.352 1.403-.334 1.405-.299 1.413-.279 1.42-.262 1.42-.224 1.427-.209L34.93 1.1l1.44-.156 1.435-.132 1.434-.116 1.44-.084 1.446-.059L43.561.51 45.005.5l2.84.053 1.438.059 1.438.084 1.437.101 1.434.14 1.437.156 1.427.185 1.428.205 1.421.231 1.42.254 1.413.286 1.418.297 1.39.334 1.406.352 1.386.372 1.383.393 1.385.427 1.361.444 1.365.465 1.353.497 1.352.508 1.333.543 1.334.56 1.309.574 1.311.614 1.29.624 1.29.65 1.272.667.77.462.385.272.374.29.354.311.345.333.32.339.314.365.282.369.27.396.25.404.227.414.207.428.179.43.17.45.022.074v.003l.108.369.12.462.089.459.077.468.039.477.022.466Z" fill="#E74C3C"/><path fill="#000" opacity=".12" d="m88.362 15.961-.258-.196-.27-.187-.283-.165-.291-.147-.3-.123-.314-.103-.312-.073-.323-.063-.32-.029-.334-.011-.325.011-.319.04-.323.052-.324.084-.314.103-.29.123-.3.158-.273.165-.455.332-2.468 2.063-23.637 19.74-6.473 5.41-2.176 1.825-.332.247-.27.165-.272.147-.28.123-.302.103-.294.084-.31.052-.311.033-.306.018-.415-.018-.314-.052-.3-.062-.3-.084-.292-.114-.282-.123-.27-.158-.258-.176-.252-.185-2.176-1.826-6.473-5.41-23.634-19.737-2.467-2.065-.26-.197-.273-.187-.278-.168-.292-.133-.313-.122-.312-.096-.313-.073-.321-.063-.325-.018-.332-.011-.323.018-.322.033-.325.074-.319.08-.306.107-.3.134-.292.143-.278.176-.262.187-.424.373 7.48 6.25.01.007 21.543 17.996 6.472 5.408 2.739 2.29.345.27.354.26.363.226.387.22.386.194.405.167.406.154.417.136.426.103.426.084.426.073.439.039.579.022.431-.022.434-.03.437-.05.428-.083.43-.103.414-.125.406-.147.405-.165.395-.185.374-.21.375-.22.365-.247.461-.361 2.737-2.29 6.472-5.408 21.546-17.996.008-.007 7.481-6.25z"/><path d="m81.06 17.838.123.073.126.083.103.1.094.125.072.125.054.147.03.134.01.156-.01.146-.272 1.842-.236 1.473-.04.206-.23 1.255-.294 1.463-.314 1.459-.341 1.442-.365 1.45-.398 1.443-.402 1.429-.449 1.42-.457 1.418-.487 1.412-.501 1.396-.544 1.39-.552 1.379-.58 1.38-.596 1.366-.622 1.348-.658 1.349-.664 1.32-.691 1.33-.716 1.305-11.684-9.76-3.238-2.704 23.637-19.744.227-.143.135-.055.144-.03.147-.013h.148l.143.035.148.05ZM66.835 57.336l-1.7 2.388-.895 1.193-.918 1.174-.933 1.172-.95 1.134-.98 1.145-.988 1.108-1.01 1.099-1.03 1.076-1.037 1.068-1.074 1.046-1.082 1.027-1.095 1.014-1.11.993-1.137.976-1.141.956-1.171.93-1.177.911-1.195.905-1.207.868h-.01l-2.36-1.741-1.177-.907-1.169-.935-1.14-.956-1.137-.976-1.114-.99-1.105-1.008-1.082-1.036-1.06-1.046-1.051-1.058-1.033-1.077-1.007-1.1-.988-1.116-.978-1.132-.95-1.152-.934-1.156-.919-1.185-.894-1.192-.872-1.202-.854-1.218L36.904 45.85l3.238-2.706 2.178 1.824.252.187.258.174.27.16.28.125.291.11.305.086.3.062.314.053.415.019.304-.019.313-.036.308-.048.295-.084.301-.103.28-.125.27-.147.272-.165.332-.25 2.178-1.823 3.238 2.706 13.739 11.486ZM10.037 17.994 33.67 37.736l-3.238 2.704-11.684 9.76-.895-1.638-.69-1.325-.652-1.335-.647-1.349-.614-1.36-.605-1.355-.572-1.38-.55-1.388-.52-1.389-.5-1.41-.488-1.41-.446-1.415-.439-1.42-.406-1.431-.387-1.439-.352-1.454-.345-1.451-.3-1.451-.291-1.46-.157-.894-.103-.58-.24-1.473-.212-1.467v-.272l.037-.147.039-.143.073-.125.08-.124.107-.101.125-.094.125-.073.135-.051.142-.032.148-.013h.158l.148.035.132.05.135.073.116.085Zm62.048-4.242L45.005 36.38l-27.09-22.627 1.488-.548 1.304-.444 1.3-.428 1.32-.4 1.325-.374 1.318-.361 1.335-.325 1.34-.306 1.343-.285 1.35-.258 1.356-.237 1.351-.209 1.365-.185 1.365-.156 1.364-.134 1.372-.116 1.374-.084 1.374-.059 1.364-.044 1.382-.009 1.584.022 1.372.04 1.373.063 1.374.092 1.365.117 1.365.134 1.364.165 1.365.185 1.359.22 1.35.239 1.346.253 1.342.286 1.343.307 1.333.348 1.319.35 1.324.384 1.31.4 1.303.427 1.302.453 1.287.477Z" fill="#FFF"/><path fill="#000" opacity=".12" d="m88.362 15.961-.258-.196-.27-.187-.283-.165-.291-.147-.3-.123-.314-.103-.312-.073-.323-.063-.32-.029-.334-.011-.325.011-.319.04-.323.052-.324.084-.314.103-.29.123-.3.158-.273.165-.455.332-2.468 2.063-23.637 19.74-6.473 5.41-2.176 1.825-.332.247-.27.165-.272.147-.28.123-.302.103-.294.084-.31.052-.311.033-.306.018-.415-.018-.314-.052-.3-.062-.3-.084-.292-.114-.282-.123-.27-.158-.258-.176-.252-.185-2.176-1.826-6.473-5.41-23.634-19.737-2.467-2.065-.26-.197-.273-.187-.278-.168-.292-.133-.313-.122-.312-.096-.313-.073-.321-.063-.325-.018-.332-.011-.323.018-.322.033-.325.074-.319.08-.306.107-.3.134-.292.143-.278.176-.262.187-.424.373 7.48 6.25.01.007 21.543 17.996 6.472 5.408 2.739 2.29.345.27.354.26.363.226.387.22.386.194.405.167.406.154.417.136.426.103.426.084.426.073.439.039.579.022.431-.022.434-.03.437-.05.428-.083.43-.103.414-.125.406-.147.405-.165.395-.185.374-.21.375-.22.365-.247.461-.361 2.737-2.29 6.472-5.408 21.546-17.996.008-.007 7.481-6.25z"/><path d="m81.06 17.838.123.073.126.083.103.1.094.125.072.125.054.147.03.134.01.156-.01.146-.272 1.842-.236 1.473-.04.206-.23 1.255-.294 1.463-.314 1.459-.341 1.442-.365 1.45-.398 1.443-.402 1.429-.449 1.42-.457 1.418-.487 1.412-.501 1.396-.544 1.39-.552 1.379-.58 1.38-.596 1.366-.622 1.348-.658 1.349-.664 1.32-.691 1.33-.716 1.305-11.684-9.76-3.238-2.704 23.637-19.744.227-.143.135-.055.144-.03.147-.013h.148l.143.035.148.05ZM66.835 57.336l-1.7 2.388-.895 1.193-.918 1.174-.933 1.172-.95 1.134-.98 1.145-.988 1.108-1.01 1.099-1.03 1.076-1.037 1.068-1.074 1.046-1.082 1.027-1.095 1.014-1.11.993-1.137.976-1.141.956-1.171.93-1.177.911-1.195.905-1.207.868h-.01l-2.36-1.741-1.177-.907-1.169-.935-1.14-.956-1.137-.976-1.114-.99-1.105-1.008-1.082-1.036-1.06-1.046-1.051-1.058-1.033-1.077-1.007-1.1-.988-1.116-.978-1.132-.95-1.152-.934-1.156-.919-1.185-.894-1.192-.872-1.202-.854-1.218L36.904 45.85l3.238-2.706 2.178 1.824.252.187.258.174.27.16.28.125.291.11.305.086.3.062.314.053.415.019.304-.019.313-.036.308-.048.295-.084.301-.103.28-.125.27-.147.272-.165.332-.25 2.178-1.823 3.238 2.706 13.739 11.486ZM10.037 17.994 33.67 37.736l-3.238 2.704-11.684 9.76-.895-1.638-.69-1.325-.652-1.335-.647-1.349-.614-1.36-.605-1.355-.572-1.38-.55-1.388-.52-1.389-.5-1.41-.488-1.41-.446-1.415-.439-1.42-.406-1.431-.387-1.439-.352-1.454-.345-1.451-.3-1.451-.291-1.46-.157-.894-.103-.58-.24-1.473-.212-1.467v-.272l.037-.147.039-.143.073-.125.08-.124.107-.101.125-.094.125-.073.135-.051.142-.032.148-.013h.158l.148.035.132.05.135.073.116.085Zm62.048-4.242L45.005 36.38l-27.09-22.627 1.488-.548 1.304-.444 1.3-.428 1.32-.4 1.325-.374 1.318-.361 1.335-.325 1.34-.306 1.343-.285 1.35-.258 1.356-.237 1.351-.209 1.365-.185 1.365-.156 1.364-.134 1.372-.116 1.374-.084 1.374-.059 1.364-.044 1.382-.009 1.584.022 1.372.04 1.373.063 1.374.092 1.365.117 1.365.134 1.364.165 1.365.185 1.359.22 1.35.239 1.346.253 1.342.286 1.343.307 1.333.348 1.319.35 1.324.384 1.31.4 1.303.427 1.302.453 1.287.477Z" fill="#FFF"/><path fill="#000" opacity=".12" d="m88.362 15.961-.258-.196-.27-.187-.283-.165-.291-.147-.3-.123-.314-.103-.312-.073-.323-.063-.32-.029-.334-.011-.325.011-.319.04-.323.052-.324.084-.314.103-.29.123-.3.158-.273.165-.455.332-2.468 2.063-23.637 19.74-6.473 5.41-2.176 1.825-.332.247-.27.165-.272.147-.28.123-.302.103-.294.084-.31.052-.311.033-.306.018-.415-.018-.314-.052-.3-.062-.3-.084-.292-.114-.282-.123-.27-.158-.258-.176-.252-.185-2.176-1.826-6.473-5.41-23.634-19.737-2.467-2.065-.26-.197-.273-.187-.278-.168-.292-.133-.313-.122-.312-.096-.313-.073-.321-.063-.325-.018-.332-.011-.323.018-.322.033-.325.074-.319.08-.306.107-.3.134-.292.143-.278.176-.262.187-.424.373 7.48 6.25.01.007 21.543 17.996 6.472 5.408 2.739 2.29.345.27.354.26.363.226.387.22.386.194.405.167.406.154.417.136.426.103.426.084.426.073.439.039.579.022.431-.022.434-.03.437-.05.428-.083.43-.103.414-.125.406-.147.405-.165.395-.185.374-.21.375-.22.365-.247.461-.361 2.737-2.29 6.472-5.408 21.546-17.996.008-.007 7.481-6.25z"/><path d="m81.06 17.838.123.073.126.083.103.1.094.125.072.125.054.147.03.134.01.156-.01.146-.272 1.842-.236 1.473-.04.206-.23 1.255-.294 1.463-.314 1.459-.341 1.442-.365 1.45-.398 1.443-.402 1.429-.449 1.42-.457 1.418-.487 1.412-.501 1.396-.544 1.39-.552 1.379-.58 1.38-.596 1.366-.622 1.348-.658 1.349-.664 1.32-.691 1.33-.716 1.305-11.684-9.76-3.238-2.704 23.637-19.744.227-.143.135-.055.144-.03.147-.013h.148l.143.035.148.05ZM66.835 57.336l-1.7 2.388-.895 1.193-.918 1.174-.933 1.172-.95 1.134-.98 1.145-.988 1.108-1.01 1.099-1.03 1.076-1.037 1.068-1.074 1.046-1.082 1.027-1.095 1.014-1.11.993-1.137.976-1.141.956-1.171.93-1.177.911-1.195.905-1.207.868h-.01l-2.36-1.741-1.177-.907-1.169-.935-1.14-.956-1.137-.976-1.114-.99-1.105-1.008-1.082-1.036-1.06-1.046-1.051-1.058-1.033-1.077-1.007-1.1-.988-1.116-.978-1.132-.95-1.152-.934-1.156-.919-1.185-.894-1.192-.872-1.202-.854-1.218L36.904 45.85l3.238-2.706 2.178 1.824.252.187.258.174.27.16.28.125.291.11.305.086.3.062.314.053.415.019.304-.019.313-.036.308-.048.295-.084.301-.103.28-.125.27-.147.272-.165.332-.25 2.178-1.823 3.238 2.706 13.739 11.486ZM10.037 17.994 33.67 37.736l-3.238 2.704-11.684 9.76-.895-1.638-.69-1.325-.652-1.335-.647-1.349-.614-1.36-.605-1.355-.572-1.38-.55-1.388-.52-1.389-.5-1.41-.488-1.41-.446-1.415-.439-1.42-.406-1.431-.387-1.439-.352-1.454-.345-1.451-.3-1.451-.291-1.46-.157-.894-.103-.58-.24-1.473-.212-1.467v-.272l.037-.147.039-.143.073-.125.08-.124.107-.101.125-.094.125-.073.135-.051.142-.032.148-.013h.158l.148.035.132.05.135.073.116.085Zm62.048-4.242L45.005 36.38l-27.09-22.627 1.488-.548 1.304-.444 1.3-.428 1.32-.4 1.325-.374 1.318-.361 1.335-.325 1.34-.306 1.343-.285 1.35-.258 1.356-.237 1.351-.209 1.365-.185 1.365-.156 1.364-.134 1.372-.116 1.374-.084 1.374-.059 1.364-.044 1.382-.009 1.584.022 1.372.04 1.373.063 1.374.092 1.365.117 1.365.134 1.364.165 1.365.185 1.359.22 1.35.239 1.346.253 1.342.286 1.343.307 1.333.348 1.319.35 1.324.384 1.31.4 1.303.427 1.302.453 1.287.477Z" fill="#FFF"/><path fill="#000" opacity=".12" d="m88.362 15.961-.258-.196-.27-.187-.283-.165-.291-.147-.3-.123-.314-.103-.312-.073-.323-.063-.32-.029-.334-.011-.325.011-.319.04-.323.052-.324.084-.314.103-.29.123-.3.158-.273.165-.455.332-2.468 2.063-23.637 19.74-6.473 5.41-2.176 1.825-.332.247-.27.165-.272.147-.28.123-.302.103-.294.084-.31.052-.311.033-.306.018-.415-.018-.314-.052-.3-.062-.3-.084-.292-.114-.282-.123-.27-.158-.258-.176-.252-.185-2.176-1.826-6.473-5.41-23.634-19.737-2.467-2.065-.26-.197-.273-.187-.278-.168-.292-.133-.313-.122-.312-.096-.313-.073-.321-.063-.325-.018-.332-.011-.323.018-.322.033-.325.074-.319.08-.306.107-.3.134-.292.143-.278.176-.262.187-.424.373 7.48 6.25.01.007 21.543 17.996 6.472 5.408 2.739 2.29.345.27.354.26.363.226.387.22.386.194.405.167.406.154.417.136.426.103.426.084.426.073.439.039.579.022.431-.022.434-.03.437-.05.428-.083.43-.103.414-.125.406-.147.405-.165.395-.185.374-.21.375-.22.365-.247.461-.361 2.737-2.29 6.472-5.408 21.546-17.996.008-.007 7.481-6.25z"/></g></svg>