<svg viewBox="0 0 90 90" xmlns="http://www.w3.org/2000/svg"><path d="M45.032 8.127c1.86-.001 3.716.138 5.555.417l6.799-6.8C37.545-3.94 16.38 4.605 6.047 22.473-4.287 40.339-1.14 62.947 13.68 77.313s37.513 16.805 55.046 5.917l-5.918-5.92L30.501 45l32.307-32.31 5.92-5.92a44.78 44.78 0 0 0-7.658-3.8l-6.421 6.422-11.546 11.547-24.058 24.06 35.604 35.61a36.87 36.87 0 0 1-37.82-11.867 36.881 36.881 0 0 1-5.213-39.298A36.873 36.873 0 0 1 45.035 8.126M72 19.862l-14.986 14.99-10.148 10.147L72 70.139c12.292-13.188 13.245-33.331 2.253-47.62l5.768-5.769c14.13 17.505 13.152 42.76-2.29 59.12a45.286 45.286 0 0 1-6.08 5.378l-5.81-5.809-30.432-30.44 30.435-30.438 5.81-5.81a45.31 45.31 0 0 1 6.08 5.379L72 19.862Z" fill="#2771A7" fill-rule="evenodd"/></svg>