<svg viewBox="0 0 90 90" xmlns="http://www.w3.org/2000/svg"><g fill="none" fill-rule="evenodd"><path fill="#4F42C3" d="M0 0h90v90H0z"/><path d="M49.32 44.204c2.44-.847 4.191-3.147 4.191-5.85 0-3.423-2.806-6.198-6.268-6.198H34.732a2.114 2.114 0 0 1-2.115-2.114v-4.975c0-1.167.947-2.114 2.115-2.114h12.511c8.602 0 15.576 6.937 15.576 15.495 0 7.846-5.862 14.33-13.467 15.353-1.157.156-2.109-.805-2.109-1.973v-5.162c0-1.168.973-2.08 2.076-2.462Zm-14.588-6.807a2.114 2.114 0 0 0-2.115 2.114V64.96c0 1.168.947 2.114 2.115 2.114h5.226a2.114 2.114 0 0 0 2.114-2.114V39.511a2.114 2.114 0 0 0-2.114-2.114h-5.226Z" fill="#FFF"/></g></svg>