<svg xmlns="http://www.w3.org/2000/svg" width="90" height="90" viewBox="0 0 90 90"><g fill="none" fill-rule="evenodd"><rect width="90" height="90" fill="#4A85E5"/><path fill="#FFF" fill-rule="nonzero" d="M48.4010162,5.35102345 C41.8581182,-1.06398712 31.6153676,-1.79769589 24.2204234,3.61891909 C16.8254792,9.03553407 14.4625887,19.0025652 18.6422253,27.1486067 C18.7734992,27.4185594 18.7205857,27.7416586 18.510012,27.9559246 L0.199815695,46.2551303 C0.0694094767,46.3857231 -0.00259095629,46.563305 7.12880568e-05,46.7475942 L7.12880568e-05,53.2949424 C0.0030841298,53.6831149 0.317876129,53.9970703 0.707083144,54 L7.28267236,54 C7.46625094,53.9965993 7.6420989,53.9256803 7.77644865,53.8008616 L13.32671,48.2761161 C13.4576508,48.1460565 13.635706,48.0742474 13.8204863,48.0769777 L21.1461838,48.0769777 C21.9270443,48.0769777 22.5600569,47.4456476 22.5600569,46.6668624 L22.5600569,39.3444891 C22.5634667,39.1613984 22.6345746,38.9860178 22.759726,38.8520252 L26.121722,35.4855095 C26.3365589,35.2754955 26.6605192,35.2227226 26.9311913,35.3536476 C35.1663242,39.4624466 45.1748968,36.9811837 50.5226265,29.5050061 C55.8703563,22.0288285 54.9656927,11.7827391 48.3902233,5.35371451 L48.4010162,5.35102345 Z M43.4389692,19.0996473 C41.7568232,20.9618723 39.0981186,21.5979005 36.7519985,20.6993368 C34.4058784,19.800773 32.8574106,17.5533982 32.8574106,15.0469114 C32.8574106,12.5404246 34.4058784,10.2930498 36.7519985,9.39448606 C39.0981186,8.49592231 41.7568232,9.13195049 43.4389692,10.9941756 C45.5233529,13.2961222 45.5233529,16.7977006 43.4389692,19.0996473 L43.4389692,19.0996473 Z" transform="translate(18 18)"/></g></svg>