<svg viewBox="0 0 90 90" xmlns="http://www.w3.org/2000/svg"><g fill="none" fill-rule="evenodd"><path fill="#4A85E5" d="M0 0h90v90H0z"/><path d="M66.401 23.351c-6.543-6.415-16.786-7.149-24.18-1.732-7.396 5.417-9.758 15.384-5.579 23.53a.709.709 0 0 1-.132.807l-18.31 18.3a.683.683 0 0 0-.2.492v6.547a.712.712 0 0 0 .707.705h6.576a.746.746 0 0 0 .493-.2l5.55-5.524a.686.686 0 0 1 .494-.199h7.326c.781 0 1.414-.631 1.414-1.41v-7.323a.742.742 0 0 1 .2-.492l3.362-3.366a.714.714 0 0 1 .81-.132c8.234 4.108 18.243 1.627 23.59-5.849 5.348-7.476 4.444-17.722-2.132-24.151l.011-.003ZM61.439 37.1a6.082 6.082 0 0 1-6.687 1.6 6.055 6.055 0 0 1-3.895-5.653 6.055 6.055 0 0 1 3.895-5.653 6.082 6.082 0 0 1 6.687 1.6 6.035 6.035 0 0 1 0 8.106Z" fill="#FFF" fill-rule="nonzero"/></g></svg>