<svg viewBox="0 0 90 90" xmlns="http://www.w3.org/2000/svg"><g fill="none" fill-rule="evenodd"><path d="M74.52 1.251C67.362.674 56.915 0 45.5 0S23.541.674 16.48 1.251C11.063 1.733 7 6.161 7 11.551v42.353C7 74.406 45.5 90 45.5 90S84 74.406 84 53.904V11.55c0-5.294-4.16-9.818-9.48-10.3Zm-9.383 18.867-6.384 7.026-.484 9.915-10.834 9.914-2.902 11.647-1.258 14.728c-.193-.29-3.095-5.39-3.095-5.39l-.968-10.011v-8.182l1.838-11.359-5.804-2.791-8.416-8.47-13.833-6.931h18.477l15.477 5.198 3.966-7.123 8.706-1.925 4.547 1.155 12.962-1.733-11.995 4.332Z" fill="#0B74E7" fill-rule="nonzero"/><path d="m65.137 20.118-6.384 7.026-.484 9.915-10.834 9.914-2.902 11.647-1.258 14.728c-.193-.29-3.095-5.39-3.095-5.39l-.968-10.011v-8.182l1.838-11.359-5.804-2.791-8.416-8.47-13.833-6.931h18.477l15.477 5.198 3.966-7.123 8.706-1.925 4.547 1.155 12.962-1.733-11.995 4.332Z" fill="#FFF"/></g></svg>