<svg viewBox="0 0 90 90" xmlns="http://www.w3.org/2000/svg"><g fill="#028BF4"><path d="m8.7 49.919-5.467-9.993h6.4l2.867 6.212 4.833-6.212h6.534l-8.734 10.972 5.3 9.757H14.2l-2.867-5.976-4.666 5.976H0l8.7-10.736Zm41.267-3.646c.333-1.925-.7-2.33-2.834-2.296-3.666.034-4 2.43-4.5 4.996-.033-.033 6.667 1.115 7.334-2.7M47.5 39.554c4.4-.034 8.3 1.216 8 5.976-.6 9.419-11.9 7.596-13.333 7.022-.534 3.174.233 3.984 2.966 4.018 2.267.067 5.967-.27 8.367-.676l-.667 3.883c-3.066.945-6.4 1.418-10.666 1.148-4.9-.237-6.467-4.39-5.067-11.985 1.2-6.347 2.9-9.352 10.4-9.386"/><path d="M38.733 40.702c.267-.27.534-.506.834-.743h-8.2l.233-1.485c.5-3.309.7-4.321 2.967-4.288l3.466.034.5-3.275C37.5 30.44 35.567 30 33.833 30c-4.533 0-6.6 1.823-7.433 7.191l-.433 2.768-3.167 4.153h2.467L22.6 60.655H28l2.667-16.543h5.966c.5-1.317 1.167-2.465 2.1-3.41ZM72.2 56.401h9.633c.334 0 1.334-.034 1.567-1.317l.2-1.047c.1-.844-.067-1.316-1.2-1.316h-4.567c-3.633 0-5.666-2.026-5.033-6.01l.3-1.856c.5-3.275 2.233-5.132 6.2-5.132 3.933 0 9.267.101 10.7 1.047l-.533 3.443h-9.234c-1.4 0-1.7.71-1.8 1.452l-.166 1.013c-.267 1.519.666 1.316 1.4 1.316h4.7c3.933 0 5.233 2.769 4.733 5.773l-.333 2.364c-.667 4.253-3.5 4.827-5.867 4.827-3.9 0-9.933-.168-11.2-1.147l.5-3.41Zm-.767-11.85c.334-2.093 1.1-3.68 2.3-4.76-1.866-.034-3.6-.034-4-.034-2.533 0-4.666 1.418-6.3 2.802l-.433-2.6h-4.533l-3.234 20.696h5.4l2.034-13.235c1.666-1.924 3.333-2.295 5.566-2.295.4 0 1.634 0 3.1.033l.1-.607Z"/></g></svg>