<svg viewBox="0 0 90 90" xmlns="http://www.w3.org/2000/svg"><g fill="none"><path d="M81.895 21.9c-8.894-5.15-20.266-2.09-25.406 6.831L43.533 51.245c-3.749 6.5 1.077 8.773 6.459 12.01l12.467 7.217c4.221 2.443 9.614.993 12.049-3.237L87.826 44.1c4.475-7.775 1.82-17.711-5.93-22.2Z" fill="#EA4335"/><path d="M67.236 31.218 54.769 24c-6.882-3.832-10.78-4.086-13.605.42L22.777 56.361c-5.134 8.916-2.077 20.319 6.81 25.458 7.751 4.488 17.657 1.825 22.131-5.95l18.739-32.56c2.446-4.235 1-9.65-3.221-12.092Z" fill="#FBBC04"/><path d="m69.635 14.798-8.756-5.073c-9.686-5.608-22.07-2.283-27.66 7.433L16.547 46.122c-2.463 4.274-1 9.743 3.26 12.208l9.806 5.68c4.842 2.806 11.032 1.141 13.83-3.717l19.046-33.089c3.947-6.854 12.681-9.203 19.514-5.244l-12.368-7.162Z" fill="#34A853"/><path d="m35.587 25.445-9.465-5.47a8.815 8.815 0 0 0-12.05 3.231L2.717 42.891c-5.59 9.688-2.275 22.083 7.41 27.675l7.206 4.162 8.74 5.051 3.793 2.19c-6.734-4.522-8.872-13.582-4.755-20.717l2.941-5.095L38.82 37.493c2.43-4.213.984-9.611-3.232-12.048Z" fill="#4285F4"/></g></svg>