<svg viewBox="0 0 90 90" xmlns="http://www.w3.org/2000/svg"><g fill="none" fill-rule="evenodd"><path fill="#7BD500" d="M0 0h90v90H0z"/><path d="m59.113 16.505 1.025-1.04A33.005 33.005 0 0 0 43.521 11C25.008 11 10 26.222 10 45s15.008 34 33.52 34c18.514 0 33.521-15.222 33.521-34 0-4.17-.74-8.166-2.095-11.858l-1.09 1.107A32.955 32.955 0 0 1 75.644 45c0 17.995-14.383 32.583-32.124 32.583-17.742 0-32.124-14.588-32.124-32.583 0-17.995 14.382-32.583 32.124-32.583a31.627 31.627 0 0 1 15.592 4.088Z" stroke="#FFF" stroke-width="2.958"/><path fill="#FFF" fill-rule="nonzero" d="m35.49 53.338.2-.203 39.706-40.274 1.535-1.556L80 14.418l-1.535 1.557L38.76 56.248l-.2.203-3.07 3.114-1.534-1.557-11.08-11.238-1.534-1.556 3.07-3.114 1.534 1.557z"/></g></svg>