<svg viewBox="0 0 90 90" xmlns="http://www.w3.org/2000/svg"><g fill="none"><path d="M42.948.144A45.912 45.912 0 0 1 46.8 0C70.236.864 89.064 19.656 90 43.092V78.48c-.036 6.408-5.256 11.556-11.628 11.52a12.848 12.848 0 0 1-10.836-11.52V43.092c-.972-12.348-11.772-21.6-24.12-20.628-.144 0-.288.036-.432.036" fill="#FBBC04"/><path d="M90 78.732c0 6.192-5.04 11.232-11.232 11.232-6.192 0-11.232-5.04-11.232-11.232 0-6.192 5.04-11.232 11.232-11.232C84.96 67.5 90 72.54 90 78.732Z" fill="#4285F4"/><path d="M43.596 89.604c6.372.072 11.592-5.004 11.664-11.376v-.072c-.18-6.192-5.364-11.088-11.556-10.908h-.252c-12.276-.936-21.528-11.592-20.664-23.904v-.18c.9-11.088 9.72-19.836 20.808-20.664 6.192.252 11.412-4.572 11.664-10.764v-.18C55.188 5.184 49.968.036 43.596.107h-.792C18.936 1.224.144 20.807 0 44.712v.18C0 72.936 24.588 89.64 42.912 89.64h.684v-.036Z" fill="#EA4335"/></g></svg>