<svg viewBox="0 0 90 90" xmlns="http://www.w3.org/2000/svg" xmlns:xlink="http://www.w3.org/1999/xlink"><defs><path id="a" d="M0 0h90v90H0z"/></defs><g fill="none" fill-rule="evenodd"><mask id="b" fill="#fff"><use xlink:href="#a"/></mask><use fill="#2D4154" xlink:href="#a"/><path d="M26.647 104c2.438 0 4.366-.236 5.781-.707 1.416-.472 2.42-1.277 3.01-2.417.59-1.14.943-2.141 1.061-3.006.118-.864.177-2.2.177-4.008V70.05c2.91 3.615 7.59 5.423 14.04 5.423 6.45 0 12.527-3.026 18.23-9.077 5.703-6.051 8.554-13.085 8.554-21.1 0-8.017-2.871-15.05-8.613-21.101-5.742-6.052-11.819-9.077-18.23-9.077-6.41 0-11.11 2.043-14.099 6.13-.236-2.044-1.082-3.596-2.537-4.657C32.566 15.531 29.754 15 25.585 15s-6.804 1.06-7.905 3.183c-.55 1.1-.885 2.082-1.003 2.947-.118.864-.177 2.2-.177 4.008V93.98c0 1.808.059 3.144.177 4.008.118.865.472 1.847 1.062 2.947.59 1.1 1.612 1.886 3.068 2.358 1.455.471 3.402.707 5.84.707ZM47 55.433c-2.871 0-5.23-1.041-7.08-3.124-1.848-2.082-2.772-4.381-2.772-6.896 0-2.515.905-4.833 2.714-6.955s4.228-3.183 7.256-3.183c3.028 0 5.486 1.042 7.374 3.124 1.888 2.083 2.832 4.42 2.832 7.014 0 2.594-1.003 4.912-3.009 6.955-2.006 2.043-4.444 3.065-7.315 3.065Z" fill="#FFF" fill-rule="nonzero" mask="url(#b)"/></g></svg>