<svg viewBox="0 0 90 90" xmlns="http://www.w3.org/2000/svg"><path d="m47.734 18.398-9.331 24h6.344l1.721-4.634h8.892l1.755 4.634h6.479l-9.33-24h-6.53Zm.691 14.235 2.515-6.77 2.514 6.77h-5.029Zm22.171-14.235h-6.411v24h6.411zm9.281 0h-6.412v24h15.573L90 37.102H79.877zM32.75 28.146l-4.774-1.092c-1.283-.282-2.042-.86-2.042-1.92 0-1.324 1.232-2.119 3.071-2.119 2.11 0 3.223 1.01 3.746 2.334h6.26C38.336 21.21 34.944 18 28.97 18c-5.416 0-9.398 3.095-9.398 7.78 0 4.071 2.717 5.908 6.294 6.686l4.707.977c1.552.347 2.312.86 2.312 1.986 0 1.49-1.35 2.3-3.307 2.3-1.991 0-3.426-.81-3.949-2.466h-6.664c.877 4.8 4.86 7.515 10.73 7.515 5.35 0 9.568-2.814 9.568-7.73-.017-3.69-2.329-5.925-6.513-6.902Zm3.543 28.56h-9.448v-9.103H.962L0 53.065h7.542L4.184 71.602h6.412l3.358-18.537h6.479v18.537h6.412v-9.434h9.448v9.434h6.412v-24h-6.412zm29.409-.926c0-5.248-3.627-8.177-8.891-8.177H45.74v24h6.413v-7.945h2.227l5.096 7.944h7.103l-5.737-8.59c2.987-1.092 4.86-3.591 4.86-7.233Zm-9.566 2.912h-3.982V52.9h3.982c2.278 0 3.307 1.142 3.307 2.897 0 1.754-1.03 2.896-3.307 2.896Zm27.232-11.089v13.655c0 3.393-1.653 5.164-4.285 5.164-2.666 0-4.32-1.755-4.32-5.164V47.603h-6.412v14.201C68.351 68.408 72.553 72 78.998 72c6.462 0 10.613-3.592 10.613-10.163V47.603h-6.243Z" fill="#00CCED"/></svg>