<svg viewBox="0 0 90 90" xmlns="http://www.w3.org/2000/svg"><g fill="none" fill-rule="evenodd"><path fill="#FFF" d="M0 0h90v90H0z"/><path d="M59.455 21c-3.53.418-6.452.902-9.286 2.984-24.136-1.698-30.361 15.049-28.99 25.88 2.813 20.85 31.239 26.421 40.65 12.336-7.445 7.696-19.277 8.752-28.324 3.084-9.047-5.668-13.512-17.392-8.323-27.217 5.19-9.825 14.313-13.032 24.347-11.162 2.43-1.418 5.225-3.22 7.655-3.187l-1.694 4.86 12.752 21.37c-.44 5.654-5.46 6.112-5.46 6.112-.573-1.47-1.633-2.942-4.841-6.036-3.207-3.094-17.465-10.177-15.788-16.207-2 6.967 10.31 14.152 14.04 17.663 3.73 3.51 5.426 6.04 5.795 6.756 0 0 9.392-2.504 7.838-8.927L57.899 27.671 59.455 21Z" fill="#000" fill-rule="nonzero" stroke="#000" stroke-linejoin="round"/></g></svg>