<svg viewBox="0 0 90 90" xmlns="http://www.w3.org/2000/svg"><g fill="none" fill-rule="evenodd"><path d="M56.884 26.941c4.07-6.997 1.654-15.939-5.399-19.98-7.055-4.036-16.074-1.644-20.146 5.353-.18.314-.348.633-.506.958L17.07 36.914c-.304.47-.586.954-.844 1.451L1.932 63.13l25.541 14.374L41.694 52.95c.31-.467.592-.952.844-1.452l13.764-23.644c.2-.296.4-.598.582-.912" fill="#FBBC04"/><path d="M27.592 77.429c-4.048 7.11-13.18 9.726-20.192 5.624-7.015-4.106-9.505-13.007-5.454-20.114 4.052-7.107 13.102-9.735 20.117-5.633 7.015 4.106 9.577 13.016 5.529 20.12" fill="#34A853"/><path d="M82.708 31.621c-6.972-4.034-15.88-1.645-19.92 5.342l-14.582 25.3c-4.018 6.972-1.645 15.895 5.3 19.929l.038.022c6.973 4.035 15.884 1.645 19.923-5.345l14.58-25.297c4.016-6.975 1.64-15.899-5.306-19.932a8.823 8.823 0 0 0-.033-.019" fill="#4285F4"/></g></svg>