<svg viewBox="0 0 90 90" xmlns="http://www.w3.org/2000/svg"><g fill="none" fill-rule="evenodd"><path fill="#456CB3" d="M0 0h90v90H0z"/><path d="M75 9.03c-3.7-2.1-8.4-.9-10.5 2.8l-19.3 33.5c-2.1 3.7-1.3 16.2-1.3 16.2s12.5-4.8 14.7-8.5l19.3-33.5c2.1-3.7.8-8.4-2.9-10.5Zm-1.4 9.5-18.7 32.5c-1 1.8-8.8 5.6-8.8 5.6s1.2-7.5 2.3-9.3l18.7-32.5c1-1.8 3.3-2.4 5.1-1.4 1.8 1 2.4 3.3 1.4 5.1Zm-57.2 59.9H71v-32.9h4.4v32.8c0 2.1-2.2 4.4-4.4 4.4H16.4c-2.1 0-4.4-2.2-4.4-4.4v-54.7c0-2.1 2.2-4.4 4.4-4.4H47v4.4H16.4v54.8Z" fill="#FFF" fill-rule="nonzero"/></g></svg>