<svg viewBox="0 0 90 90" xmlns="http://www.w3.org/2000/svg"><g fill="none" fill-rule="evenodd"><path fill="#F8002D" d="M0 0h90v90H0z"/><path d="m38.82 23.843 6.18 7.59 6.18-7.59h.017c.483.014 10.851.356 21.163 5.12-2.76 4.097-8.1 6.085-8.1 6.085-.36-3.554-2.88-4.458-10.86-4.458L45 78l-8.4-47.41c-7.98 0-10.5.844-10.86 4.458 0 0-5.4-1.988-8.1-6.084 10.312-4.765 20.68-5.107 21.163-5.12h.017ZM45 18c8.82.06 19.08 1.506 30 5.904 0 0-.36 1.084-1.68 3.494C63.3 23 53.52 21.614 45 21.675c-8.52-.06-18.3 1.325-28.32 5.723-1.2-2.17-1.68-3.494-1.68-3.494C25.92 19.506 36.18 18.06 45 18Z" fill="#FFF" fill-rule="nonzero"/></g></svg>