<svg viewBox="0 0 90 90" xmlns="http://www.w3.org/2000/svg"><defs><linearGradient x1="97.956%" y1="0%" x2="2.383%" y2="100%" id="a"><stop stop-color="#E43F81" offset="0%"/><stop stop-color="#4A63D4" offset="100%"/></linearGradient></defs><path d="M49.483 86.18a1.91 1.91 0 1 1-.002 3.818 1.91 1.91 0 0 1 .002-3.819Zm-9.738-.49a1.91 1.91 0 1 1-.002 3.82 1.91 1.91 0 0 1 .002-3.82Zm19.2-1.172a1.91 1.91 0 1 1 0 3.819 1.91 1.91 0 0 1 0-3.82Zm-28.272-1.36a1.91 1.91 0 1 1-.002 3.82 1.91 1.91 0 0 1 .002-3.82Zm36.901-2.248a1.91 1.91 0 1 1-.001 3.82 1.91 1.91 0 0 1 .001-3.82Zm-45.042-2.097a1.91 1.91 0 1 1-.001 3.82 1.91 1.91 0 0 1 .001-3.82Zm26.791-3.26a2.416 2.416 0 0 1 2.415 2.416 2.416 2.416 0 1 1-2.415-2.417Zm-10.208-.818a2.416 2.416 0 0 1 2.414 2.417 2.416 2.416 0 1 1-2.414-2.417Zm36.023.87a1.91 1.91 0 1 1-.002 3.82 1.91 1.91 0 0 1 .002-3.82Zm-16.05-2.31a2.416 2.416 0 0 1 2.414 2.417 2.416 2.416 0 1 1-2.414-2.417Zm-43.542-.417a1.91 1.91 0 1 1-.002 3.819 1.91 1.91 0 0 1 .002-3.82Zm14.493-1.804a2.416 2.416 0 1 1 .004 4.832 2.416 2.416 0 0 1-.004-4.832Zm37.411-2.701a2.416 2.416 0 0 1 2.415 2.417 2.416 2.416 0 1 1-2.415-2.417Zm13.937.47a1.91 1.91 0 1 1-.002 3.82 1.91 1.91 0 0 1 .002-3.82Zm-58.855-3.846a2.416 2.416 0 0 1 2.415 2.416 2.416 2.416 0 1 1-2.415-2.416Zm-12.578.613a1.91 1.91 0 1 1-.002 3.819 1.91 1.91 0 0 1 .002-3.82Zm35.037-1.684a2.577 2.577 0 0 1-1.163 4.918 2.578 2.578 0 0 1-1.663-4.462 2.572 2.572 0 0 1 2.826-.456Zm8.795-.752a2.577 2.577 0 0 1-1.17 4.915 2.578 2.578 0 0 1-1.659-4.465 2.572 2.572 0 0 1 2.829-.45Zm20.25-1.892a2.416 2.416 0 0 1 2.415 2.417 2.416 2.416 0 1 1-2.414-2.417Zm-37.318-.235a2.577 2.577 0 0 1-1.163 4.918 2.578 2.578 0 0 1-1.663-4.462 2.572 2.572 0 0 1 2.826-.456Zm49.374-.191a1.91 1.91 0 1 1-.002 3.819 1.91 1.91 0 0 1 .002-3.819Zm-24.74-2.226a2.577 2.577 0 0 1-1.163 4.918 2.578 2.578 0 0 1-1.663-4.462 2.572 2.572 0 0 1 2.825-.456Zm-44.27-1.595a2.416 2.416 0 0 1 2.415 2.417 2.416 2.416 0 1 1-2.415-2.417Zm-11.087.187a1.91 1.91 0 1 1-.002 3.819 1.91 1.91 0 0 1 .002-3.82Zm24.447-1.968a2.577 2.577 0 0 1-1.163 4.918 2.578 2.578 0 0 1-1.663-4.462 2.572 2.572 0 0 1 2.826-.456Zm-16.29-7.682a2.416 2.416 0 0 1 2.415 2.417 2.416 2.416 0 1 1-2.414-2.417Zm12.748-.208a2.577 2.577 0 0 1-1.163 4.918 2.578 2.578 0 0 1-1.663-4.462 2.572 2.572 0 0 1 2.826-.456Zm-22.991.608a1.91 1.91 0 1 1-.002 3.82 1.91 1.91 0 0 1 .002-3.82Zm22.964-9.61a2.577 2.577 0 0 1-1.163 4.919 2.578 2.578 0 0 1-1.663-4.462 2.572 2.572 0 0 1 2.826-.456Zm-12.685-1.017a2.416 2.416 0 1 1-.002 4.832 2.416 2.416 0 0 1 .002-4.832Zm-10.28.862a1.91 1.91 0 1 1-.001 3.819 1.91 1.91 0 0 1 .002-3.819Zm26.471-7.806a2.577 2.577 0 0 1-1.162 4.918 2.578 2.578 0 0 1-1.663-4.462 2.572 2.572 0 0 1 2.825-.456ZM5.995 28.957a1.91 1.91 0 1 1-.002 3.82 1.91 1.91 0 0 1 .002-3.82Zm11.194-1.03a2.416 2.416 0 0 1 2.414 2.417 2.416 2.416 0 1 1-2.414-2.417Zm44.162-1.488a2.577 2.577 0 0 1-1.162 4.918 2.578 2.578 0 0 1-1.663-4.462 2.572 2.572 0 0 1 2.825-.456Zm-24.713-1.857a2.577 2.577 0 0 1-1.163 4.917 2.578 2.578 0 0 1-1.663-4.462 2.572 2.572 0 0 1 2.826-.455Zm49.454.741a1.91 1.91 0 1 1-.002 3.82 1.91 1.91 0 0 1 .002-3.82Zm-11.913-1.226a2.416 2.416 0 0 1 2.414 2.417 2.416 2.416 0 1 1-2.414-2.417Zm-20.4-1.737a2.577 2.577 0 0 1-1.162 4.918 2.578 2.578 0 0 1-1.663-4.462 2.572 2.572 0 0 1 2.825-.456Zm-8.948-.684a2.577 2.577 0 0 1-1.162 4.918 2.578 2.578 0 0 1-1.663-4.462 2.572 2.572 0 0 1 2.825-.456Zm-22.139-1.693a2.416 2.416 0 0 1 2.415 2.417 2.416 2.416 0 1 1-2.415-2.417Zm-12.738.587a1.91 1.91 0 1 1-.002 3.819 1.91 1.91 0 0 1 .002-3.82Zm57.7-3.617a2.416 2.416 0 0 1 2.415 2.417 2.416 2.416 0 1 1-2.415-2.417Zm13.733.382a1.91 1.91 0 1 1-.002 3.82 1.91 1.91 0 0 1 .002-3.82Zm-49.102-2.298a2.427 2.427 0 0 1-2.03 3.764 2.426 2.426 0 0 1-.91-4.67 2.422 2.422 0 0 1 2.94.906Zm-16.739-1.744a1.91 1.91 0 1 1-.002 3.818 1.91 1.91 0 0 1 .002-3.818Zm43.737-1.324a2.416 2.416 0 0 1 2.415 2.416 2.416 2.416 0 1 1-2.415-2.416Zm-19.91-1.6a2.416 2.416 0 0 1 2.414 2.417 2.416 2.416 0 1 1-2.415-2.417Zm10.205-.728a2.416 2.416 0 1 1-.014 4.831 2.416 2.416 0 0 1 .014-4.831Zm25.56.924a1.91 1.91 0 1 1-.002 3.819 1.91 1.91 0 0 1 .002-3.82ZM22.532 7.366a1.91 1.91 0 1 1-.001 3.819 1.91 1.91 0 0 1 .001-3.819ZM67.574 5.26a1.91 1.91 0 1 1-.001 3.82 1.91 1.91 0 0 1 .001-3.82ZM30.673 3.021a1.91 1.91 0 1 1-.002 3.819 1.91 1.91 0 0 1 .002-3.819Zm28.273-1.368a1.91 1.91 0 1 1-.002 3.819 1.91 1.91 0 0 1 .002-3.82ZM39.745.48a1.91 1.91 0 1 1-.002 3.819 1.91 1.91 0 0 1 .002-3.82ZM49.483 0a1.91 1.91 0 1 1-.002 3.819A1.91 1.91 0 0 1 49.483 0Z" fill="url(#a)"/></svg>