<svg viewBox="0 0 90 90" xmlns="http://www.w3.org/2000/svg"><g fill="none" fill-rule="evenodd"><path fill="#FFF" d="M0 0h90v90H0z"/><path d="M74.262 19.936 51.524 6.66a13.05 13.05 0 0 0-6.82-1.652 13.66 13.66 0 0 0-6.86 1.652l-22.39 13.276A14.69 14.69 0 0 0 9 31.744v26.512a14.69 14.69 0 0 0 6.494 11.808L38.048 83.34a12.928 12.928 0 0 0 6.677 1.652 12.54 12.54 0 0 0 6.677-1.652L74.14 70.105A15.852 15.852 0 0 0 81 58.297V31.785a14.403 14.403 0 0 0-6.738-11.849Zm-13.15 38.36c-.21.142-.461.207-.713.184a1.893 1.893 0 0 1-1.465-.897l-9.018-18.212-9.018 18.171a1.77 1.77 0 0 1-1.465.897c-.184 0-.57 0-.713-.183a1.674 1.674 0 0 1-.672-2.264l10.178-20.19-3.44-6.872-14.25 28.714a1.611 1.611 0 1 1-2.87-1.468L43.3 24.647a1.384 1.384 0 0 1 1.466-.897 1.69 1.69 0 0 1 1.466.897l3.704 7.668 1.812 3.426 10.178 20.394a1.674 1.674 0 0 1-.814 2.162Z" fill="#263238" fill-rule="nonzero"/></g></svg>