<svg viewBox="0 0 90 90" xmlns="http://www.w3.org/2000/svg"><path d="M15.695.96a448.12 448.12 0 0 1 58.61 0A15.802 15.802 0 0 1 89.04 15.695a448.12 448.12 0 0 1 0 58.61A15.802 15.802 0 0 1 74.305 89.04a448.12 448.12 0 0 1-58.61 0A15.802 15.802 0 0 1 .96 74.305a448.12 448.12 0 0 1 0-58.61A15.802 15.802 0 0 1 15.695.96Zm39.882 35.462.527 1.17a.785.785 0 0 0 .719.463l13.644-.047a.785.785 0 0 0 .76-.97 37.274 37.274 0 0 0-.959-3.357c-3.613-11.067-12.52-17.75-25.011-17.75-16.74 0-26.81 12.04-26.81 29.209 0 17.17 10.07 29.208 26.81 29.208 12.534 0 21.456-6.728 25.046-17.857.412-1.23.744-2.404.995-3.523a.787.787 0 0 0-.766-.957l-13.639.007a.785.785 0 0 0-.72.472l-.516 1.188a15.8 15.8 0 0 1-.34.729c-1.98 3.952-5.287 6.083-9.875 6.083-3.803 0-6.71-1.456-8.738-4.184-2.01-2.703-3.111-6.62-3.111-11.166s1.1-8.463 3.11-11.166c2.03-2.728 4.936-4.185 8.74-4.185 4.555 0 7.845 2.1 9.83 5.998.105.207.207.418.304.635Z" fill="#FF7A34"/></svg>