<svg viewBox="0 0 90 90" xmlns="http://www.w3.org/2000/svg"><g fill="none" fill-rule="evenodd"><path fill="#54575A" d="M0 0h90v90H0z"/><path d="M63.305 28.056v.504a5.962 5.962 0 0 1 3.51 2.41 9.216 9.216 0 0 1 1.19 5.026c0 2.308-.354 4.6-1.041 6.8a50.613 50.613 0 0 1-3.028 7.474l-1.411 3.12-6.947-16.964a19.714 19.714 0 0 1-.854-2.485 9.391 9.391 0 0 1-.335-1.98 3.206 3.206 0 0 1 .838-2.298 3.168 3.168 0 0 1 2.208-1.028v-.504H36.484v.504c.713.131 1.402.37 2.043.71a5.46 5.46 0 0 1 1.616 1.7A23.017 23.017 0 0 1 42 34.651l3.27 7.847-5.907 11.751-8.804-20.55a7.309 7.309 0 0 1-.558-1.29 5.185 5.185 0 0 1-.13-.99 2.55 2.55 0 0 1 .632-1.7 4.38 4.38 0 0 1 1.857-1.196v-.467H11v.504a10.652 10.652 0 0 1 4.57 2.822 24.925 24.925 0 0 1 4.011 6.39L33.103 68h.557l12.185-24.288L56.265 68h.557l12.39-26.903a43.69 43.69 0 0 1 4.94-8.65A13.557 13.557 0 0 1 79 28.486V28H63.305v.056Z" fill="#FFF"/></g></svg>