<svg viewBox="0 0 90 90" xmlns="http://www.w3.org/2000/svg"><defs><linearGradient x1="50%" y1="0%" x2="50%" y2="100%" id="a"><stop stop-color="#5CAED3" offset="0%"/><stop stop-color="#153E8D" offset="100%"/></linearGradient></defs><g fill="none" fill-rule="evenodd"><path fill="url(#a)" d="M0 0h90v90H0z"/><path d="M36.641 35.337c0-5.293-4.399-7.824-11.423-7.824H20.51v16.182c.927.078 2.161.155 4.94.155 6.56 0 11.191-3.222 11.191-8.513M6 62.487h5.79V27.513H6v-7.747h19.682c11.654 0 19.99 4.986 19.99 15.263 0 6.52-4.014 11.506-9.571 13.729l7.795 13.729h5.79v7.746H37.953L27.765 51.06c-1.08.076-2.083.153-3.087.153-1.62 0-3.087 0-4.168-.077v11.352h6.33v7.746H6v-7.747Zm47.433-1.38c0-2.148 1.235-3.528 2.856-3.528 1.39 0 2.624 1.15 2.624 2.606 0 1.229-.694 2.302-1.698 2.915 1.544 2.685 6.02 5.14 12.117 5.14 7.719 0 12.58-4.373 12.58-10.661 0-6.365-5.865-9.128-12.194-11.658-7.64-2.993-14.433-6.137-14.433-14.265C55.285 24.292 61.38 19 70.027 19c7.794 0 14.046 4.756 14.046 9.357 0 1.994-1.312 3.22-2.778 3.22-1.467 0-2.7-1.148-2.7-2.684 0-1.15.617-2.069 1.465-2.76-1.312-2.454-5.942-4.371-10.187-4.371-6.792 0-11.502 4.142-11.502 9.664 0 6.441 5.79 8.973 12.581 11.657C78.362 45.998 85 49.295 85 57.347 85 65.63 78.285 71 69.177 71c-9.57 0-15.744-5.523-15.744-9.893" fill="#FFF" fill-rule="nonzero"/></g></svg>