<svg viewBox="0 0 90 90" xmlns="http://www.w3.org/2000/svg"><defs><linearGradient x1="6.318%" y1="33.761%" x2="142.171%" y2="33.761%" id="a"><stop stop-color="#FF7028" offset="0%"/><stop stop-color="#FFCD4D" offset="100%"/></linearGradient><linearGradient x1="116.707%" y1="100.001%" x2="-55.541%" y2="100.001%" id="b"><stop stop-color="#FF7028" offset="0%"/><stop stop-color="#FFCD4D" offset="100%"/></linearGradient><linearGradient x1="106.691%" y1="57.144%" x2="-22.303%" y2="57.144%" id="c"><stop stop-color="#FF7028" offset="0%"/><stop stop-color="#FFCD4D" offset="100%"/></linearGradient><linearGradient x1="9.106%" y1="0%" x2="75.43%" y2="0%" id="d"><stop stop-color="#C44100" offset="0%"/><stop stop-color="#C84300" stop-opacity="0" offset="100%"/></linearGradient><linearGradient x1="364.699%" y1="223.15%" x2="107.343%" y2="263.484%" id="e"><stop stop-color="#FF7028" offset="0%"/><stop stop-color="#FFCD4D" offset="100%"/></linearGradient></defs><g fill="none"><path d="M22.388 35.6A19.874 19.874 0 0 1 39.87 25.157H90c0 13.894-11.23 25.156-25.084 25.156H14.441L22.388 35.6Z" fill="url(#a)" transform="translate(0 7)"/><path d="M22.388 14.714A19.873 19.873 0 0 0 39.87 25.157H90C90 11.263 78.77 0 64.916 0H14.441l7.947 14.714Z" fill="url(#b)" transform="translate(0 7)"/><path d="M20.581 38.865a26.084 26.084 0 0 1 22.957-13.713l18.405.005-22.006 40.747A21.116 21.116 0 0 1 21.36 77L0 76.998l20.581-38.133Z" fill="url(#c)" transform="translate(0 7)"/><path d="M26.776 13.295C18.506 1.514 4.988.066 0 0h33.995s-4.857 8.951-7.22 13.295Z" opacity=".6" transform="translate(14.349 57.352)" fill="url(#d)" style="mix-blend-mode:multiply"/><path d="M39.846 25.163A19.874 19.874 0 0 0 22.343 35.62c-3.88 7.203-7.902 14.69-7.902 14.69h33.914l13.581-25.147h-22.09Z" fill="url(#e)" transform="translate(0 7)"/></g></svg>