<svg viewBox="0 0 90 90" xmlns="http://www.w3.org/2000/svg"><g fill="none" fill-rule="evenodd"><path d="M90 34.31c0 15.502-3.712 30.2-14.85 30.2-3.133 0-6.453-2.408-9.958-7.225a.31.31 0 0 0-.56.182v24.296c0 .683-.554 1.237-1.237 1.237H49.783a1.237 1.237 0 0 1-1.238-1.237V9.046c0-.683.554-1.237 1.238-1.237h13.612c.683 0 1.237.554 1.237 1.237v5.789c.204-.067.218-.133.245-.193 1.11-2.504 2.129-4.184 3.06-5.04C75.15 2.961 90 8.281 90 34.31Zm-20.084-9.86c-.747 0-1.194.296-1.995 1.647-1.373 2.313-2.297 6.102-2.335 10.213-.037 4.08.806 7.77 2.098 9.97.753 1.283 1.223 1.59 2.232 1.59 1.01 0 1.48-.307 2.232-1.59 1.293-2.2 2.135-5.89 2.098-9.97-.037-4.111-.962-7.9-2.334-10.213-.801-1.35-1.248-1.648-1.996-1.648Z" fill="#151311"/><path d="M21.321 7.192c27.843 0 29.008 57.318 0 57.318s-27.843-57.318 0-57.318Zm0 16.025c-.903 0-1.443.32-2.411 1.777-1.66 2.496-2.777 6.584-2.822 11.02-.044 4.402.973 8.383 2.536 10.757.91 1.384 1.478 1.715 2.697 1.715 1.22 0 1.788-.331 2.698-1.715 1.562-2.374 2.58-6.355 2.535-10.758-.045-4.435-1.162-8.523-2.821-11.019-.968-1.457-1.508-1.777-2.412-1.777Z" fill="#BA1425" fill-rule="nonzero"/></g></svg>