<svg viewBox="0 0 90 90" xmlns="http://www.w3.org/2000/svg"><g fill="none" fill-rule="evenodd"><path fill="#2E3340" d="M0 0h90v90H0z"/><g fill="#FFF" fill-rule="nonzero"><path d="M69.284 37.706c-1.78-.22-3.532-.33-5.21-.326-5.453.013-14.77 1.748-14.77 9.028l1.74.34a6.418 6.418 0 0 0 0 .948v1.652l-1.74-.124c.462 6.572 4.296 8.388 7.907 8.485 1.727 0 3.354-.186 4.946-.924a.262.262 0 0 0 .125-.126.276.276 0 0 0-.076-.33.251.251 0 0 0-.166-.054c-3.329.486-6.736-2.23-6.736-7.99 0-7.29 5.775-10.093 14.05-10.093.188.025.212-.437-.07-.486ZM51.151 50.633h2.769c.226 1.955 1.007 4.23 2.4 5.569a5.671 5.671 0 0 1-3.417-1.758c-.912-.972-1.628-2.461-1.752-3.811Zm3.082-6.146c0 .243-.187.68-.281 1.118H52.85a13.962 13.962 0 0 1-1.758-.194.579.579 0 0 0 0-.17c.726-3.913 4.454-5.542 8.064-6.222a8.36 8.36 0 0 0-3.059 2.156 8.75 8.75 0 0 0-1.864 3.312Z"/><path d="M73.047 31.881c-7.302-2.13-38.048-4.71-38.048 13.126 1.035.152 1.754.386 2.308.462-.074 1.358 0 2.846 0 4.224l-2.77-.469c0 10.327 7.232 13.58 12.936 13.58a21.002 21.002 0 0 0 2.817-.203c2.35-.27 4.63-1.012 6.716-2.184a.277.277 0 0 0 .098-.137.292.292 0 0 0-.09-.313.256.256 0 0 0-.153-.058c-4.814 1.016-11.41-.355-11.41-12.341 0-15.948 21.434-14.9 27.668-15.154a.27.27 0 0 0 .126-.12.293.293 0 0 0-.046-.335.26.26 0 0 0-.152-.078Zm-25.55 29.578c-2.768.185-5.497-.77-7.612-2.665-2.114-1.895-3.45-4.58-3.725-7.493 1.83.254 4.164.457 6.114.558a11.865 11.865 0 0 0 1.728 5.634 11.057 11.057 0 0 0 4.17 3.966h-.674ZM43.02 42.184c-.144.559-.36 1.55-.553 2.413l-2.889-.305-2.912-.38c0-9.326 14.486-12.525 20.024-12.525-7.51 1.854-12.442 5.668-13.67 10.721v.076Z"/><path d="M76.804 26.606c-8.897-3.168-18.99-4.725-28.422-4.599-13.635 0-30.92 4.225-31.382 18.776l3.692.938c-.461 1.878-.461 5.633-.461 5.633s-2.105-.648-3.231-.939C17 63.626 26.68 68 35.996 68c3.762.011 7.495-.67 11.016-2.01a.266.266 0 0 0 .147-.303.267.267 0 0 0-.097-.151.26.26 0 0 0-.17-.054c-2.898 0-5.197.968-9.795-2.42-8.932-6.512-7.83-23.457 2.395-30.84 10.537-7.794 33.312-5.374 37.216-5.132a.241.241 0 0 0 .25-.104.249.249 0 0 0-.066-.343.243.243 0 0 0-.088-.037ZM36.09 66.547c-11.064 0-16.718-6.248-17.245-18.254 3.004.787 5.838 1.574 8.911 2.012a18.568 18.568 0 0 0 4.479 12.853 13.574 13.574 0 0 0 5.604 3.413l-1.749-.024Zm25.074-41.805c-13.483 0-29.104 1.7-32.166 16.98 0 0-8.307-1.409-10.153-1.878 2.308-19.245 34.151-17.793 47.073-15.102h-4.754Z"/></g></g></svg>