<svg viewBox="0 0 90 90" xmlns="http://www.w3.org/2000/svg"><defs><radialGradient cx="0%" cy="50.014%" fx="0%" fy="50.014%" r="55.23%" gradientTransform="scale(.83333 1)" id="a"><stop stop-color="#FFF" offset="0%"/><stop stop-color="#99D9E8" offset="100%"/></radialGradient><radialGradient cx="48.72%" cy="-9.043%" fx="48.72%" fy="-9.043%" r="107.144%" gradientTransform="matrix(.50374 0 0 1 .242 0)" id="b"><stop stop-color="#CCEBB9" offset="0%"/><stop stop-color="#66BB50" offset="100%"/></radialGradient></defs><g fill="none"><path d="M45 0C20.777 0 1.793 30.837 0 56.857 7.594 70.042 25.945 75 45 75s37.406-4.958 45-18.143C88.207 30.837 69.223 0 45 0Z" fill="url(#a)" transform="translate(0 7)"/><path d="M82.969 55.274c.035 4.22-4.324 7.525-11.39 10.443-7.067 2.813-16.876 5.24-27.634 5.17-10.758.07-20.566-2.357-27.633-5.17C9.247 62.8 4.922 59.46 4.922 55.274c.035-4.149 4.183-9.529 11.18-14.486 6.96-4.888 16.77-9.318 27.808-9.213 11.04-.14 20.848 4.325 27.809 9.213 7.066 4.957 11.18 10.372 11.25 14.486Z" fill="url(#b)" transform="translate(0 7)"/><path d="M60.645 60.34c0 4.325-7.454 7.841-16.665 7.841-9.21 0-16.664-3.516-16.664-7.84 0-4.326 7.454-7.842 16.664-7.842 9.211 0 16.665 3.516 16.665 7.841Z" fill="#695114" opacity=".64"/><path d="M41.484 26.093c1.407 5.52-4.464 8.052-7.523 12.201-5.309 6.68-8.93 20.218.281 25.738.352.211.703.387 1.09.563 5.309 2.39 12.902 1.723 18.035-.774 2.285-1.125 4.465-2.848 4.922-5.309.703-3.657-3.727-5.028-3.55-8.65.105-1.582.562-2.778 1.406-4.149 1.23-2.074 1.792-6.329-1.653-6.61.176 1.476-2.25 5.907-4.394 4.114-1.301-1.055.21-3.446.492-4.642 1.476-6.75-1.582-15.823-9.88-17.51" fill="#FF7F00"/><path d="M49.184 55.383c.21.949.175 2.004 0 2.988a6.757 6.757 0 0 1-1.02 2.637 5.95 5.95 0 0 1-.984 1.126c-.176.14-.352.316-.563.422-.21.105-.457.105-.703.175-.422.106-.809.176-1.23.176-.457.035-.914-.035-1.336-.07h-.282c-.914 0-1.828-.457-2.601-.844a9.366 9.366 0 0 1-2.32-1.688c-2.989-3.024-3.34-7.032-1.512-10.619 1.582-3.094 4.746-5.344 6.328-8.403.246-.493.598-1.196.633-1.758.07-.739.14-1.548-.176-2.216.035.07.598.247.703.317.176.14.316.351.422.562.21.458.21.985.14 1.442a4.892 4.892 0 0 1-.456 1.547c-.317.633-.387 1.336-.704 1.97-.246.562-.457 1.16-.808 1.687-.387.527-.738 1.09-.88 1.723-.21.844-.35 1.723-.386 2.567-.035 1.125.703 2.215 1.266 3.2.668 1.16 1.652 1.722 3.058 1.3 1.793-.562 3.235-2.637 3.938-4.149-1.371 2.919-1.09 3.165-.527 5.908Z" fill="#FF0"/><path d="M42.785 60.41c-1.265-.105-2.25-.843-2.601-1.968-.352-1.126-.739-2.848-.422-3.938.105-.422.351-.81.457-1.266.105-.493.035-1.16.457-1.512.176-.14.246 1.16.246 1.23 0 .211-.106.563-.035.774.175.352.351.105.492.21.527.458.773 1.618 1.125 2.286 1.02 1.934 2.566 2.602 4.324.844-.422 1.055-1.512 2.11-2.777 2.637" fill="#FFF" opacity=".75"/><path d="M78.96 54.328C74.497 52.85 71.649 65.72 64.09 70.36c-7.067 4.325-16.594 5.626-21.55 7.244 12.198.457 22.534-2.32 30.937-5.767 6.609-2.742 14.308-8.685 5.484-17.51M10.969 69.342c-7.172-4.712 7.91-20.359 10.652-24.543-3.48.527-11.496 7.63-13.605 10.689-3.727 5.45-4.922 9.67 2.39 14.1" fill="#695114" opacity=".15"/></g></svg>