<svg viewBox="0 0 90 90" xmlns="http://www.w3.org/2000/svg"><g fill="#E6201A"><path d="M45 0C20.147 0 0 20.147 0 45s20.147 45 45 45 45-20.147 45-45S69.853 0 45 0Zm0 82.762C24.145 82.762 7.238 65.855 7.238 45S24.145 7.238 45 7.238 82.762 24.145 82.762 45A37.762 37.762 0 0 1 45 82.762Z"/><path d="m49.691 43.41 4.883-4.73-2.317-2.297a10.33 10.33 0 0 0-14.811.191L26.234 48.322a11.001 11.001 0 0 0 7.956 18.604h24.214a9.038 9.038 0 0 0 7.076-3.83 9.345 9.345 0 0 0 1.149-2.528s2.48-6.424-4.07-13.251l-5.285 4.692 1.226 1.493a3.83 3.83 0 0 1 .44 4.194 4.29 4.29 0 0 1-3.887 2.374H35.062s-7.42-.66-2.509-7.602L43.44 41.333a3.14 3.14 0 0 1 3.888 0l2.364 2.078Z"/><path d="m40.433 46.455-4.845 4.73 2.279 2.279a10.34 10.34 0 0 0 14.793-.201l11.23-11.72a11.001 11.001 0 0 0-7.956-18.564H31.73a9.029 9.029 0 0 0-7.076 3.83 9.345 9.345 0 0 0-1.149 2.527s-2.441 6.386 4.07 13.213l5.285-4.692-1.264-1.474a3.83 3.83 0 0 1-.44-4.194 4.29 4.29 0 0 1 3.887-2.374h20.01s7.42.651 2.557 7.592L46.676 48.533a3.121 3.121 0 0 1-3.83 0l-2.413-2.078Z"/></g></svg>