<svg viewBox="0 0 90 90" xmlns="http://www.w3.org/2000/svg"><g fill="none"><path d="M3.143 60.438c-4.144-1.757-4.19-4.81-.14-6.751l82.966-39.81c4.05-1.942 5.261-.555 2.654 3.144L49.98 71.81c-2.56 3.654-8.101 5.226-12.198 3.469L3.143 60.438Zm67.043-4.116c-.186.833-1.862 1.526-3.771 1.526-.652 0-1.21.324-1.304.786l-.14.786h4.656l-.14.786h-6.936l.279-1.525c.186-.833 1.862-1.526 3.771-1.526.652 0 1.21-.324 1.304-.786l.326-1.526c.093-.416-.373-.786-1.025-.786-.651 0-1.21.37-1.303.786l-.14.786h-2.328l.14-.786c.186-.832 1.862-1.526 3.771-1.526 1.909 0 3.352.694 3.166 1.526l-.326 1.48Zm7.496 3.838h-2.328l.466-2.312h-1.164c-1.91 0-3.353-.693-3.166-1.526l.605-3.051h2.328l-.605 3.051c-.094.417.372.786 1.024.786h1.164l.745-3.837h2.328l-1.397 6.89Z" fill="#EB2136"/><path d="M21.626 53.363c-2.42 0-4.609.879-4.795 1.942l-.559 2.913c-.232 1.064 1.583 1.942 4.05 1.942 2.422 0 4.563-.878 4.796-1.942h-2.933c-.093.555-.838.971-1.63.971-.837 0-1.396-.416-1.303-.97l.559-2.914c.093-.555.838-.97 1.676-.97s1.396.415 1.257.97h2.933c.186-1.063-1.63-1.942-4.05-1.942Zm8.939-1.479h-2.933l-1.257 6.334c-.232 1.064 1.583 1.942 4.05 1.942l.187-.97c-.838 0-1.397-.417-1.304-.972l.792-3.884h1.49l.186-.97h-1.49l.28-1.48Zm4.423.231c.932 0 1.77-.324 1.863-.74.093-.416-.605-.74-1.583-.74-.931 0-1.77.324-1.862.74-.047.416.651.74 1.582.74Zm-3.026 8.045h2.933l1.35-6.797h-2.933zm10.988-1.942c-.093.555-.838.971-1.63.971h-1.49l1.164-5.826h-2.933l-1.35 6.843h4.423c2.421 0 4.563-.878 4.796-1.942l.977-4.855h-2.933l-1.024 4.81Zm9.963-4.855c-2.42 0-4.61.879-4.795 1.942l-.559 2.913c-.233 1.064 1.583 1.942 4.05 1.942 2.422 0 4.563-.878 4.796-1.942h-2.933c-.093.555-.838.971-1.676.971s-1.397-.416-1.304-.97l.186-.972h5.913l.373-1.942c.186-1.063-1.583-1.942-4.05-1.942Zm1.118 1.942-.187.971h-2.933l.186-.97c.094-.556.838-.972 1.676-.972.839 0 1.35.416 1.258.971ZM11.29 53.363c-2.42 0-4.609.879-4.795 1.942l-.559 2.913c-.232 1.064 1.583 1.942 4.051 1.942h.466l1.164-.878-.187.878h2.933l1.35-6.843h-4.422v.046Zm.327 5.826h-1.49c-.838 0-1.397-.416-1.304-.97l.559-2.914c.093-.555.838-.97 1.676-.97h1.49l-.931 4.854Z" fill="#FFF"/></g></svg>