<svg viewBox="0 0 90 90" xmlns="http://www.w3.org/2000/svg"><g fill="none" fill-rule="evenodd"><path fill="#000" d="M0 0h90v90H0z"/><path d="M33.817 17c1.03 0 1.932.277 2.716.831.78.549 1.177 1.151 1.177 1.808V71.43c0 .758-.378 1.37-1.139 1.856-.76.471-1.677.714-2.754.714-1.124 0-2.04-.243-2.75-.714C30.36 72.81 30 72.188 30 71.435V19.639c0-.657.368-1.254 1.106-1.808.732-.554 1.634-.831 2.711-.831Zm22.22 20.267c1.129 0 2.068.233 2.825.714.755.472 1.138 1.083 1.138 1.842v31.233c0 .656-.392 1.253-1.176 1.807-.78.555-1.71.831-2.787.831s-1.976-.276-2.675-.83c-.717-.555-1.072-1.152-1.072-1.808V47.825l-4.081 2.6c-.463.437-1.162.553-2.084.34-.935-.219-1.753-.733-2.484-1.555-.728-.816-1.14-1.681-1.219-2.59-.085-.917.113-1.589.576-2.03l10.322-6.61c.69-.48 1.592-.714 2.717-.714Z" fill="#FFF"/></g></svg>