<svg viewBox="0 0 90 90" xmlns="http://www.w3.org/2000/svg"><g fill="none" fill-rule="evenodd"><path fill="#FFF" d="M0 0h90v90H0z"/><path d="M76.976 39.653c.243 1.701.486 3.403.486 5.347 0 19.201-15.076 35-33.799 35-8.997 0-17.264-3.646-23.587-9.479 4.863-1.701 6.322-3.16 8.754-5.104 5.106 4.132 11.429 6.563 18.48 6.563 16.292 0 29.666-13.611 29.666-30.625v-1.702ZM27.303 53.506l.068.001c1.702 0 3.161 3.16 3.161 4.132 0 .944-.458 2.574-3.153 5.336l-.251.254c-2.326 2.325-5.542 3.76-8.583 4.732l-.414.13C13.024 69.549 7.675 70.035 5 70.035c3.024-3.72 5.602-6.772 7.949-8.945l.319-.291c2.801-2.8 5.378-4.48 7.301-5.47l.237-.12c3.54-1.887 5.706-1.714 6.497-1.702v-.001Zm21.953-2.916c0 .972.243 1.701.243 2.431 0 .243 0 .486-.243.972v.972c0 8.264-5.106 12.639-7.538 14.34v-1.458c0-1.944-.243-4.132-.729-5.833 0-.243-.243-.729-.243-.972s-.243-.729-.243-.972c-.243-.729-.243-1.215-.486-1.701 0-.243-.243-.486-.243-.729s-.243-.486-.243-.729-.243-.486-.243-.729c.243-.243.243-.243.486-.243.729-.486 1.216-.729 1.945-.972.486-.243.973-.243 1.216-.486 2.675-1.458 5.106-2.917 6.322-3.889l-.001-.002Zm-28.45 6.319c-2.814 1.641-5.401 4.411-6.455 5.697l-.111.137c-.243.243-.243.486-.243.486s.186-.186.396-.233l.091-.01c1.216-1.215 4.62-4.132 7.052-4.861.113 0-.197.953-.56 1.969l-.158.437-.741 1.969s3.891-2.674 3.891-2.917c.729-.486 1.216-.972 1.702-1.458.243-.243.486-.486.729-.486 0-.216.192-.432.406-.477l.081-.009.223-.223.324-.324.162-.162.02-.02c0-.243-.243-.243-.243-.486-1.216-1.458-4.863 0-6.565.972l-.001-.001ZM43.419 10c2.675 0 5.35.243 8.024.972-1.459 0-2.675-.243-4.134-.243-16.292 0-29.666 13.611-29.666 30.625 0 3.889.486 7.535 1.945 10.938-2.432 1.215-5.836 3.403-7.781 5.59C10.593 53.993 9.62 49.618 9.62 45c0-19.201 15.319-35 33.799-35Zm31.125 4.375c-.973 1.701-2.675 4.132-5.836 7.049l-.243.243c-.243.243-.243.486-.243.729 0 .972.729 1.944 1.459 2.431 1.216.972 2.432 1.215 3.404.486l.243-.243c3.522-2.347 5.91-6.053 7.165-9.806l.13-.402c1.945 0 3.404.486 4.377.729-6.809 17.5-19.696 27.708-29.422 33.299-1.216.729-2.188 1.215-3.161 1.701 0-.972-.486-2.917-.729-4.375 0-.243-.486-.486-.729-.243-4.377 3.403-8.511 5.833-14.59 8.264-.243.243-.486.486-.243.972.243.243.486.729.486 1.215-1.216.243-2.675.729-3.161.729-.243-1.944-1.702-4.375-3.161-5.347.486-.972 1.459-2.674 2.188-3.889.243-.243.243-.486.486-.972.243-.243.243-.486.486-.729 1.945-2.674 4.134-6.076 7.052-9.479.243-.243.486-.486.486-.729.243-.243.486-.486.486-.729 5.35-6.319 12.158-12.882 18.967-16.528 4.62-2.431 9.24-3.889 14.103-4.375v-.001ZM23.237 36.493c2.675-1.215 8.267-2.917 14.347-.729-.486.729-4.134 5.347-5.836 8.021-1.702-2.431-4.134-5.104-8.511-7.292Zm28.693.729c-1.702 0-2.918 1.458-2.918 3.16-.235 1.645 1.12 3.062 2.749 3.155l.169.005c1.702 0 2.918-1.458 2.918-3.16 0-1.702-1.459-3.16-2.918-3.16Zm6.565-5.347c-1.459 0-2.918 1.458-2.918 3.16 0 1.702 1.216 3.16 2.918 3.16 1.702 0 3.161-1.215 2.918-3.16 0-1.701-1.216-3.16-2.918-3.16Zm6.565-5.104c-1.702 0-2.918 1.458-2.918 3.16 0 1.702 1.216 3.16 2.918 3.16 1.702 0 2.918-1.458 2.918-3.16 0-1.702-1.216-3.16-2.918-3.16Z" fill="#17202D"/></g></svg>