<svg viewBox="0 0 90 90" xmlns="http://www.w3.org/2000/svg"><g fill="none" fill-rule="evenodd"><path fill="#17A0D8" d="M0 0h90v90H0z"/><g fill="#040404" fill-rule="nonzero"><path d="M15.644 72.122c-.373-1.422-.572-2.792-.733-4.167-.612-5.216-.066-10.294 1.94-15.165 3.145-7.64 8.517-13.207 15.915-16.837 3.657-1.794 7.52-2.966 11.548-3.753.24.303.137.667.177.994.074.602.099 1.211.185 1.812.062.444-.107.593-.533.692-2.68.63-5.293 1.47-7.813 2.587C29.662 41.24 24.525 45.84 21.229 52.4c-2.206 4.39-3.144 9.043-2.867 13.95.076 1.331.213 2.653.456 3.962.079.427.003.684-.463.832-.88.28-1.74.623-2.71.978m13.842 9.747c.032-1.014.077-1.939.082-2.863.002-.437.177-.572.6-.641 2.606-.424 5.157-1.073 7.578-2.144 8.822-3.903 14.518-10.495 16.955-19.851.973-3.74 1.123-7.55.84-11.385-.017-.232-.035-.463-.038-.695-.006-.398-.29-.887 0-1.165.26-.246.748-.254 1.14-.355.67-.173 1.342-.335 2.064-.514.298 1.365.388 2.717.468 4.064.168 2.839.089 5.668-.337 8.491-.975 6.465-3.687 12.079-8.126 16.864-4.751 5.122-10.65 8.169-17.44 9.593a38.183 38.183 0 0 1-3.786.6M58.76 24.631c.3.01.449-.155.619-.258 4.057-2.44 8.28-4.584 12.415-6.881.258-.144.478-.235.778-.04.887.579 1.796 1.12 2.756 1.713-.231.234-.489.322-.722.442-5.234 2.712-10.466 5.425-15.706 8.124a2.654 2.654 0 0 0-1.065.964c-1.944 3.022-3.907 6.03-5.866 9.042-.35.538-.356.538-.872.225-.551-.336-1.1-.676-1.649-1.02-.538-.336-.542-.34-.206-.858 1.237-1.908 2.477-3.814 3.716-5.722.745-1.149 1.482-2.303 2.242-3.444.223-.334.336-.672.36-1.075.353-5.758.718-11.517 1.08-17.275.016-.254.035-.506.058-.824.817.374 1.466.952 2.231 1.292.903.401 1.081.998.995 1.943-.339 3.736-.581 7.482-.874 11.222-.062.798-.188 1.591-.29 2.43"/><path d="M37.513 49.113c-.141 1.39-1.767 3.237-3.126 3.518-1.019.21-1.894-.09-2.58-.872-.653-.745-.774-1.617-.411-2.515.47-1.162 1.262-2.08 2.395-2.641.897-.444 1.8-.366 2.63.212.795.554 1.215 1.3 1.092 2.298m10.169 6.61c-.122 1.429-1.762 3.304-3.166 3.578-.983.192-1.834-.097-2.516-.837-.657-.715-.764-1.576-.439-2.433.467-1.227 1.299-2.202 2.5-2.768 1.765-.831 3.783.561 3.62 2.46"/></g></g></svg>