<svg viewBox="0 0 90 90" xmlns="http://www.w3.org/2000/svg"><g fill="none" fill-rule="evenodd"><path fill="#030708" d="M0 0h90v90H0z"/><g fill-rule="nonzero"><path d="M14 54.068c0 4.358 2.171 5.572 6.991 5.572h17.606c5.307 0 7.057-1.436 7.057-7.008v-4.078c0-5.572-1.75-7.008-7.057-7.008H20.982v-6.455h18.491v2.724l5.799-.002v-1.322c0-5.112-1.969-6.491-7.003-6.491H22.24c-5.307 0-7.002 1.436-7.002 7.008v3.274c0 5.572 1.696 7.008 7.002 7.008h17.616v6.777H14v.001Z" fill="#FFF"/><path fill="#ED1C24" d="M61.931 41.661h10.634v5.565H61.931z"/><path fill="#FFF" d="M56.504 35.055h18.484V30H49.939v29.64h25.323v-5.572H56.504z"/></g></g></svg>