<svg viewBox="0 0 90 90" xmlns="http://www.w3.org/2000/svg"><g fill="none" fill-rule="evenodd"><path fill="#FFF" d="M0 0h90v90H0z"/><path d="M20.067 51.052c0 .423.342.766.765.766h7.536a.766.766 0 0 0 .765-.766v-3.78h3.769c.422 0 .765-.282.765-.705v-3.072a.766.766 0 0 0-.765-.767h-12.07a.766.766 0 0 0-.765.767v7.557Zm0-16.648a.766.766 0 0 0-.766-.767h-7.536a.766.766 0 0 0-.765.767v7.557c0 .423.343.766.765.766h2.998a.77.77 0 0 0 .77-.766v-3.779h3.768c.423 0 .765-.287.765-.71v-3.068ZM24.6 61.676a.767.767 0 0 0-.766-.766h-3.005a.763.763 0 0 0-.762.766v3.002c0 .423.34.777.762.777h3.005a.776.776 0 0 0 .766-.778v-3Zm53.635-28.039h-7.536a.766.766 0 0 0-.765.767v3.011c0 .424.342.767.765.767h3.768v3.779c0 .423.342.766.765.766h3.003a.766.766 0 0 0 .765-.766v-7.557a.766.766 0 0 0-.765-.767Zm-9.067 9.091h-12.07a.766.766 0 0 0-.765.767v3.011c0 .424.343.767.765.767h3.769v3.779c0 .423.258.766.68.766h7.621a.766.766 0 0 0 .765-.766v-7.557a.766.766 0 0 0-.765-.767Zm-4.533 22.727h-3.768v-3.753c0-.423-.427-.793-.85-.793h-3.684v-8.323c0-.424-.419-.767-.841-.767H51.8v-8.254c0-.423-.411-.838-.833-.838H38.92c-.422 0-.72.415-.72.838v8.253h-3.805c-.423 0-.728.393-.728.816v8.275H29.87c-.423 0-.737.37-.737.793v3.753h-3.789c-.422 0-.744.358-.744.781v3.002c0 .423.322.762.744.762h7.521c.422 0 .802-.34.802-.762v-3.783h3.768a.753.753 0 0 0 .765-.752v-8.34h13.6v8.325c0 .423.274.767.697.767h3.836v3.778c0 .424.266.767.689.767h7.613a.766.766 0 0 0 .765-.767v-2.997a.78.78 0 0 0-.765-.781Zm4.525-4.545h-2.995a.766.766 0 0 0-.765.766v3.011c0 .424.343.768.765.768h2.995a.773.773 0 0 0 .773-.768v-3.01a.773.773 0 0 0-.773-.767Z" fill="#2A338F"/><path d="M29.88 33.636h30.204c.422 0 .765-.27.765-.693v-3.085a.766.766 0 0 0-.765-.767h-3.768v-3.778a.766.766 0 0 0-.765-.767h-3.769v-3.779a.766.766 0 0 0-.765-.767h-12.07a.766.766 0 0 0-.765.767v3.779h-3.768a.766.766 0 0 0-.765.767v3.778h-3.768a.766.766 0 0 0-.765.767v3.085c0 .423.342.693.765.693Z" fill="#00AFAA"/></g></svg>