<svg viewBox="0 0 90 90" xmlns="http://www.w3.org/2000/svg"><g transform="translate(17)" fill="none"><path d="M57 46.665c-.131-5.575-4.707-10.035-10.263-9.97-5.621.132-10.066 4.723-9.935 10.298.13 5.574 4.706 10.034 10.262 9.969 5.556-.066 10-4.723 9.935-10.297Zm-30.395 8.329c3.138-1.968 7.91.066 10.654 4.525 2.746 4.46 2.419 9.641-.719 11.609-3.137 1.967-7.909-.066-10.654-4.525-2.745-4.526-2.353-9.707.72-11.609ZM16.931 66.34c2.68-1.115 6.275 1.509 8.04 5.772 1.765 4.328 1.046 8.723-1.634 9.837-2.68 1.115-6.275-1.442-8.04-5.771-1.765-4.329-.98-8.723 1.634-9.838Zm-8.758 8.723c1.83-.721 4.575 2.033 6.144 6.165 1.503 4.132 1.242 8.001-.589 8.657-1.83.722-4.64-2.033-6.144-6.165-1.568-4.132-1.307-8.001.589-8.657Zm26.08-54.633c3.53 1.05 5.229 5.969 3.79 10.953-1.437 5.05-5.555 8.264-9.085 7.215-3.53-1.05-5.229-5.968-3.79-11.018 1.437-4.985 5.555-8.199 9.085-7.15ZM21.376 8.888c2.81.787 4.053 5.05 2.81 9.51-1.241 4.525-4.444 7.542-7.255 6.755-2.81-.787-4.052-4.985-2.81-9.576 1.242-4.46 4.51-7.476 7.255-6.69ZM11.637.034c1.96.393 2.81 4.197 1.895 8.526-.915 4.263-3.202 7.411-5.163 7.017-1.896-.393-2.811-4.197-1.896-8.526.98-4.328 3.268-7.41 5.164-7.017Z" fill="#0087E2"/><ellipse fill="#959BA1" transform="rotate(-1.064 19.807 45.417)" cx="19.807" cy="45.417" rx="5.556" ry="7.936"/><path d="M6.996 58.536c-.719-4.001.654-7.608 3.072-8.067 2.419-.394 4.902 2.492 5.621 6.558.72 4-.653 7.608-3.072 8.067-2.418.394-4.967-2.558-5.621-6.558Zm.458 7.935c-1.046-3.607-3.269-6.099-4.968-5.574-1.7.524-2.288 3.804-1.242 7.41 1.046 3.608 3.268 6.1 4.968 5.576 1.764-.46 2.287-3.804 1.242-7.412Zm7.516-34.235c-.065-3.935-2.026-7.149-4.314-7.083-2.287.065-4.052 3.28-3.987 7.214.066 3.935 1.961 7.083 4.249 7.083 2.353-.065 4.183-3.279 4.052-7.214ZM6.735 21.677C6.669 18.135 5.1 15.315 3.27 15.38c-1.83.065-3.333 2.951-3.268 6.427.065 3.542 1.634 6.362 3.464 6.296 1.896 0 3.334-2.886 3.269-6.427Z" fill="#959BA1"/></g></svg>