<svg viewBox="0 0 90 90" xmlns="http://www.w3.org/2000/svg"><g fill="none" fill-rule="evenodd"><path fill="#292929" d="M0 0h90v90H0z"/><path d="M27.077 18.343V74.08H14V18.354M59.958 29.24a7.244 7.244 0 0 0-5.03-1.634 6.67 6.67 0 0 0-4.9 1.753 5.768 5.768 0 0 0-1.776 4.267 4.252 4.252 0 0 0 2.035 3.771 22.01 22.01 0 0 0 5.156 2.362c2.08.686 4.304 1.386 6.672 2.1a27.58 27.58 0 0 1 6.672 3.01 16.228 16.228 0 0 1 5.16 5.133 15.416 15.416 0 0 1 2.037 8.382 14.673 14.673 0 0 1-1.6 6.934 15.876 15.876 0 0 1-4.418 5.219 20.162 20.162 0 0 1-6.716 3.314 30.09 30.09 0 0 1-8.496 1.147c-7.337 0-12.68-1.614-16.03-4.842a15.297 15.297 0 0 1-3.47-5.1l9.55-6.552 6.811 11.577 3.053-.847 3.053-.847-6.8-11.56h14.812L34.754 35.555c-.008-.161-.016-.322-.016-.485a17.844 17.844 0 0 1 1.343-7.048 14.83 14.83 0 0 1 3.9-5.41 17.377 17.377 0 0 1 6.2-3.428 26.621 26.621 0 0 1 8.231-1.181c5.95 0 10.585 1.257 13.908 3.771 3.322 2.514 5.474 6.49 6.455 11.925H61.947a6.25 6.25 0 0 0-1.994-4.458h.005Z" fill="#AED652" fill-rule="nonzero"/></g></svg>