<svg viewBox="0 0 90 90" xmlns="http://www.w3.org/2000/svg"><g fill="none"><path d="M85.926 26.295 27.484 55.367v10.366L.609 52.364c2.538 15.412 12.898 28.187 26.875 34.1A44.864 44.864 0 0 0 45 89.999C69.854 90 90 69.854 90 45a44.818 44.818 0 0 0-4.074-18.705" fill="#2D535A"/><path d="m27.484 34.635 47.172-23.466C66.736 4.223 56.363 0 45 0a44.865 44.865 0 0 0-17.517 3.538v31.097Z" fill="#B5E6E1"/><path d="M74.656 11.17 27.484 34.635V45L1.846 32.247A44.914 44.914 0 0 0 .61 52.363l26.874 13.37V55.365l58.443-29.072A45.136 45.136 0 0 0 74.656 11.17" fill="#54C6CC"/><path d="M27.484 76.098v10.366A44.864 44.864 0 0 0 45.001 90C69.852 90 90 69.852 90 45.001L27.484 76.098Z" fill="#2D535A"/><path d="M85.926 26.295 27.484 55.367v10.366L.609 52.364c2.538 15.412 12.898 28.187 26.875 34.1V76.097L89.999 45a44.818 44.818 0 0 0-4.073-18.705" fill="#1E8290"/><path d="M27.484 3.537C15.172 8.744 5.672 19.278 1.846 32.246L27.484 45V3.537Z" fill="#DBF3F1"/></g></svg>