<svg viewBox="0 0 90 90" xmlns="http://www.w3.org/2000/svg"><defs><linearGradient x1="41.522%" y1="50%" x2="100%" y2="50%" id="a"><stop stop-color="#6200A8" offset="0%"/><stop stop-color="#F00076" offset="100%"/></linearGradient></defs><g fill="none" fill-rule="evenodd"><path fill="#FFF" d="M0 0h90v90H0z"/><path d="M11 42.601V68h3.687c2.538-.18 7.494-1.375 7.676-8.665V42.362c0-4.96 3.506-8.366 8.645-8.366 7.494 0 8.28 5.856 8.28 8.366V68h3.687c2.539-.18 7.435-1.375 7.676-8.605V42.362c0-4.96 3.628-8.366 8.644-8.366 7.496 0 8.342 5.856 8.342 8.366V68h3.687c2.538-.18 7.556-1.375 7.676-8.785V42.601C79 31.068 71.687 23 59.235 23c-5.742 0-10.76 2.39-14.084 6.215C41.948 25.39 37.051 23 31.008 23 18.858 23 11 31.427 11 42.601" fill="url(#a)"/></g></svg>